<svg width="1270" height="1426" viewBox="200 600 370 526" fill="none" xmlns="http://www.w3.org/2000/svg">

<path d="M290.858 3.47559L293.336 6.36378L298.287 6.15852L301.795 5.95117L304.889 3.47559L308.189 2.23779L311.492 3.88819L314.998 9.0467L319.124 15.0304L324.49 21.2194L326.82 25.8409L333.835 30.3795L340.644 33.6802L346.42 39.0461L353.229 41.3143L358.593 46.8854L361.895 49.7736L367.464 50.3915L372.21 55.55L372.416 59.2633L371.385 62.3589L372.83 66.2796L375.306 69.993L380.875 71.6434H387.684L395.318 73.9137L399.856 78.0397L401.714 83.4034L403.777 87.1168L410.999 87.942L419.296 84.1498L426.472 82.3709H432.248L436.437 75.7693L441.183 71.6434L446.754 70.4056L451.292 68.5479L455.418 65.4544L462.64 64.8345L468.623 66.6922L472.337 68.7552L474.812 67.3101V61.9463L477.081 59.2633L480.796 58.2329L485.953 62.3589L488.635 65.4544L491.936 66.2796L498.333 67.7226L503.284 69.1678L507.41 67.3101L510.298 66.2796L512.981 70.6108L515.456 74.7389L518.964 76.5945L523.296 79.6901L524.534 82.9908L523.503 86.4989L524.121 90.2123L523.916 92.8932L522.06 96.4013L521.853 98.8769L519.79 101.765L519.377 104.861L519.582 110.224L517.932 114.35L516.282 118.271L515.044 121.159L514.219 125.698L511.123 127.35L507.739 128.835L503.408 130.898V135.024L501.758 137.707L497.837 137.499L493.504 137.707L491.441 139.562L491.853 141.833L493.711 145.133L494.768 149.458L492.963 157.194L488.708 161.836L486.129 162.867L482.003 161.836L477.361 160.29L474.522 161.579L470.396 162.353L467.948 163.126L466.915 165.577L467.817 169.186L469.366 172.41L471.172 175.377L474.008 180.018L473.235 182.856L471.041 184.79L467.948 186.078L467.431 188.916L467.817 192.269L466.826 193.754L473.23 199.64L473.595 203.117L478.391 205.047L488.13 205.69L488.374 207.295L485.745 213.33L485.639 215.988L489.811 220.61L490.794 225.051L493.489 227.259L494.833 231.835L494.012 235.086L489.786 236.177L483.892 241.25L481.555 239.39L479.15 240.033L475.833 242.415L474.875 247.153L472.478 246.558L469.351 248.633L466.639 247.389L460.844 241.853L460.085 237.114L460.807 235.55L459.314 230.535L455.342 232.938L454.095 235.1L450.589 234.831L448.016 236.836L446.588 236.514L444.832 237.715L444.767 239.987L443.538 239.069L440.411 241.822L439.026 240.182L439.924 239.09L439.814 236.616L443.814 234.271L442.7 231.771L443.057 227.157L439.424 228.391L439.775 229.675L436.182 231.914L433.559 231.41L432.211 233.29L430.992 232.277L429.775 234.219L428.411 233.637L428.492 235.876L426.182 236.154L422.74 230.686L423.254 226.942L421.77 226.461L420.325 223.736L416.584 221.864L417.832 219.776L414.459 216.359L412.409 215.628L411.892 216.998L408.88 217.802L406.087 220.705L404.567 220.749L403.294 222.024L400.354 220.798L399.008 223.898L397.766 224.176L396.782 222.42L394.748 221.271L393.904 221.848L393.444 220.282L391.082 218.453L389.882 219.335L389.457 215.914L386.788 216.279L385.069 214.925L383.469 215.445L379.956 213.173L378.206 209.02L376.784 209.119L375.005 206.882L376.085 202.198L374.976 202.7L373.913 201.717L372.917 202.039L371.812 205.657L367.346 206.53L365.389 204.239L363.896 204.102L360.492 205.632L357.133 205.281L352.07 209.548L350.434 213.229L344.199 214.659L343.702 216.515L337.78 220.819L334.365 218.501L331.799 218.522L331.222 221.588L334.656 224.493L336.335 227.4L335.645 230.792L336.818 233.222L334.602 236.684L331.641 241.252L329.107 241.799L327.615 244.777L319.701 248.32L318.488 252.044L318.009 250.298L317.032 249.923L317.227 248.772L314.743 249.579L310.721 248.911L305.216 245.436L304.913 244.455L302.784 244.959L300.317 241.611L298.32 240.995L295.834 243.261L289.585 240.781L283.643 241.36L281.202 234.897L282.679 232.49L281.547 229.388L283.583 223.156L281.192 224.02L279.987 227.369L276.399 228.242L273.942 229.766L267.958 229.146L265.07 227.083L260.736 225.02L257.436 221.924L252.277 220.069L247.946 216.973H241.344L239.899 213.88L237.629 211.815L234.741 209.339L235.978 204.183L234.123 200.467L233.503 194.073L235.773 191.39L234.123 184.788L235.153 182.311L235.361 179.217L232.265 176.122L232.472 173.234L234.535 170.758L232.883 164.362L229.789 161.268L229.995 155.285L229.377 150.456L227.314 145.299L228.139 140.141V136.633L230.82 133.744L235.361 132.507L238.867 131.064L239.074 127.143L241.755 122.397L244.643 121.984L251.659 121.779L254.135 119.921L255.785 113.732L257.643 109.812V105.686L253.927 101.972L248.771 99.7021L244.643 98.4643L242.167 96.6066L240.724 93.5131L241.55 90.2123L244.438 88.3546L245.676 85.879L243.613 81.3405L239.279 81.5457L234.328 80.9278L230.202 79.6901L222.981 79.0701L219.06 75.4811L217.204 71.7678L215.759 66.404L210.19 63.7211L203.794 62.2759L199.666 64.9589L195.129 65.1641L193.477 62.6885L193.271 58.15L194.304 55.8796L193.271 52.5789L194.097 49.2781L196.16 44.5322L201.111 41.0261L206.269 36.6928L211.015 31.5343L215.554 25.7579L217.412 19.9816L221.535 17.3007L227.932 17.9186L235.978 18.7438L245.058 19.1564L249.389 18.1238L245.47 13.7926L242.012 11.8851L243.731 9.41783L247.946 8.83937L251.659 12.1422L257.023 13.3779L259.704 10.0792L263.419 9.25403L266.925 7.60157L269.814 6.15852L274.354 3.88819L277.45 1.41261L281.988 1L285.494 1.61994L290.858 3.47559Z" fill="#E7E9EA" stroke="#D2D3D4" stroke-width="0.5"/>


<path d="M259.662 746.028L262.034 747.351L265.901 746.878L266.436 745.404L268.718 744.856L270.18 742.949L272.685 742.652L272.799 745.23L274.741 746.005L276.22 748.13L275.185 752.853L275.515 756.591L277.3 756.981L277.582 758.667L287.66 761.986L292.469 761.074L299.234 764.105L301.724 768.99L306.271 771.248L309.733 771.028L309.831 772.252L312.412 771.603L314.019 772.542L317.056 772.021L320.517 773.027L323.154 771.984L325.953 772.662L335.271 771.768L338.771 772.03L342.401 773.943L344.41 772.959L347.037 778.275L346.394 779.249L347.622 781.555L347.367 782.367L345.072 782.649L347.618 786.35L351.503 785.886L352.355 786.782L356.461 786.688L359.774 784.953L361.279 781.194L367.182 781.352L368.82 777.197L367.234 774.756L374.163 768.665L374.495 767.582L373.242 766.063L374.323 765.25L374.648 762.588L376.307 762.795L377.115 761.777L379.241 762.436L386.671 756.768L390.381 757.209L390.976 756.565L392.535 758.109L393.281 757L395.823 756.706L395.956 754.916L404.169 754.512L407.063 757.784L408.328 761.217L408.313 764.207L409.881 765.128L408.139 765.731L403.387 764.487L401.627 765.575L402.553 768.366L403.899 769.106L404.668 772.778L408.896 773.392L409.779 773.276L409.638 772.044L411.782 772.053L412.487 773.066L413.524 771.88L414.137 773.643L415.379 773.382L416.076 772.407L417.965 772.175L418.222 771.178L421.802 772.78L424.272 772.353L434.28 767.18L434.784 764.387L438.617 763.83L438.483 762.735L440.131 763.796L441.549 762.909L442.598 763.477L443.403 761.603L445.271 762.378L445.596 767.029L449.003 765.789L451.518 766.38L452.314 767.717L458.169 768.748L459.328 767.394L460.446 768.634L460.985 767.616L465.117 767.808L465.807 767.085L467.373 767.696L467.754 766.475L466.183 764.566L467.199 764.313L466.564 762.824L470.089 761.599L470.744 762.401L474.153 762.509L476.744 759.66L479.873 760.112L480.254 756.718L485.477 758.81L487.461 759.011L488.376 758.227L491.533 759.032L493.619 765.061L498.429 764.46L502.124 762.353L507.525 765.677L510.073 765.978L510.967 764.476L513.447 765.503L516.486 764.58L518.715 762.146L521.896 760.885L525.022 761.536L529.814 766.141L531.58 769.979L530.616 771.406L531.236 772.836L532.843 773.042L533.187 771.64L534.802 771.856L539.474 775.233L542.225 774.955L542.938 776.46L541.304 778.687L533.579 782.268L532.538 785.77L533.148 788.567L532.124 789.819L533.504 793.4L537.249 793.317L537.409 801.098L538.91 804.867L535.762 806.207L534.634 807.938L535.949 809.412L538.354 808.154L540.74 808.548L539.165 818.141L540.543 820.992L537.257 822.226L535.903 823.938L530.353 825.222L531.699 827.589L530.486 828.85L530.826 829.713L535.348 829.947L537.187 831.284L537.438 833.312L537.411 836.917L536.318 839.503L534.587 839.644L532.99 838.501L531.367 839.426L531.427 840.645L534.682 840.967L535.327 842.35L532.47 845.033L530.989 844.759L530.865 845.752L533.372 845.829L534.485 846.768L534.097 844.371L537.278 844.618L537.158 846.666L542.633 850.442L542.244 854.105L545.026 854.284L546.998 856.119L549.654 856.378L550.425 857.91L551.887 858.375L552.451 860.817L547.931 862.6L550.406 865.611L546.249 869.001L543.616 869.148L542.893 867.184L540.212 868.067L538.375 863.782L534.371 866.792L532.696 870.176L530.365 871.178L530.51 873.467L527.828 875.635L527.709 878.679L525.348 882.674L525.346 885.345L528.854 890.126L525.731 892.819L524.239 893.051L525.34 894.955L522.491 895.888L521.929 896.883L520.589 895.956L518.537 896.858L514.264 892.732L510.776 891.928L509.128 889.811L511.081 888.531L510.886 881.107L510.088 879.935L507.635 880.516L507.569 877.344L511.266 874.308L510.266 871.76L512.072 868.511L512.559 863.78L511.135 860.875L506.275 857.558L504.417 854.966L502.46 854.529L498.094 855.816L496.286 859.075L494.308 858.331L493.881 857.029L490.746 859.366L486.344 855.99L483.968 856.251L483.557 855.124L480.912 854.097L480.599 858.022L479.305 859.631L480.004 860.724L478.044 861.047L474.793 857.968L471.125 857.421L470.018 856.409L468.355 856.878L469.483 855.356L468.98 852.418L466.678 851.57L464.198 852.092L463.626 847.417L460.989 846.482L458.02 847.031L453.125 844.707L449.766 844.514L448.362 845.822L447.593 844.757L444.184 843.838L443.598 841.875L441.518 841.692L440.792 840.21L439.691 843.235L441.638 843.71L442.886 846.376L441.912 849.467L439.331 850.562L438.632 851.779L440.423 854.481L440.429 855.965L439.038 856.587L440.332 861.246L434.831 863.288L435.48 866.948L434.305 871.31L430.494 870.468L429.144 871.061L428.91 869.732L424.707 866.512L420.886 868.302L420.932 869.125L422.833 869.896L421.168 870.444L420.264 873.106L420.778 873.846L419.592 875.905L420.332 877.986L418.359 877.443L418.12 879.755L416.58 879.266L416.393 880.794L416.824 882.946L418.985 882.902L418.792 884.406L420.573 884.275L419.999 886.143L421.782 886.269L424.427 890.201L419.866 890.877L417.652 896.495L416.401 895.448L415.325 896.866L415.483 902.384L412.058 903.638L411.678 902.479L409.441 902.711L409.605 906.047L408.541 905.612L407.225 906.539L408.919 907.356L406.346 908.177L407.617 908.61L406.066 911.726L408.124 913.151L407.388 914.359L405.632 913.661L405.663 914.946L403.719 915.786L402.46 913.669L399.093 913.48L401.32 909.941L399.568 909.387L399.564 907.252L398.367 908.042L397.295 906.972L393.945 909.025L394.154 910.756L392 913.387L392.469 914.967L390.922 914.834L390.03 917.756L387.667 918.732L388.245 920.656L386.023 920.673L384.944 919.246L384.559 920.204L382.993 919.033L381.527 919.197L380.157 922.317L382.141 923.179L381.219 924.241L381.55 925.788L379.948 926.08L379.894 931.438L374.961 933.559L372.266 932.213L372.127 934.071L374.327 935.456L373.224 937.241L371.181 937.475L371.698 939.507L370.418 940.003L370.089 942.09L368.901 941.732L366.786 938.089L364.997 941.083L364.999 938.462L362.847 938.512L362.844 940.49L361.225 940.567L361.354 942.959L358.725 943.695L358.159 945.516L354.514 945.939L354.877 948.304L356.009 949.225L355.026 950.483L356.396 950.523L354.476 951.64L354.601 953.291L356.315 953.195L355.83 955.878L357.829 956.137L356.685 958.737L355.42 958.806L355.045 957.029L352.104 957.906L350.738 955.911L347.612 957.081L347.761 959.411L347.213 957.435L345.395 956.285L343.552 957.925L342.503 956.83L337.147 958.194L335.52 956.859L335.242 953.981L334.145 955.406L332.53 953.73L331.558 956.113L328.723 953.774L326.733 954.193L326.142 952.142L324.322 951.257L323.463 955.13L321.846 955.534L322.118 957.031L323.345 957.369L323.034 959.133L325.375 961.024L325.472 963.423L323.992 965.146L326.183 968.575L326.179 969.99L324.676 971.182L325.912 971.213L326.013 974.617L324.73 975.034L323.239 974.196L323.189 972.685L321.726 972.473L321.489 974.464L318.112 975.399L317.044 973.485L315.443 974.472L313.87 973.889L311.724 974.966L309.257 974.864L309.01 978.496L306.105 980.024L304.687 979.948L304.967 978.528H302.86L300.658 975.14L298.118 976.176L298.048 975.459L294.059 975.484L293.565 976.178L295.311 977.091L295.174 978.331L292.912 979.32L293.426 983.195L290.439 983.155L283.634 985.66L283.545 987.472L281.998 989.158L283.294 990.648L281.229 990.545L280.949 991.94L278.245 993.01L277.263 989.355L274.945 989.651L274.049 988.115L273.833 990.634L270.839 991.809L270.251 994.094L269.065 993.607L269.195 992.784L267.624 992.946L266.96 995.258L265.322 993.346L265.729 995.199L264.312 995.583L264.99 996.431L266.342 995.235L266.187 997.196L268.034 997.503L268.198 999.827L269.347 1000.11L269.023 1001.43L268.217 1000.27L267.451 1000.78L267.346 1003.22L268.461 1004.73L267.814 1005.78L268.658 1004.71L271.606 1005.22L271.662 1006.25L275.162 1007.44L275.587 1009.36L274.412 1011.22L274.553 1013.9L272.187 1012.85L269.303 1015.44L270.253 1016.24L272.26 1015.27L273.734 1016L270.331 1022.25L271.186 1024.43L270.4 1024.47L269.562 1022.68L268.277 1024.45L270.221 1024.81L269.16 1027.97L266.006 1029.51L264.18 1029.42L263.193 1027.43L262.198 1028.87L258.996 1030.47L259.127 1032.24L257.518 1032.57L258.797 1033.49L254.539 1035.54L253.272 1035.25L251.995 1033.76L250.958 1029.4L248.227 1029.05L247.491 1026.89L246.081 1029.57L239.447 1030.17L238.072 1029.21L239.204 1028.84L235.551 1021.74L232.055 1020.62L230.898 1016.2L229.692 1015.38L230.222 1014.61L228.835 1008.88L226.797 1001.57L225.893 1001.49L227.521 999.628L225.798 999.966L225.76 998.067L223.65 994.741L223.71 992.815L224.794 992.365L223.673 990.804L224.674 989.127L223.903 988.977L223.432 981.532L221.95 977.688L222.696 973.454L221.684 973.429L222.238 972.274L220.961 971.586L222.864 969.28L221.467 967.725L219.621 960.788L218.139 959.32L219.563 959.144L219.804 960.11L220.515 958.943L218.912 955.466L217.177 954.524L218.852 952.992L217.996 952.866L217.911 949.975L215.885 947.711L217.237 946.507L215.439 944.031L214.873 941.439L215.79 940.446L213.764 936.281L213.221 932.265L212.68 932.543L211.22 930.123L211.581 928.298L209.483 925.083L210.049 924.15L208.661 921.591L209.385 918.73L206.926 917.581L207.119 914.805L208.384 914.867L209.118 916.596L212.916 917.492L212.338 919.095L213.747 920.706L213.409 917.088L212.29 915.309L209.613 915.17L207.793 912.317L206.188 911.473L206.719 910.034L205.379 906.118L206.814 902.968L203.632 895.915L204.245 891.005L206.283 891.563L207.345 889.944L208.637 891.679L209.165 890.779L209.431 888.208L206.731 888.892L205.923 886.56L208.083 886.267L207.287 884.534L207.998 883.28L209.022 883.8L211.324 882.133L210.046 882.023L209.613 879.398L208.299 879.438L207.986 880.833L205.985 882.494L203.936 881.961L203.177 885.546L201.575 887.066L202.261 884.76L200.886 884.343L201.875 880.856L202.394 881.25L202.9 880.298L201.936 880.147L202.406 877.8L200.378 874.503L200.293 869.349L201.197 866.962L199.402 864.92L198.836 860.941L200.378 859.643L200.644 858.053L199.715 859.046L197.689 857.471L197.449 854.85L198.546 854.761L196.34 845.76L194.762 843.683L194.809 842.816L196.087 842.503L195.351 839.403L197.606 837.591L197.233 833.088L198.535 830.05L201.322 830.581L201.33 829.501L202.775 829.677L202.744 827.786L204.475 825.945L208.639 826.565L209.344 828.452L208.759 830.314L209.454 831.12L210.679 830.123L210.364 831.251L212.213 833.212L212.553 831.771L215.976 832.451L217.987 833.892L219.308 830.718L222.466 829.453L223.424 826.804L225.234 827.204L225.874 826.52L226.167 827.471L228.58 826.847L228.298 820.138L226.905 818.384L228.572 817.27L231.653 811.473L230.832 811.332L230.788 809.475L229.032 808.944L227.398 806.754L229.014 805.728L229.611 803.626L230.865 803.315L231.551 806.255L233.285 805.313L236.274 807.045L237.554 809.676L239.026 810.455L240.34 809.717L242.389 810.225L246.299 807.994L246.606 805.626L245.621 804.393L247.398 804.37L248.352 802.742L249.884 803.024L251.128 802.158L250.935 797.642L248.762 793.022L249.258 791.034L245.35 790.439L244.972 789.212L243.546 789.773L242.128 787.69L242.58 784.982L238.559 785.245L235.449 782.492L236.529 782.112L237.537 784.122L239.486 783.22L241.889 783.862L242.105 782.527L245.617 782.305L246.034 777.883L248.632 778.115L251.084 776.49L251.273 771.632L251.961 772.109L255.426 770.84L256.235 767.945L258.049 769.517L258.913 768.797L262.979 769.007L263.259 768.053L264.155 768.828L267.543 767.305L267.582 765.198L266.589 764.083L265.044 765.455L263.655 764.783L262.361 765.656L261.41 764.342L256.351 764.346L247.28 767.302L245.704 762.546L244.103 761.304L248.358 760.375L248.824 757.813L245.996 754.906L246.594 753.614L245.099 752.096L259.662 746.028Z" fill="#CCCCCC" stroke="white" stroke-width="0.5"/>
<path d="M259.662 746.028L262.034 747.351L265.901 746.878L266.436 745.404L268.718 744.856L270.18 742.949L272.685 742.652L272.799 745.23L274.741 746.005L276.22 748.13L275.185 752.853L275.515 756.591L277.3 756.981L277.582 758.667L287.66 761.986L292.469 761.074L299.234 764.105L301.724 768.99L306.271 771.248L309.733 771.028L309.831 772.252L312.412 771.603L314.019 772.542L317.056 772.021L320.517 773.027L323.154 771.984L325.953 772.662L335.271 771.768L338.771 772.03L342.401 773.943L344.41 772.959L347.037 778.275L346.394 779.249L347.622 781.555L347.367 782.367L345.072 782.649L347.618 786.35L351.503 785.886L352.355 786.782L356.461 786.688L359.774 784.953L361.279 781.194L367.182 781.352L368.82 777.197L367.234 774.756L374.163 768.665L374.495 767.582L373.242 766.063L374.323 765.25L374.648 762.588L376.307 762.795L377.115 761.777L379.241 762.436L386.671 756.768L390.381 757.209L390.976 756.565L392.535 758.109L393.281 757L395.823 756.706L395.956 754.916L404.169 754.512L407.063 757.784L408.328 761.217L408.313 764.207L409.881 765.128L408.139 765.731L403.387 764.487L401.627 765.575L402.553 768.366L403.899 769.106L404.668 772.778L408.896 773.392L409.779 773.276L409.638 772.044L411.782 772.053L412.487 773.066L413.524 771.88L414.137 773.643L415.379 773.382L416.076 772.407L417.965 772.175L418.222 771.178L421.802 772.78L424.272 772.353L434.28 767.18L434.784 764.387L438.617 763.83L438.483 762.735L440.131 763.796L441.549 762.909L442.598 763.477L443.403 761.603L445.271 762.378L445.596 767.029L449.003 765.789L451.518 766.38L452.314 767.717L458.169 768.748L459.328 767.394L460.446 768.634L460.985 767.616L465.117 767.808L465.807 767.085L467.373 767.696L467.754 766.475L466.183 764.566L467.199 764.313L466.564 762.824L470.089 761.599L470.744 762.401L474.153 762.509L476.744 759.66L479.873 760.112L480.254 756.718L485.477 758.81L487.461 759.011L488.376 758.227L491.533 759.032L493.619 765.061L498.429 764.46L502.124 762.353L507.525 765.677L510.073 765.978L510.967 764.476L513.447 765.503L516.486 764.58L518.715 762.146L521.896 760.885L525.022 761.536L529.814 766.141L531.58 769.979L530.616 771.406L531.236 772.836L532.843 773.042L533.187 771.64L534.802 771.856L539.474 775.233L542.225 774.955L542.938 776.46L541.304 778.687L533.579 782.268L532.538 785.77L533.148 788.567L532.124 789.819L533.504 793.4L537.249 793.317L537.409 801.098L538.91 804.867L535.762 806.207L534.634 807.938L535.949 809.412L538.354 808.154L540.74 808.548L539.165 818.141L540.543 820.992L537.257 822.226L535.903 823.938L530.353 825.222L531.699 827.589L530.486 828.85L530.826 829.713L535.348 829.947L537.187 831.284L537.438 833.312L537.411 836.917L536.318 839.503L534.587 839.644L532.99 838.501L531.367 839.426L531.427 840.645L534.682 840.967L535.327 842.35L532.47 845.033L530.989 844.759L530.865 845.752L533.372 845.829L534.485 846.768L534.097 844.371L537.278 844.618L537.158 846.666L542.633 850.442L542.244 854.105L545.026 854.284L546.998 856.119L549.654 856.378L550.425 857.91L551.887 858.375L552.451 860.817L547.931 862.6L550.406 865.611L546.249 869.001L543.616 869.148L542.893 867.184L540.212 868.067L538.375 863.782L534.371 866.792L532.696 870.176L530.365 871.178L530.51 873.467L527.828 875.635L527.709 878.679L525.348 882.674L525.346 885.345L528.854 890.126L525.731 892.819L524.239 893.051L525.34 894.955L522.491 895.888L521.929 896.883L520.589 895.956L518.537 896.858L514.264 892.732L510.776 891.928L509.128 889.811L511.081 888.531L510.886 881.107L510.088 879.935L507.635 880.516L507.569 877.344L511.266 874.308L510.266 871.76L512.072 868.511L512.559 863.78L511.135 860.875L506.275 857.558L504.417 854.966L502.46 854.529L498.094 855.816L496.286 859.075L494.308 858.331L493.881 857.029L490.746 859.366L486.344 855.99L483.968 856.251L483.557 855.124L480.912 854.097L480.599 858.022L479.305 859.631L480.004 860.724L478.044 861.047L474.793 857.968L471.125 857.421L470.018 856.409L468.355 856.878L469.483 855.356L468.98 852.418L466.678 851.57L464.198 852.092L463.626 847.417L460.989 846.482L458.02 847.031L453.125 844.707L449.766 844.514L448.362 845.822L447.593 844.757L444.184 843.838L443.598 841.875L441.518 841.692L440.792 840.21L439.691 843.235L441.638 843.71L442.886 846.376L441.912 849.467L439.331 850.562L438.632 851.779L440.423 854.481L440.429 855.965L439.038 856.587L440.332 861.246L434.831 863.288L435.48 866.948L434.305 871.31L430.494 870.468L429.144 871.061L428.91 869.732L424.707 866.512L420.886 868.302L420.932 869.125L422.833 869.896L421.168 870.444L420.264 873.106L420.778 873.846L419.592 875.905L420.332 877.986L418.359 877.443L418.12 879.755L416.58 879.266L416.393 880.794L416.824 882.946L418.985 882.902L418.792 884.406L420.573 884.275L419.999 886.143L421.782 886.269L424.427 890.201L419.866 890.877L417.652 896.495L416.401 895.448L415.325 896.866L415.483 902.384L412.058 903.638L411.678 902.479L409.441 902.711L409.605 906.047L408.541 905.612L407.225 906.539L408.919 907.356L406.346 908.177L407.617 908.61L406.066 911.726L408.124 913.151L407.388 914.359L405.632 913.661L405.663 914.946L403.719 915.786L402.46 913.669L399.093 913.48L401.32 909.941L399.568 909.387L399.564 907.252L398.367 908.042L397.295 906.972L393.945 909.025L394.154 910.756L392 913.387L392.469 914.967L390.922 914.834L390.03 917.756L387.667 918.732L388.245 920.656L386.023 920.673L384.944 919.246L384.559 920.204L382.993 919.033L381.527 919.197L380.157 922.317L382.141 923.179L381.219 924.241L381.55 925.788L379.948 926.08L379.894 931.438L374.961 933.559L372.266 932.213L372.127 934.071L374.327 935.456L373.224 937.241L371.181 937.475L371.698 939.507L370.418 940.003L370.089 942.09L368.901 941.732L366.786 938.089L364.997 941.083L364.999 938.462L362.847 938.512L362.844 940.49L361.225 940.567L361.354 942.959L358.725 943.695L358.159 945.516L354.514 945.939L354.877 948.304L356.009 949.225L355.026 950.483L356.396 950.523L354.476 951.64L354.601 953.291L356.315 953.195L355.83 955.878L357.829 956.137L356.685 958.737L355.42 958.806L355.045 957.029L352.104 957.906L350.738 955.911L347.612 957.081L347.761 959.411L347.213 957.435L345.395 956.285L343.552 957.925L342.503 956.83L337.147 958.194L335.52 956.859L335.242 953.981L334.145 955.406L332.53 953.73L331.558 956.113L328.723 953.774L326.733 954.193L326.142 952.142L324.322 951.257L323.463 955.13L321.846 955.534L322.118 957.031L323.345 957.369L323.034 959.133L325.375 961.024L325.472 963.423L323.992 965.146L326.183 968.575L326.179 969.99L324.676 971.182L325.912 971.213L326.013 974.617L324.73 975.034L323.239 974.196L323.189 972.685L321.726 972.473L321.489 974.464L318.112 975.399L317.044 973.485L315.443 974.472L313.87 973.889L311.724 974.966L309.257 974.864L309.01 978.496L306.105 980.024L304.687 979.948L304.967 978.528H302.86L300.658 975.14L298.118 976.176L298.048 975.459L294.059 975.484L293.565 976.178L295.311 977.091L295.174 978.331L292.912 979.32L293.426 983.195L290.439 983.155L283.634 985.66L283.545 987.472L281.998 989.158L283.294 990.648L281.229 990.545L280.949 991.94L278.245 993.01L277.263 989.355L274.945 989.651L274.049 988.115L273.833 990.634L270.839 991.809L270.251 994.094L269.065 993.607L269.195 992.784L267.624 992.946L266.96 995.258L265.322 993.346L265.729 995.199L264.312 995.583L264.99 996.431L266.342 995.235L266.187 997.196L268.034 997.503L268.198 999.827L269.347 1000.11L269.023 1001.43L268.217 1000.27L267.451 1000.78L267.346 1003.22L268.461 1004.73L267.814 1005.78L268.658 1004.71L271.606 1005.22L271.662 1006.25L275.162 1007.44L275.587 1009.36L274.412 1011.22L274.553 1013.9L272.187 1012.85L269.303 1015.44L270.253 1016.24L272.26 1015.27L273.734 1016L270.331 1022.25L271.186 1024.43L270.4 1024.47L269.562 1022.68L268.277 1024.45L270.221 1024.81L269.16 1027.97L266.006 1029.51L264.18 1029.42L263.193 1027.43L262.198 1028.87L258.996 1030.47L259.127 1032.24L257.518 1032.57L258.797 1033.49L254.539 1035.54L253.272 1035.25L251.995 1033.76L250.958 1029.4L248.227 1029.05L247.491 1026.89L246.081 1029.57L239.447 1030.17L238.072 1029.21L239.204 1028.84L235.551 1021.74L232.055 1020.62L230.898 1016.2L229.692 1015.38L230.222 1014.61L228.835 1008.88L226.797 1001.57L225.893 1001.49L227.521 999.628L225.798 999.966L225.76 998.067L223.65 994.741L223.71 992.815L224.794 992.365L223.673 990.804L224.674 989.127L223.903 988.977L223.432 981.532L221.95 977.688L222.696 973.454L221.684 973.429L222.238 972.274L220.961 971.586L222.864 969.28L221.467 967.725L219.621 960.788L218.139 959.32L219.563 959.144L219.804 960.11L220.515 958.943L218.912 955.466L217.177 954.524L218.852 952.992L217.996 952.866L217.911 949.975L215.885 947.711L217.237 946.507L215.439 944.031L214.873 941.439L215.79 940.446L213.764 936.281L213.221 932.265L212.68 932.543L211.22 930.123L211.581 928.298L209.483 925.083L210.049 924.15L208.661 921.591L209.385 918.73L206.926 917.581L207.119 914.805L208.384 914.867L209.118 916.596L212.916 917.492L212.338 919.095L213.747 920.706L213.409 917.088L212.29 915.309L209.613 915.17L207.793 912.317L206.188 911.473L206.719 910.034L205.379 906.118L206.814 902.968L203.632 895.915L204.245 891.005L206.283 891.563L207.345 889.944L208.637 891.679L209.165 890.779L209.431 888.208L206.731 888.892L205.923 886.56L208.083 886.267L207.287 884.534L207.998 883.28L209.022 883.8L211.324 882.133L210.046 882.023L209.613 879.398L208.299 879.438L207.986 880.833L205.985 882.494L203.936 881.961L203.177 885.546L201.575 887.066L202.261 884.76L200.886 884.343L201.875 880.856L202.394 881.25L202.9 880.298L201.936 880.147L202.406 877.8L200.378 874.503L200.293 869.349L201.197 866.962L199.402 864.92L198.836 860.941L200.378 859.643L200.644 858.053L199.715 859.046L197.689 857.471L197.449 854.85L198.546 854.761L196.34 845.76L194.762 843.683L194.809 842.816L196.087 842.503L195.351 839.403L197.606 837.591L197.233 833.088L198.535 830.05L201.322 830.581L201.33 829.501L202.775 829.677L202.744 827.786L204.475 825.945L208.639 826.565L209.344 828.452L208.759 830.314L209.454 831.12L210.679 830.123L210.364 831.251L212.213 833.212L212.553 831.771L215.976 832.451L217.987 833.892L219.308 830.718L222.466 829.453L223.424 826.804L225.234 827.204L225.874 826.52L226.167 827.471L228.58 826.847L228.298 820.138L226.905 818.384L228.572 817.27L231.653 811.473L230.832 811.332L230.788 809.475L229.032 808.944L227.398 806.754L229.014 805.728L229.611 803.626L230.865 803.315L231.551 806.255L233.285 805.313L236.274 807.045L237.554 809.676L239.026 810.455L240.34 809.717L242.389 810.225L246.299 807.994L246.606 805.626L245.621 804.393L247.398 804.37L248.352 802.742L249.884 803.024L251.128 802.158L250.935 797.642L248.762 793.022L249.258 791.034L245.35 790.439L244.972 789.212L243.546 789.773L242.128 787.69L242.58 784.982L238.559 785.245L235.449 782.492L236.529 782.112L237.537 784.122L239.486 783.22L241.889 783.862L242.105 782.527L245.617 782.305L246.034 777.883L248.632 778.115L251.084 776.49L251.273 771.632L251.961 772.109L255.426 770.84L256.235 767.945L258.049 769.517L258.913 768.797L262.979 769.007L263.259 768.053L264.155 768.828L267.543 767.305L267.582 765.198L266.589 764.083L265.044 765.455L263.655 764.783L262.361 765.656L261.41 764.342L256.351 764.346L247.28 767.302L245.704 762.546L244.103 761.304L248.358 760.375L248.824 757.813L245.996 754.906L246.594 753.614L245.099 752.096L259.662 746.028Z" fill="#DCDDDF" stroke="white" stroke-width="0.5"/>
</svg>

