<svg width="22" height="21" viewBox="0 0 22 21" fill="none" xmlns="http://www.w3.org/2000/svg">
<path fill-rule="evenodd" clip-rule="evenodd" d="M2.14478 1.53613C2.66613 1.01478 3.42646 0.929835 3.84301 1.34639L19.9336 17.437C20.3502 17.8536 20.2652 18.6139 19.7439 19.1352C19.2225 19.6566 18.4622 19.7415 18.0456 19.325L1.95504 3.23437C1.53848 2.81781 1.62343 2.05748 2.14478 1.53613Z" fill="#CCCCCC"/>
<path fill-rule="evenodd" clip-rule="evenodd" d="M2.14502 19.1353C1.62367 18.6139 1.53872 17.8536 1.95527 17.437L18.0459 1.3464C18.4624 0.929832 19.2228 1.01479 19.7441 1.53614C20.2655 2.05749 20.3504 2.81781 19.9339 3.23437L3.84325 19.325C3.42669 19.7416 2.66637 19.6566 2.14502 19.1353Z" fill="#CCCCCC"/>
</svg>
