<svg width="1920" height="399" viewBox="0 0 1920 399" fill="none" xmlns="http://www.w3.org/2000/svg">
<g clip-path="url(#clip0_1106_7347)">
<path d="M1920 0H0V399H1920V0Z" fill="#121212"/>
<path opacity="0.8" d="M1920 0H0V399H1920V0Z" fill="white"/>
<mask id="mask0_1106_7347" style="mask-type:alpha" maskUnits="userSpaceOnUse" x="0" y="0" width="1920" height="399">
<path d="M1920 0H0V399H1920V0Z" fill="white"/>
</mask>
<g mask="url(#mask0_1106_7347)">
<path d="M875.5 411.783C875.5 604.092 704.74 760.065 494 760.065C283.26 760.065 112.5 604.092 112.5 411.783C112.5 219.473 283.26 63.5 494 63.5C704.74 63.5 875.5 219.473 875.5 411.783Z" stroke="white"/>
<path d="M840.773 411.783C840.773 586.58 685.561 728.357 494 728.357C302.439 728.357 147.228 586.58 147.228 411.783C147.228 236.985 302.439 95.207 494 95.207C685.561 95.207 840.773 236.985 840.773 411.783Z" stroke="white"/>
<path d="M806.045 411.782C806.045 569.068 666.381 696.649 494 696.649C321.618 696.649 181.954 569.068 181.954 411.782C181.954 254.495 321.618 126.914 494 126.914C666.381 126.914 806.045 254.495 806.045 411.782Z" stroke="white"/>
<path d="M771.318 411.782C771.318 551.556 647.202 664.942 494 664.942C340.797 664.942 216.682 551.556 216.682 411.782C216.682 272.007 340.797 158.621 494 158.621C647.202 158.621 771.318 272.007 771.318 411.782Z" stroke="white"/>
<path d="M736.591 411.781C736.591 534.044 628.023 633.233 494 633.233C359.977 633.233 251.409 534.044 251.409 411.781C251.409 289.517 359.977 190.328 494 190.328C628.023 190.328 736.591 289.517 736.591 411.781Z" stroke="white"/>
<path d="M701.864 411.78C701.864 516.531 608.844 601.525 494 601.525C379.157 601.525 286.137 516.531 286.137 411.78C286.137 307.028 379.157 222.035 494 222.035C608.844 222.035 701.864 307.028 701.864 411.78Z" stroke="white"/>
<path d="M667.136 411.78C667.136 499.02 589.664 569.817 494 569.817C398.335 569.817 320.863 499.02 320.863 411.78C320.863 324.54 398.335 253.742 494 253.742C589.664 253.742 667.136 324.54 667.136 411.78Z" stroke="white"/>
<path d="M632.409 411.783C632.409 481.511 570.485 538.113 494 538.113C417.515 538.113 355.591 481.511 355.591 411.783C355.591 342.054 417.515 285.453 494 285.453C570.485 285.453 632.409 342.054 632.409 411.783Z" stroke="white"/>
<path d="M597.682 411.783C597.682 463.999 551.306 506.405 494 506.405C436.695 506.405 390.318 463.999 390.318 411.783C390.318 359.566 436.695 317.16 494 317.16C551.306 317.16 597.682 359.566 597.682 411.783Z" stroke="white"/>
<path d="M562.955 411.782C562.955 446.487 532.127 474.697 494 474.697C455.874 474.697 425.046 446.487 425.046 411.782C425.046 377.076 455.874 348.867 494 348.867C532.127 348.867 562.955 377.076 562.955 411.782Z" stroke="white"/>
<g opacity="0.64">
<path d="M1932.5 105.912C1932.5 298.221 1761.74 454.195 1551 454.195C1340.26 454.195 1169.5 298.221 1169.5 105.912C1169.5 -86.3974 1340.26 -242.371 1551 -242.371C1761.74 -242.371 1932.5 -86.3974 1932.5 105.912Z" stroke="white"/>
<path d="M1897.77 105.911C1897.77 280.709 1742.56 422.486 1551 422.486C1359.44 422.486 1204.23 280.709 1204.23 105.911C1204.23 -68.8867 1359.44 -210.664 1551 -210.664C1742.56 -210.664 1897.77 -68.8867 1897.77 105.911Z" stroke="white"/>
<path d="M1863.04 105.91C1863.04 263.196 1723.38 390.778 1551 390.778C1378.62 390.778 1238.95 263.196 1238.95 105.91C1238.95 -51.3761 1378.62 -178.957 1551 -178.957C1723.38 -178.957 1863.04 -51.3761 1863.04 105.91Z" stroke="white"/>
<path d="M1828.32 105.91C1828.32 245.685 1704.2 359.07 1551 359.07C1397.8 359.07 1273.68 245.685 1273.68 105.91C1273.68 -33.8646 1397.8 -147.25 1551 -147.25C1704.2 -147.25 1828.32 -33.8646 1828.32 105.91Z" stroke="white"/>
<path d="M1793.59 105.91C1793.59 228.173 1685.02 327.363 1551 327.363C1416.98 327.363 1308.41 228.173 1308.41 105.91C1308.41 -16.353 1416.98 -115.543 1551 -115.543C1685.02 -115.543 1793.59 -16.353 1793.59 105.91Z" stroke="white"/>
<path d="M1758.86 105.913C1758.86 210.664 1665.84 295.658 1551 295.658C1436.16 295.658 1343.14 210.664 1343.14 105.913C1343.14 1.16152 1436.16 -83.832 1551 -83.832C1665.84 -83.832 1758.86 1.16152 1758.86 105.913Z" stroke="white"/>
<path d="M1724.14 105.913C1724.14 193.153 1646.66 263.951 1551 263.951C1455.34 263.951 1377.86 193.153 1377.86 105.913C1377.86 18.6726 1455.34 -52.125 1551 -52.125C1646.66 -52.125 1724.14 18.6726 1724.14 105.913Z" stroke="white"/>
<path d="M1689.41 105.912C1689.41 175.64 1627.48 232.242 1551 232.242C1474.51 232.242 1412.59 175.64 1412.59 105.912C1412.59 36.1837 1474.51 -20.418 1551 -20.418C1627.48 -20.418 1689.41 36.1837 1689.41 105.912Z" stroke="white"/>
<path d="M1654.68 105.912C1654.68 158.129 1608.31 200.534 1551 200.534C1493.69 200.534 1447.32 158.129 1447.32 105.912C1447.32 53.6949 1493.69 11.2891 1551 11.2891C1608.31 11.2891 1654.68 53.6949 1654.68 105.912Z" stroke="white"/>
<path d="M1619.95 105.911C1619.95 140.616 1589.13 168.826 1551 168.826C1512.87 168.826 1482.05 140.616 1482.05 105.911C1482.05 71.206 1512.87 42.9961 1551 42.9961C1589.13 42.9961 1619.95 71.206 1619.95 105.911Z" stroke="white"/>
</g>
</g>
</g>
<defs>
<clipPath id="clip0_1106_7347">
<rect width="1920" height="399" fill="white"/>
</clipPath>
</defs>
</svg>
