<svg width="16" height="14" viewBox="0 0 16 14" fill="none" xmlns="http://www.w3.org/2000/svg">
<path d="M14.0957 0.8125C15.1504 0.8125 15.9707 1.66211 15.9707 2.6875V12.0625C15.9707 13.1172 15.1211 13.9375 14.0957 13.9375H2.8457C1.82031 13.9375 0.970703 13.1172 0.970703 12.0625V2.6875C0.970703 1.66211 1.82031 0.8125 2.8457 0.8125H14.0957ZM4.25195 2.6875C3.49023 2.6875 2.8457 3.33203 2.8457 4.09375C2.8457 4.88477 3.43164 5.5 4.25195 5.5C5.04297 5.5 5.6582 4.88477 5.6582 4.09375C5.6582 3.33203 5.01367 2.6875 4.25195 2.6875ZM14.0664 11.8281C14.125 11.6816 14.125 11.4766 14.0371 11.3594L10.2871 5.73438C10.1992 5.58789 10.0527 5.5 9.90625 5.5C9.73047 5.5 9.58398 5.58789 9.49609 5.73438L6.77148 9.83594L5.80469 8.51758C5.7168 8.40039 5.59961 8.3125 5.45312 8.3125C5.27734 8.3125 5.16016 8.40039 5.07227 8.51758L3.02148 11.3301C2.9043 11.4766 2.9043 11.6523 2.96289 11.8281C3.05078 11.9746 3.19727 12.0625 3.40234 12.0625H13.6562C13.8027 12.0625 13.9785 11.9746 14.0664 11.8281Z" fill="#BCBDC0"/>
</svg>
