<svg width="59" height="59" viewBox="0 0 59 59" fill="none" xmlns="http://www.w3.org/2000/svg">
<path fill-rule="evenodd" clip-rule="evenodd" d="M29.5 59C45.7925 59 59 45.7925 59 29.5C59 13.2075 45.7925 0 29.5 0C13.2075 0 0 13.2075 0 29.5C0 45.7925 13.2075 59 29.5 59ZM42.6348 31.9844C43.6895 31.4043 44.375 30.2969 44.375 29.0312C44.375 27.8184 43.6895 26.7109 42.6875 26.1309V18.1152C42.6875 17.6406 42.3184 16.375 41 16.375C40.5781 16.375 40.209 16.5332 39.9453 16.7969L35.4102 20.3828C33.1953 22.1758 30.3477 23.125 27.5 23.125H17.375C15.4766 23.125 14 24.6543 14 26.5V31.5625C14 33.4609 15.4766 34.9375 17.375 34.9375H19.1152C19.0625 35.5176 19.0098 36.0977 19.0098 36.625C19.0098 38.7344 19.4844 40.7383 20.3809 42.4785C20.6445 43.0586 21.2246 43.375 21.8574 43.375H25.7598C27.1309 43.375 27.9746 41.8457 27.1309 40.7383C26.2871 39.5781 25.7598 38.207 25.7598 36.625C25.7598 36.0898 25.8496 35.5994 25.9458 35.0713L25.9707 34.9375H27.5C30.3477 34.9375 33.1953 35.9395 35.4102 37.7324L39.9453 41.3184C40.209 41.582 40.5781 41.6875 40.9473 41.6875C42.2656 41.6875 42.6348 40.5273 42.6348 40V31.9844ZM39.3125 21.5957V36.5195L37.5195 35.0957C34.6719 32.8281 31.1387 31.5625 27.5 31.5625V26.5C31.1387 26.5 34.6719 25.2871 37.5195 23.0195L39.3125 21.5957Z" fill="white"/>
</svg>
