<svg width="1270" height="1426" viewBox="0 0 1270 1426" fill="none" xmlns="http://www.w3.org/2000/svg">

<path d="M0 0 C0.495 2.475 0.495 2.475 1 5 C1.62648437 5.12117188 2.25296875 5.24234375 2.8984375 5.3671875 C3.71570312 5.53476562 4.53296875 5.70234375 5.375 5.875 C6.18710938 6.03742187 6.99921875 6.19984375 7.8359375 6.3671875 C10 7 10 7 12 9 C14.87696729 9.28103306 17.67929761 9.46600098 20.5625 9.5625 C28.88006757 9.88006757 28.88006757 9.88006757 30 11 C30.04063832 12.66617115 30.042721 14.33388095 30 16 C32.97 15.34 35.94 14.68 39 14 C39 12.68 39 11.36 39 10 C39.66 10 40.32 10 41 10 C41.33 8.68 41.66 7.36 42 6 C50.42857143 3.71428571 50.42857143 3.71428571 55 4 C55.495 5.98 55.495 5.98 56 8 C55.34 8 54.68 8 54 8 C54 8.99 54 9.98 54 11 C59.92370452 10.8460704 59.92370452 10.8460704 65.0625 8.375 C67 7 67 7 70.9375 7.25 C72.29505206 7.48091072 73.64969115 7.72993823 75 8 C75.99 8.185625 76.98 8.37125 78 8.5625 C78.99 8.7790625 78.99 8.7790625 80 9 C80 8.01 80 7.02 80 6 C81.64507218 5.80593522 83.29109594 5.61992065 84.9375 5.4375 C85.85402344 5.33308594 86.77054687 5.22867188 87.71484375 5.12109375 C88.46894531 5.08113281 89.22304687 5.04117188 90 5 C90.495 5.495 90.495 5.495 91 6 C93.35313555 6.07271741 95.70833668 6.08370868 98.0625 6.0625 C99.35285156 6.05347656 100.64320313 6.04445313 101.97265625 6.03515625 C102.97167969 6.02355469 103.97070312 6.01195312 105 6 C105 6.66 105 7.32 105 8 C105.66 8 106.32 8 107 8 C107 8.99 107 9.98 107 11 C108.98 11.495 108.98 11.495 111 12 C110.34 12.66 109.68 13.32 109 14 C108.75746187 16.21072977 108.75746187 16.21072977 108.875 18.625 C108.89304688 19.44226563 108.91109375 20.25953125 108.9296875 21.1015625 C108.95289063 21.72804688 108.97609375 22.35453125 109 23 C109.66 23.33 110.32 23.66 111 24 C110.34 25.98 109.68 27.96 109 30 C108.34 30 107.68 30 107 30 C107 30.66 107 31.32 107 32 C107.66 32 108.32 32 109 32 C108.125 36.75 108.125 36.75 107 39 C107.99 38.67 108.98 38.34 110 38 C110.66 38.33 111.32 38.66 112 39 C112 39.66 112 40.32 112 41 C112.66 41 113.32 41 114 41 C114.33 41.99 114.66 42.98 115 44 C114.67 44.66 114.34 45.32 114 46 C111.03 45.505 111.03 45.505 108 45 C106.03698408 48.50538557 105.04097612 52.13351728 104 56 C102.35 55.67 100.7 55.34 99 55 C98.30710631 51.27569643 97.88855404 47.78916254 98 44 C97.34 43.67 96.68 43.34 96 43 C96 42.34 96 41.68 96 41 C94.01432292 41.29296875 92.02864583 41.5859375 90.04296875 41.87890625 C88 42 88 42 85 41 C84.505 41.99 84.505 41.99 84 43 C82.125 42.6875 82.125 42.6875 80 42 C79.34 41.01 78.68 40.02 78 39 C74.48055874 38.17567358 74.48055874 38.17567358 71 38 C69.35920758 39.64079242 69.39887658 41.77768765 69 44 C68.01 44 67.02 44 66 44 C66 44.99 66 45.98 66 47 C64.35 46.67 62.7 46.34 61 46 C60.37542727 49.43515002 60 52.49064814 60 56 C59.67 56.99 59.34 57.98 59 59 C57.515 59.495 57.515 59.495 56 60 C55.67 60.99 55.34 61.98 55 63 C54.01 63 53.02 63 52 63 C52 62.34 52 61.68 52 61 C51.4225 61.66 50.845 62.32 50.25 63 C48 65 48 65 44 65 C44 66.65 44 68.3 44 70 C43.01 70 42.02 70 41 70 C41 70.99 41 71.98 41 73 C37.535 73.99 37.535 73.99 34 75 C34 76.65 34 78.3 34 80 C27.07 79.01 27.07 79.01 20 78 C20.495 81.465 20.495 81.465 21 85 C16.25799399 86.72436582 12.94091834 87.64697278 8 86 C8 86.99 8 87.98 8 89 C4.59257117 91.50546238 1.02511566 92.78310457 -3 94 C-2.67 94.99 -2.34 95.98 -2 97 C-1.34 97.33 -0.68 97.66 0 98 C-0.66 100.64 -1.32 103.28 -2 106 C-8.625 108.125 -8.625 108.125 -12 107 C-12.99 107 -13.98 107 -15 107 C-20.73402828 100.54921819 -21.58767514 91.5549205 -23 83.3125 C-23.57580275 79.9718923 -24.30070887 76.87993934 -25.4375 73.6875 C-30.99482835 57.98448504 -30.99482835 57.98448504 -29 52 C-29.66 51.01 -30.32 50.02 -31 49 C-31.73828125 45.8203125 -31.73828125 45.8203125 -32.3125 42.125 C-32.61607422 40.30355469 -32.61607422 40.30355469 -32.92578125 38.4453125 C-33.00907772 34.57860279 -32.41584422 32.97595799 -30 30 C-29.34 30 -28.68 30 -28 30 C-27.67 30.66 -27.34 31.32 -27 32 C-23.535 31.505 -23.535 31.505 -20 31 C-19.67 28.36 -19.34 25.72 -19 23 C-17.02 23.33 -15.04 23.66 -13 24 C-12.26665571 20.02245872 -12.26665571 20.02245872 -12 16 C-12.99 15.67 -13.98 15.34 -15 15 C-14.01 14.67 -13.02 14.34 -12 14 C-12 13.34 -12 12.68 -12 12 C-11.34 12 -10.68 12 -10 12 C-10 11.34 -10 10.68 -10 10 C-9.34 9.67 -8.68 9.34 -8 9 C-9.32 8.67 -10.64 8.34 -12 8 C-12 6.02 -12 4.04 -12 2 C-10.56656 1.46809459 -9.12804633 0.94984742 -7.6875 0.4375 C-6.88699219 0.14746094 -6.08648437 -0.14257812 -5.26171875 -0.44140625 C-3 -1 -3 -1 0 0 Z " fill="#EAEAEA" transform="translate(60,44)" data-index="1" style="opacity: 1;"></path>
<path d="M0 0 C1.46184058 0.22860058 2.91955419 0.48370392 4.375 0.75 C5.59316406 0.95882812 5.59316406 0.95882812 6.8359375 1.171875 C9 2 9 2 10.2890625 4.078125 C10.52367187 4.71234375 10.75828125 5.3465625 11 6 C12.7325 5.7525 12.7325 5.7525 14.5 5.5 C18.69907803 4.96761689 22.77063041 4.92447554 27 5 C27 5.66 27 6.32 27 7 C27.99 7.33 28.98 7.66 30 8 C30 9.65 30 11.3 30 13 C27.58373582 13.19534474 25.16734771 13.38153404 22.75 13.5625 C22.06808594 13.61857422 21.38617188 13.67464844 20.68359375 13.73242188 C13.82685079 14.23169927 13.82685079 14.23169927 11 13 C10.34 12.01 9.68 11.02 9 10 C7.04614933 9.21011855 7.04614933 9.21011855 4.875 8.8125 C3.59625 8.544375 2.3175 8.27625 1 8 C0.690625 9.093125 0.38125 10.18625 0.0625 11.3125 C-0.58337897 13.55407994 -1.2623117 15.7869351 -2 18 C-4.31 17.67 -6.62 17.34 -9 17 C-10 14 -10 14 -9.0625 11.8125 C-8.5365625 10.9153125 -8.5365625 10.9153125 -8 10 C-6.35 10.33 -4.7 10.66 -3 11 C-3 10.01 -3 9.02 -3 8 C-2.01 8 -1.02 8 0 8 C0 5.36 0 2.72 0 0 Z " fill="#8B8B8B" transform="translate(129,80)" data-index="2"></path>
<path d="M0 0 C0.66 0 1.32 0 2 0 C2.66 2.64 3.32 5.28 4 8 C4.66 7.67 5.32 7.34 6 7 C5.60425781 7.90878906 5.20851563 8.81757812 4.80078125 9.75390625 C3.20008339 15.39385404 5.47905554 20.5386692 7.1875 25.9375 C9.7702316 34.53303619 11.95121813 42.92124523 13.296875 51.79296875 C14.05313599 55.24235913 15.33396823 57.90030405 17 61 C17.33 61.99 17.66 62.98 18 64 C19.11375 63.7525 19.11375 63.7525 20.25 63.5 C23.8484164 62.84574247 27.34719966 63 31 63 C31.33 62.01 31.66 61.02 32 60 C33.53445094 63.06890187 32.54984289 65.70094266 32 69 C29.525 69.495 29.525 69.495 27 70 C26.67 70.99 26.34 71.98 26 73 C22.2483182 72.47476455 19.97723009 72.00875364 17.3046875 69.25 C11.23385657 60.70812734 9.93359681 50.93918719 8.12426758 40.84033203 C7.28913863 36.26319346 6.16670632 31.90736143 4.7578125 27.48046875 C1.98942941 18.41900863 0.49384986 9.4512645 0 0 Z " fill="#8A8A8A" transform="translate(27,87)" data-index="3"></path>
<path d="M0 0 C2.31 0 4.62 0 7 0 C6.47599609 0.70576172 6.47599609 0.70576172 5.94140625 1.42578125 C5.48636719 2.04839844 5.03132813 2.67101562 4.5625 3.3125 C4.11003906 3.92738281 3.65757813 4.54226562 3.19140625 5.17578125 C1.82663692 7.09677101 1.82663692 7.09677101 1 10 C-0.32 10 -1.64 10 -3 10 C-3 9.01 -3 8.02 -3 7 C-3.66 7 -4.32 7 -5 7 C-5.268125 7.804375 -5.53625 8.60875 -5.8125 9.4375 C-6.204375 10.283125 -6.59625 11.12875 -7 12 C-7.99 12.33 -8.98 12.66 -10 13 C-11.20882096 15.00016466 -11.20882096 15.00016466 -12 17 C-12.66 17 -13.32 17 -14 17 C-14.33 17.99 -14.66 18.98 -15 20 C-17.0625 20.6875 -17.0625 20.6875 -19 21 C-19.33 22.65 -19.66 24.3 -20 26 C-21.41655793 26.0272415 -22.83327045 26.04650467 -24.25 26.0625 C-25.43335937 26.07990234 -25.43335937 26.07990234 -26.640625 26.09765625 C-28.90691002 26.00385306 -30.8288895 25.63241063 -33 25 C-33 24.34 -33 23.68 -33 23 C-32.34 23 -31.68 23 -31 23 C-31 22.01 -31 21.02 -31 20 C-23.25 18.875 -23.25 18.875 -21 20 C-21.33 18.35 -21.66 16.7 -22 15 C-18.77208445 12.8480563 -17.71599191 12.79913557 -14 13 C-14 12.01 -14 11.02 -14 10 C-13.01 10 -12.02 10 -11 10 C-11 8.35 -11 6.7 -11 5 C-10.38125 4.896875 -9.7625 4.79375 -9.125 4.6875 C-6.63473516 4.12474627 -6.63473516 4.12474627 -5 1 C-4.34 1 -3.68 1 -3 1 C-3 1.66 -3 2.32 -3 3 C-2.01 3 -1.02 3 0 3 C0 2.01 0 1.02 0 0 Z " fill="#7E7E7E" transform="translate(115,104)" data-index="4"></path>
<path d="M0 0 C0.969375 0.185625 1.93875 0.37125 2.9375 0.5625 C3.948125 0.706875 4.95875 0.85125 6 1 C6.33 0.67 6.66 0.34 7 0 C8.99958364 -0.04080783 11.00045254 -0.04254356 13 0 C13.33 2.31 13.66 4.62 14 7 C13.11957031 7.03738281 12.23914063 7.07476562 11.33203125 7.11328125 C10.17058594 7.17902344 9.00914063 7.24476563 7.8125 7.3125 C6.66394531 7.37050781 5.51539062 7.42851562 4.33203125 7.48828125 C0.82000728 8.02764249 -1.16299098 8.8994723 -4 11 C-4.33 11.66 -4.66 12.32 -5 13 C-7.9375 12.25 -7.9375 12.25 -11 11 C-11.69140625 8.921875 -11.69140625 8.921875 -12 7 C-10.75108386 6.51801537 -9.50081192 6.03954323 -8.25 5.5625 C-7.55390625 5.29566406 -6.8578125 5.02882812 -6.140625 4.75390625 C-4.10940997 4.03853307 -2.0964709 3.48634348 0 3 C0 2.01 0 1.02 0 0 Z " fill="#8D8D8D" transform="translate(68,130)" data-index="5"></path>
<path d="M0 0 C6.26480445 1.74732641 10.88233868 3.97120279 16 8 C15.67 8.66 15.34 9.32 15 10 C13.125 9.6875 13.125 9.6875 11 9 C10.34 8.01 9.68 7.02 9 6 C7.04614933 5.21011855 7.04614933 5.21011855 4.875 4.8125 C2.956875 4.4103125 2.956875 4.4103125 1 4 C0.690625 5.093125 0.38125 6.18625 0.0625 7.3125 C-0.58337897 9.55407994 -1.2623117 11.7869351 -2 14 C-4.31 13.67 -6.62 13.34 -9 13 C-10 10 -10 10 -9.0625 7.8125 C-8.711875 7.214375 -8.36125 6.61625 -8 6 C-6.35 6.33 -4.7 6.66 -3 7 C-3 6.01 -3 5.02 -3 4 C-2.01 4 -1.02 4 0 4 C0 2.68 0 1.36 0 0 Z " fill="#838383" transform="translate(129,84)" data-index="6" style="opacity: 1;"></path>
<path d="M0 0 C1.53445094 3.06890187 0.54984289 5.70094266 0 9 C-1.65 9.33 -3.3 9.66 -5 10 C-5.33 10.99 -5.66 11.98 -6 13 C-11.41342681 11.85485202 -13.9342948 10.65987191 -17 6 C-16.67 5.34 -16.34 4.68 -16 4 C-15.34 5.32 -14.68 6.64 -14 8 C-13.2575 7.67 -12.515 7.34 -11.75 7 C-9 6 -9 6 -5 6 C-5 5.01 -5 4.02 -5 3 C-3.68 3 -2.36 3 -1 3 C-0.67 2.01 -0.34 1.02 0 0 Z " fill="#7A7A7A" transform="translate(59,147)" data-index="7"></path>
<path d="M0 0 C1.46184058 0.22860058 2.91955419 0.48370392 4.375 0.75 C5.59316406 0.95882812 5.59316406 0.95882812 6.8359375 1.171875 C9 2 9 2 10.2890625 4.078125 C10.64097656 5.02945313 10.64097656 5.02945313 11 6 C13.64 5.67 16.28 5.34 19 5 C18.01 5.495 18.01 5.495 17 6 C17.33 6.99 17.66 7.98 18 9 C17.67 9.99 17.34 10.98 17 12 C17.66 12.33 18.32 12.66 19 13 C18.01 13.33 17.02 13.66 16 14 C15.443125 13.401875 14.88625 12.80375 14.3125 12.1875 C10.30736792 8.39886155 6.2474621 6.58644203 1 5 C0.67 3.35 0.34 1.7 0 0 Z " fill="#8C8C8C" transform="translate(129,80)" data-index="8" style="opacity: 1;"></path>
<path d="M0 0 C0.33 0.99 0.66 1.98 1 3 C0.67 3.66 0.34 4.32 0 5 C-1.41655793 5.0272415 -2.83327045 5.04650467 -4.25 5.0625 C-5.43335937 5.07990234 -5.43335937 5.07990234 -6.640625 5.09765625 C-8.90691002 5.00385306 -10.8288895 4.63241063 -13 4 C-13 3.34 -13 2.68 -13 2 C-12.34 2 -11.68 2 -11 2 C-11 1.01 -11 0.02 -11 -1 C-3.24 -2.49230769 -3.24 -2.49230769 0 0 Z " fill="#727272" transform="translate(95,125)" data-index="9"></path>
<path d="M0 0 C3.63 0.33 7.26 0.66 11 1 C11 1.33 11 1.66 11 2 C8.69 2 6.38 2 4 2 C4 2.99 4 3.98 4 5 C3.34 5 2.68 5 2 5 C2 5.66 2 6.32 2 7 C3.32 7 4.64 7 6 7 C6 7.66 6 8.32 6 9 C6.66 9 7.32 9 8 9 C7.67 9.66 7.34 10.32 7 11 C5.66666667 11.33333333 4.33333333 11.66666667 3 12 C2.67 12.66 2.34 13.32 2 14 C1.67 12.02 1.34 10.04 1 8 C-0.65 8 -2.3 8 -4 8 C-4 7.67 -4 7.34 -4 7 C-2.35 7 -0.7 7 1 7 C0.67 4.69 0.34 2.38 0 0 Z " fill="#ABABAB" transform="translate(80,122)" data-index="10"></path>
<path d="M0 0 C0.99 0 1.98 0 3 0 C2.67 1.32 2.34 2.64 2 4 C1.34 4 0.68 4 0 4 C0 5.65 0 7.3 0 9 C-2.31 9.66 -4.62 10.32 -7 11 C-7.33 9.02 -7.66 7.04 -8 5 C-4.77208445 2.8480563 -3.71599191 2.79913557 0 3 C0 2.01 0 1.02 0 0 Z " fill="#777777" transform="translate(101,114)" data-index="11"></path>
<path d="M0 0 C0.33 2.31 0.66 4.62 1 7 C-1.31 7.33 -3.62 7.66 -6 8 C-6 7.34 -6 6.68 -6 6 C-4.02 6 -2.04 6 0 6 C0 5.34 0 4.68 0 4 C-1.04800781 4.25136719 -1.04800781 4.25136719 -2.1171875 4.5078125 C-3.02726562 4.71148437 -3.93734375 4.91515625 -4.875 5.125 C-5.77992187 5.33382812 -6.68484375 5.54265625 -7.6171875 5.7578125 C-8.40351562 5.83773437 -9.18984375 5.91765625 -10 6 C-10.66 5.34 -11.32 4.68 -12 4 C-11.67 3.01 -11.34 2.02 -11 1 C-7.26562152 0.12132271 -3.83225427 -0.08912219 0 0 Z " fill="#878787" transform="translate(81,130)" data-index="12"></path>
<path d="M0 0 C2.31 0 4.62 0 7 0 C6.66226563 0.47050781 6.32453125 0.94101563 5.9765625 1.42578125 C5.53054687 2.04839844 5.08453125 2.67101562 4.625 3.3125 C4.18414062 3.92738281 3.74328125 4.54226562 3.2890625 5.17578125 C2.16589093 6.7652392 1.07958553 8.38062171 0 10 C0 9.34 0 8.68 0 8 C-0.66 8 -1.32 8 -2 8 C-2.33 7.01 -2.66 6.02 -3 5 C-3.99 5 -4.98 5 -6 5 C-5.67 3.68 -5.34 2.36 -5 1 C-4.34 1 -3.68 1 -3 1 C-3 1.66 -3 2.32 -3 3 C-2.01 3 -1.02 3 0 3 C0 2.01 0 1.02 0 0 Z " fill="#8F8F8F" transform="translate(115,104)" data-index="13"></path>
<path d="M0 0 C0.66 0 1.32 0 2 0 C2.66 2.64 3.32 5.28 4 8 C4.66 7.67 5.32 7.34 6 7 C5.62875 8.03125 5.2575 9.0625 4.875 10.125 C3.90482838 14.4214743 4.48570369 15.99156859 6 20 C5.625 22.375 5.625 22.375 5 24 C2.40525744 18.64701055 1.36349552 13.96169059 0.8125 8.0625 C0.73064453 7.28326172 0.64878906 6.50402344 0.56445312 5.70117188 C0.36635829 3.80179203 0.18176159 1.90101238 0 0 Z " fill="#959595" transform="translate(27,87)" data-index="14"></path>
<path d="M0 0 C3.375 0.25 3.375 0.25 7 1 C8.4375 3.0625 8.4375 3.0625 9 5 C8.34 5.66 7.68 6.32 7 7 C3.875 6.625 3.875 6.625 1 6 C0.67 4.02 0.34 2.04 0 0 Z " fill="#737373" transform="translate(157,100)" data-index="15"></path>
<path d="M0 0 C4.72776645 3.86078349 5.65387448 10.3074294 7 16 C7.2685802 18.78497005 7.21948162 21.2016094 7 24 C5.15809922 21.23714883 4.65498506 20.04663589 4.0625 16.9375 C3.16384967 12.5520864 1.93464544 8.33286355 0.5859375 4.06640625 C0 2 0 2 0 0 Z " fill="#828282" transform="translate(31,110)" data-index="16"></path>
<path d="M0 0 C2.475 0.99 2.475 0.99 5 2 C5 3.32 5 4.64 5 6 C2.50935112 6.68707555 0.62113708 7 -2 7 C-2.66 7.66 -3.32 8.32 -4 9 C-3.35455571 5.51460083 -1.89865603 2.97180943 0 0 Z " fill="#6E6E6E" transform="translate(170,90)" data-index="17"></path>
<path d="M0 0 C1.485 0.99 1.485 0.99 3 2 C3 2.66 3 3.32 3 4 C4.32 3.67 5.64 3.34 7 3 C7.33 3.99 7.66 4.98 8 6 C8.86625 5.505 8.86625 5.505 9.75 5 C12 4 12 4 16 4 C16 4.66 16 5.32 16 6 C14.68 6 13.36 6 12 6 C11.67 6.99 11.34 7.98 11 9 C6.90385231 8.13350722 4.52464275 7.53809513 1.5625 4.5 C0 2 0 2 0 0 Z " fill="#535353" transform="translate(42,151)" data-index="18"></path>
<path d="M0 0 C1.4540625 0.0309375 1.4540625 0.0309375 2.9375 0.0625 C2.9375 0.7225 2.9375 1.3825 2.9375 2.0625 C0.9575 2.0625 -1.0225 2.0625 -3.0625 2.0625 C-3.0625 2.7225 -3.0625 3.3825 -3.0625 4.0625 C-3.949375 4.000625 -4.83625 3.93875 -5.75 3.875 C-9.40735017 4.08201982 -11.11027151 4.978574 -14.0625 7.0625 C-14.0625 4.0625 -14.0625 4.0625 -12.4375 2.375 C-9.48102084 0.74115625 -7.39149412 0.91454471 -4.0625 1.0625 C-3.0625 0.0625 -3.0625 0.0625 0 0 Z " fill="#4E4E4E" transform="translate(78.0625,133.9375)" data-index="19"></path>
<path d="M0 0 C0.103125 0.639375 0.20625 1.27875 0.3125 1.9375 C0.539375 2.618125 0.76625 3.29875 1 4 C1.99 4.33 2.98 4.66 4 5 C4 6.32 4 7.64 4 9 C2.35 9.33 0.7 9.66 -1 10 C-1.99 8.35 -2.98 6.7 -4 5 C-3.01 4.67 -2.02 4.34 -1 4 C-0.67 4.33 -0.34 4.66 0 5 C0 3.35 0 1.7 0 0 Z M4 6 C7 7 7 7 7 7 Z " fill="#E3E3E3" transform="translate(46,141)" data-index="20"></path>
<path d="M0 0 C0.99 0.33 1.98 0.66 3 1 C2.34 1.86625 1.68 2.7325 1 3.625 C-1.12695385 7.21423463 -1.38790972 8.92694798 -1 13 C-4 13 -4 13 -7 11 C-6.01 10.67 -5.02 10.34 -4 10 C-3.896875 9.0925 -3.79375 8.185 -3.6875 7.25 C-2.99585051 3.98038425 -2.17865079 2.46282263 0 0 Z " fill="#9C9C9C" transform="translate(168,89)" data-index="21"></path>
<path d="M0 0 C0.99 0.33 1.98 0.66 3 1 C2.34 1 1.68 1 1 1 C1.33 1.99 1.66 2.98 2 4 C1.67 4.99 1.34 5.98 1 7 C1.66 7.33 2.32 7.66 3 8 C2.01 8.33 1.02 8.66 0 9 C-1.0029542 7.85675161 -2.00229027 6.71032809 -3 5.5625 C-3.556875 4.92441406 -4.11375 4.28632812 -4.6875 3.62890625 C-6 2 -6 2 -6 1 C-4.7934375 1.0309375 -4.7934375 1.0309375 -3.5625 1.0625 C-1.06645115 1.29633621 -1.06645115 1.29633621 0 0 Z " fill="#8D8D8D" transform="translate(145,85)" data-index="22" style="opacity: 1;"></path>
<path d="M0 0 C5.73491451 -0.88229454 8.76938812 1.49896975 13.2421875 4.6875 C13.82226562 5.120625 14.40234375 5.55375 15 6 C14.67 6.66 14.34 7.32 14 8 C12.125 7.6875 12.125 7.6875 10 7 C9.34 6.01 8.68 5.02 8 4 C6.04614933 3.21011855 6.04614933 3.21011855 3.875 2.8125 C2.59625 2.544375 1.3175 2.27625 0 2 C0 1.34 0 0.68 0 0 Z " fill="#545454" transform="translate(130,86)" data-index="23" style="opacity: 1;"></path>
<path d="M0 0 C1.98 0 3.96 0 6 0 C6 0.99 6 1.98 6 3 C4.35 3 2.7 3 1 3 C1 3.66 1 4.32 1 5 C-0.75 7.1875 -0.75 7.1875 -3 9 C-5.25 8.75 -5.25 8.75 -7 8 C-6.01 7.67 -5.02 7.34 -4 7 C-4 6.34 -4 5.68 -4 5 C-3.34 5 -2.68 5 -2 5 C-2 4.34 -2 3.68 -2 3 C-1.34 2.34 -0.68 1.68 0 1 C0 0.67 0 0.34 0 0 Z " fill="#E1E1E1" transform="translate(52,51)" data-index="24"></path>
<path d="M0 0 C2 3 2 3 2 7 C-0.9375 6.25 -0.9375 6.25 -4 5 C-4.875 2.875 -4.875 2.875 -5 1 C-2 0 -2 0 0 0 Z " fill="#7E7E7E" transform="translate(61,136)" data-index="25"></path>
<path d="M0 0 C1.65 0.33 3.3 0.66 5 1 C5.33 2.65 5.66 4.3 6 6 C5.01 6 4.02 6 3 6 C2.67 6.66 2.34 7.32 2 8 C1.87625 7.195625 1.7525 6.39125 1.625 5.5625 C1.315625 4.2940625 1.315625 4.2940625 1 3 C0.34 2.67 -0.32 2.34 -1 2 C-0.67 1.34 -0.34 0.68 0 0 Z " fill="#A2A2A2" transform="translate(154,94)" data-index="26"></path>
<path d="M0 0 C3.63 0.33 7.26 0.66 11 1 C11 1.33 11 1.66 11 2 C8.69 2 6.38 2 4 2 C4 2.99 4 3.98 4 5 C3.01 5.33 2.02 5.66 1 6 C0.67 4.02 0.34 2.04 0 0 Z " fill="#939393" transform="translate(80,122)" data-index="27"></path>
<path d="M0 0 C1.32 0 2.64 0 4 0 C4.33 1.98 4.66 3.96 5 6 C3.68 6 2.36 6 1 6 C0.67 4.02 0.34 2.04 0 0 Z " fill="#7E7E7E" transform="translate(44,60)" data-index="28"></path>
<path d="M0 0 C0.66 0 1.32 0 2 0 C1.67 1.98 1.34 3.96 1 6 C-1.375 6.625 -1.375 6.625 -4 7 C-4.66 6.34 -5.32 5.68 -6 5 C-5.195625 4.54625 -4.39125 4.0925 -3.5625 3.625 C-0.91143428 2.25274335 -0.91143428 2.25274335 0 0 Z " fill="#DDDDDD" transform="translate(57,144)" data-index="29"></path>
<path d="M0 0 C1.62490954 -0.02698189 3.24994633 -0.04638757 4.875 -0.0625 C5.77992188 -0.07410156 6.68484375 -0.08570312 7.6171875 -0.09765625 C10 0 10 0 12 1 C12 1.66 12 2.32 12 3 C10.37509046 3.02698189 8.75005367 3.04638757 7.125 3.0625 C5.76761719 3.07990234 5.76761719 3.07990234 4.3828125 3.09765625 C2 3 2 3 0 2 C0 1.34 0 0.68 0 0 Z " fill="#4C4C4C" transform="translate(146,90)" data-index="30"></path>
<path d="M0 0 C0.33 0.66 0.66 1.32 1 2 C-1 5 -1 5 -4 6 C-5.20882096 8.00016466 -5.20882096 8.00016466 -6 10 C-6.66 10 -7.32 10 -8 10 C-8 9.01 -8 8.02 -8 7 C-7.34 7 -6.68 7 -6 7 C-5.9175 6.38125 -5.835 5.7625 -5.75 5.125 C-5 3 -5 3 -3 1.8125 C-2.34 1.544375 -1.68 1.27625 -1 1 C-0.67 0.67 -0.34 0.34 0 0 Z " fill="#5F5F5F" transform="translate(109,111)" data-index="31"></path>
<path d="M0 0 C0.66 0 1.32 0 2 0 C2.06058594 0.59167969 2.12117188 1.18335937 2.18359375 1.79296875 C2.62012371 5.90978208 3.08671346 9.95544533 4 14 C1.46564334 11.7962116 0.46308519 10.33421339 0 7 C-0.03888349 4.66699067 -0.0448635 2.33290199 0 0 Z " fill="#8C8C8C" transform="translate(29,97)" data-index="32"></path>
<path d="M0 0 C2.3125 -0.3125 2.3125 -0.3125 5 0 C6.8125 2.5 6.8125 2.5 8 5 C7.34 5.66 6.68 6.32 6 7 C1.125 2.25 1.125 2.25 0 0 Z " fill="#7E7E7E" transform="translate(133,82)" data-index="33" style="opacity: 1;"></path>
<path d="M0 0 C-1.11179163 3.33537489 -2.47411298 4.63707344 -5 7 C-5.33 5.35 -5.66 3.7 -6 2 C-3 0 -3 0 0 0 Z " fill="#929292" transform="translate(99,117)" data-index="34"></path>
<path d="M0 0 C1.70840281 1.63412443 2.93453047 2.86906094 4 5 C4.04022391 7.3329866 4.04320247 9.66706666 4 12 C1.57869669 9.57869669 1.47159496 8.19888623 0.875 4.875 C0.70742188 3.96492188 0.53984375 3.05484375 0.3671875 2.1171875 C0.24601562 1.41851562 0.12484375 0.71984375 0 0 Z " fill="#767676" transform="translate(31,110)" data-index="35"></path>
<path d="M0 0 C0.66 0.66 1.32 1.32 2 2 C1.01 4.97 0.02 7.94 -1 11 C-1.66 11 -2.32 11 -3 11 C-2.67 8.69 -2.34 6.38 -2 4 C-1.34 4 -0.68 4 0 4 C0 2.68 0 1.36 0 0 Z " fill="#797979" transform="translate(129,84)" data-index="36" style="opacity: 1;"></path>
<path d="M0 0 C1.98 0 3.96 0 6 0 C4.7260411 2.03833424 3.38938077 4.03852126 2 6 C1.34 6 0.68 6 0 6 C0 4.02 0 2.04 0 0 Z " fill="#6C6C6C" transform="translate(116,104)" data-index="37"></path>
<path d="M0 0 C-0.625 1.9375 -0.625 1.9375 -2 4 C-5.125 4.75 -5.125 4.75 -8 5 C-7 2 -7 2 -5.125 0.8125 C-3 0 -3 0 0 0 Z " fill="#DEDEDE" transform="translate(65,132)" data-index="38"></path>
<path d="M0 0 C0.66 0 1.32 0 2 0 C2.33 0.99 2.66 1.98 3 3 C2.01 3.99 1.02 4.98 0 6 C-1.32 5.34 -2.64 4.68 -4 4 C-3.01 4 -2.02 4 -1 4 C-0.67 2.68 -0.34 1.36 0 0 Z " fill="#8D8D8D" transform="translate(120,99)" data-index="39"></path>
<path d="M0 0 C0 0.66 0 1.32 0 2 C-2.31 3.32 -4.62 4.64 -7 6 C-7 5.01 -7 4.02 -7 3 C-4.46815512 0.64276511 -3.52809907 0 0 0 Z " fill="#555555" transform="translate(71,135)" data-index="40"></path>
<path d="M0 0 C0.99 0.33 1.98 0.66 3 1 C2.67 2.98 2.34 4.96 2 7 C1.34 7 0.68 7 0 7 C0 5.68 0 4.36 0 3 C-0.66 3 -1.32 3 -2 3 C-2 2.34 -2 1.68 -2 1 C-1.34 0.67 -0.68 0.34 0 0 Z " fill="#909090" transform="translate(169,73)" data-index="41"></path>
<path d="M0 0 C2.97 0 5.94 0 9 0 C5 2 5 2 3 2 C3 2.66 3 3.32 3 4 C2.01 3.67 1.02 3.34 0 3 C0 2.01 0 1.02 0 0 Z " fill="#8C8C8C" transform="translate(47,52)" data-index="42"></path>
<path d="M0 0 C1.65 0.99 3.3 1.98 5 3 C4.67 3.99 4.34 4.98 4 6 C3.01 6 2.02 6 1 6 C1 5.34 1 4.68 1 4 C0.34 4 -0.32 4 -1 4 C-0.67 2.68 -0.34 1.36 0 0 Z " fill="#EFEFEF" transform="translate(170,84)" data-index="43"></path>
<path d="M0 0 C0.66 0.66 1.32 1.32 2 2 C0.515 4.475 0.515 4.475 -1 7 C-1.99 6.67 -2.98 6.34 -4 6 C-3.67 5.01 -3.34 4.02 -3 3 C-2.01 3 -1.02 3 0 3 C0 2.01 0 1.02 0 0 Z " fill="#B3B3B3" transform="translate(172,61)" data-index="44"></path>
<path d="M0 0 C0.33 0.66 0.66 1.32 1 2 C0.0625 4.625 0.0625 4.625 -1 7 C-1.99 6.67 -2.98 6.34 -4 6 C-4.33 5.01 -4.66 4.02 -5 3 C-3.68 3 -2.36 3 -1 3 C-0.67 2.01 -0.34 1.02 0 0 Z " fill="#8C8C8C" transform="translate(59,147)" data-index="45"></path>
<path d="M0 0 C0.99 0.33 1.98 0.66 3 1 C3.33 2.65 3.66 4.3 4 6 C3.01 6 2.02 6 1 6 C0.67 4.02 0.34 2.04 0 0 Z " fill="#848484" transform="translate(168,58)" data-index="46"></path>
</svg>