<svg width="26" height="17" viewBox="0 0 26 17" fill="none" xmlns="http://www.w3.org/2000/svg">
<g clip-path="url(#clip0_1118_5718)">
<mask id="mask0_1118_5718" style="mask-type:luminance" maskUnits="userSpaceOnUse" x="0" y="0" width="26" height="17">
<path d="M26 0H0V17H26V0Z" fill="white"/>
</mask>
<g mask="url(#mask0_1118_5718)">
<path fill-rule="evenodd" clip-rule="evenodd" d="M0.555664 1.33333C0.555664 0.596954 1.03323 0 1.62233 0H5.889C6.4781 0 6.95566 0.596954 6.95566 1.33333C6.95566 2.06971 6.4781 2.66667 5.889 2.66667H1.62233C1.03323 2.66667 0.555664 2.06971 0.555664 1.33333ZM10.5112 1.33333C10.5112 0.596954 10.9888 0 11.5779 0H24.3779C24.967 0 25.4446 0.596954 25.4446 1.33333C25.4446 2.06971 24.967 2.66667 24.3779 2.66667H11.5779C10.9888 2.66667 10.5112 2.06971 10.5112 1.33333Z" fill="#CCCCCC"/>
<path fill-rule="evenodd" clip-rule="evenodd" d="M0.555664 15.5577C0.555664 14.8204 1.03323 14.2227 1.62233 14.2227H14.4223C15.0114 14.2227 15.489 14.8204 15.489 15.5577C15.489 16.295 15.0114 16.8927 14.4223 16.8927H1.62233C1.03323 16.8927 0.555664 16.295 0.555664 15.5577ZM19.0446 15.5577C19.0446 14.8204 19.5221 14.2227 20.1112 14.2227H24.3779C24.967 14.2227 25.4446 14.8204 25.4446 15.5577C25.4446 16.295 24.967 16.8927 24.3779 16.8927H20.1112C19.5221 16.8927 19.0446 16.295 19.0446 15.5577Z" fill="#CCCCCC"/>
<path fill-rule="evenodd" clip-rule="evenodd" d="M0.555664 8.44438C0.555664 7.70708 1.03323 7.10938 1.62233 7.10938H24.3779C24.967 7.10938 25.4446 7.70708 25.4446 8.44438C25.4446 9.18168 24.967 9.77938 24.3779 9.77938H1.62233C1.03323 9.77938 0.555664 9.18168 0.555664 8.44438Z" fill="#CCCCCC"/>
</g>
</g>
<defs>
<clipPath id="clip0_1118_5718">
<rect width="26" height="17" fill="white"/>
</clipPath>
</defs>
</svg>
