<svg width="26" height="17" viewBox="0 0 26 17" fill="none" xmlns="http://www.w3.org/2000/svg">
<g clip-path="url(#clip0_1768_335)">
<path fill-rule="evenodd" clip-rule="evenodd" d="M0.555664 1.33333C0.555664 0.596954 1.03323 0 1.62233 0H5.889C6.4781 0 6.95566 0.596954 6.95566 1.33333C6.95566 2.06971 6.4781 2.66667 5.889 2.66667H1.62233C1.03323 2.66667 0.555664 2.06971 0.555664 1.33333ZM10.5112 1.33333C10.5112 0.596954 10.9888 0 11.5779 0H24.3779C24.967 0 25.4446 0.596954 25.4446 1.33333C25.4446 2.06971 24.967 2.66667 24.3779 2.66667H11.5779C10.9888 2.66667 10.5112 2.06971 10.5112 1.33333Z" fill="black"/>
<path fill-rule="evenodd" clip-rule="evenodd" d="M0.555664 15.5572C0.555664 14.8199 1.03323 14.2222 1.62233 14.2222H14.4223C15.0114 14.2222 15.489 14.8199 15.489 15.5572C15.489 16.2945 15.0114 16.8922 14.4223 16.8922H1.62233C1.03323 16.8922 0.555664 16.2945 0.555664 15.5572ZM19.0446 15.5572C19.0446 14.8199 19.5221 14.2222 20.1112 14.2222H24.3779C24.967 14.2222 25.4446 14.8199 25.4446 15.5572C25.4446 16.2945 24.967 16.8922 24.3779 16.8922H20.1112C19.5221 16.8922 19.0446 16.2945 19.0446 15.5572Z" fill="black"/>
<path fill-rule="evenodd" clip-rule="evenodd" d="M0.555664 8.44584C0.555664 7.70854 1.03323 7.11084 1.62233 7.11084H24.3779C24.967 7.11084 25.4446 7.70854 25.4446 8.44584C25.4446 9.18314 24.967 9.78084 24.3779 9.78084H1.62233C1.03323 9.78084 0.555664 9.18314 0.555664 8.44584Z" fill="black"/>
</g>
<defs>
<clipPath id="clip0_1768_335">
<rect width="26" height="17" fill="white"/>
</clipPath>
</defs>
</svg>
