<svg width="18" height="17" viewBox="0 0 18 17" fill="none" xmlns="http://www.w3.org/2000/svg">
<g clip-path="url(#clip0_432_2194)">
<path fill-rule="evenodd" clip-rule="evenodd" d="M15.1484 4.44845C15.2568 4.94991 14.9382 5.44431 14.4368 5.55274L11.5484 6.17725C11.0594 6.28298 10.7104 6.71548 10.7104 7.21576V8.15042C10.7104 9.16606 10.8925 10.1735 11.2479 11.1249L12.974 15.7457C13.1536 16.2263 12.9095 16.7615 12.4288 16.941C11.9483 17.1206 11.4131 16.8764 11.2336 16.3959L9.58241 11.9758C9.4104 11.5153 8.7591 11.5153 8.58709 11.9758L6.93589 16.3959C6.75635 16.8764 6.2212 17.1206 5.7406 16.941C5.26 16.7615 5.01593 16.2263 5.19547 15.7457L6.92166 11.1248C7.27709 10.1734 7.45912 9.16595 7.45912 8.15031V7.21574C7.45912 6.71547 7.11013 6.28297 6.62116 6.17725L3.73283 5.55274C3.23137 5.44431 2.91276 4.94991 3.02117 4.44845C3.1296 3.94701 3.624 3.62838 4.12546 3.73681L8.18661 4.6149C8.77855 4.74288 9.39101 4.74288 9.98295 4.6149L14.0441 3.73681C14.5456 3.62838 15.0399 3.94701 15.1484 4.44845ZM9.03863 0C10.0647 0 10.8965 0.831804 10.8965 1.85789C10.8965 2.88397 10.0647 3.71577 9.03863 3.71577C8.01255 3.71577 7.18074 2.88397 7.18074 1.85789C7.18074 0.831804 8.01255 0 9.03863 0Z" fill="black"/>
</g>
<defs>
<clipPath id="clip0_432_2194">
<rect width="18" height="17" fill="white"/>
</clipPath>
</defs>
</svg>
