<svg width="14" height="12" viewBox="0 0 14 12" fill="none" xmlns="http://www.w3.org/2000/svg">
<g clip-path="url(#clip0_1144_5724)">
<mask id="mask0_1144_5724" style="mask-type:luminance" maskUnits="userSpaceOnUse" x="0" y="0" width="14" height="12">
<path d="M14 0H0V12H14V0Z" fill="white"/>
</mask>
<g mask="url(#mask0_1144_5724)">
<path d="M7.6875 5.3125C8.09375 5.6875 8.09375 6.34375 7.6875 6.71875L2.6875 11.7188C2.5 11.9062 2.25 12 2 12C1.71875 12 1.46875 11.9062 1.28125 11.7188C0.875 11.3438 0.875 10.6875 1.28125 10.3125L5.5625 6L1.28125 1.71875C0.875 1.34375 0.875 0.6875 1.28125 0.3125C1.65625 -0.09375 2.3125 -0.09375 2.6875 0.3125L7.6875 5.3125ZM13.6875 5.3125C14.0938 5.6875 14.0938 6.34375 13.6875 6.71875L8.6875 11.7188C8.5 11.9062 8.25 12 8 12C7.71875 12 7.46875 11.9062 7.28125 11.7188C6.875 11.3438 6.875 10.6875 7.28125 10.3125L11.5625 6L7.28125 1.71875C6.875 1.34375 6.875 0.6875 7.28125 0.3125C7.65625 -0.09375 8.3125 -0.09375 8.6875 0.3125L13.6875 5.3125Z" fill="#CCCCCC"/>
</g>
</g>
<defs>
<clipPath id="clip0_1144_5724">
<rect width="14" height="12" fill="white"/>
</clipPath>
</defs>
</svg>
