<svg width="22" height="23" viewBox="0 0 22 23" fill="none" xmlns="http://www.w3.org/2000/svg">
<path fill-rule="evenodd" clip-rule="evenodd" d="M9.39312 1.60787C7.46911 1.60787 5.90939 3.16759 5.90939 5.0916C5.90939 7.01561 7.46911 8.57533 9.39312 8.57533C11.3171 8.57533 12.8768 7.01561 12.8768 5.0916C12.8768 3.16759 11.3171 1.60787 9.39312 1.60787ZM4.30151 5.0916C4.30151 2.27959 6.5811 0 9.39312 0C12.2051 0 14.4847 2.27959 14.4847 5.0916C14.4847 7.90362 12.2051 10.1832 9.39312 10.1832C6.5811 10.1832 4.30151 7.90362 4.30151 5.0916Z" fill="black"/>
<path fill-rule="evenodd" clip-rule="evenodd" d="M18.3722 0.390427C18.5967 0.00970741 19.082 -0.113746 19.4562 0.114686L19.0497 0.80404C19.4562 0.114686 19.4565 0.114899 19.4569 0.115117L19.4576 0.11558L19.4593 0.116599C19.4605 0.117321 19.4618 0.118126 19.4632 0.119015C19.466 0.120793 19.4694 0.122907 19.4733 0.125359C19.481 0.130262 19.4908 0.136522 19.5024 0.144151C19.5255 0.159406 19.5562 0.180172 19.5933 0.206576C19.6674 0.259334 19.7674 0.334904 19.8847 0.434327C20.1186 0.632722 20.4246 0.929095 20.7293 1.33218C21.3433 2.14439 21.9465 3.38445 21.9465 5.0916C21.9465 6.79875 21.3433 8.03882 20.7293 8.85103C20.4246 9.25411 20.1186 9.55049 19.8847 9.74888C19.7674 9.8483 19.6674 9.92387 19.5933 9.97663C19.5562 10.003 19.5255 10.0238 19.5024 10.0391C19.4908 10.0467 19.481 10.0529 19.4733 10.0578C19.4694 10.0603 19.466 10.0624 19.4632 10.0642C19.4618 10.0651 19.4605 10.0659 19.4593 10.0666L19.4576 10.0676L19.4569 10.0681C19.4565 10.0683 19.4562 10.0685 19.0497 9.37917L19.4562 10.0685C19.082 10.297 18.5967 10.1735 18.3722 9.79278C18.1486 9.41359 18.2681 8.9222 18.6387 8.69257C18.6396 8.69201 18.6415 8.69079 18.6443 8.68892C18.652 8.68387 18.6666 8.67407 18.6872 8.65944C18.7283 8.63013 18.7928 8.58176 18.8731 8.5137C19.0342 8.37713 19.2549 8.16436 19.4769 7.87071C19.9163 7.28947 20.3664 6.38575 20.3664 5.0916C20.3664 3.79746 19.9163 2.89374 19.4769 2.31249C19.2549 2.01885 19.0342 1.80607 18.8731 1.6695C18.7928 1.60144 18.7283 1.55307 18.6872 1.52377C18.6666 1.50914 18.652 1.49934 18.6443 1.49428C18.6415 1.49242 18.6396 1.4912 18.6387 1.49064C18.2681 1.26101 18.1486 0.769623 18.3722 0.390427ZM18.6424 8.69031L18.6426 8.69021Z" fill="black"/>
<path fill-rule="evenodd" clip-rule="evenodd" d="M16.1814 2.49637C16.4134 2.11655 16.9148 1.99339 17.3015 2.22128L16.8814 2.909C17.3015 2.22128 17.3018 2.22149 17.3022 2.2217L17.3029 2.22214L17.3045 2.22307L17.3079 2.22513C17.3104 2.22659 17.3131 2.22822 17.316 2.23004C17.322 2.23367 17.329 2.23802 17.337 2.2431C17.353 2.25326 17.373 2.26635 17.3964 2.28246C17.4431 2.31462 17.504 2.3591 17.5741 2.41652C17.7139 2.5309 17.894 2.69959 18.0728 2.92795C18.4351 3.39069 18.7863 4.09314 18.7863 5.0477C18.7863 6.00227 18.4351 6.70472 18.0728 7.16746C17.894 7.39582 17.7139 7.56451 17.5741 7.67889C17.504 7.73631 17.4431 7.78079 17.3964 7.81295C17.373 7.82906 17.353 7.84215 17.337 7.85231C17.329 7.85739 17.322 7.86174 17.316 7.86537C17.3131 7.86719 17.3104 7.86882 17.3079 7.87028L17.3045 7.87234L17.3029 7.87327L17.3022 7.87371C17.3018 7.87392 17.3015 7.87413 16.8903 7.20096L17.3015 7.87413C16.9148 8.10202 16.4134 7.97886 16.1814 7.59904C15.9514 7.22246 16.0727 6.73496 16.4516 6.50457C16.4531 6.50358 16.456 6.50169 16.4601 6.49888C16.4728 6.49011 16.497 6.47277 16.5289 6.44664C16.5933 6.39394 16.6853 6.30865 16.7786 6.18947C16.9605 5.95714 17.1536 5.59024 17.1536 5.0477C17.1536 4.50517 16.9605 4.13827 16.7786 3.90594C16.6853 3.78676 16.5933 3.70147 16.5289 3.64877C16.497 3.62264 16.4728 3.6053 16.4601 3.59653C16.456 3.59372 16.4531 3.59183 16.4516 3.59084C16.0727 3.36045 15.9514 2.87295 16.1814 2.49637Z" fill="black"/>
<path fill-rule="evenodd" clip-rule="evenodd" d="M2.92589 13.2769C4.62145 12.3261 6.90962 11.7634 9.3932 11.7634C11.8768 11.7634 14.165 12.3261 15.8605 13.2769C17.5308 14.2135 18.7863 15.6331 18.7863 17.3817V17.3847C18.7863 17.5635 18.7863 17.7471 18.7835 17.929C18.7767 18.3722 18.4108 18.726 17.9662 18.7193C17.5216 18.7125 17.1667 18.3478 17.1734 17.9045C17.176 17.736 17.176 17.5636 17.176 17.3817C17.176 16.4706 16.509 15.4823 15.0711 14.676C13.6584 13.8838 11.6526 13.3686 9.3932 13.3686C7.13379 13.3686 5.128 13.8838 3.71533 14.676C2.27743 15.4823 1.61038 16.4706 1.61038 17.3817C1.61038 18.7812 1.65366 19.5691 2.38715 20.1645C2.78491 20.4874 3.44984 20.8026 4.58803 21.0323C5.72265 21.2612 7.27389 21.3948 9.3932 21.3948C11.7595 21.3948 13.4148 21.2282 14.5718 20.9499C15.0041 20.846 15.439 21.111 15.5433 21.5419C15.6476 21.9728 15.3817 22.4064 14.9495 22.5104C13.6156 22.8312 11.8168 23 9.3932 23C7.21855 23 5.54931 22.864 4.26858 22.6056C2.99141 22.3479 2.04609 21.9578 1.37036 21.4093C-0.00266207 20.2946 -0.00113992 18.7341 7.28658e-05 17.4908C0.000108616 17.4541 0.00014412 17.4178 0.00014412 17.3817C0.00014412 15.6331 1.25557 14.2135 2.92589 13.2769Z" fill="black"/>
</svg>
