<svg width="42" height="37" viewBox="0 0 42 37" fill="none" xmlns="http://www.w3.org/2000/svg">
<circle cx="34.9072" cy="6.0448" r="4.61035" fill="#F15929"/>
<path fill-rule="evenodd" clip-rule="evenodd" d="M0 35.671C0 34.937 0.598229 34.3419 1.33618 34.3419H40.5308C41.2688 34.3419 41.867 34.937 41.867 35.671C41.867 36.4051 41.2688 37.0001 40.5308 37.0001H1.33618C0.598229 37.0001 0 36.4051 0 35.671Z" fill="#1074BC"/>
<path fill-rule="evenodd" clip-rule="evenodd" d="M34.8887 26.0348C35.6227 26.0348 36.2178 26.6526 36.2178 27.4146V35.6201C36.2178 36.3822 35.6227 37 34.8887 37C34.1546 37 33.5596 36.3822 33.5596 35.6201V27.4146C33.5596 26.6526 34.1546 26.0348 34.8887 26.0348Z" fill="#1074BC"/>
<path fill-rule="evenodd" clip-rule="evenodd" d="M29.5732 19.6842C29.5732 16.7598 31.9445 14.4052 34.8897 14.4052C37.8348 14.4052 40.2061 16.7598 40.2061 19.6842V23.7463C40.2061 26.6708 37.8348 29.0254 34.8897 29.0254C31.9445 29.0254 29.5732 26.6708 29.5732 23.7463V19.6842ZM34.8897 17.0894C33.4375 17.0894 32.2765 18.2422 32.2765 19.6842V23.7463C32.2765 25.1883 33.4375 26.3411 34.8897 26.3411C36.3419 26.3411 37.5029 25.1883 37.5029 23.7463V19.6842C37.5029 18.2422 36.3419 17.0894 34.8897 17.0894Z" fill="#1074BC"/>
<path fill-rule="evenodd" clip-rule="evenodd" d="M5.59115 3.77837C5.04121 4.34308 4.64969 5.30078 4.64969 6.90338V35.65C4.64969 36.3956 4.05517 37 3.32179 37C2.58842 37 1.9939 36.3956 1.9939 35.65V6.90338C1.9939 4.8879 2.48769 3.12752 3.70389 1.87867C4.92249 0.627362 6.64434 0.117188 8.61577 0.117188H19.6461C21.6175 0.117188 23.3367 0.627437 24.5514 1.88109C25.7625 3.13101 26.2502 4.8913 26.2502 6.90338V35.65C26.2502 36.3956 25.6557 37 24.9223 37C24.1889 37 23.5944 36.3956 23.5944 35.65V6.90338C23.5944 5.29738 23.2056 4.33959 22.6595 3.77594C22.1169 3.21604 21.198 2.81725 19.6461 2.81725H8.61577C7.06384 2.81725 6.13871 3.21611 5.59115 3.77837Z" fill="#1074BC"/>
<path fill-rule="evenodd" clip-rule="evenodd" d="M8.30664 10.75C8.30664 10.016 8.91208 9.4209 9.65892 9.4209H18.5841C19.3309 9.4209 19.9364 10.016 19.9364 10.75C19.9364 11.4841 19.3309 12.0791 18.5841 12.0791H9.65892C8.91208 12.0791 8.30664 11.4841 8.30664 10.75Z" fill="#1074BC"/>
<path fill-rule="evenodd" clip-rule="evenodd" d="M8.30664 17.7279C8.30664 16.9939 8.91208 16.3988 9.65892 16.3988H18.5841C19.3309 16.3988 19.9364 16.9939 19.9364 17.7279C19.9364 18.462 19.3309 19.057 18.5841 19.057H9.65892C8.91208 19.057 8.30664 18.462 8.30664 17.7279Z" fill="#1074BC"/>
<path fill-rule="evenodd" clip-rule="evenodd" d="M14.288 27.364C15.022 27.364 15.6171 27.9803 15.6171 28.7406V35.6235C15.6171 36.3838 15.022 37.0001 14.288 37.0001C13.5539 37.0001 12.9589 36.3838 12.9589 35.6235V28.7406C12.9589 27.9803 13.5539 27.364 14.288 27.364Z" fill="#1074BC"/>
</svg>
