<svg width="41" height="45" viewBox="0 0 41 45" fill="none" xmlns="http://www.w3.org/2000/svg">
<path fill-rule="evenodd" clip-rule="evenodd" d="M17.8525 3.87157C17.8524 3.8716 17.8524 3.87162 17.8523 3.87165L5.57734 10.9459C4.04348 11.8478 3.10117 13.4875 3.10117 15.2422V29.3559C3.10117 31.1378 4.04883 32.7713 5.57174 33.6488L5.57187 33.6489L17.8464 40.7229C17.8473 40.7235 17.8482 40.724 17.8491 40.7245C19.4005 41.608 21.2919 41.6035 22.8143 40.7264L35.0846 33.6548C35.0862 33.6539 35.0877 33.653 35.0893 33.652C36.6232 32.7502 37.5655 31.1105 37.5655 29.3559V15.2422C37.5655 13.4696 36.6255 11.8491 35.0893 10.9459C35.0877 10.945 35.0862 10.9441 35.0846 10.9432L22.8202 3.87506C22.8192 3.8745 22.8183 3.87394 22.8173 3.87338C21.266 2.99004 19.3747 2.99451 17.8525 3.87157ZM16.3018 1.19114C18.7894 -0.242203 21.8585 -0.238254 24.3588 1.18773L24.3649 1.19121L36.6456 8.26874C36.649 8.2707 36.6524 8.27267 36.6558 8.27466C39.1276 9.72436 40.6667 12.3532 40.6667 15.2422V29.3559C40.6667 32.2216 39.1299 34.8722 36.6558 36.3233C36.6524 36.3253 36.649 36.3273 36.6456 36.3292L24.3649 43.4068L24.3648 43.4069C21.8772 44.8402 18.8081 44.8363 16.3078 43.4103L16.3017 43.4068L4.02122 36.3293C1.53328 34.8958 0 32.2373 0 29.3559V15.2422C0 12.3765 1.5367 9.72575 4.01091 8.27466C4.01429 8.27268 4.01769 8.2707 4.0211 8.26874L16.3017 1.19121L16.3018 1.19114Z" fill="#1074BC"/>
<path fill-rule="evenodd" clip-rule="evenodd" d="M13.7676 15.0325C13.7676 11.4417 16.6784 8.53101 20.2691 8.53101C23.86 8.53101 26.7707 11.4417 26.7707 15.0325C26.7707 18.6231 23.8601 21.5341 20.2691 21.5341C16.6783 21.5341 13.7676 18.6231 13.7676 15.0325ZM20.2691 11.6973C18.4271 11.6973 16.9339 13.1905 16.9339 15.0325C16.9339 16.8745 18.4272 18.3678 20.2691 18.3678C22.1112 18.3678 23.6043 16.8745 23.6043 15.0325C23.6043 13.1905 22.1113 11.6973 20.2691 11.6973Z" fill="#1074BC"/>
<path fill-rule="evenodd" clip-rule="evenodd" d="M10.6287 31.8608C10.6287 27.0693 15.2793 23.6853 20.3332 23.6853C25.3871 23.6853 30.0377 27.0693 30.0377 31.8608C30.0377 32.7053 29.3517 33.3898 28.5055 33.3898C27.6592 33.3898 26.9732 32.7053 26.9732 31.8608C26.9732 29.3127 24.3096 26.7435 20.3332 26.7435C16.3568 26.7435 13.6933 29.3127 13.6933 31.8608C13.6933 32.7053 13.0072 33.3898 12.161 33.3898C11.3147 33.3898 10.6287 32.7053 10.6287 31.8608Z" fill="#1074BC"/>
<circle cx="20.2706" cy="15.0326" r="4.97179" fill="#F15929"/>
</svg>
