<svg width="40" height="40" viewBox="0 0 40 40" fill="none" xmlns="http://www.w3.org/2000/svg">
<path fill-rule="evenodd" clip-rule="evenodd" d="M19.293 14.1952C19.293 13.4245 19.9177 12.7998 20.6883 12.7998H30.4558C31.2264 12.7998 31.8511 13.4245 31.8511 14.1952C31.8511 14.9658 31.2264 15.5905 30.4558 15.5905H20.6883C19.9177 15.5905 19.293 14.9658 19.293 14.1952Z" fill="#1074BC"/>
<path fill-rule="evenodd" clip-rule="evenodd" d="M16.1118 10.4177C16.6568 10.9626 16.6568 11.8461 16.1118 12.391L11.9258 16.5771C11.3809 17.122 10.4974 17.122 9.95247 16.5771L8.55713 15.1817C8.01221 14.6368 8.01221 13.7533 8.55713 13.2084C9.10204 12.6635 9.98553 12.6635 10.5304 13.2084L10.9391 13.6171L14.1385 10.4177C14.6834 9.8728 15.5669 9.8728 16.1118 10.4177Z" fill="#1074BC"/>
<path fill-rule="evenodd" clip-rule="evenodd" d="M19.293 27.2185C19.293 26.4478 19.9177 25.8231 20.6883 25.8231H30.4558C31.2264 25.8231 31.8511 26.4478 31.8511 27.2185C31.8511 27.9891 31.2264 28.6138 30.4558 28.6138H20.6883C19.9177 28.6138 19.293 27.9891 19.293 27.2185Z" fill="#1074BC"/>
<path fill-rule="evenodd" clip-rule="evenodd" d="M16.1118 23.441C16.6568 23.986 16.6568 24.8694 16.1118 25.4144L11.9258 29.6004C11.3809 30.1453 10.4974 30.1453 9.95247 29.6004L8.55713 28.2051C8.01221 27.6601 8.01221 26.7767 8.55713 26.2317C9.10204 25.6868 9.98553 25.6868 10.5304 26.2317L10.9391 26.6404L14.1385 23.441C14.6834 22.8961 15.5669 22.8961 16.1118 23.441Z" fill="#1074BC"/>
<path fill-rule="evenodd" clip-rule="evenodd" d="M3.43194 3.43194C5.91468 0.949212 9.62982 0 14.4186 0H25.5814C30.3702 0 34.0853 0.949212 36.5681 3.43194C39.0508 5.91468 40 9.62982 40 14.4186V25.5814C40 30.3702 39.0508 34.0853 36.5681 36.5681C34.0853 39.0508 30.3702 40 25.5814 40H14.4186C9.62982 40 5.91468 39.0508 3.43194 36.5681C0.949212 34.0853 0 30.3702 0 25.5814V14.4186C0 9.62982 0.949212 5.91468 3.43194 3.43194ZM5.40527 5.40527C3.70195 7.10858 2.7907 9.90506 2.7907 14.4186V25.5814C2.7907 30.0949 3.70195 32.8914 5.40527 34.5947C7.10858 36.298 9.90506 37.2093 14.4186 37.2093H25.5814C30.0949 37.2093 32.8914 36.298 34.5947 34.5947C36.298 32.8914 37.2093 30.0949 37.2093 25.5814V14.4186C37.2093 9.90506 36.298 7.10858 34.5947 5.40527C32.8914 3.70195 30.0949 2.7907 25.5814 2.7907H14.4186C9.90506 2.7907 7.10858 3.70195 5.40527 5.40527Z" fill="#1074BC"/>
<circle cx="12.2888" cy="13.7349" r="5.06025" fill="#F15929"/>
</svg>
