<svg width="41" height="42" viewBox="0 0 41 42" fill="none" xmlns="http://www.w3.org/2000/svg">
<path fill-rule="evenodd" clip-rule="evenodd" d="M20.4993 0C21.3894 0 22.1109 0.721537 22.1109 1.6116V13.43C22.1109 14.3201 21.3894 15.0416 20.4993 15.0416C19.6092 15.0416 18.8877 14.3201 18.8877 13.43V1.6116C18.8877 0.721537 19.6092 0 20.4993 0Z" fill="#1074BC"/>
<path fill-rule="evenodd" clip-rule="evenodd" d="M20.4993 26.8601C21.3894 26.8601 22.1109 27.5816 22.1109 28.4717V40.2901C22.1109 41.1802 21.3894 41.9017 20.4993 41.9017C19.6092 41.9017 18.8877 41.1802 18.8877 40.2901V28.4717C18.8877 27.5816 19.6092 26.8601 20.4993 26.8601Z" fill="#1074BC"/>
<path fill-rule="evenodd" clip-rule="evenodd" d="M14.5908 1.6116C14.5908 0.721538 15.3124 0 16.2024 0H24.7976C25.6877 0 26.4092 0.721538 26.4092 1.6116C26.4092 2.50166 25.6877 3.2232 24.7976 3.2232H16.2024C15.3124 3.2232 14.5908 2.50166 14.5908 1.6116Z" fill="#1074BC"/>
<path fill-rule="evenodd" clip-rule="evenodd" d="M14.5908 40.2899C14.5908 39.3999 15.3124 38.6783 16.2024 38.6783H24.7976C25.6877 38.6783 26.4092 39.3999 26.4092 40.2899C26.4092 41.18 25.6877 41.9015 24.7976 41.9015H16.2024C15.3124 41.9015 14.5908 41.18 14.5908 40.2899Z" fill="#1074BC"/>
<path fill-rule="evenodd" clip-rule="evenodd" d="M2.36485 10.475C2.8101 9.70429 3.79581 9.44047 4.5665 9.88572L14.7948 15.7949C15.5655 16.2402 15.8293 17.2259 15.384 17.9966C14.9388 18.7673 13.9531 19.0311 13.1824 18.5858L2.95411 12.6766C2.18342 12.2314 1.9196 11.2457 2.36485 10.475Z" fill="#1074BC"/>
<path fill-rule="evenodd" clip-rule="evenodd" d="M25.6151 23.905C26.0603 23.1343 27.0461 22.8705 27.8167 23.3158L38.045 29.225C38.8157 29.6702 39.0795 30.6559 38.6343 31.4266C38.189 32.1973 37.2033 32.4611 36.4326 32.0159L26.2044 26.1067C25.4337 25.6614 25.1698 24.6757 25.6151 23.905Z" fill="#1074BC"/>
<path fill-rule="evenodd" clip-rule="evenodd" d="M6.71598 6.1685C7.48657 6.61393 7.75016 7.5997 7.30474 8.37029L3.00714 15.8051C2.56171 16.5757 1.57594 16.8393 0.80535 16.3939C0.034763 15.9484 -0.228831 14.9627 0.216596 14.1921L4.51419 6.75725C4.95962 5.98667 5.9454 5.72307 6.71598 6.1685Z" fill="#1074BC"/>
<path fill-rule="evenodd" clip-rule="evenodd" d="M40.1945 25.5076C40.9651 25.953 41.2287 26.9388 40.7833 27.7094L36.4857 35.1442C36.0402 35.9148 35.0545 36.1784 34.2839 35.733C33.5133 35.2876 33.2497 34.3018 33.6951 33.5312L37.9927 26.0964C38.4381 25.3258 39.4239 25.0622 40.1945 25.5076Z" fill="#1074BC"/>
<path fill-rule="evenodd" clip-rule="evenodd" d="M15.3832 17.9978C14.8746 18.8801 14.5901 19.8708 14.5901 20.9508C14.5901 22.0307 14.8746 23.0214 15.3832 23.9037C16.4184 25.6839 18.327 26.86 20.4993 26.86C22.6717 26.86 24.5803 25.6838 25.6155 23.9036C26.1241 23.0213 26.4085 22.0306 26.4085 20.9508C26.4085 19.8709 26.1241 18.8802 25.6155 17.9979C24.5803 16.2177 22.6717 15.0416 20.4993 15.0416C18.327 15.0416 16.4184 16.2176 15.3832 17.9978ZM12.595 16.3808C14.1816 13.6497 17.1286 11.8184 20.4993 11.8184C23.8701 11.8184 26.8171 13.6497 28.4037 16.3808L28.4061 16.385C29.1861 17.7369 29.6317 19.2811 29.6317 20.9508C29.6317 22.6205 29.1861 24.1646 28.4061 25.5165L28.4037 25.5207C26.8171 28.2518 23.8701 30.0831 20.4993 30.0831C17.1286 30.0831 14.1816 28.2518 12.595 25.5207L12.5925 25.5165C11.8126 24.1646 11.3669 22.6205 11.3669 20.9508C11.3669 19.2811 11.8126 17.7369 12.5925 16.385L12.595 16.3808Z" fill="#1074BC"/>
<path fill-rule="evenodd" clip-rule="evenodd" d="M38.6343 10.475C39.0795 11.2457 38.8157 12.2314 38.045 12.6766L27.8167 18.5858C27.0461 19.0311 26.0603 18.7673 25.6151 17.9966C25.1698 17.2259 25.4337 16.2402 26.2044 15.7949L36.4326 9.88572C37.2033 9.44047 38.189 9.70429 38.6343 10.475Z" fill="#1074BC"/>
<path fill-rule="evenodd" clip-rule="evenodd" d="M15.384 23.905C15.8293 24.6757 15.5655 25.6614 14.7948 26.1067L4.5665 32.0159C3.79581 32.4611 2.8101 32.1973 2.36485 31.4266C1.9196 30.6559 2.18342 29.6702 2.95411 29.225L13.1824 23.3158C13.9531 22.8705 14.9388 23.1343 15.384 23.905Z" fill="#1074BC"/>
<path fill-rule="evenodd" clip-rule="evenodd" d="M34.2839 6.1685C35.0545 5.72307 36.0402 5.98667 36.4857 6.75725L40.7833 14.1921C41.2287 14.9627 40.9651 15.9484 40.1945 16.3939C39.4239 16.8393 38.4381 16.5757 37.9927 15.8051L33.6951 8.37029C33.2497 7.5997 33.5133 6.61393 34.2839 6.1685Z" fill="#1074BC"/>
<path fill-rule="evenodd" clip-rule="evenodd" d="M0.805352 25.5076C1.57594 25.0622 2.56171 25.3258 3.00714 26.0964L7.30474 33.5312C7.75016 34.3018 7.48657 35.2876 6.71598 35.733C5.94539 36.1784 4.95962 35.9148 4.51419 35.1442L0.216595 27.7094C-0.228831 26.9388 0.0347641 25.953 0.805352 25.5076Z" fill="#1074BC"/>
<ellipse cx="20.5833" cy="20.9507" rx="4.41069" ry="4.77825" fill="#F15929"/>
</svg>
