<svg id="Layer_1" data-name="Layer 1" xmlns="http://www.w3.org/2000/svg" viewBox="0 0 667.25 183.55"><defs><style>.cls-1{fill:#1f77ba;}.cls-2{fill:#f15b2c;}.cls-3{fill:none;stroke:#231f20;stroke-miterlimit:10;stroke-width:1.18px;}.cls-4{fill:#1b75bc;}.cls-5{fill:#23376d;}.cls-6{fill:#f15a29;}</style></defs><title>25_rmrc_port-blair_logo_new</title><path class="cls-1" d="M460.25,259h21.83c6.07,0,10.78,1.71,13.91,4.86a15.07,15.07,0,0,1,4.1,10.95v.14c0,7.73-4.17,12.59-10.24,14.85l11.67,17.11H489.24L479,291.57h-8.25V306.9H460.25Zm21.15,23.27c5.11,0,8.05-2.74,8.05-6.77v-.14c0-4.52-3.14-6.84-8.26-6.84H470.76v13.75Z" transform="translate(-87.32 -205.86)"/><path class="cls-1" d="M509.57,259h11.32l12.55,20.26L546,259h11.32V306.9H546.88V275.62l-13.44,20.47h-.27l-13.3-20.26V306.9h-10.3Z" transform="translate(-87.32 -205.86)"/><path class="cls-1" d="M568.77,259H590.6c6.07,0,10.78,1.71,13.91,4.86a15.07,15.07,0,0,1,4.1,10.95v.14c0,7.73-4.16,12.59-10.23,14.85L610,306.9H597.76l-10.23-15.33h-8.25V306.9H568.77Zm21.15,23.27c5.11,0,8.05-2.74,8.05-6.77v-.14c0-4.52-3.14-6.84-8.26-6.84H579.28v13.75Z" transform="translate(-87.32 -205.86)"/><path class="cls-1" d="M616,283.08V283c0-13.62,10.23-24.78,24.9-24.78,9,0,14.39,3,18.82,7.39L653,273.3c-3.68-3.36-7.43-5.41-12.21-5.41-8,0-13.84,6.71-13.84,14.92V283c0,8.21,5.66,15.06,13.84,15.06,5.46,0,8.8-2.19,12.55-5.62l6.68,6.78c-4.91,5.27-10.36,8.56-19.57,8.56C626.41,307.73,616,296.84,616,283.08Z" transform="translate(-87.32 -205.86)"/><path class="cls-1" d="M668.43,259h19.5c11.39,0,18.28,6.78,18.28,16.57v.13c0,11.09-8.59,16.84-19.3,16.84h-8V306.9h-10.5Zm18.82,24.16c5.25,0,8.32-3.15,8.32-7.25v-.14c0-4.72-3.27-7.25-8.52-7.25h-8.12v14.64Z" transform="translate(-87.32 -205.86)"/><path class="cls-1" d="M714,259h22.17c5.45,0,9.75,1.51,12.48,4.24a11,11,0,0,1,3.27,8.15v.14c0,5.4-2.86,8.42-6.27,10.33,5.52,2.12,8.93,5.34,8.93,11.78v.13c0,8.76-7.09,13.14-17.87,13.14H714Zm19.92,19.37c4.63,0,7.57-1.5,7.57-5.06v-.14c0-3.15-2.46-4.93-6.89-4.93H724.22v10.13Zm2.79,19.3c4.64,0,7.44-1.64,7.44-5.2v-.14c0-3.21-2.39-5.2-7.78-5.2H724.22v10.54Z" transform="translate(-87.32 -205.86)"/><path class="cls-2" d="M460.67,319.78h4.2a3.82,3.82,0,0,1,2.72.94,2.83,2.83,0,0,1,.78,2v0a2.82,2.82,0,0,1-2.23,2.85l2.54,3.57h-2l-2.31-3.28h-2.07v3.28h-1.66Zm4.08,4.67c1.18,0,1.94-.62,1.94-1.58v0c0-1-.73-1.57-1.95-1.57h-2.41v3.17Z" transform="translate(-87.32 -205.86)"/><path class="cls-2" d="M470.4,319.78h7v1.48h-5.33v2.45h4.72v1.48h-4.72v2.53h5.4v1.48H470.4Z" transform="translate(-87.32 -205.86)"/><path class="cls-2" d="M479,324.51v0a4.8,4.8,0,0,1,4.86-4.87,5.09,5.09,0,0,1,3.62,1.27l-1.05,1.26a3.68,3.68,0,0,0-2.64-1,3.18,3.18,0,0,0-3.05,3.32v0a3.14,3.14,0,0,0,3.2,3.36,3.87,3.87,0,0,0,2.28-.71v-1.76h-2.41v-1.44h4v3.95a6,6,0,0,1-3.93,1.47A4.68,4.68,0,0,1,479,324.51Z" transform="translate(-87.32 -205.86)"/><path class="cls-2" d="M490.07,319.78h1.65v9.42h-1.65Z" transform="translate(-87.32 -205.86)"/><path class="cls-2" d="M493.82,324.51v0a4.83,4.83,0,0,1,4.94-4.87,4.78,4.78,0,0,1,4.91,4.84v0a4.93,4.93,0,0,1-9.85,0Zm8.12,0v0a3.23,3.23,0,0,0-3.21-3.35,3.18,3.18,0,0,0-3.17,3.32v0a3.22,3.22,0,0,0,3.2,3.34A3.18,3.18,0,0,0,501.94,324.51Z" transform="translate(-87.32 -205.86)"/><path class="cls-2" d="M505.68,319.78h1.53l5.05,6.51v-6.51h1.63v9.42H512.5l-5.19-6.7v6.7h-1.63Z" transform="translate(-87.32 -205.86)"/><path class="cls-2" d="M519.65,319.71h1.53l4.15,9.49h-1.75l-1-2.28h-4.45l-1,2.28h-1.7Zm2.37,5.75-1.63-3.77-1.62,3.77Z" transform="translate(-87.32 -205.86)"/><path class="cls-2" d="M526.94,319.78h1.66v7.91h4.95v1.51h-6.61Z" transform="translate(-87.32 -205.86)"/><path class="cls-2" d="M539.31,319.78h1.77l2.86,4.45,2.87-4.45h1.76v9.42h-1.65v-6.76l-3,4.44h-.05l-2.95-4.41v6.73h-1.63Z" transform="translate(-87.32 -205.86)"/><path class="cls-2" d="M551,319.78h7v1.48h-5.33v2.45h4.72v1.48h-4.72v2.53h5.4v1.48H551Z" transform="translate(-87.32 -205.86)"/><path class="cls-2" d="M560,319.78h3.52a4.69,4.69,0,0,1,5,4.68v0a4.71,4.71,0,0,1-5,4.71H560Zm1.66,1.5v6.41h1.86a3.07,3.07,0,0,0,3.27-3.18v0a3.1,3.1,0,0,0-3.27-3.21Z" transform="translate(-87.32 -205.86)"/><path class="cls-2" d="M570.63,319.78h1.66v9.42h-1.66Z" transform="translate(-87.32 -205.86)"/><path class="cls-2" d="M574.39,324.51v0a4.76,4.76,0,0,1,4.86-4.87,4.9,4.9,0,0,1,3.68,1.46l-1.06,1.23a3.74,3.74,0,0,0-2.64-1.17,3.17,3.17,0,0,0-3.11,3.32v0a3.18,3.18,0,0,0,3.11,3.34,3.68,3.68,0,0,0,2.71-1.22l1.06,1.08a4.87,4.87,0,0,1-3.82,1.67A4.74,4.74,0,0,1,574.39,324.51Z" transform="translate(-87.32 -205.86)"/><path class="cls-2" d="M588.07,319.71h1.54l4.15,9.49H592l-1-2.28h-4.46l-1,2.28h-1.7Zm2.37,5.75-1.62-3.77-1.62,3.77Z" transform="translate(-87.32 -205.86)"/><path class="cls-2" d="M595.37,319.78H597v7.91h5v1.51h-6.61Z" transform="translate(-87.32 -205.86)"/><path class="cls-2" d="M607.74,319.78h4.2a3.82,3.82,0,0,1,2.72.94,2.83,2.83,0,0,1,.78,2v0a2.82,2.82,0,0,1-2.24,2.85l2.55,3.57h-2l-2.31-3.28h-2.08v3.28h-1.65Zm4.08,4.67c1.18,0,1.94-.62,1.94-1.58v0c0-1-.73-1.57-2-1.57h-2.41v3.17Z" transform="translate(-87.32 -205.86)"/><path class="cls-2" d="M617.47,319.78h7v1.48h-5.33v2.45h4.72v1.48h-4.72v2.53h5.39v1.48h-7Z" transform="translate(-87.32 -205.86)"/><path class="cls-2" d="M625.85,327.83l1-1.19a4.37,4.37,0,0,0,3,1.23c1,0,1.67-.49,1.67-1.19v0c0-.68-.37-1-2.12-1.45-2-.48-3.14-1.07-3.14-2.81v0c0-1.61,1.35-2.73,3.22-2.73a5.23,5.23,0,0,1,3.42,1.19l-.89,1.25a4.31,4.31,0,0,0-2.56-1c-1,0-1.53.5-1.53,1.12v0c0,.73.43,1.05,2.24,1.48,2,.49,3,1.2,3,2.76v0c0,1.76-1.39,2.81-3.37,2.81A5.79,5.79,0,0,1,625.85,327.83Z" transform="translate(-87.32 -205.86)"/><path class="cls-2" d="M635.1,319.78h7v1.48h-5.33v2.45h4.72v1.48h-4.72v2.53h5.39v1.48h-7Z" transform="translate(-87.32 -205.86)"/><path class="cls-2" d="M647.46,319.71H649l4.15,9.49h-1.75l-1-2.28H646l-1,2.28h-1.7Zm2.37,5.75-1.63-3.77-1.62,3.77Z" transform="translate(-87.32 -205.86)"/><path class="cls-2" d="M654.75,319.78H659a3.81,3.81,0,0,1,2.72.94,2.83,2.83,0,0,1,.78,2v0a2.82,2.82,0,0,1-2.23,2.85l2.54,3.57h-2l-2.32-3.28h-2.07v3.28h-1.66Zm4.08,4.67c1.18,0,1.94-.62,1.94-1.58v0c0-1-.73-1.57-1.95-1.57h-2.41v3.17Z" transform="translate(-87.32 -205.86)"/><path class="cls-2" d="M664.07,324.51v0a4.76,4.76,0,0,1,4.85-4.87,4.91,4.91,0,0,1,3.69,1.46l-1.06,1.23a3.74,3.74,0,0,0-2.64-1.17,3.17,3.17,0,0,0-3.11,3.32v0a3.18,3.18,0,0,0,3.11,3.34,3.68,3.68,0,0,0,2.71-1.22l1.06,1.08a4.87,4.87,0,0,1-3.82,1.67A4.74,4.74,0,0,1,664.07,324.51Z" transform="translate(-87.32 -205.86)"/><path class="cls-2" d="M674.41,319.78h1.66v3.91h4.5v-3.91h1.65v9.42h-1.65v-4h-4.5v4h-1.66Z" transform="translate(-87.32 -205.86)"/><path class="cls-2" d="M460.25,338v0a4.77,4.77,0,0,1,4.86-4.87,4.91,4.91,0,0,1,3.69,1.46l-1.06,1.23a3.76,3.76,0,0,0-2.64-1.17,3.17,3.17,0,0,0-3.11,3.32v0a3.18,3.18,0,0,0,3.11,3.34,3.66,3.66,0,0,0,2.7-1.21l1.07,1.07a4.87,4.87,0,0,1-3.82,1.67A4.74,4.74,0,0,1,460.25,338Z" transform="translate(-87.32 -205.86)"/><path class="cls-2" d="M470.6,333.25h7v1.48h-5.33v2.45H477v1.48h-4.72v2.53h5.4v1.48H470.6Z" transform="translate(-87.32 -205.86)"/><path class="cls-2" d="M479.62,333.25h1.54l5,6.51v-6.51h1.63v9.42h-1.38l-5.2-6.7v6.7h-1.63Z" transform="translate(-87.32 -205.86)"/><path class="cls-2" d="M492.57,334.78h-3v-1.53h7.65v1.53h-3v7.89h-1.67Z" transform="translate(-87.32 -205.86)"/><path class="cls-2" d="M499,333.25h4.2a3.78,3.78,0,0,1,2.71.94,2.83,2.83,0,0,1,.78,2v0a2.81,2.81,0,0,1-2.23,2.85l2.54,3.57h-2l-2.32-3.28h-2.07v3.28H499Zm4.07,4.67c1.19,0,1.94-.62,1.94-1.58v0c0-1-.72-1.57-1.95-1.57h-2.41v3.17Z" transform="translate(-87.32 -205.86)"/><path class="cls-2" d="M508.71,333.25h7v1.48h-5.33v2.45h4.73v1.48h-4.73v2.53h5.4v1.48h-7.05Z" transform="translate(-87.32 -205.86)"/><path class="cls-2" d="M517,343.93c.82-.16,1.21-.57,1.16-1.26h-.7v-1.86h1.79v1.58a2,2,0,0,1-2.07,2.24Z" transform="translate(-87.32 -205.86)"/><path class="cls-2" d="M525.38,333.25h3.72c2.2,0,3.58,1.25,3.58,3.15v0c0,2.12-1.7,3.22-3.77,3.22H527v3h-1.66Zm3.58,4.9c1.25,0,2-.7,2-1.69v0c0-1.11-.8-1.69-2-1.69H527v3.4Z" transform="translate(-87.32 -205.86)"/><path class="cls-2" d="M534,338v0a4.93,4.93,0,0,1,9.85,0v0a4.83,4.83,0,0,1-4.94,4.87A4.77,4.77,0,0,1,534,338Zm8.11,0v0a3.23,3.23,0,0,0-3.2-3.35,3.18,3.18,0,0,0-3.18,3.32v0a3.22,3.22,0,0,0,3.21,3.34A3.17,3.17,0,0,0,542.07,338Z" transform="translate(-87.32 -205.86)"/><path class="cls-2" d="M545.81,333.25H550a3.79,3.79,0,0,1,2.72.94,2.83,2.83,0,0,1,.78,2v0a2.82,2.82,0,0,1-2.23,2.85l2.54,3.57h-2l-2.32-3.28h-2.07v3.28h-1.66Zm4.08,4.67c1.19,0,1.94-.62,1.94-1.58v0c0-1-.73-1.57-2-1.57h-2.41v3.17Z" transform="translate(-87.32 -205.86)"/><path class="cls-2" d="M557.82,334.78h-3v-1.53h7.65v1.53h-3v7.89h-1.67Z" transform="translate(-87.32 -205.86)"/><path class="cls-2" d="M568.26,333.25h4.23a3.38,3.38,0,0,1,2.46.83,2.11,2.11,0,0,1,.64,1.56v0a2.24,2.24,0,0,1-1.35,2.1,2.32,2.32,0,0,1,1.87,2.29v0c0,1.68-1.39,2.58-3.49,2.58h-4.36Zm5.67,2.66c0-.74-.59-1.2-1.66-1.2h-2.38v2.51h2.26c1.07,0,1.78-.42,1.78-1.28Zm-1.41,2.71h-2.63v2.58h2.75c1.13,0,1.82-.44,1.82-1.29v0C574.46,339.09,573.82,338.62,572.52,338.62Z" transform="translate(-87.32 -205.86)"/><path class="cls-2" d="M578,333.25h1.66v7.91h5v1.51H578Z" transform="translate(-87.32 -205.86)"/><path class="cls-2" d="M589.65,333.18h1.53l4.15,9.49h-1.75l-1-2.28h-4.46l-1,2.28h-1.7Zm2.37,5.75-1.63-3.77-1.62,3.77Z" transform="translate(-87.32 -205.86)"/><path class="cls-2" d="M597,333.25h1.65v9.42H597Z" transform="translate(-87.32 -205.86)"/><path class="cls-2" d="M601.21,333.25h4.2a3.81,3.81,0,0,1,2.72.94,2.83,2.83,0,0,1,.78,2v0a2.82,2.82,0,0,1-2.23,2.85l2.54,3.57h-2l-2.31-3.28h-2.07v3.28h-1.66Zm4.08,4.67c1.18,0,1.94-.62,1.94-1.58v0c0-1-.73-1.57-2-1.57h-2.41v3.17Z" transform="translate(-87.32 -205.86)"/><line class="cls-3" x1="357.6" y1="53.01" x2="357.6" y2="136.76"/><path class="cls-4" d="M286,319.86h1.65v9.41H286Z" transform="translate(-87.32 -205.86)"/><path class="cls-4" d="M290.24,319.86h1.53l5.05,6.5v-6.5h1.62v9.41h-1.38l-5.19-6.7v6.7h-1.63Z" transform="translate(-87.32 -205.86)"/><path class="cls-4" d="M300.94,319.86h3.51a4.69,4.69,0,0,1,5,4.68v0a4.71,4.71,0,0,1-5,4.71h-3.51Zm3.51,7.9a3.07,3.07,0,0,0,3.27-3.17v0a3.1,3.1,0,0,0-3.27-3.2h-1.86v6.4Z" transform="translate(-87.32 -205.86)"/><path class="cls-4" d="M311.62,319.86h1.66v9.41h-1.66Z" transform="translate(-87.32 -205.86)"/><path class="cls-4" d="M319.2,319.79h1.54l4.14,9.48h-1.75l-1-2.27h-4.44l-1,2.27h-1.7Zm2.37,5.74-1.63-3.76-1.61,3.76Z" transform="translate(-87.32 -205.86)"/><path class="cls-4" d="M326.57,319.86h1.53l5,6.5v-6.5h1.63v9.41h-1.39l-5.19-6.7v6.7h-1.62Z" transform="translate(-87.32 -205.86)"/><path class="cls-4" d="M340.88,324.59v0a4.76,4.76,0,0,1,4.85-4.86,4.93,4.93,0,0,1,3.69,1.46l-1.07,1.23a3.73,3.73,0,0,0-2.63-1.17,3.16,3.16,0,0,0-3.11,3.32v0a3.19,3.19,0,0,0,3.11,3.35,3.69,3.69,0,0,0,2.7-1.22l1.06,1.07a4.85,4.85,0,0,1-3.81,1.67A4.73,4.73,0,0,1,340.88,324.59Z" transform="translate(-87.32 -205.86)"/><path class="cls-4" d="M350.61,324.59v0a4.92,4.92,0,0,1,9.84,0v0a4.92,4.92,0,0,1-9.84,0Zm8.11,0v0a3.23,3.23,0,0,0-3.2-3.34,3.18,3.18,0,0,0-3.18,3.32v0a3.23,3.23,0,0,0,3.2,3.35A3.18,3.18,0,0,0,358.72,324.59Z" transform="translate(-87.32 -205.86)"/><path class="cls-4" d="M362.38,325.28v-5.42H364v5.35c0,1.75.9,2.69,2.38,2.69s2.36-.89,2.36-2.62v-5.42h1.65v5.34c0,2.8-1.58,4.22-4,4.22S362.38,328,362.38,325.28Z" transform="translate(-87.32 -205.86)"/><path class="cls-4" d="M372.78,319.86h1.54l5,6.5v-6.5H381v9.41H379.6l-5.19-6.7v6.7h-1.63Z" transform="translate(-87.32 -205.86)"/><path class="cls-4" d="M383.07,324.59v0a4.76,4.76,0,0,1,4.85-4.86,4.9,4.9,0,0,1,3.68,1.46l-1.06,1.23a3.74,3.74,0,0,0-2.64-1.17,3.15,3.15,0,0,0-3.1,3.32v0a3.18,3.18,0,0,0,3.1,3.35,3.71,3.71,0,0,0,2.71-1.22l1.06,1.07a4.87,4.87,0,0,1-3.82,1.67A4.73,4.73,0,0,1,383.07,324.59Z" transform="translate(-87.32 -205.86)"/><path class="cls-4" d="M393.57,319.86h1.66v9.41h-1.66Z" transform="translate(-87.32 -205.86)"/><path class="cls-4" d="M397.82,319.86h1.65v7.9h4.95v1.51h-6.6Z" transform="translate(-87.32 -205.86)"/><path class="cls-4" d="M410.69,324.59v0a4.92,4.92,0,0,1,9.84,0v0a4.92,4.92,0,0,1-9.84,0Zm8.11,0v0a3.23,3.23,0,0,0-3.2-3.34,3.18,3.18,0,0,0-3.18,3.32v0a3.23,3.23,0,0,0,3.2,3.35A3.18,3.18,0,0,0,418.8,324.59Z" transform="translate(-87.32 -205.86)"/><path class="cls-4" d="M422.61,319.86h7v1.5h-5.35v2.57H429v1.51h-4.75v3.83h-1.65Z" transform="translate(-87.32 -205.86)"/><path class="cls-4" d="M286,333.3h1.76l2.86,4.45,2.87-4.45h1.76v9.41H293.6V336l-3,4.43h-.05l-2.94-4.4v6.72H286Z" transform="translate(-87.32 -205.86)"/><path class="cls-4" d="M297.67,333.3h7v1.48h-5.32v2.44h4.72v1.48h-4.72v2.53h5.39v1.48h-7.05Z" transform="translate(-87.32 -205.86)"/><path class="cls-4" d="M306.68,333.3h3.51a4.69,4.69,0,0,1,5,4.67v0a4.72,4.72,0,0,1-5,4.71h-3.51Zm3.51,7.9a3.06,3.06,0,0,0,3.26-3.17v0a3.09,3.09,0,0,0-3.26-3.2h-1.86v6.4Z" transform="translate(-87.32 -205.86)"/><path class="cls-4" d="M317.28,333.3h1.65v9.41h-1.65Z" transform="translate(-87.32 -205.86)"/><path class="cls-4" d="M321,338v0a4.76,4.76,0,0,1,4.85-4.86,4.91,4.91,0,0,1,3.69,1.46l-1.07,1.22a3.77,3.77,0,0,0-2.63-1.17,3.16,3.16,0,0,0-3.11,3.32v0a3.19,3.19,0,0,0,3.11,3.35,3.69,3.69,0,0,0,2.7-1.22l1.06,1.07a4.85,4.85,0,0,1-3.81,1.67A4.73,4.73,0,0,1,321,338Z" transform="translate(-87.32 -205.86)"/><path class="cls-4" d="M334.7,333.23h1.53l4.14,9.48h-1.75l-.95-2.28h-4.45l-1,2.28h-1.69Zm2.36,5.74-1.62-3.76L333.82,339Z" transform="translate(-87.32 -205.86)"/><path class="cls-4" d="M342,333.3h1.65v7.9h4.95v1.51H342Z" transform="translate(-87.32 -205.86)"/><path class="cls-4" d="M355.24,333.3h4.19a3.78,3.78,0,0,1,2.71.94,2.83,2.83,0,0,1,.78,2v0a2.81,2.81,0,0,1-2.24,2.84l2.54,3.57h-2L359,339.43h-2.07v3.28h-1.65Zm4.07,4.66c1.18,0,1.93-.62,1.93-1.57v0c0-1-.72-1.56-1.94-1.56h-2.41V338Z" transform="translate(-87.32 -205.86)"/><path class="cls-4" d="M365,333.3h7v1.48H366.6v2.44h4.72v1.48H366.6v2.53H372v1.48H365Z" transform="translate(-87.32 -205.86)"/><path class="cls-4" d="M373.32,341.34l1-1.19a4.33,4.33,0,0,0,3,1.23c1,0,1.67-.47,1.67-1.19v0c0-.68-.38-1-2.13-1.44-2-.49-3.13-1.08-3.13-2.81v0c0-1.61,1.34-2.73,3.21-2.73a5.23,5.23,0,0,1,3.42,1.19l-.89,1.25a4.22,4.22,0,0,0-2.55-1c-1,0-1.54.5-1.54,1.11v0c0,.73.43,1.05,2.24,1.48,2,.48,3,1.2,3,2.75v0c0,1.76-1.38,2.81-3.36,2.81A5.84,5.84,0,0,1,373.32,341.34Z" transform="translate(-87.32 -205.86)"/><path class="cls-4" d="M382.56,333.3h7v1.48h-5.32v2.44h4.72v1.48h-4.72v2.53h5.39v1.48h-7Z" transform="translate(-87.32 -205.86)"/><path class="cls-4" d="M394.89,333.23h1.54l4.14,9.48h-1.75l-1-2.28h-4.44l-1,2.28h-1.7Zm2.37,5.74-1.63-3.76L394,339Z" transform="translate(-87.32 -205.86)"/><path class="cls-4" d="M402.18,333.3h4.19a3.82,3.82,0,0,1,2.72.94,2.88,2.88,0,0,1,.78,2v0a2.81,2.81,0,0,1-2.25,2.84l2.54,3.57h-2l-2.31-3.28h-2.07v3.28h-1.65Zm4.07,4.66c1.18,0,1.94-.62,1.94-1.57v0c0-1-.73-1.56-1.95-1.56h-2.41V338Z" transform="translate(-87.32 -205.86)"/><path class="cls-4" d="M411.48,338v0a4.76,4.76,0,0,1,4.85-4.86A4.9,4.9,0,0,1,420,334.6L419,335.82a3.78,3.78,0,0,0-2.64-1.17,3.16,3.16,0,0,0-3.1,3.32v0a3.18,3.18,0,0,0,3.1,3.35,3.71,3.71,0,0,0,2.71-1.22l1.06,1.07a4.87,4.87,0,0,1-3.82,1.67A4.73,4.73,0,0,1,411.48,338Z" transform="translate(-87.32 -205.86)"/><path class="cls-4" d="M421.81,333.3h1.65v3.91H428V333.3h1.66v9.41H428v-4h-4.49v4h-1.65Z" transform="translate(-87.32 -205.86)"/><path class="cls-5" d="M290.46,272.24a13.38,13.38,0,0,1-4.47-.78v35.18h8.94V271.46A13.42,13.42,0,0,1,290.46,272.24Z" transform="translate(-87.32 -205.86)"/><path class="cls-5" d="M328.78,294.79c-2.6,2.69-5.4,4-8.29,4a10.18,10.18,0,0,1-10.34-10.27,8.86,8.86,0,0,1,3-7,10.19,10.19,0,0,1,7.13-2.73c2.74,0,5.52,1.21,8.26,3.6l.71.61,5.31-6.51L334,276a18.56,18.56,0,0,0-13.57-5.55,19.44,19.44,0,0,0-13.57,5.11,18.77,18.77,0,0,0-.23,26.54,18,18,0,0,0,12.78,5.06,20.46,20.46,0,0,0,14.91-6.51l.61-.62-5.44-5.92Z" transform="translate(-87.32 -205.86)"/><path class="cls-5" d="M340.12,271.59v35.05h8.94V287.39c0-2.9.8-5,2.44-6.49a8.37,8.37,0,0,1,5.83-2.22c2.18,0,3.72.62,4.69,1.9s1.54,3.55,1.54,6.56v19.5h8.94V286.91c.08-2.73.9-4.74,2.52-6.13a8.5,8.5,0,0,1,5.75-2.1c4.68,0,6.86,2.68,6.86,8.46v19.5h8.94V285c0-4.64-1.28-8.27-3.8-10.77a13.5,13.5,0,0,0-9.9-3.76,15.81,15.81,0,0,0-12.36,5.86c-2.19-3.89-5.91-5.86-11.08-5.86a14.08,14.08,0,0,0-7.11,1.9,12.73,12.73,0,0,0-3.26,2.68v-3.43Z" transform="translate(-87.32 -205.86)"/><path class="cls-5" d="M431.19,266l2.59-7.17h-130v0a13.17,13.17,0,0,1-2.08,7.13Z" transform="translate(-87.32 -205.86)"/><path class="cls-6" d="M298.76,258.94a8.3,8.3,0,1,1-8.3-8.3A8.3,8.3,0,0,1,298.76,258.94Z" transform="translate(-87.32 -205.86)"/><path class="cls-5" d="M403.33,293.27s9.42-3.29,10.43-3.72l2.29-.8a5.48,5.48,0,0,0-3.64-10.33l-6,2.1-2.63-7.74,1.85-.63c2.4-.72,10.16-3.85,16.71.63a13.41,13.41,0,0,1,5.84,9.74c.92,7.2-3,11.31-8.58,14.16l10,9.95H416.69l-13.33-13.32Z" transform="translate(-87.32 -205.86)"/><path class="cls-5" d="M266.53,289a3.79,3.79,0,0,0-1.1-2.42,2.79,2.79,0,0,0-2.34-.62,3.82,3.82,0,0,0-1.2.36v0A83.39,83.39,0,0,0,259.54,275l-1.75.28c.15.53.28,1.06.42,1.59a3.19,3.19,0,0,0-.45-.23,2.91,2.91,0,0,0-1.66-.09A3,3,0,0,0,254,278a3.09,3.09,0,0,0-.24,2.27,5.53,5.53,0,0,0,.85,1.94,6.66,6.66,0,0,0,.49.57l-2.37.54h-.07l.47,2.07v.07l6.61-1.49c.15.87.28,1.75.4,2.63l-6.72.87h-.07l.28,2.17,6.77-.88q.32,2.81.42,5.64a1.31,1.31,0,0,1-.09.17,1.6,1.6,0,0,1-1.24.51h-.07a.94.94,0,0,1-1-.65,2.38,2.38,0,0,1-.11-.73l-.12-2.76v-.07l-1.62.07h-.07l.06,1.37q-.46.25-.72.42a7.65,7.65,0,0,0-1.28,1,1.87,1.87,0,0,0-.53,1,2.46,2.46,0,0,0,0,.57l.12,2.62V298l1.62-.07h.07l-.1-2.31c0-.09,0-.23,0-.41a.52.52,0,0,1,.26-.42l.49-.28.21-.09h0v.08a3.43,3.43,0,0,0,.51,1.7,2.33,2.33,0,0,0,2.13,1.1h.17a2.66,2.66,0,0,0,1.21-.37l.16-.11c0,.29,0,.58,0,.87,0,.94,0,1.87-.05,2.81a4.6,4.6,0,0,0-1-.51,5.76,5.76,0,0,0-1.77-.39,2.85,2.85,0,0,0-2.16.78,3.6,3.6,0,0,0-1,2.55,5.45,5.45,0,0,0,.29,2.15c.11.23.24.47.37.73l0,0,1.24.06h0l3.88-2.69c-.07,1.13-.17,2.26-.3,3.38l-6.65-.77h-.07l-.25,2.1v.07l6.72.78q-.48,3.57-1.28,7.06l-1.09-.23.52-2.43a4.67,4.67,0,0,0,0-1.34,2,2,0,0,0-1.66-1.73,2.33,2.33,0,0,0-2.37.7,5,5,0,0,0-1,2.27,5.08,5.08,0,0,0-.08,1.81,1.92,1.92,0,0,0,.12.52l-2.21,0h-.07l-.08,1.88,2.26-.17c.34,0,.66,0,1,0a4.86,4.86,0,0,1,.6,0l.07,0,.35-1.66v-.06l-.05,0a.93.93,0,0,1-.61-.46,2.67,2.67,0,0,1,0-1.45,2.08,2.08,0,0,1,.44-1,1,1,0,0,1,1-.26.93.93,0,0,1,.8,1,2.83,2.83,0,0,1-.07.4l-.73,3.47,0,.07,2.36.5c-.22.86-.45,1.71-.69,2.57l1.7.49a83.76,83.76,0,0,0,2.73-32.3v-.11a1.91,1.91,0,0,1,.45-.28,2.56,2.56,0,0,1,.61-.13,1.45,1.45,0,0,1,1.17.26,1.78,1.78,0,0,1,.56,1.22,3.34,3.34,0,0,1-.53,2.38,3.73,3.73,0,0,1-1.11,1.13l.11,1.8.62-.39a6.66,6.66,0,0,0,1.83-1.94A5.18,5.18,0,0,0,266.53,289Zm-10-6.59a2.27,2.27,0,0,1-.49-.33,2.18,2.18,0,0,1-.7-1.15,2.12,2.12,0,0,1,.21-1.57,1.89,1.89,0,0,1,1.28-.89,2.21,2.21,0,0,1,1.47.13,2.59,2.59,0,0,1,.45.32c.22.94.42,1.9.61,2.85Zm-.09,22.41a1.71,1.71,0,0,1-.11-.27,2.21,2.21,0,0,1-.13-.83,2.37,2.37,0,0,1,.48-1.42,1.59,1.59,0,0,1,1.32-.57h.14a4.73,4.73,0,0,1,1.43.31,4.24,4.24,0,0,1,.55.21Z" transform="translate(-87.32 -205.86)"/><path class="cls-5" d="M113.32,250.44l1.34-1.6,0,0,0,0a3.18,3.18,0,0,1-.31-.62,1.53,1.53,0,0,1,.36-1.42,1.78,1.78,0,0,1,.81-.56.79.79,0,0,1,.81.15.64.64,0,0,1,.25.66,1.44,1.44,0,0,1-.14.34l-.65.78,1.06.88.63-.75a2.66,2.66,0,0,1,.43-.29.81.81,0,0,1,.88.14,1.09,1.09,0,0,1,.41,1,1.85,1.85,0,0,1-.44,1.07,1.6,1.6,0,0,1-1.41.65,2.59,2.59,0,0,1-1.34-.67l-.05,0-1.31,1.56-.05.06.06,0,.82.57a3.53,3.53,0,0,0,1.72.48h.26a3.64,3.64,0,0,0,2.5-1.46,4.91,4.91,0,0,0,1.15-2.19,2.2,2.2,0,0,0-.79-2.23,1.51,1.51,0,0,0-1-.36h-.11a2.86,2.86,0,0,0-.37.08l1.52-1.82,3.08,2.58,1.4-1.68-5.19-4.35c.69-.73,1.4-1.44,2.12-2.15l4.69,4.9,0,.05,1.58-1.52-4.75-5q1.58-1.45,3.21-2.82h.25a1.33,1.33,0,0,1,.8.51.84.84,0,0,1,.12.95,2.36,2.36,0,0,1-.71.78,2.22,2.22,0,0,1-.34.23l-.52.31-.08,0,.07.07.78.67a4.29,4.29,0,0,0,2,.84,2.83,2.83,0,0,0,.41,0,3.7,3.7,0,0,0,2.3-.87,5.19,5.19,0,0,0,1.27-1.42,3.88,3.88,0,0,0,.52-1.24l.48.59.63.75a1.5,1.5,0,0,0-.2.23,2.71,2.71,0,0,0-.29.45l0,.06,1.22.92,0-.09a1.61,1.61,0,0,1,.13-.33,1.62,1.62,0,0,1,1.26-.86h0a.59.59,0,0,1,.52.29.72.72,0,0,1,0,.83,2.73,2.73,0,0,1-.85.84,2.81,2.81,0,0,1-1.62.45h0a4.47,4.47,0,0,1-1.67-.35l-.07,0-.34,1.38,0,.07.06,0a5.94,5.94,0,0,0,1.39.31l.34,0a5.09,5.09,0,0,0,2.87-.92,5.18,5.18,0,0,0,1.64-1.63,1.88,1.88,0,0,0-.07-2.12,1.85,1.85,0,0,0-1.62-.86h0a3.23,3.23,0,0,0-1,.2l.19-.15-4.15-5.29c.89-.62,1.79-1.22,2.7-1.81l3.6,5.75,0,.06,1.8-1.13.06,0-3.64-5.81q3.51-2.12,7.2-3.87l.61,1.21h0a4.91,4.91,0,0,0-.73.05,6.23,6.23,0,0,0-1.89.6,4.74,4.74,0,0,0-2,1.62,1.9,1.9,0,0,0-.07,1.94,2.18,2.18,0,0,0,1.8,1.27,1.51,1.51,0,0,0,.3,0,4.66,4.66,0,0,0,2.07-.57,6.45,6.45,0,0,0,1.69-1.21,4.58,4.58,0,0,0,.41-.49l.81,1.61,0,.06,1.89-.95.06,0-3-6a82.13,82.13,0,0,1,11.67-4.15l.25.77-6.39,2a4.55,4.55,0,0,0-1.29.62,1.67,1.67,0,0,0,.4,3.07,2.81,2.81,0,0,0,1.67-.05l2.8-.89a1.18,1.18,0,0,1,.61-.05.42.42,0,0,1,.34.31.59.59,0,0,1-.2.7,2.75,2.75,0,0,1-.81.36l-.24.07a6.21,6.21,0,0,1-1.68.31,3.27,3.27,0,0,1-1.3-.12h0l-1.9,1.07-.1.05.09.06c.35.25.71.51,1.08.75h0a2.94,2.94,0,0,0,1.79-.09,2.21,2.21,0,0,1,2,.73,10.49,10.49,0,0,1,1,1.08l0,0,2-.64-.08-.08c-.16-.18-.3-.32-.39-.43-.32-.32-.56-.55-.73-.69a4.61,4.61,0,0,0-1.16-.58l-.43-.14.92-.29a3.56,3.56,0,0,0,1.69-1.06,1.89,1.89,0,0,0,.36-1.91,1.59,1.59,0,0,0-.89-1,1.87,1.87,0,0,0-1.34-.05l-3.5,1.11a.77.77,0,0,1-.45,0,.39.39,0,0,1-.27-.26.47.47,0,0,1,.19-.5,1.84,1.84,0,0,1,.29-.17l6.29-2,1.36,4.29,0,.07,2-.64.07,0-2-6.34c.92-.22,1.84-.42,2.76-.61l1.28,6.69,0,.06,2.15-.41-1.31-6.77a79.18,79.18,0,0,1,9.5-1.12l.11,1.21-5.43.47a4.06,4.06,0,0,0-1.12.34,2,2,0,0,0-1,2,2,2,0,0,0,.93,1.66A3.81,3.81,0,0,0,170,222a3.65,3.65,0,0,0,2-.68,1.8,1.8,0,0,0,.62-1.64,1.64,1.64,0,0,0-.32-.86,2,2,0,0,0-.15-.18l2.17-.19.38,4.26v.07l2.11-.19h.07l-.59-6.76c.51,0,1-.06,1.52-.06l0-1.77a83.4,83.4,0,0,0-32.44,7.08,5.54,5.54,0,0,1-.83-.37,2.55,2.55,0,0,1-1.33-1.27,1.08,1.08,0,0,1,0-.91,1.18,1.18,0,0,1,.6-.54l1-.44-.44-1.05,0-.06-1.61.68a2.64,2.64,0,0,0-1.25.9,1.84,1.84,0,0,0,0,1.77,3.21,3.21,0,0,0,1.56,1.5,8.71,8.71,0,0,0,1,.38,83.42,83.42,0,0,0-8.35,4.44,2.14,2.14,0,0,1-.43-.29,2.47,2.47,0,0,1-.37-.49,1.47,1.47,0,0,1-.25-1.18,1.83,1.83,0,0,1,.87-1,3.35,3.35,0,0,1,2.38-.5,3.73,3.73,0,0,1,1.49.53l1.6-.83-.61-.42a6.63,6.63,0,0,0-2.54-.85,5.18,5.18,0,0,0-3.37.81,3.85,3.85,0,0,0-1.74,2,2.82,2.82,0,0,0,.42,2.4,3.73,3.73,0,0,0,.83.93l-1.05.66-.06,0h0a83.25,83.25,0,0,0-10,7.75v0l-.36.35c-.79.72-1.55,1.46-2.31,2.21l-.56.54-.05,0h0c-1.35,1.37-2.67,2.76-3.94,4.22l1.9.54c.19-.22.4-.42.6-.64l1.19,1-1.56,1.86a.78.78,0,0,0,0-.23,1.17,1.17,0,0,0-.43-.89,2,2,0,0,0-2.15-.37,4.71,4.71,0,0,0-1.75,1.38,4.13,4.13,0,0,0-1.14,2.76,2.52,2.52,0,0,0,.92,2Zm57.27-29.85a1.17,1.17,0,0,1-.7.24,1.32,1.32,0,0,1-.87-.18.85.85,0,0,1-.35-.64,1.1,1.1,0,0,1,.28-.9.67.67,0,0,1,.3-.19l.95-.08a1.09,1.09,0,0,1,.29.15,1.06,1.06,0,0,1,.35.77A.94.94,0,0,1,170.59,220.59ZM144.82,226l.34,0,.42.83a3.94,3.94,0,0,1-.43.6,4.35,4.35,0,0,1-1.3,1,2.94,2.94,0,0,1-1.17.36h0a.93.93,0,0,1-.89-.58.83.83,0,0,1,0-.86,3.65,3.65,0,0,1,1.42-1,3.55,3.55,0,0,1,1.42-.39Zm-14.45,5.77,1.45,1.85h0s.13.18.08,1.23a2.82,2.82,0,0,1-1,2.2,2,2,0,0,1-1.51.42,1.54,1.54,0,0,1-.47-.12l-.11,0,.06-.05a2.55,2.55,0,0,0,1-1.49,1.83,1.83,0,0,0-.42-1.53,2.24,2.24,0,0,0-1-.72,1.63,1.63,0,0,0-.26-.07C128.93,232.93,129.64,232.36,130.37,231.81Z" transform="translate(-87.32 -205.86)"/><path class="cls-5" d="M116.17,344.94a3.31,3.31,0,1,0,3.31,3.31A3.31,3.31,0,0,0,116.17,344.94Z" transform="translate(-87.32 -205.86)"/><path class="cls-5" d="M179.09,241.51a56.13,56.13,0,1,0,56.13,56.13A56.19,56.19,0,0,0,179.09,241.51Zm0,110.59a54.47,54.47,0,1,1,54.47-54.46A54.52,54.52,0,0,1,179.09,352.1Z" transform="translate(-87.32 -205.86)"/><path class="cls-5" d="M179.09,205.86a91.78,91.78,0,1,0,91.78,91.78A91.88,91.88,0,0,0,179.09,205.86Zm0,181.9a90.12,90.12,0,1,1,90.12-90.12A90.22,90.22,0,0,1,179.09,387.76Z" transform="translate(-87.32 -205.86)"/><path class="cls-5" d="M135.92,340.9a3.31,3.31,0,1,0,3.31,3.31A3.31,3.31,0,0,0,135.92,340.9Z" transform="translate(-87.32 -205.86)"/><path class="cls-5" d="M223.19,340.9a3.31,3.31,0,1,0,3.31,3.31A3.31,3.31,0,0,0,223.19,340.9Z" transform="translate(-87.32 -205.86)"/><path class="cls-5" d="M243.33,344.94a3.31,3.31,0,1,0,3.31,3.31A3.31,3.31,0,0,0,243.33,344.94Z" transform="translate(-87.32 -205.86)"/><path class="cls-5" d="M102.73,267.85l-1.65-.65a82.33,82.33,0,0,0-3.8,12.7l-1,.08a6.85,6.85,0,0,0-2.47.83,3.58,3.58,0,0,0-1.74,2.4,3.79,3.79,0,0,0,.12,2.21,2.46,2.46,0,0,0,1.9,1.54,4.91,4.91,0,0,0,.94.09l.53,0a3.47,3.47,0,0,0,.47-.09,83.93,83.93,0,0,0,1,27.35l1.73-.35c-.13-.66-.23-1.32-.35-2l1.84-.3.6,2.49-2,.48a2.47,2.47,0,0,0-.83.61,2.7,2.7,0,0,0-.38,2.44,3.3,3.3,0,0,0,.84,1.62,1.68,1.68,0,0,0,1.22.53,1.88,1.88,0,0,0,.46-.06,1.51,1.51,0,0,0,.48-.23l.18-.16,0,0-.44-1.83-.09.1-.08.09a1,1,0,0,1-.37.19.55.55,0,0,1-.51-.09,1.17,1.17,0,0,1-.29-.58c-.1-.4,0-.65.27-.79a.7.7,0,0,1,.21,0l1.71-.41.36,1.51a2.24,2.24,0,0,0,.88,1.36,1.86,1.86,0,0,0,1.57.26,2,2,0,0,0,1.53-1.28,3.42,3.42,0,0,0,0-2,3.38,3.38,0,0,0-1-1.73,1.93,1.93,0,0,0-1.85-.47l-.76.18-.58-2.39,3.67-.6h.06l-.34-2.09v-.07l-6.84,1.11,0-.27c-.1-.7-.17-1.4-.26-2.1l0-.31,6.83-.69h.07l-.22-2.17-6.9.69,0-.5c-.06-.76-.13-1.53-.17-2.3l0-2.57a1.1,1.1,0,0,1,.2-.46,1.56,1.56,0,0,1,1.25-.48h0a.94.94,0,0,1,1,.68,2.89,2.89,0,0,1,.09.72l0,2.77v.07l1.61,0h.07l0-1.36.73-.4a7.66,7.66,0,0,0,1.3-.93,1.94,1.94,0,0,0,.57-1,3.1,3.1,0,0,0,.05-.57L104.1,296v-.07l-1.62,0h-.07l0,2.31v.41a.51.51,0,0,1-.27.41,3.94,3.94,0,0,1-.51.27l-.2.09v-.09a3.5,3.5,0,0,0-.46-1.72,2.37,2.37,0,0,0-2.21-1.16h-.06a2.76,2.76,0,0,0-1.22.33,2.67,2.67,0,0,0-.33.22l0-.8a82.54,82.54,0,0,1,.65-9.06l1.17.12-.46,4.29a4.44,4.44,0,0,0,.24,1.26,2.57,2.57,0,0,0,2.24,1.5,2.91,2.91,0,0,0,2.76-1,3.93,3.93,0,0,0,.75-2,3.28,3.28,0,0,0,0-.39,1.22,1.22,0,0,0,0-.27v-.05l-1.64-.18,0,.11a.78.78,0,0,1,0,.22,3.54,3.54,0,0,1,0,.59.93.93,0,0,1-.36.66,1.54,1.54,0,0,1-1.13.24,1.21,1.21,0,0,1-1.14-.78,2,2,0,0,1-.06-.66l.36-3.33,4.09.43h.07l.22-2.11v-.06L98.14,285l0-.2c.13-.83.25-1.66.41-2.49l7,1.44.44-2.14L99,280.12c.11-.51.21-1,.33-1.53h0l.3-1.19c.11-.44.22-.87.34-1.31a5.08,5.08,0,0,1,.49-.21,1.37,1.37,0,0,1,1,0,.85.85,0,0,1,.63.72,2.34,2.34,0,0,1-.14,1.05,3.31,3.31,0,0,1-.16.38c-.09.2-.17.38-.25.54l0,.09h.09c.34.05.68.08,1,.12h.14a4.24,4.24,0,0,0,2-.45,3.58,3.58,0,0,0,1.76-2.22,5.39,5.39,0,0,0,.25-1.89,3.78,3.78,0,0,0-.27-1.32l.72.21,1,.28.07,0,.66-2.08-6.72-2.12C102.41,268.74,102.55,268.29,102.73,267.85Zm-6.37,17a1.84,1.84,0,0,1-.32.12,3,3,0,0,1-1.23,0,2.42,2.42,0,0,1-1.13-.52.91.91,0,0,1-.29-.92c.16-.77.84-1.27,2-1.48a8.8,8.8,0,0,1,1.44-.09C96.67,282.88,96.51,283.84,96.36,284.81Zm7,30.66a.9.9,0,0,1,.72.06,1,1,0,0,1,.39.64.91.91,0,0,1-.07.68.89.89,0,0,1-.6.38.8.8,0,0,1-.95-.27,2,2,0,0,1-.18-.48l-.19-.8Zm.58-43.38h0s.21.08.76,1a2.78,2.78,0,0,1,.4,2.38,2,2,0,0,1-1,1.2,1.52,1.52,0,0,1-.46.17l-.11,0,0-.07a2.53,2.53,0,0,0,0-1.82,1.86,1.86,0,0,0-1.21-1,2.16,2.16,0,0,0-.66-.1,2.32,2.32,0,0,0-.58.08c-.1,0-.43.1-.58.15.23-.77.47-1.54.72-2.3l.12-.39,0-.08Z" transform="translate(-87.32 -205.86)"/><path class="cls-5" d="M199.79,225.4a5,5,0,0,0,2.46.34,2.18,2.18,0,0,0,1.82-1.5,1.55,1.55,0,0,0,0-1.16,2.24,2.24,0,0,0-.21-.32l2.23.82-1.36,3.7,0,.06,2.06.76,2.41-6.57a81.38,81.38,0,0,1,8.86,4.14l-.56,1.15-4.88-2.42a4.08,4.08,0,0,0-1.14-.29h-.07a1.93,1.93,0,0,0-1.81,1.23c-.68,1.38-.1,2.54,1.73,3.44a3.8,3.8,0,0,0,2.1.48,1.81,1.81,0,0,0,1.38-1.08,1.78,1.78,0,0,0,.18-.9c0-.07,0-.14,0-.23l1.95,1L215,231.81a1.91,1.91,0,0,0-.36-.13,2.45,2.45,0,0,0-.54-.07h0l-.29,1.4,0,.1h.1a1.47,1.47,0,0,1,.35,0,1.54,1.54,0,0,1,.7.18c.63.38.81.76.57,1.17a.72.72,0,0,1-.75.35,2.81,2.81,0,0,1-2.24-1.7,4.71,4.71,0,0,1-.4-1.66v-.08l-1.46.31v.06a5.45,5.45,0,0,0,.31,1.39,5,5,0,0,0,2.18,2.51,5.16,5.16,0,0,0,2.18.78h.19a2,2,0,0,0,1.76-2.86,3,3,0,0,0-.64-.82l.27.13.06,0,3-6.15c1.36.78,2.69,1.61,4,2.46.13.31.24.71.29.83a1.34,1.34,0,0,1-.07,1.29,1.22,1.22,0,0,1-.71.52,1.07,1.07,0,0,1-.89-.24l-2.08-1.48-.05,0-.91,1.28,0,.06,1.19.83c-.08.38-.13.69-.16.91a4.82,4.82,0,0,0,0,1.68,1.82,1.82,0,0,0,.29.7,2,2,0,0,0,.43.43l.19.13,1.68,1.19,0,0,.9-1.28.05,0-1.58-1.12a.51.51,0,0,1-.2-.18,1.48,1.48,0,0,1-.12-.58,2.75,2.75,0,0,1,.09-.51l0-.16a2.82,2.82,0,0,0,1.59.5h.1a2,2,0,0,0,1.58-.91,2.76,2.76,0,0,0,.53-1.64c0-.11,0-.47-.06-.73,1,.72,2,1.46,3,2.22l-1.35,1.9-1.69-1.19,0-.05-1,1.38,1.75,1.24-1.72,2.42,0,.06,1.72,1.22.06,0,4-5.66c.54.44,1.08.88,1.61,1.33a3.14,3.14,0,0,1,1.72-.84c-.49-.44-1-.85-1.51-1.27h0l-.07-.05a83.42,83.42,0,0,0-26.4-14.89l.09,1.9.84.32-.58,1.59-2.29-.84.23-.05a1.17,1.17,0,0,0,.69-.72,2,2,0,0,0-.38-2.14,4.56,4.56,0,0,0-1.9-1.18,4.12,4.12,0,0,0-3-.14,2.56,2.56,0,0,0-1.54,1.53l0,.07,1.95.72h.05l0,0a2.59,2.59,0,0,1,.48-.5,1.49,1.49,0,0,1,1.45-.14,1.76,1.76,0,0,1,.81.57.8.8,0,0,1,.13.81.65.65,0,0,1-.54.46,1.61,1.61,0,0,1-.36,0l-1-.35-.45,1.23,0,.07.92.33a2.4,2.4,0,0,1,.42.32.8.8,0,0,1,.17.87,1.07,1.07,0,0,1-.76.71,1.82,1.82,0,0,1-1.15,0,1.6,1.6,0,0,1-1.09-1.11,2.55,2.55,0,0,1,.18-1.48l0-.07-2-.73,0,.07c-.11.37-.19.67-.26,1a3.39,3.39,0,0,0,.23,2A3.61,3.61,0,0,0,199.79,225.4Zm13.37,1.88a1,1,0,0,1-.63.58,1.31,1.31,0,0,1-.73-.16,1.34,1.34,0,0,1-.65-.61.83.83,0,0,1,0-.72,1.11,1.11,0,0,1,.71-.64H212a.82.82,0,0,1,.21,0l.86.42a.75.75,0,0,1,.16.28A1,1,0,0,1,213.16,227.28Z" transform="translate(-87.32 -205.86)"/><path class="cls-5" d="M232.22,231.87a1.7,1.7,0,0,0,1,.43h.11a1,1,0,0,0,.78-.37,1.07,1.07,0,0,0,.24-1,1.65,1.65,0,0,0-.57-.91,1.52,1.52,0,0,0-1-.37h0a1.12,1.12,0,0,0-.88.41,1,1,0,0,0-.21.94A1.68,1.68,0,0,0,232.22,231.87Z" transform="translate(-87.32 -205.86)"/><path class="cls-5" d="M237.61,237.94l-.74,1.74c.45.45.87.94,1.31,1.4L236.13,243a5.05,5.05,0,0,1-2.08.05,3.09,3.09,0,0,1-1.48-.76,1.59,1.59,0,0,1-.48-.78.8.8,0,0,1,.22-.76.84.84,0,0,1,.94-.26,2,2,0,0,1,.77.48l.2.2.08.09.87-.95-1-.91a2.08,2.08,0,0,1-.59-.76.87.87,0,0,1,.26-.89.83.83,0,0,1,.55-.29.61.61,0,0,1,.53.17.62.62,0,0,1,.2.81,2.26,2.26,0,0,1-.33.39l-.05,0,1,.89,0,0,0,0a.31.31,0,0,0,.11-.09l.11-.11a2.18,2.18,0,0,0,.6-1.24,2.48,2.48,0,0,0-1-2,2.75,2.75,0,0,0-1.65-.76h-.15a1.88,1.88,0,0,0-1.41.66,1.81,1.81,0,0,0-.45,1.39,2.41,2.41,0,0,0,.35,1.2,1.84,1.84,0,0,0-.7,0,1.74,1.74,0,0,0-.93.52,1.94,1.94,0,0,0-.39,1.88,3.59,3.59,0,0,0,1.1,1.78,4.82,4.82,0,0,0,2.13,1.18,4.44,4.44,0,0,0,.92.1h.35l-1.57,1.48,0,0,1.46,1.54.05,0,5-4.73c.62.67,1.22,1.36,1.81,2l-5.19,4.36,0,0,1.36,1.62.05.06,5.21-4.39a83,83,0,0,1,5.53,7.78l-1.11.76-3.07-4.5a4,4,0,0,0-.84-.81,2,2,0,0,0-2.25.15c-1.27.86-1.33,2.16-.18,3.85a3.78,3.78,0,0,0,1.6,1.44,1.78,1.78,0,0,0,1.73-.26,1.69,1.69,0,0,0,.6-.7,1.94,1.94,0,0,0,.07-.22l1.23,1.8-3.52,2.41-.06,0,1.19,1.75,0,.06,5.71-3.9c.23.38.48.74.7,1.13l1.44-1A83,83,0,0,0,237.61,237.94Zm5.71,15.32a.9.9,0,0,1-.84.19,1.16,1.16,0,0,1-.55-.49,1.25,1.25,0,0,1-.27-.85.83.83,0,0,1,.38-.62,1.26,1.26,0,0,1,.69-.23l.24,0a1,1,0,0,1,.31.18l.53.79a.7.7,0,0,1,0,.32A1.06,1.06,0,0,1,243.32,253.26Z" transform="translate(-87.32 -205.86)"/><path class="cls-5" d="M166.46,368.35a1.2,1.2,0,0,1,.79-.15l1.13.17.18-1.19-1.72-.26a2.65,2.65,0,0,0-1.54.11,1.84,1.84,0,0,0-.93,1.51,3.24,3.24,0,0,0,.54,2.09,7.67,7.67,0,0,0,.54.75,75.06,75.06,0,0,1-17.62-5.55l-.68,1.63a77,77,0,0,0,7.71,3l-.38,1-5.08-2a4,4,0,0,0-1.15-.19,1.94,1.94,0,0,0-1.77,1.39,2,2,0,0,0,.1,1.91,3.83,3.83,0,0,0,1.93,1.37,3.66,3.66,0,0,0,2.13.28,1.76,1.76,0,0,0,1.28-1.19,1.71,1.71,0,0,0,.1-.92A1.23,1.23,0,0,0,152,372l2,.79-1.54,4,0,.06,2,.77.06,0,2.5-6.43c2.19.65,4.42,1.21,6.67,1.67l-.25,1.1-2.51-.58a7.62,7.62,0,0,0-1.19-.14h0a1.49,1.49,0,0,0-1.54,1.17,1.54,1.54,0,0,0,.46,1.5,3,3,0,0,0,1.47.76l2.87.66a1.05,1.05,0,0,1,.52.3.52.52,0,0,1,.14.5,1,1,0,0,1-1.05.82,5.62,5.62,0,0,1-1.44-.2,5.34,5.34,0,0,1-1.76-.68c-.21-.23-.43-.49-.66-.77l0,0-1.77.52h-.06l0,.07a1.55,1.55,0,0,0,.31.63,3.51,3.51,0,0,0,1.94,1,2.2,2.2,0,0,1,1.42,1.51,6,6,0,0,1,.33,1.25v.05l2.05.47-.09-.58a4.7,4.7,0,0,0-.34-1,3.49,3.49,0,0,0-.5-.72l-.34-.36.22.05a4.26,4.26,0,0,0,2.68-.1,1.84,1.84,0,0,0,1.1-1.36,1.76,1.76,0,0,0-.21-1.41,1.79,1.79,0,0,0-1.12-.78l-3.57-.82-.2-.1a.5.5,0,0,1-.28-.58.44.44,0,0,1,.37-.38.65.65,0,0,1,.28,0l4.08.93.07,0,.53-2.33c.89.15,1.79.3,2.68.42l.25-1.75c-.47-.06-.94-.15-1.41-.22a2.8,2.8,0,0,1-.58-.73,2.56,2.56,0,0,1-.47-1.78A1,1,0,0,1,166.46,368.35Zm-16.21,4a.92.92,0,0,1-.58.63,1.14,1.14,0,0,1-.74-.09,1.29,1.29,0,0,1-.7-.54.85.85,0,0,1,0-.73,1.08,1.08,0,0,1,.64-.69.57.57,0,0,1,.25,0h.11l.89.34a.88.88,0,0,1,.19.26A1.06,1.06,0,0,1,150.25,372.33Z" transform="translate(-87.32 -205.86)"/><path class="cls-5" d="M200.79,372.72a3,3,0,0,0-.54.17,2.45,2.45,0,0,0-.55.31,4.77,4.77,0,0,0-.63.64l-.21.26a2.34,2.34,0,0,0-1.07-.61,3.49,3.49,0,0,0-1.73,0,3.58,3.58,0,0,0-2.05,1.24,2.43,2.43,0,0,0-.52,2.18,2.7,2.7,0,0,0,2,2.17,3.71,3.71,0,0,0,1.08.14,6.09,6.09,0,0,0,1.29-.15l.71-.16-.3-1.3v-.07l-.27.06-.27.07a2.49,2.49,0,0,1-1.18,0,1.19,1.19,0,0,1-.88-1,1.31,1.31,0,0,1,.24-1.13,1.67,1.67,0,0,1,1-.65,1.46,1.46,0,0,1,1,.1,1,1,0,0,1,.57.71l.22,1,0,.07,1.3-.3.07,0-.24-1s0-.1.11-.41a1.74,1.74,0,0,1,.42-.63,1,1,0,0,1,.32-.21,2.58,2.58,0,0,1,.45-.13h0l.23-1.44-.37.06Z" transform="translate(-87.32 -205.86)"/><path class="cls-5" d="M215.36,365.23l-1-1.47-1,.49-.35-.44c-.18-.18-.35-.36-.52-.55a6.93,6.93,0,0,0-2.2-1.4,3.58,3.58,0,0,0-3,.13,3.81,3.81,0,0,0-1.65,1.48,2.46,2.46,0,0,0,0,2.45,4.86,4.86,0,0,0,.87,1.19l.19.17a75.57,75.57,0,0,1-19,4.8c-.12-.24-.23-.48-.34-.72a6.7,6.7,0,0,0-1.73-2.05,5.23,5.23,0,0,0-3.2-1.05h-.11a3.82,3.82,0,0,0-2.52.82,2.8,2.8,0,0,0-.88,2.27,3.78,3.78,0,0,0,.22,1.23l-1.14,0h-.49l0,1.77h1.7l.12,6.76v.07l2.12,0h.06l-.11-6.86c2.28-.07,4.56-.22,6.82-.49l.13,1.22-2.47.26a4.75,4.75,0,0,0-1.29.39,2,2,0,0,0-1.13,2.11,2.32,2.32,0,0,0,1.4,2,4.89,4.89,0,0,0,2.46.24,5.38,5.38,0,0,0,1.75-.48,2.32,2.32,0,0,0,.45-.28l.67,2.11,0,.06L192,381l-.86-2.1c-.1-.3-.2-.61-.29-.93a5.52,5.52,0,0,1-.15-.59v-.07l-1.74.18v.06a.93.93,0,0,1-.26.72,2.52,2.52,0,0,1-1.38.45,2.12,2.12,0,0,1-1.07-.11,1,1,0,0,1-.56-.92.93.93,0,0,1,.75-1.08l.4-.06,3.53-.37h.06l-.27-2.62,0,0a76.88,76.88,0,0,0,17.89-4.9l.47,1.25h0l-.16.06a4,4,0,0,0-.6.28,2.2,2.2,0,0,0-.54.39,4.81,4.81,0,0,0-.54.7l-.11.19-.06.09a2.48,2.48,0,0,0-1.15-.46,3.85,3.85,0,0,0-3.57,1.75,2.42,2.42,0,0,0-.22,2.23,2.67,2.67,0,0,0,2.23,1.89,2.78,2.78,0,0,0,.51,0,5.42,5.42,0,0,0,1.84-.37l.37-.14.31-.12-.47-1.24,0-.06-.26.09-.16.06-.1,0a2.54,2.54,0,0,1-1.17.18,1.19,1.19,0,0,1-1-.84,1.3,1.3,0,0,1,.09-1.15,1.58,1.58,0,0,1,.89-.78,1.5,1.5,0,0,1,1,0,1,1,0,0,1,.66.63l.38,1,1.32-.5-.38-1s0-.09,0-.41a1.77,1.77,0,0,1,.35-.68,1.31,1.31,0,0,1,.45-.37l.55-.26L210.5,375l0,.07,2.05-.77-2.43-6.49,0,0c.7-.31,1.4-.64,2.1-1l3,6,0,.06,1.95-1-3.06-6Zm-34.14,7.31a2,2,0,0,1-.21-.48,2.43,2.43,0,0,1-.07-.61,1.5,1.5,0,0,1,.39-1.14,1.82,1.82,0,0,1,1.28-.42h.07a3.33,3.33,0,0,1,2.23.8,3.12,3.12,0,0,1,1.11,1.55Q183.64,372.47,181.22,372.54Zm27.61-6.15a1.55,1.55,0,0,1-.39-.25,2.94,2.94,0,0,1-.76-1,2.35,2.35,0,0,1-.3-1.21.91.91,0,0,1,.54-.8c.69-.35,1.51-.14,2.42.65a12.84,12.84,0,0,1,1.16,1.35C210.62,365.59,209.73,366,208.83,366.39Z" transform="translate(-87.32 -205.86)"/><polygon class="cls-5" points="69.28 151.58 68.55 145.67 67.24 145.13 64.27 152.28 65.52 152.8 67.45 148.14 68.2 153.91 69.55 154.47 72.52 147.32 71.27 146.8 69.28 151.58"/><polygon class="cls-5" points="78.43 150.44 78.79 149.18 73.66 147.71 71.53 155.15 76.79 156.66 77.15 155.41 73.28 154.3 73.86 152.27 77.34 153.27 77.7 152.01 74.22 151.02 74.69 149.37 78.43 150.44"/><polygon class="cls-5" points="85.08 155.71 84.61 150.18 82.9 149.93 80.83 155 80.52 149.58 79.05 149.37 79.63 157.28 81.19 157.5 83.44 151.98 84.03 157.92 85.56 158.14 88.4 150.73 86.95 150.52 85.08 155.71"/><path class="cls-5" d="M185.73,363.8a2.41,2.41,0,0,0,1-.7,3.6,3.6,0,0,0,.66-1.42,5.48,5.48,0,0,0,.09-1.66,6,6,0,0,0-.38-1.81,3.51,3.51,0,0,0-.78-1.2,2.46,2.46,0,0,0-1.14-.62,4.87,4.87,0,0,0-1.38,0l-2.65.21.61,7.72,2.73-.22A4.2,4.2,0,0,0,185.73,363.8Zm-2.65-.94-.41-5.11.66-.05a6.06,6.06,0,0,1,1.19,0,1.29,1.29,0,0,1,.7.31,1.73,1.73,0,0,1,.47.71,5.27,5.27,0,0,1,.26,1.37,5.7,5.7,0,0,1,0,1.42,1.68,1.68,0,0,1-.32.78,1.41,1.41,0,0,1-.56.37,3.79,3.79,0,0,1-.87.14Z" transform="translate(-87.32 -205.86)"/><polygon class="cls-5" points="105.94 149.04 100.7 150.07 102.19 157.67 107.57 156.62 107.32 155.34 103.37 156.11 102.96 154.04 106.51 153.35 106.26 152.07 102.71 152.76 102.38 151.08 106.2 150.33 105.94 149.04"/><polygon class="cls-5" points="108.41 148.38 107.02 148.81 109.29 156.15 114.14 154.66 113.75 153.41 110.3 154.48 108.41 148.38"/><polygon class="cls-5" points="113.86 146.43 112.53 147.01 115.62 154.11 116.95 153.53 115.6 150.43 118.21 149.29 119.56 152.4 120.9 151.81 117.81 144.71 116.47 145.29 117.69 148.09 115.08 149.23 113.86 146.43"/><rect class="cls-5" x="207.92" y="349.16" width="1.45" height="7.74" transform="translate(-229.61 -64.98) rotate(-28.26)"/><path class="cls-5" d="M215.25,281.13l1.13-.44a35.7,35.7,0,0,0-15.46-18.2l-.6,1.06A34.42,34.42,0,0,1,215.25,281.13Z" transform="translate(-87.32 -205.86)"/><path class="cls-5" d="M211.33,281.72l1.12-.48a31.93,31.93,0,0,0-12.51-14.7l-.64,1A30.68,30.68,0,0,1,211.33,281.72Z" transform="translate(-87.32 -205.86)"/><path class="cls-5" d="M206.38,281.24l1.08-.58a27.44,27.44,0,0,0-8.58-9.59l-.69,1A26.11,26.11,0,0,1,206.38,281.24Z" transform="translate(-87.32 -205.86)"/><path class="cls-5" d="M157.2,263.35l-.63-1A35.73,35.73,0,0,0,141.68,281l1.15.4A34.43,34.43,0,0,1,157.2,263.35Z" transform="translate(-87.32 -205.86)"/><path class="cls-5" d="M145.63,281.41l1.14.44a30.74,30.74,0,0,1,11.58-14.51l-.68-1A31.94,31.94,0,0,0,145.63,281.41Z" transform="translate(-87.32 -205.86)"/><path class="cls-5" d="M150.61,280.68l1.09.54a26.21,26.21,0,0,1,7.9-9.42l-.72-1A27.24,27.24,0,0,0,150.61,280.68Z" transform="translate(-87.32 -205.86)"/><polygon class="cls-5" points="33.89 124.9 33.83 124.94 34.88 126.64 41.95 122.27 42.01 122.24 40.95 120.53 33.89 124.9"/><polygon class="cls-5" points="37.84 114.56 36.98 112.78 29.5 116.39 29.44 116.42 30.25 118.1 35.07 115.78 31.87 121.37 31.85 121.41 32.68 123.13 40.16 119.52 40.22 119.49 39.41 117.81 34.71 120.08 37.82 114.59 37.84 114.56"/><path class="cls-5" d="M122.1,312.42a3.58,3.58,0,0,0-1-1.08,3.7,3.7,0,0,0-1.72-.52,4.71,4.71,0,0,0-1.78.24,5.7,5.7,0,0,0-1.8.87,3.62,3.62,0,0,0-1,1.25,3.3,3.3,0,0,0-.33,1.59,7.35,7.35,0,0,0,.37,1.74l1,3.32,8-2.45-1-3.41A6.67,6.67,0,0,0,122.1,312.42Zm-5.43,5.05-.22-.73a8.87,8.87,0,0,1-.37-1.48,1.62,1.62,0,0,1,.7-1.61,4.72,4.72,0,0,1,1.32-.6,5.19,5.19,0,0,1,1.41-.26h.07a1.58,1.58,0,0,1,.86.22,1.61,1.61,0,0,1,.53.59,5.83,5.83,0,0,1,.4,1l.39,1.27Z" transform="translate(-87.32 -205.86)"/><polygon class="cls-5" points="34.1 102.99 33.72 101.02 25.57 102.6 25.5 102.61 25.88 104.58 34.03 103 34.1 102.99"/><path class="cls-5" d="M120.8,306.64l-.17-2.08v0l-1.93-.6-.3-3.58,1.75-.94,0,0-.18-2.17-8,4.45.18,2v0l8.55,2.89Zm-6.57-4.12,2.69-1.4.2,2.3Z" transform="translate(-87.32 -205.86)"/><polygon class="cls-5" points="32.74 90.98 32.87 89.11 27.66 88.77 33.08 85.53 33.11 85.51 33.24 83.54 24.95 82.99 24.89 82.98 24.76 84.85 30.09 85.2 24.55 88.49 24.52 88.51 24.39 90.42 32.68 90.97 32.74 90.98"/><path class="cls-5" d="M116.41,278a1.66,1.66,0,0,1,1.06-.36h.12l.13-1.94v-.08h-.08a3.17,3.17,0,0,0-1.75.51,4.17,4.17,0,0,0-1.64,2.43,4.44,4.44,0,0,0,.24,3.37,4.29,4.29,0,0,0,2.79,2.06,5.5,5.5,0,0,0,1.4.2,3.76,3.76,0,0,0,1.93-.51,4.32,4.32,0,0,0,1.93-2.64,4.38,4.38,0,0,0,0-2.58,3.72,3.72,0,0,0-1.57-1.91l-.06,0-1.06,1.72.06,0a2.26,2.26,0,0,1,1,1.06,1.93,1.93,0,0,1,.06,1.3,2.11,2.11,0,0,1-1,1.35,3.14,3.14,0,0,1-2.26,0,2.93,2.93,0,0,1-1.84-1.16,2.18,2.18,0,0,1-.17-1.73A2.08,2.08,0,0,1,116.41,278Z" transform="translate(-87.32 -205.86)"/><path class="cls-5" d="M125.72,272.62a4.69,4.69,0,0,0,.35-3.46,4.7,4.7,0,0,0-5.77-2.68,4.69,4.69,0,0,0-2.44,2.51,5.82,5.82,0,0,0-.55,2,3.65,3.65,0,0,0,.17,1.42,3.84,3.84,0,0,0,.68,1.28,4.71,4.71,0,0,0,1.76,1.29,4.63,4.63,0,0,0,2,.48,3.66,3.66,0,0,0,1.39-.27A4.73,4.73,0,0,0,125.72,272.62ZM124.3,272a2.48,2.48,0,0,1-1.39,1.33,3.45,3.45,0,0,1-3.77-1.74,2.48,2.48,0,0,1,.14-1.93,2.44,2.44,0,0,1,1.38-1.34,3.5,3.5,0,0,1,3.76,1.78A2.43,2.43,0,0,1,124.3,272Z" transform="translate(-87.32 -205.86)"/><path class="cls-5" d="M127.25,266.74a2.56,2.56,0,0,0,.39,0,3,3,0,0,0,1.22-.51,6,6,0,0,0,1.37-1.53A5.22,5.22,0,0,0,131,263a2.81,2.81,0,0,0,0-1.31,2.26,2.26,0,0,0-.56-1.07,9.81,9.81,0,0,0-1.66-1.31l-3.64-2.46-1.12,1.66,3.83,2.59a8.42,8.42,0,0,1,1.1.84,1.07,1.07,0,0,1,.3.75,1.93,1.93,0,0,1-.42,1.11,2.07,2.07,0,0,1-.91.83,1.27,1.27,0,0,1-.94,0,7.81,7.81,0,0,1-1.16-.7l-3.76-2.53L121,263.1l3.69,2.5a9.44,9.44,0,0,0,1.85,1A2.26,2.26,0,0,0,127.25,266.74Z" transform="translate(-87.32 -205.86)"/><polygon class="cls-5" points="49.39 50.6 50.73 49.14 44.61 43.52 44.56 43.48 43.3 44.85 47.23 48.47 40.85 47.56 40.82 47.55 39.52 48.97 45.63 54.58 45.68 54.63 46.95 53.26 43.1 49.73 49.35 50.59 49.39 50.6"/><path class="cls-5" d="M139.42,252.75a4.42,4.42,0,0,0,2.78-1.05,4.35,4.35,0,0,0,1.52-2.09,3.64,3.64,0,0,0-.19-2.47l0-.06-1.79.76-.07,0,0,.06a2.31,2.31,0,0,1,.23,1.47,1.9,1.9,0,0,1-.71,1.09,2,2,0,0,1-1.63.5,3.1,3.1,0,0,1-1.84-1.31,3,3,0,0,1-.83-2,2.18,2.18,0,0,1,.86-1.51,2.1,2.1,0,0,1,1.18-.49,1.73,1.73,0,0,1,1.12.35l.05,0,1.28-1.58-.07,0a3.28,3.28,0,0,0-1.72-.6h-.08a4.23,4.23,0,0,0-2.67,1,4.42,4.42,0,0,0-1.74,2.89,4.31,4.31,0,0,0,1.09,3.29,4.1,4.1,0,0,0,2.9,1.66Z" transform="translate(-87.32 -205.86)"/><rect class="cls-5" x="143.62" y="240.43" width="2" height="8.37" transform="translate(-197.3 -87.45) rotate(-33.04)"/><polygon class="cls-5" points="61.53 40.96 67.39 37.87 66.71 36.58 66.68 36.52 62.58 38.68 59.45 32.74 59.41 32.69 57.71 33.59 57.65 33.62 61.49 40.9 61.53 40.96"/><path class="cls-5" d="M158.75,241a4.12,4.12,0,0,0,1.82.41,5.82,5.82,0,0,0,1.69-.27,4.58,4.58,0,0,0,2.82-2,4.1,4.1,0,0,0,.28-3.39,4.17,4.17,0,0,0-2.1-2.71,4.74,4.74,0,0,0-3.5-.15,6,6,0,0,0-1.84.89,3.74,3.74,0,0,0-.94,1.07,3.89,3.89,0,0,0-.51,1.36,4.81,4.81,0,0,0,.2,2.17h0A4.08,4.08,0,0,0,158.75,241Zm-.06-5.48a2.44,2.44,0,0,1,1.53-1.17,2.47,2.47,0,0,1,1.92.13,3.54,3.54,0,0,1,1.17,4,2.63,2.63,0,0,1-3.42,1,3.42,3.42,0,0,1-1.2-4Z" transform="translate(-87.32 -205.86)"/><polygon class="cls-5" points="85.51 26.09 85.3 24.65 85.29 24.58 78.97 25.51 78.9 25.52 80.11 33.73 80.12 33.8 82.03 33.52 82.1 33.51 81.59 30.05 85.33 29.5 85.4 29.49 85.18 28.04 85.17 27.97 81.36 28.53 81.1 26.74 85.44 26.1 85.51 26.09"/><polygon class="cls-5" points="91.18 24.2 90.72 32.49 90.71 32.56 92.51 32.67 92.58 32.67 92.92 26.63 94.26 32.72 94.28 32.77 96.12 32.87 96.17 32.87 98.22 26.93 97.88 32.9 97.88 32.97 99.67 33.07 99.74 33.08 100.21 24.79 100.22 24.72 97.36 24.55 97.31 24.55 95.4 29.89 94.1 24.42 94.09 24.37 91.25 24.21 91.18 24.2"/><polygon class="cls-5" points="107.95 34.83 108.25 33.4 108.27 33.34 103.23 32.25 103.67 30.2 108.13 31.16 108.2 31.17 108.5 29.75 108.52 29.68 103.99 28.7 104.35 27.05 109.15 28.09 109.21 28.1 109.52 26.67 109.53 26.6 102.78 25.15 102.71 25.14 100.97 33.26 100.95 33.32 107.88 34.81 107.95 34.83"/><path class="cls-5" d="M205.41,237.89a3.68,3.68,0,0,0-.37-1.59,3.25,3.25,0,0,0-1.06-1.22,7,7,0,0,0-1.61-.76l-3.19-1.19-.06,0-2.89,7.78,0,.07,3.35,1.24a6.22,6.22,0,0,0,1.63.41l.37,0a3.11,3.11,0,0,0,1.11-.18,3.62,3.62,0,0,0,1.46-1,4.9,4.9,0,0,0,.89-1.57A5.65,5.65,0,0,0,205.41,237.89Zm-2.31,1.17a5.06,5.06,0,0,1-.69,1.33,1.61,1.61,0,0,1-.7.55,1.7,1.7,0,0,1-.79.06,5.58,5.58,0,0,1-1.07-.32l-1.24-.46,1.85-5,.72.27a8.56,8.56,0,0,1,1.39.6,1.65,1.65,0,0,1,.65.63,1.81,1.81,0,0,1,.21.9A4.37,4.37,0,0,1,203.1,239.06Z" transform="translate(-87.32 -205.86)"/><polygon class="cls-5" points="118.92 39.27 122.6 31.82 122.63 31.76 120.9 30.9 120.83 30.87 117.16 38.32 117.13 38.38 118.86 39.24 118.92 39.27"/><path class="cls-5" d="M210.66,247.83a4.46,4.46,0,0,0,2.35.76h.11a3.7,3.7,0,0,0,2.28-1l0-.05-1.35-1.5,0,.05a2.32,2.32,0,0,1-1.32.7,1.94,1.94,0,0,1-1.26-.32,2.09,2.09,0,0,1-1-1.38,3.12,3.12,0,0,1,.64-2.17,2.94,2.94,0,0,1,1.63-1.43,2.17,2.17,0,0,1,1.71.32,2,2,0,0,1,.84.95,1.68,1.68,0,0,1,0,1.17l0,.07,1.9.69,0-.07a3.25,3.25,0,0,0,0-1.83,4.19,4.19,0,0,0-1.89-2.25,4.35,4.35,0,0,0-3.3-.71,4.29,4.29,0,0,0-2.75,2.1,4.1,4.1,0,0,0-.63,3.28A4.27,4.27,0,0,0,210.66,247.83Z" transform="translate(-87.32 -205.86)"/><path class="cls-5" d="M219.63,254.51l1.65,1.41,2.59-8.75v0l-1.53-1.32,0,0-8.13,3.93-.1,0,1.62,1.38,1.79-.92,2.73,2.34-.59,1.9Zm-.66-5,2.7-1.38-.94,2.89Z" transform="translate(-87.32 -205.86)"/><polygon class="cls-5" points="134.22 50.39 134.17 50.43 138.52 55.35 138.57 55.4 139.66 54.43 139.71 54.39 136.64 50.92 141.66 46.47 141.72 46.43 140.39 44.93 134.22 50.39"/><path class="cls-5" d="M237.39,263.53l-2-3.44-7.15,4.23-.06,0,1,1.73,3-1.75.16.26a3.16,3.16,0,0,1,.39.84,1.45,1.45,0,0,1,0,.62,12.39,12.39,0,0,1-.54,1.45l-.86,2.07v0l1.15,1.95.07.12.86-1.91a9.8,9.8,0,0,0,.62-1.61,4,4,0,0,0,.09-1,3,3,0,0,0,1.49,1.05,2.14,2.14,0,0,0,1.68-.26,2.3,2.3,0,0,0,.94-1,2.09,2.09,0,0,0,.14-1.37A7.34,7.34,0,0,0,237.39,263.53Zm-.88,2.16a.87.87,0,0,1-.42.51,1,1,0,0,1-.59.14.91.91,0,0,1-.52-.25,8.2,8.2,0,0,1-.93-1.38l-.67-1.12,1.68-1,.71,1.19c.47.79.62,1.08.66,1.17A1.19,1.19,0,0,1,236.51,265.69Z" transform="translate(-87.32 -205.86)"/><polygon class="cls-5" points="152.98 62.98 145.29 66.12 145.23 66.15 147.9 72.71 147.93 72.77 149.28 72.22 149.34 72.19 147.39 67.42 149.34 66.63 151.06 70.85 151.09 70.92 152.44 70.36 152.5 70.34 150.75 66.05 152.31 65.41 154.17 69.96 154.2 70.02 155.55 69.47 155.61 69.44 153 63.05 152.98 62.98"/><path class="cls-5" d="M243.86,279a2.54,2.54,0,0,0-1.11-.94,2.12,2.12,0,0,0-1.29-.1,2.09,2.09,0,0,0-1.44,1.27,5.32,5.32,0,0,0-.29,2.26c0,.75,0,1.29,0,1.53a1.54,1.54,0,0,1-.17.7.63.63,0,0,1-.4.28.9.9,0,0,1-.82-.24,2.22,2.22,0,0,1-.64-1.19,2.14,2.14,0,0,1,0-1.36,1.87,1.87,0,0,1,1-.9l.05,0-.61-1.78,0-.07-.07,0a3.06,3.06,0,0,0-1.81,1.63,4.46,4.46,0,0,0-.05,2.83,6.07,6.07,0,0,0,.79,1.89,2.65,2.65,0,0,0,1.23,1,2.36,2.36,0,0,0,.89.18,2.5,2.5,0,0,0,.54-.07,2.34,2.34,0,0,0,1.22-.7,2.53,2.53,0,0,0,.58-1.22,10.5,10.5,0,0,0,.09-2.11,5.15,5.15,0,0,1,.11-1.77.56.56,0,0,1,.37-.35.53.53,0,0,1,.5.15,2.27,2.27,0,0,1,.58,1.13,1.94,1.94,0,0,1,0,1.17,1.3,1.3,0,0,1-.72.68l-.06,0,.56,1.91H243a2.4,2.4,0,0,0,1.58-1.38,4.33,4.33,0,0,0,0-2.74A5.16,5.16,0,0,0,243.86,279Z" transform="translate(-87.32 -205.86)"/><polygon class="cls-5" points="158.44 80.83 158.44 80.76 150.18 81.63 150.11 81.63 150.85 88.68 150.85 88.74 152.37 88.59 151.83 83.46 153.93 83.24 154.4 87.78 154.41 87.85 155.93 87.69 155.44 83.08 157.12 82.91 157.63 87.79 157.64 87.86 159.16 87.7 158.44 80.83"/><path class="cls-5" d="M246.37,300.67l.09-2.05-8.12-4-.09,0-.09,2.12,1.83.84-.14,3.59-1.87.71,0,0-.09,2.07v.1l8.48-3.38Zm-5-.09.09-2.31,2.76,1.26Z" transform="translate(-87.32 -205.86)"/><path class="cls-5" d="M240.4,308.22a1.39,1.39,0,0,1-.42.46,12.35,12.35,0,0,1-1.37.72l-2,1,0,0-.44,2.22,0,.13,1.91-.85a9.22,9.22,0,0,0,1.53-.79,4,4,0,0,0,.75-.69,3,3,0,0,0,.42,1.77,2.1,2.1,0,0,0,1.42.92,2.8,2.8,0,0,0,.48,0,2.24,2.24,0,0,0,.92-.2,2.12,2.12,0,0,0,1-.93,7.57,7.57,0,0,0,.64-2.08l.76-3.85V306l-8.14-1.61h-.07l-.37,1.89,0,.07,3.38.66-.07.31A3,3,0,0,1,240.4,308.22Zm1.5.38.25-1.29,1.91.38-.26,1.36c-.15.74-.25,1.18-.29,1.32a1.13,1.13,0,0,1-.43.59.84.84,0,0,1-.65.1.88.88,0,0,1-.53-.28.92.92,0,0,1-.23-.54A7.43,7.43,0,0,1,241.9,308.6Z" transform="translate(-87.32 -205.86)"/><path class="cls-5" d="M242.55,319.77a4.44,4.44,0,0,0,0-3.38,4.32,4.32,0,0,0-2.64-2.24,4.11,4.11,0,0,0-3.34.06,4.81,4.81,0,0,0-2.34,5.06,3.72,3.72,0,0,0,1.43,2l.06,0,1.14-1.58,0-.06-.06,0a2.23,2.23,0,0,1-1-1.14,1.88,1.88,0,0,1,0-1.3,2.09,2.09,0,0,1,1.14-1.27,3.16,3.16,0,0,1,2.26.17,3,3,0,0,1,1.74,1.3,2.12,2.12,0,0,1,0,1.73,2,2,0,0,1-.75,1,1.68,1.68,0,0,1-1.14.29h-.06l-.28,2h.27a3.17,3.17,0,0,0,1.59-.38A4.24,4.24,0,0,0,242.55,319.77Z" transform="translate(-87.32 -205.86)"/><polygon class="cls-5" points="145.51 115.45 144.58 117.14 144.55 117.2 147.71 118.93 146.02 122.01 142.92 120.31 142.86 120.28 141.93 121.97 141.9 122.03 149.18 126.02 149.25 126.06 150.17 124.36 150.2 124.3 147.36 122.75 149.05 119.67 151.83 121.19 151.89 121.22 152.82 119.53 152.85 119.47 145.57 115.48 145.51 115.45"/><path class="cls-5" d="M219.49,305.86c-1.38-2-5.24-2.52-11.48-1.66a2.14,2.14,0,0,0-.36.07h-.45v.11c-1.39.37-4.05,1.4-3.92,3.74,0,.05,0,.1,0,.15v4.34a66,66,0,0,1-47.34.25v-4.59s0-.1,0-.15c.15-2.5-2.9-3.5-4.18-3.81v-.06h-.23l-.32-.07c-6.22-.85-10.08-.29-11.46,1.67a3.27,3.27,0,0,0-.23,3.2l4.71,18.12a.71.71,0,0,0,.69.54h2.37a.72.72,0,0,0,.72-.73v-1.32h1.4v3.85a1.32,1.32,0,0,0,.83,1.24,76.24,76.24,0,0,0,29.18,5.79,73.49,73.49,0,0,0,29.18-5.79,1.35,1.35,0,0,0,.77-1.22v-3.87h1.8V327a.72.72,0,0,0,.21.52.74.74,0,0,0,.51.21h2.36a.72.72,0,0,0,.7-.54l4.71-18.12A3.29,3.29,0,0,0,219.49,305.86Zm-78.48.82c.45-.63,1.76-1.49,5.56-1.44a.75.75,0,0,0-.06.13,4.12,4.12,0,0,1-2,2.78,5.28,5.28,0,0,1-3.68.09A1.78,1.78,0,0,1,141,306.68Zm4.55,19.6-4.27-16.44a6.24,6.24,0,0,0,3.84-.39,4.62,4.62,0,0,0,1.37-1l.14,17.86Zm61.67-20.4.05,3.32a7.5,7.5,0,0,0-2.51-1,.93.93,0,0,1,0-.13C204.66,306.87,206.17,306.2,207.23,305.88ZM154.59,308s0,.08,0,.13a7.38,7.38,0,0,0-2.64,1.11l0-3.48C153,306.13,154.66,306.86,154.59,308Zm-4.12,2.74a1.4,1.4,0,0,0-.35.1,1.35,1.35,0,0,0-.64,1.15v12.2h-1.41l-.15-18.68a.7.7,0,0,0,0-.25c.76,0,1.61.12,2.54.23l.08,5.22Zm.45,18.74,0-17.34c4.73,2.43,28.32,13.05,57.13.07l.06,17.19C205.31,330.72,180.3,341.54,150.92,329.52Zm60.48-24-.15,18.68h-1.43l-.06-11.94a.73.73,0,0,0-.42-.65,1.41,1.41,0,0,0-.26-.42,3.68,3.68,0,0,0-.34-.58l-.07-5.08c1-.13,2-.21,2.77-.26A.69.69,0,0,0,211.4,305.55Zm2.36,20.73h-1.08l.13-17.86a4.79,4.79,0,0,0,1.38,1,6.23,6.23,0,0,0,3.84.39Zm4.73-18a5.2,5.2,0,0,1-3.67-.09,4.09,4.09,0,0,1-2-2.78.45.45,0,0,0-.06-.12c3.79-.05,5.11.81,5.56,1.43A1.74,1.74,0,0,1,218.49,308.24Z" transform="translate(-87.32 -205.86)"/><path class="cls-5" d="M160.1,321.54l.31.1.27,0a1,1,0,0,0,.31-.05L160.6,323l.73.21,1.06-3.66c.72.21,1.51.41,2.36.62l-.21.88a.61.61,0,0,1-.11.23.34.34,0,0,1-.26.17l-.16,0a.44.44,0,0,1-.25-.27l-.19-.63-.32-.08-.38.16.09.33.1.33.14.43.16.43a10.43,10.43,0,0,0,.53,1.22,1.68,1.68,0,0,0,.34.53l.32.08.36-.2-.13-.22-.31-.55-.16-.34-.35-.91.26.07a.85.85,0,0,0,.64-.07.74.74,0,0,0,.41-.51l.22-.93,1,.21-.75,3.7.75.15.74-3.7.56.11a1.09,1.09,0,0,1,.23-.33l-.75-.15-.22-.67-.16-.41a2.87,2.87,0,0,0-.5-.78,1,1,0,0,0-.57-.34l-.31-.05a.94.94,0,0,0-.41,0,1,1,0,0,0-.62.49.88.88,0,0,0-.16.38l0,.19,0,.19.05.17.1.21a51.78,51.78,0,0,1-5.58-1.71l-.12.35,1,.35-.41,1.44a1.16,1.16,0,0,0,0,.45,2.12,2.12,0,0,0,.13.42A1.19,1.19,0,0,0,160.1,321.54Zm5-2.52a1.27,1.27,0,0,1,0-.15l.08-.15a.64.64,0,0,1,.13-.15l.12-.1.14,0a1.5,1.5,0,0,1,.44.53,3.21,3.21,0,0,1,.51,1.21c-.44-.09-.87-.18-1.28-.28l-.08-.18-.06-.22c0-.12,0-.21-.05-.27A1.41,1.41,0,0,1,165.08,319ZM160,320.39l.42-1.46,1.22.38-.47,1.63-.18.13-.13.08a1.67,1.67,0,0,1-.29.1l-.12,0h-.13l-.14-.1-.11-.14A.71.71,0,0,1,160,320.39Z" transform="translate(-87.32 -205.86)"/><path class="cls-5" d="M198.8,326l-.13-.34a39.22,39.22,0,0,1-3.77,1.09l-.21-.14-.28-.2-.67-.38a4.2,4.2,0,0,0-1.43-.5,1.93,1.93,0,0,0-.67,0l-.32.07a1.21,1.21,0,0,0-1,.95,1.1,1.1,0,0,0,0,.48l0,.13.08.21.09.19.08.08a67.2,67.2,0,0,1-7.22.75l.17.36,1-.06h.12l.13,1.55-1.35.06,0-1.11a.63.63,0,0,0-.25-.52.82.82,0,0,0-.57-.17l-.33,0a1,1,0,0,0-.58.22.63.63,0,0,0-.21.58v.11l0,.11v.05l0,0h.73l0-.07,0-.06,0-.12,0-.12,0-.17.08-.13.06,0,.07,0,.1.06a.44.44,0,0,1,.1.12,1.3,1.3,0,0,1,0,.13l0,1.15-.49,0-.06,0-.07.05-.06.06,0,.07a.7.7,0,0,0,.12.22l.33.35a1.71,1.71,0,0,0,.38.31q.13.11.21.09h.33l.08,0,.07-.06v0l0-.75,1.36-.06.16,2,.77-.06-.33-3.9h.08c1.06-.08,2.09-.2,3.11-.33l.11.78a1.71,1.71,0,0,0-1.43.14l0,0-.06,0a1.8,1.8,0,0,0-.25.27,1.2,1.2,0,0,0-.21.85,1,1,0,0,0,.15.43,1.19,1.19,0,0,0,.34.33l.16.09a1.7,1.7,0,0,0,1.51-.08l0,0v0h0l.14,1,.76-.1-.51-3.84,1.25-.19.68,3.78.75-.13-.68-3.77a49.27,49.27,0,0,0,5.9-1.36l.19.68-1.73.49-.14,0-.15.1a.77.77,0,0,0-.14.25l-2,.45-.31.07-.1,0-.07,0a.25.25,0,0,0-.07.26,1.61,1.61,0,0,0,.28.32,1,1,0,0,0,.19.14l.36.24a.33.33,0,0,0,.19.05l.33-.07.11,0a.09.09,0,0,0,0-.08v-.08l-.16-.71,1.2-.26a.9.9,0,0,0,0,.28,2.23,2.23,0,0,0,.61,1l.17.16.19.16.43.27.28.15a.19.19,0,0,0,.09,0h0l.31-.09.2-.36c-.18.05-.5-.13-1-.55l-.22-.22a2.09,2.09,0,0,1-.41-.76l0-.21a.38.38,0,0,1,.2-.34.71.71,0,0,1,.23-.12l1.16-.32.73,2.63.73-.2-1-3.68Zm-11.06,4.75a.93.93,0,0,1-.27-.56,1,1,0,0,1,0-.3,1.61,1.61,0,0,1,.1-.27.67.67,0,0,1,.11-.15.51.51,0,0,1,.21-.1h0a1.72,1.72,0,0,1,.79,0l0,.09h0l0,.19h0l.1.73C188.34,331.14,187.86,330.83,187.74,330.73Zm3.52-3.24-.07-.09-.07-.14-.08-.18,0-.16a1.59,1.59,0,0,1,0-.39.74.74,0,0,1,.32-.51.51.51,0,0,1,.22-.13,2.54,2.54,0,0,1,.5.05,2.83,2.83,0,0,1,.53.15l.54.24.22.1.1.06.23.14.23.16.21.13C193.17,327.13,192.23,327.32,191.26,327.49Z" transform="translate(-87.32 -205.86)"/><path class="cls-5" d="M199.43,318c-.42.15-.9.33-1.42.5l-.18-.11-.69-.34a4.38,4.38,0,0,0-1.47-.43,1.79,1.79,0,0,0-.67,0l-.31.08a1.21,1.21,0,0,0-1,1,1,1,0,0,0,0,.48l0,.12.1.21.07.13-1.25.3-2-1.57-.32.07-.21.37,1.91,1.26c-1.65.35-3.49.67-5.5.9l0,0-.25-.23-.61-.47a4.26,4.26,0,0,0-1.36-.69,1.74,1.74,0,0,0-.66-.11l-.33,0a1.19,1.19,0,0,0-1.16.8,1,1,0,0,0-.06.47v.14l.06.22.06.2,0,.05c-1,0-2,.08-3.11.08a62.56,62.56,0,0,1-9.12-.67,1.28,1.28,0,0,1,.13.39l1.26.16.12.19a1.11,1.11,0,0,1,.13.59.68.68,0,0,1-.26.52l-.17.08-.18,0h0l-.07,0,0,0h0l.07-.38-.33,0-.13.06-.16,0-.25,0H170a.94.94,0,0,1-.22,0,.74.74,0,0,0-.19-.05l-.18-.06-.07,0-.07-.05.19-.08.14-.09.15-.11a1,1,0,0,0,.23-.41.73.73,0,0,0-.46-.81.6.6,0,0,0-.33-.12l-.32-.05a1.79,1.79,0,0,0-.32,0,.76.76,0,0,0-.32.11.65.65,0,0,0-.33.49v.25a1.1,1.1,0,0,0,.06.26l.12.27a1.07,1.07,0,0,0,.14.16l-.23.11-.18.1a1.62,1.62,0,0,0-.33.29.7.7,0,0,0-.15.34,1.18,1.18,0,0,0,0,.46,1,1,0,0,0,.17.38,1.23,1.23,0,0,0,.33.28,2.52,2.52,0,0,0,.46.14l.32.07h.1l0,.07v0l0,.08.09.19.13.19.06.06.33.06.39-.19-.15-.15-.1-.12-.1-.15-.06-.17.14,0a.17.17,0,0,0,.11-.06l.08-.1,0-.13v-.17l-.06-.15a.51.51,0,0,0-.12-.13.34.34,0,0,0-.16-.06l-.33,0h-.16a.22.22,0,0,0-.12.06l-.1.11,0,.19,0,.13v0h0l-.19-.06-.14-.1a.75.75,0,0,1-.18-.24.72.72,0,0,1,0-.36.76.76,0,0,1,.4-.56l.1-.05.09-.06.11.06.47.17.3.07.33.06.31.05h.26l.19,0a1.41,1.41,0,0,0,.34,1,1.5,1.5,0,0,0,.44.35,1.91,1.91,0,0,0,.59.16l.33.05h.35a1.59,1.59,0,0,0,.33-.09l-.12,1,.76.09.44-3.81c.91.08,1.84.14,2.81.17l-.08,2a.54.54,0,0,1-.2.33l-.11.1-.17.11a.5.5,0,0,1-.16.05l-.2-.08-.15-.15a.88.88,0,0,1-.15-.56.81.81,0,0,1,.22-.56.71.71,0,0,1,.37-.23l.05,0,0,0,0,0,.08,0,.33,0,0-.35-.16-.06-.15-.05h-.46a.82.82,0,0,0-.23,0,1.11,1.11,0,0,0-.59.28,1,1,0,0,0-.36.77,1.26,1.26,0,0,0,.06.45,1,1,0,0,0,.27.38,1.24,1.24,0,0,0,.81.34l.33,0h.22l.21-.07,0,1,.76,0,.07-1.75a.92.92,0,0,1,.07-.31,1.48,1.48,0,0,1,.21-.32.84.84,0,0,1,.47-.32l.16.07a.72.72,0,0,1,.2.22,1.4,1.4,0,0,1,.07.4,1.54,1.54,0,0,1-.41.84c-.18.23-.3.35-.35.36l0,0,.34.27.33,0,.26-.26.19-.21a1.59,1.59,0,0,0,.46-1,1,1,0,0,0-.07-.43,1,1,0,0,0-.57-.58,1,1,0,0,0-.44-.11h-.49l-.16,0-.17.07,0-.91c.5,0,1,0,1.51,0h1.25l.06,3.87.76,0-.06-3.87,1.11-.05.17,3.89.76,0L183,321.7c.85-.05,1.67-.12,2.48-.2l.08,1.05a.52.52,0,0,1,0,.25.39.39,0,0,1-.19.25l-.14.06a.42.42,0,0,1-.32-.17l-.39-.55-.32,0-.32.27.19.29.2.27.27.38.28.35a12.43,12.43,0,0,0,.89,1,1.87,1.87,0,0,0,.49.4l.33,0,.28-.3-.2-.16-.46-.43-.26-.27-.62-.75.27,0a.89.89,0,0,0,.59-.27.73.73,0,0,0,.23-.62l-.1-1.1,1-.11.2,1.49a1,1,0,0,0,.13.38,1,1,0,0,0,.62.45,1.31,1.31,0,0,0,.4,0l.33,0a.89.89,0,0,0,.67-.39.92.92,0,0,0,.17-.6,1.49,1.49,0,0,0,0-.17l-.22-1.47.74-.13.69,3.89.75-.13-.68-3.84.05-.07,1-.21.8,3.89.75-.15-.8-3.9L194,320l.93,3.88.75-.18-.94-3.89c1.08-.29,2.05-.58,2.9-.85l.24.83-1.66.49-.14.06-.1.1a.39.39,0,0,0-.05.14v.15s.05.09.08.14.06.1.07.13a3.09,3.09,0,0,0,.31.28l.14.1.22.13-.14.24a2.44,2.44,0,0,0-.1.24.75.75,0,0,0,0,.42c.14.49.58.75,1.33.78l.44,0a2.47,2.47,0,0,0,.54-.05c.08,0,.12-.05.13-.08l.32-.09.06-.34s0,0-.07,0l-.18,0-.72,0a1.51,1.51,0,0,1-.75-.13.63.63,0,0,1-.34-.38.72.72,0,0,1,.29-.85.56.56,0,0,1,.15-.1l.17-.06.25,0h.2a.46.46,0,0,1,.33.34.52.52,0,0,1-.05.35l0,0,0,0,0,0,0,0,.38.14.32-.08,0-.06.13-.17a.51.51,0,0,0,0-.51.85.85,0,0,0-.18-.34.92.92,0,0,0-.71-.22,1.27,1.27,0,0,0-.51.08l-.31.1-.18.07-.23.1,0,0,0,0-.14-.09L197,321l0,0a.41.41,0,0,1-.15-.14l-.07-.12v-.08a.16.16,0,0,1,.09-.07l1.88-.54-.35-1.2,1.16-.42Zm-30.58,3.83h0l0,0,0,0v0l0,0v0a.73.73,0,0,1-.1-.51l.06-.17a.4.4,0,0,1,.12-.11l.08,0,.08,0,.11.07,0,0,0,0a.37.37,0,0,1,.09.32A.64.64,0,0,1,168.85,321.83Zm4.25,1.66-.21.23-.12.1-.15.09-.24.09a.72.72,0,0,1-.25,0,1.07,1.07,0,0,1-.67-.66v-.05l0-.07,0-.07v-.09l.28,0,.22-.06a.92.92,0,0,0,.57-.77l0-.26-.09-.33,0-.13,0-.06,1,.09Zm9.89-2.15,0,0-.06-.16,0-.18,0-.17a1.16,1.16,0,0,1,0-.39.82.82,0,0,1,.38-.46.55.55,0,0,1,.23-.1,3.51,3.51,0,0,1,.5.12,3,3,0,0,1,.5.22l.51.31.2.13.09.07.21.17.2.19.07.05C184.88,321.2,184,321.28,183,321.34Zm5.95,1.73a.36.36,0,0,1-.26.23l-.15-.05-.12-.1a.82.82,0,0,1-.21-.46l-.2-1.49.8-.11.19,1.46v.28C189,322.91,189,323,188.94,323.07Zm5.68-3.56,0-.07-.08-.18-.05-.16a1.1,1.1,0,0,1,0-.38.78.78,0,0,1,.28-.53.64.64,0,0,1,.22-.14,3,3,0,0,1,.5,0,3.12,3.12,0,0,1,.54.12l.55.21a1,1,0,0,1,.22.09l.11.05a1.71,1.71,0,0,1,.23.13l.15.09C196.45,319,195.58,319.26,194.62,319.51Z" transform="translate(-87.32 -205.86)"/><path class="cls-5" d="M164.08,331a.72.72,0,0,0-.33-.15l-.31-.06a1.32,1.32,0,0,0-.34,0,1.25,1.25,0,0,0-.36.05l-.24.07-.11.07.25.35.33.07.21-.13a.27.27,0,0,1,.14-.05l.13,0,.09.08.07.09.08.19a.8.8,0,0,1,0,.21.58.58,0,0,1-.11.26.8.8,0,0,1-.51.23,1.09,1.09,0,0,1-.26,0,3,3,0,0,1-.58-.38l-.22-.18-.19-.21-.24-.28-.32-.07-.35.28a1.43,1.43,0,0,0,.28.32l.22.2.29.22a2.47,2.47,0,0,0,.85.42l.33.07a1.87,1.87,0,0,0,.48,0,1,1,0,0,0,1-.75.92.92,0,0,0,0-.37A.75.75,0,0,0,164.08,331Z" transform="translate(-87.32 -205.86)"/><path class="cls-5" d="M159.58,326c.78.27,1.61.52,2.46.75l-.44,1.66a.55.55,0,0,1-.27.28l-.13.07-.19.07a.31.31,0,0,1-.17,0,.66.66,0,0,1-.17-.12l-.11-.17a.88.88,0,0,1,0-.58.91.91,0,0,1,.34-.51.72.72,0,0,1,.41-.13l0,0,0,0,0,0,.07,0,.32.09.09-.34-.14-.09a.57.57,0,0,1-.13-.08l-.13,0-.32-.07a.66.66,0,0,0-.23,0,1.31,1.31,0,0,0-.63.14,1,1,0,0,0-.52.68,1.24,1.24,0,0,0-.05.45,1,1,0,0,0,.18.43,1.18,1.18,0,0,0,.72.51l.31.1.22,0a.86.86,0,0,0,.22,0l-.26,1,.73.2.46-1.7a.85.85,0,0,1,.14-.29,1.6,1.6,0,0,1,.27-.26.86.86,0,0,1,.53-.21l.14.11a.66.66,0,0,1,.15.25,1.24,1.24,0,0,1,0,.41,1.51,1.51,0,0,1-.58.73,1.78,1.78,0,0,1-.42.28h-.05l.27.34.32.09.3-.19.24-.17a1.61,1.61,0,0,0,.67-.86,1.17,1.17,0,0,0,0-.42,1.08,1.08,0,0,0-.43-.7.94.94,0,0,0-.4-.2l-.32-.08-.16,0h-.17l-.18,0,.16-.61c1.13.3,2.31.56,3.54.79a.78.78,0,0,0-.32.46.93.93,0,0,0,0,.33,1,1,0,0,0,.16.34,1,1,0,0,0,.6.36l.32.07.2,0,.22-.05,0,0v0l0,0,0,0-.17.2-.23.16-.28.12a2,2,0,0,1-.29.05h-.18l-.22-.26-.32-.07-.34.23,1.61,2,.32.06.34-.22-1.12-1.38a1.46,1.46,0,0,0,1.55-.67,1.39,1.39,0,0,0,.22-.53l0-.26,0-.27-.08-.25a1.61,1.61,0,0,0-.15-.29c.43.07.86.12,1.3.18l-.62,3.92.75.11.62-3.93c1.45.18,2.93.31,4.44.4l-.12,1.27h-.2l-.21,0-.19.05-.1.05-.13.06-.06-.07-.09-.07a1.2,1.2,0,0,0-.36-.22.93.93,0,0,0-.4-.11l-.33,0a1.28,1.28,0,0,0-.9.24,1.06,1.06,0,0,0-.42.77,1.69,1.69,0,0,0,.39,1.15c.4.52.74.79,1,.82l.33,0,.24-.32-.4-.24-.27-.2a1.6,1.6,0,0,1-.47-.56,1,1,0,0,1-.12-.58.71.71,0,0,1,.08-.28l.08-.13a.79.79,0,0,1,.13-.14.6.6,0,0,1,.39-.18l.17.08.19.1a1.12,1.12,0,0,1,.23.18.41.41,0,0,1,.1.14l-.06.12-.17.22-.07.12,0,.09.33.23.33.05.08-.19.15-.22.14-.18.15-.15.19-.13.2-.1-.24,2.38.75.08.42-4.13,1.29.05-.19,4.14.77,0,.18-4.15,1.12,0v-.37a60.87,60.87,0,0,1-18.79-2.82Zm7.18,2.3.07-.18A.44.44,0,0,1,167,328a.24.24,0,0,1,.11-.06l.13,0a.79.79,0,0,1,.33.37.39.39,0,0,1,0,.14l0,.18-.11.11-.08.08-.19.1-.19,0-.12-.07-.09-.12A.51.51,0,0,1,166.76,328.29Z" transform="translate(-87.32 -205.86)"/><path class="cls-5" d="M160,308.2a1,1,0,0,0,.55.16,1.17,1.17,0,0,0,.74-.29h.06l-.23.33a.68.68,0,0,0-.13.6.51.51,0,0,0,.15.24.69.69,0,0,0,0,.35.92.92,0,0,0,.55.62,1.33,1.33,0,0,0,.49.09,1.5,1.5,0,0,0,.79-.25,1,1,0,0,0,.17,0,.93.93,0,0,0,.69-.35l-.07.16a.85.85,0,0,0,0,.7.77.77,0,0,0,.33.34,1,1,0,0,0,.08.38,1.34,1.34,0,0,0,.82.74,1.59,1.59,0,0,0,1.52-.33h.06a.91.91,0,0,0,.64-.31.94.94,0,0,0,.14.55.84.84,0,0,0,.23.23,1.48,1.48,0,0,0,1.28,1.42,1.46,1.46,0,0,0,.29,0,1.8,1.8,0,0,0,1.52-.85.86.86,0,0,0,.36-.08,1.28,1.28,0,0,0,.21.48,1.14,1.14,0,0,0,.51.35,2,2,0,0,0,.3.6,2.15,2.15,0,0,0,1.56.78h.17a2.39,2.39,0,0,0,2-1.09,1.33,1.33,0,0,0,.59-.23,1.17,1.17,0,0,0,.24.38,1.3,1.3,0,0,0,.79.37,1.88,1.88,0,0,0,.27.42,2.27,2.27,0,0,0,1.64.68,2.29,2.29,0,0,0,1.65-.68,2,2,0,0,0,.28-.44,1.33,1.33,0,0,0,.7-.35,1.58,1.58,0,0,0,.29-.48,1.4,1.4,0,0,0,.61.22,2.39,2.39,0,0,0,2.1,1.2H185a2.2,2.2,0,0,0,1.62-.71,1.83,1.83,0,0,0,.36-.69,1,1,0,0,0,.35-.25,1.15,1.15,0,0,0,.24-.48,1,1,0,0,0,.39.11,1.78,1.78,0,0,0,1.6,1.05l.21,0a1.57,1.57,0,0,0,1.12-.64,1.09,1.09,0,0,1,.45-1.05,1,1,0,0,0,.16-.55.93.93,0,0,0,.68.35h0a1.59,1.59,0,0,0,1.13.49,1.92,1.92,0,0,0,.41-.05,1.42,1.42,0,0,0,.89-.71,1.53,1.53,0,0,0,.11-.42.8.8,0,0,0,.32-.31.85.85,0,0,0,0-.7l-.07-.18a.94.94,0,0,0,.73.4.73.73,0,0,0,.25,0h0a1.57,1.57,0,0,0,.89.33,1.25,1.25,0,0,0,.43-.07,1,1,0,0,0,.61-.6,1.1,1.1,0,0,0,0-.54s0,0,0-.06a.66.66,0,0,0-.1-.6l-.22-.34h0l.06,0a1.11,1.11,0,0,0,.78.33,1,1,0,0,0,.51-.13.75.75,0,0,0,.37-.54.78.78,0,0,0-.18-.59s0,0,.06-.08a.58.58,0,0,0-.16-.46l-.76-.81a.92.92,0,0,0,.26-.57c0-.49-.49-1-1.38-1.37a46.06,46.06,0,0,0-11.07-1.71l-1.63-8.82a3.32,3.32,0,0,0,1.55-1.14,6.57,6.57,0,0,0,.91-4.25h.15a2.93,2.93,0,0,0,2.43-1c1.61-2,0-6.14-.15-6.61l-.25-.64-.56.4c-3.62,2.6-3.48,5.34-3.11,6.69a5.06,5.06,0,0,0-1.79.53l-.65-7.88a1.51,1.51,0,0,0-.49-1,3.36,3.36,0,0,0,.47-.45l.24-.18a11.59,11.59,0,0,0,4-10.58l-.16-1.23-.92.84a32.1,32.1,0,0,0-3.62,4l-.21-6.34a1.17,1.17,0,0,0-.48-.92c-.13-.09-.25-.13-.37-.2a2.08,2.08,0,0,0,.89-1.06,2.27,2.27,0,0,0,1.44-.56c1.79-1.6,1-6,.89-6.47l-.17-.86-.74.48a8.15,8.15,0,0,0-2.3,2.21,12.43,12.43,0,0,0-2.09-4.55l-.45-.6-.48.58a9.32,9.32,0,0,0-2.35,4.63,8,8,0,0,0-2.35-2.27l-.73-.48-.17.86c-.1.5-.91,4.87.89,6.47a2.2,2.2,0,0,0,1.22.52,2,2,0,0,0,.83,1.05,6.53,6.53,0,0,0-.65.43c-.26.1-.44.4-.65,6.67a31.51,31.51,0,0,0-3.53-3.9l-.92-.85-.16,1.24a11.61,11.61,0,0,0,4,10.58l.21.16a2.91,2.91,0,0,0,.65.72,3,3,0,0,0-.31.3c-.33.16-.59.92-1.12,8.43a4.93,4.93,0,0,0-2-.64c.36-1.35.5-4.09-3.11-6.69l-.56-.4-.26.64c-.18.46-1.75,4.6-.15,6.61a3,3,0,0,0,2.43,1l.15,0a6.58,6.58,0,0,0,.91,4.26,3.2,3.2,0,0,0,1.52,1.12c-.31,1.28-.76,4.72-1.47,9.34a43.51,43.51,0,0,0-8.49,1.41c-1.1.46-1.72,1-1.72,1.52v0l-.74.72a.58.58,0,0,0-.18.45s0,.05,0,.08a.84.84,0,0,0-.22.59A.74.74,0,0,0,160,308.2ZM190.51,313a1.12,1.12,0,0,1-.78.45,1.29,1.29,0,0,1-1.42-1.05c0-.29.23-.68.77-1.07a.42.42,0,0,1,.28-.1l.15,0c.68.27,1.12.6,1.18.9A1,1,0,0,1,190.51,313Zm3.72-1.43a1,1,0,0,1-.6.47,1.13,1.13,0,0,1-1.35-.69c-.08-.23.12-.6.53-1a.3.3,0,0,1,.29-.1c.64.14,1.07.36,1.17.61A.88.88,0,0,1,194.23,311.59Zm3.32-1.53a.53.53,0,0,1-.34.33,1.08,1.08,0,0,1-1.21-.45c-.12-.2,0-.5.15-.67a.33.33,0,0,1,.33-.16,1.52,1.52,0,0,1,1,.4A.62.62,0,0,1,197.55,310.06Zm1.45-1.82a.32.32,0,0,1-.17.23.71.71,0,0,1-.82-.15.35.35,0,0,1-.07-.27.51.51,0,0,1,.14-.29.78.78,0,0,1,.8.16A.36.36,0,0,1,199,308.24Zm-.92-1.59.66.72a1.12,1.12,0,0,0-.89,0,.89.89,0,0,0-.33.6.86.86,0,0,0,0,.16l-.06,0-.69-.77A5.48,5.48,0,0,0,198.08,306.65Zm-1.72.87.26.29.71,1.09a3.32,3.32,0,0,0-.79-.21.77.77,0,0,0-.75.35,1,1,0,0,0-.16,1.08.56.56,0,0,1-.29-.21l-1-1.67a.21.21,0,0,1,0-.13A18.8,18.8,0,0,0,196.36,307.52ZM191,308.8a.38.38,0,0,1,.16-.12c.92-.13,1.77-.29,2.54-.45a.46.46,0,0,1,.14.17l.82,2.12c0,.06,0,.11,0,.17-.21-.49-.91-.74-1.47-.86a.75.75,0,0,0-.71.21,1.72,1.72,0,0,0-.65,1.36s-.09-.08-.11-.14l-.73-2.17A.41.41,0,0,1,191,308.8Zm-3.85.34c1.11-.1,2.17-.21,3.16-.34,0,.06.1.11.11.18l.54,2.58s0,.06,0,.09a3.16,3.16,0,0,0-1.27-.83.94.94,0,0,0-.91.14,2.08,2.08,0,0,0-.94,1.34.52.52,0,0,1-.31-.39l-.4-2.61C187.12,309.24,187.16,309.19,187.17,309.14ZM188.69,282c.44,1.39.94,3.78.07,4.86a2.23,2.23,0,0,1-2.09.6C186.38,286.69,185.77,284.36,188.69,282Zm-4.9-25c.19,1.61.14,3.69-.66,4.41a1.11,1.11,0,0,1-.79.27,2.31,2.31,0,0,0-.58-.64A5,5,0,0,1,183.79,257Zm-13.45,30.08a2.21,2.21,0,0,1-2.09-.59c-.86-1.08-.37-3.47.07-4.87C171.26,284,170.64,286.33,170.34,287.05Zm-7.26,22.38a1.07,1.07,0,0,1-1.21.4.56.56,0,0,1-.32-.34.68.68,0,0,1,.13-.55,1.44,1.44,0,0,1,.94-.35h0a.42.42,0,0,1,.35.23C163.1,309,163.19,309.27,163.08,309.43ZM166.5,311a1.11,1.11,0,0,1-1.37.62.88.88,0,0,1-.55-.48.86.86,0,0,1,0-.72c.1-.23.51-.43,1.11-.54h.07a.45.45,0,0,1,.33.16C166.45,310.43,166.59,310.79,166.5,311Zm2.45,2.15a1.07,1.07,0,0,1-.87-1.34c.08-.29.54-.61,1.24-.85a.42.42,0,0,1,.4.09c.5.42.76.83.69,1.12A1.31,1.31,0,0,1,169,313.15Zm4.7,1.18a1.53,1.53,0,0,1-1.13-.56,1.14,1.14,0,0,1-.23-.91c.06-.37.69-.81,1.65-1.16a.31.31,0,0,1,.13,0,.45.45,0,0,1,.19.05c.8.46,1.27,1,1.22,1.3A1.67,1.67,0,0,1,173.65,314.33Zm2.65-1.68a.66.66,0,0,1-.23.4c.06-.78-.78-1.43-1.51-1.85a1,1,0,0,0-.83-.07c-.81.3-1.77.81-2,1.52a.42.42,0,0,1-.06-.25l.57-3.07a.42.42,0,0,1,.08-.18c1.36.11,2.79.18,4.29.23a.88.88,0,0,1,0,.17Zm4.24,1.7a1.73,1.73,0,0,1-2.39,0,1.47,1.47,0,0,1-.42-1.06c0-.4.57-.93,1.45-1.37a.38.38,0,0,1,.17,0,.33.33,0,0,1,.17,0c.9.45,1.43,1,1.44,1.37h0A1.47,1.47,0,0,1,180.54,314.35Zm1-1.14c-.06-.82-1-1.46-1.76-1.85a1,1,0,0,0-.91,0c-.66.33-1.77,1-1.79,1.91a1,1,0,0,0,0,.24.67.67,0,0,1-.18-.46l0-.59.32-2.83a.9.9,0,0,0,0-.23c.78,0,1.58,0,2.39,0l1.72,0a.82.82,0,0,1,.09.19l.07,1.35.07,2.09C181.64,313.11,181.59,313.15,181.57,313.21Zm4.61.62a1.59,1.59,0,0,1-1.17.51h0a1.66,1.66,0,0,1-1.72-1.39c0-.36.5-.84,1.35-1.26a.29.29,0,0,1,.23,0c.95.4,1.59.89,1.63,1.26A1.17,1.17,0,0,1,186.18,313.83Zm.77-1.32a3.79,3.79,0,0,0-1.88-1.38.86.86,0,0,0-.72,0c-.65.32-1.74,1-1.69,1.83a.6.6,0,0,1-.34-.48l-.16-3.09a0,0,0,0,1,0,0c1.5,0,3-.11,4.33-.22a.44.44,0,0,1,.07.21l.38,3.08S187,312.5,187,312.51Zm-1.88-9.86c-1,0-2-.09-3-.11l-.85-7.84a7.64,7.64,0,0,0,2-.76l.13.2.19,0Zm-3.73-.12-1.7,0c-1.22,0-2.38,0-3.5.06l.53-7.8a11.16,11.16,0,0,0,2.06.2,11.34,11.34,0,0,0,1.78-.15Zm4.59-14.17a5.74,5.74,0,0,1-.68,3.75,2.12,2.12,0,0,1-.7.6,2.22,2.22,0,0,0,.4-1.23,2.76,2.76,0,0,0-1.39-2.19A3.75,3.75,0,0,1,185.93,288.36Zm-3.21.25-.12.14a9,9,0,0,0-2-.58l-.43-7.45a2.53,2.53,0,0,0-.11-.78,6.35,6.35,0,0,0,1.53-.43l.22.14a.49.49,0,0,1,.19.38Zm3.44-19.38a10.28,10.28,0,0,1-2.67,7.14,3,3,0,0,0-1.4-1.46C182.66,273.21,184.51,270.92,186.16,269.23Zm-4.54-4.2.24,7.46a10.19,10.19,0,0,0-1,1.93,5.44,5.44,0,0,0-.61-.15v-9.61a1.32,1.32,0,0,0,0-.23l.44-.12a4.26,4.26,0,0,1,.8.44A.4.4,0,0,1,181.62,265ZM179,254.43c.79,1.25,1.87,3.44,1.37,4.85a1.84,1.84,0,0,1-.79.94,6.74,6.74,0,0,0-.79,0,4.93,4.93,0,0,0-.55,0,2.58,2.58,0,0,1-.79-1.32C177.16,257.7,177.7,256.17,179,254.43Zm-.21,7.11c1.49,0,2.39.59,2.39.84s-.51.57-1.4.75a5,5,0,0,0-2,0c-.87-.17-1.37-.55-1.37-.74S177.3,261.54,178.79,261.54Zm1,3.12v9.51c-.31,0-.63-.05-1-.05a9.16,9.16,0,0,0-1.07.07v-9.53a.9.9,0,0,1,0-.16,6.83,6.83,0,0,0,1,.09,7,7,0,0,0,.93-.07A.7.7,0,0,1,179.75,264.66Zm-4.5-3a1.13,1.13,0,0,1-.59-.25c-.8-.72-.85-2.81-.66-4.42a5,5,0,0,1,2,3.89A2.36,2.36,0,0,0,175.25,261.63Zm.54,3.27a4.93,4.93,0,0,1,1-.62c.13.05.27.08.41.12a1,1,0,0,0-.06.26v9.63l-.63.16a9,9,0,0,0-1.13-2.38C175.53,268.8,175.67,265.58,175.79,264.9Zm-1.68,11.43a10.35,10.35,0,0,1-2.92-7.41c1.78,1.82,3.78,4.33,4.17,6.05A3,3,0,0,0,174.11,276.33Zm.78.76c0-1.1,1.78-2,3.9-2s3.9.93,3.9,2-1.47,1.84-3.31,2a1.87,1.87,0,0,0-.77-.16h-.12a1.88,1.88,0,0,0-.65.12C176.17,278.82,174.89,278,174.89,277.09Zm5,11a10.77,10.77,0,0,0-2.74.06l.42-7.33a1.51,1.51,0,0,1,.19-.83,8,8,0,0,0,1,.1c.19,0,.37,0,.56-.05a1.6,1.6,0,0,1,.15.73Zm-4.62-8,0,0a3.7,3.7,0,0,1,.56-.53,6.61,6.61,0,0,0,1.21.39,2.27,2.27,0,0,0-.18.91l-.43,7.47a8.07,8.07,0,0,0-1.72.56,3.22,3.22,0,0,0-.24-.28C174.77,284.8,175.09,280.84,175.29,280Zm3.44,9.14c3,0,5.06,1.22,5.06,2.32s-2.08,2.33-5.06,2.33-5.06-1.23-5.06-2.33S175.75,289.16,178.73,289.16Zm-7,2.6a5.86,5.86,0,0,1-.68-3.75,3.43,3.43,0,0,1,2.73,1.34,2.7,2.7,0,0,0-1.3,2.13,2.13,2.13,0,0,0,.28,1A2.3,2.3,0,0,1,171.76,291.76Zm1.71,2,.23,0,.12-.17a6.54,6.54,0,0,0,2.16,1l-.54,8c-1.19,0-2.32.1-3.38.18C172.58,299.44,173.12,295.3,173.47,293.76Zm5.62,10.05a25.73,25.73,0,0,1,7.78,1,30.73,30.73,0,0,1-15.55,0A25.7,25.7,0,0,1,179.09,303.81Zm-10.62,4.91c1,.14,2.08.26,3.21.37,0,0,0,.08,0,.12l-.56,2.6a.61.61,0,0,1-.26.36,2,2,0,0,0-.86-1.5.9.9,0,0,0-.86-.17,2.88,2.88,0,0,0-1.4.88s0-.05,0-.08l.69-2.56Zm-.59-.09a.31.31,0,0,1,0,.19L167,311c0,.05-.06.07-.09.1a1.62,1.62,0,0,0-.5-1.33.89.89,0,0,0-.82-.3,1.94,1.94,0,0,0-1.44.8c0-.05,0-.1,0-.15l.88-2C165.91,308.3,166.86,308.48,167.88,308.63Zm-5.43-1.34a14.61,14.61,0,0,0,2.11.68l-1,1.47,0,0a1.07,1.07,0,0,0-.14-.84.8.8,0,0,0-.81-.46,2.12,2.12,0,0,0-1,.36l.9-1.24Zm-1.54-1a2.84,2.84,0,0,0,1.13.86l-.45.46s0,0-.06,0a.5.5,0,0,0,0-.17.87.87,0,0,0-.28-.6l-.86-.08Zm-.68,1.05a.73.73,0,0,1,.52-.18.51.51,0,0,1,.27.06.5.5,0,0,1,.11.28.32.32,0,0,1-.09.27.66.66,0,0,1-.8.12.32.32,0,0,1-.15-.23A.39.39,0,0,1,160.23,307.3Z" transform="translate(-87.32 -205.86)"/></svg>