<svg id="Layer_1" data-name="Layer 1" xmlns="http://www.w3.org/2000/svg" viewBox="0 0 670.9 183.55"><defs><style>.cls-1{fill:#1f77ba;}.cls-2{fill:none;stroke:#231f20;stroke-miterlimit:10;stroke-width:1.18px;}.cls-3{fill:#1b75bc;}.cls-4{fill:#23376d;}.cls-5{fill:#f15a29;}.cls-6{fill:#f15b2d;}</style></defs><title>22_rmrc_bhubaneshwar_logo_new</title><path class="cls-1" d="M458.4,259h21.82c6.07,0,10.78,1.71,13.92,4.86a15.06,15.06,0,0,1,4.09,10.95v.14c0,7.73-4.16,12.59-10.23,14.85l11.66,17.11H487.38l-10.23-15.33H468.9V306.9H458.4Zm21.14,23.27c5.12,0,8-2.74,8-6.78v-.13c0-4.52-3.14-6.85-8.25-6.85H468.9v13.76Z" transform="translate(-85.5 -205.86)"/><path class="cls-1" d="M507.71,259H519l12.55,20.26L544.13,259h11.32V306.9H545V275.62l-13.44,20.47h-.27L518,275.82V306.9h-10.3Z" transform="translate(-85.5 -205.86)"/><path class="cls-1" d="M566.92,259h21.82c6.07,0,10.78,1.71,13.92,4.86a15.1,15.1,0,0,1,4.09,10.95v.14c0,7.73-4.16,12.59-10.23,14.85l11.66,17.11H595.9l-10.23-15.33h-8.25V306.9h-10.5Zm21.14,23.27c5.11,0,8.05-2.74,8.05-6.78v-.13c0-4.52-3.14-6.85-8.26-6.85H577.42v13.76Z" transform="translate(-85.5 -205.86)"/><path class="cls-1" d="M614.12,283.08v-.14c0-13.62,10.23-24.78,24.89-24.78,9,0,14.39,3,18.83,7.4l-6.69,7.73c-3.68-3.35-7.43-5.41-12.21-5.41-8,0-13.84,6.71-13.84,14.93v.13c0,8.22,5.66,15.06,13.84,15.06,5.46,0,8.8-2.19,12.55-5.61l6.69,6.78c-4.91,5.27-10.37,8.55-19.58,8.55C624.55,307.72,614.12,296.84,614.12,283.08Z" transform="translate(-85.5 -205.86)"/><path class="cls-1" d="M666.57,259h22.16c5.46,0,9.76,1.5,12.49,4.24a11,11,0,0,1,3.27,8.15v.13c0,5.41-2.87,8.42-6.27,10.34,5.52,2.12,8.93,5.34,8.93,11.77v.14c0,8.76-7.09,13.14-17.87,13.14H666.57Zm19.91,19.37c4.64,0,7.57-1.51,7.57-5.07v-.14c0-3.14-2.45-4.92-6.88-4.92H676.8v10.13Zm2.8,19.3c4.64,0,7.43-1.64,7.43-5.2v-.14c0-3.22-2.38-5.2-7.77-5.2H676.8v10.54Z" transform="translate(-85.5 -205.86)"/><path class="cls-1" d="M715.81,259H738c5.46,0,9.75,1.5,12.48,4.24a11,11,0,0,1,3.28,8.15v.13c0,5.41-2.87,8.42-6.28,10.34,5.52,2.12,8.93,5.34,8.93,11.77v.14c0,8.76-7.09,13.14-17.86,13.14H715.81Zm19.92,19.37c4.64,0,7.57-1.51,7.57-5.07v-.14c0-3.14-2.46-4.92-6.89-4.92H726v10.13Zm2.8,19.3c4.63,0,7.43-1.64,7.43-5.2v-.14c0-3.22-2.39-5.2-7.78-5.2H726v10.54Z" transform="translate(-85.5 -205.86)"/><line class="cls-2" x1="357.57" y1="53.01" x2="357.57" y2="136.75"/><path class="cls-3" d="M284.17,319.86h1.66v9.41h-1.66Z" transform="translate(-85.5 -205.86)"/><path class="cls-3" d="M288.42,319.86H290l5,6.5v-6.5h1.63v9.41h-1.38l-5.19-6.7v6.7h-1.63Z" transform="translate(-85.5 -205.86)"/><path class="cls-3" d="M299.12,319.86h3.51a4.69,4.69,0,0,1,5,4.68v0a4.72,4.72,0,0,1-5,4.71h-3.51Zm3.51,7.9a3.06,3.06,0,0,0,3.26-3.17v0a3.09,3.09,0,0,0-3.26-3.2h-1.86v6.4Z" transform="translate(-85.5 -205.86)"/><path class="cls-3" d="M309.8,319.86h1.65v9.41H309.8Z" transform="translate(-85.5 -205.86)"/><path class="cls-3" d="M317.38,319.79h1.53l4.14,9.48h-1.74l-1-2.27H315.9l-1,2.27h-1.69Zm2.37,5.74-1.63-3.76-1.61,3.76Z" transform="translate(-85.5 -205.86)"/><path class="cls-3" d="M324.74,319.86h1.54l5,6.5v-6.5h1.62v9.41h-1.38l-5.19-6.7v6.7h-1.63Z" transform="translate(-85.5 -205.86)"/><path class="cls-3" d="M339.06,324.59v0a4.76,4.76,0,0,1,4.85-4.86,4.9,4.9,0,0,1,3.68,1.46l-1.06,1.22a3.76,3.76,0,0,0-2.63-1.16,3.16,3.16,0,0,0-3.11,3.32v0a3.19,3.19,0,0,0,3.11,3.35,3.71,3.71,0,0,0,2.7-1.22l1.06,1.07a4.87,4.87,0,0,1-3.82,1.67A4.73,4.73,0,0,1,339.06,324.59Z" transform="translate(-85.5 -205.86)"/><path class="cls-3" d="M348.79,324.59v0a4.92,4.92,0,0,1,9.84,0v0a4.83,4.83,0,0,1-4.94,4.87A4.77,4.77,0,0,1,348.79,324.59Zm8.1,0v0a3.22,3.22,0,0,0-3.2-3.34,3.18,3.18,0,0,0-3.17,3.32v0a3.23,3.23,0,0,0,3.2,3.35A3.18,3.18,0,0,0,356.89,324.59Z" transform="translate(-85.5 -205.86)"/><path class="cls-3" d="M360.56,325.27v-5.41h1.65v5.35c0,1.74.9,2.69,2.38,2.69S367,327,367,325.27v-5.41h1.65v5.33c0,2.81-1.59,4.22-4,4.22S360.56,328,360.56,325.27Z" transform="translate(-85.5 -205.86)"/><path class="cls-3" d="M371,319.86h1.53l5,6.5v-6.5h1.63v9.41h-1.38l-5.19-6.7v6.7H371Z" transform="translate(-85.5 -205.86)"/><path class="cls-3" d="M381.24,324.59v0a4.76,4.76,0,0,1,4.85-4.86,4.91,4.91,0,0,1,3.69,1.46l-1.06,1.22a3.79,3.79,0,0,0-2.64-1.16,3.16,3.16,0,0,0-3.11,3.32v0a3.19,3.19,0,0,0,3.11,3.35,3.67,3.67,0,0,0,2.7-1.22l1.07,1.07a4.88,4.88,0,0,1-3.82,1.67A4.73,4.73,0,0,1,381.24,324.59Z" transform="translate(-85.5 -205.86)"/><path class="cls-3" d="M391.75,319.86h1.65v9.41h-1.65Z" transform="translate(-85.5 -205.86)"/><path class="cls-3" d="M396,319.86h1.65v7.9h5v1.51H396Z" transform="translate(-85.5 -205.86)"/><path class="cls-3" d="M408.86,324.59v0a4.82,4.82,0,0,1,4.94-4.86,4.77,4.77,0,0,1,4.9,4.84v0a4.92,4.92,0,0,1-9.84,0Zm8.11,0v0a3.22,3.22,0,0,0-3.2-3.34,3.18,3.18,0,0,0-3.17,3.32v0a3.23,3.23,0,0,0,3.2,3.35A3.18,3.18,0,0,0,417,324.59Z" transform="translate(-85.5 -205.86)"/><path class="cls-3" d="M420.79,319.86h7v1.5h-5.35v2.57h4.75v1.51h-4.75v3.83h-1.65Z" transform="translate(-85.5 -205.86)"/><path class="cls-3" d="M284.19,333.3H286l2.86,4.45,2.86-4.45h1.76v9.41h-1.65V336l-3,4.43h-.05l-2.95-4.4v6.72h-1.62Z" transform="translate(-85.5 -205.86)"/><path class="cls-3" d="M295.85,333.3h7v1.47H297.5v2.45h4.72v1.48H297.5v2.53h5.39v1.48h-7Z" transform="translate(-85.5 -205.86)"/><path class="cls-3" d="M304.85,333.3h3.51a4.69,4.69,0,0,1,5,4.67v0a4.71,4.71,0,0,1-5,4.71h-3.51Zm3.51,7.9a3.07,3.07,0,0,0,3.27-3.17v0a3.09,3.09,0,0,0-3.27-3.2h-1.85v6.4Z" transform="translate(-85.5 -205.86)"/><path class="cls-3" d="M315.46,333.3h1.65v9.41h-1.65Z" transform="translate(-85.5 -205.86)"/><path class="cls-3" d="M319.21,338v0a4.77,4.77,0,0,1,4.85-4.87,4.91,4.91,0,0,1,3.68,1.47l-1.06,1.22a3.73,3.73,0,0,0-2.63-1.17,3.16,3.16,0,0,0-3.11,3.32v0a3.18,3.18,0,0,0,3.11,3.35,3.71,3.71,0,0,0,2.7-1.22l1.06,1.07a4.87,4.87,0,0,1-3.82,1.67A4.73,4.73,0,0,1,319.21,338Z" transform="translate(-85.5 -205.86)"/><path class="cls-3" d="M332.87,333.23h1.54l4.14,9.48H336.8l-.95-2.28H331.4l-1,2.28h-1.7Zm2.37,5.74-1.63-3.76L332,339Z" transform="translate(-85.5 -205.86)"/><path class="cls-3" d="M340.16,333.3h1.65v7.9h4.95v1.51h-6.6Z" transform="translate(-85.5 -205.86)"/><path class="cls-3" d="M353.41,333.3h4.2a3.78,3.78,0,0,1,2.71.94,2.83,2.83,0,0,1,.78,2v0a2.82,2.82,0,0,1-2.24,2.85l2.54,3.57h-1.95l-2.31-3.28h-2.07v3.28h-1.66Zm4.07,4.66c1.19,0,1.94-.62,1.94-1.57v0c0-1-.73-1.56-1.95-1.56h-2.4V338Z" transform="translate(-85.5 -205.86)"/><path class="cls-3" d="M363.13,333.3h7v1.47h-5.32v2.45h4.72v1.48h-4.72v2.53h5.39v1.48h-7Z" transform="translate(-85.5 -205.86)"/><path class="cls-3" d="M371.5,341.34l1-1.19a4.37,4.37,0,0,0,3,1.22c1,0,1.66-.46,1.66-1.18v0c0-.68-.37-1-2.12-1.44-2-.49-3.13-1.08-3.13-2.81v0c0-1.61,1.34-2.73,3.21-2.73a5.23,5.23,0,0,1,3.41,1.18l-.88,1.25a4.3,4.3,0,0,0-2.56-1c-1,0-1.53.49-1.53,1.11v0c0,.73.43,1.05,2.23,1.48,2,.48,3,1.2,3,2.75v0c0,1.76-1.39,2.81-3.36,2.81A5.84,5.84,0,0,1,371.5,341.34Z" transform="translate(-85.5 -205.86)"/><path class="cls-3" d="M380.73,333.3h7v1.47h-5.32v2.45h4.72v1.48h-4.72v2.53h5.39v1.48h-7Z" transform="translate(-85.5 -205.86)"/><path class="cls-3" d="M393.07,333.23h1.53l4.14,9.48H397l-1-2.28h-4.45l-1,2.28h-1.69Zm2.37,5.74-1.63-3.76L392.2,339Z" transform="translate(-85.5 -205.86)"/><path class="cls-3" d="M400.35,333.3h4.2a3.78,3.78,0,0,1,2.71.94,2.83,2.83,0,0,1,.78,2v0a2.82,2.82,0,0,1-2.24,2.85l2.54,3.57h-1.95l-2.31-3.28H402v3.28h-1.66Zm4.08,4.66c1.18,0,1.93-.62,1.93-1.57v0c0-1-.72-1.56-1.95-1.56H402V338Z" transform="translate(-85.5 -205.86)"/><path class="cls-3" d="M409.65,338v0a4.77,4.77,0,0,1,4.85-4.87,4.91,4.91,0,0,1,3.69,1.47l-1.06,1.22a3.76,3.76,0,0,0-2.64-1.17,3.16,3.16,0,0,0-3.1,3.32v0a3.18,3.18,0,0,0,3.1,3.35,3.67,3.67,0,0,0,2.7-1.22l1.07,1.07a4.87,4.87,0,0,1-3.82,1.67A4.74,4.74,0,0,1,409.65,338Z" transform="translate(-85.5 -205.86)"/><path class="cls-3" d="M420,333.3h1.65v3.91h4.49V333.3h1.65v9.41h-1.65v-4h-4.49v4H420Z" transform="translate(-85.5 -205.86)"/><path class="cls-4" d="M288.63,272.24a13.42,13.42,0,0,1-4.47-.78v35.18h8.95V271.46A13.48,13.48,0,0,1,288.63,272.24Z" transform="translate(-85.5 -205.86)"/><path class="cls-4" d="M327,294.79c-2.61,2.69-5.4,4-8.3,4a10.18,10.18,0,0,1-10.33-10.27,8.86,8.86,0,0,1,3-7,10.17,10.17,0,0,1,7.13-2.73c2.73,0,5.51,1.21,8.26,3.6l.7.61,5.31-6.51-.58-.58a18.52,18.52,0,0,0-13.56-5.55A19.42,19.42,0,0,0,305,275.55a18.76,18.76,0,0,0-.24,26.54,18.06,18.06,0,0,0,12.79,5.06,20.48,20.48,0,0,0,14.91-6.51l.6-.62-5.43-5.92Z" transform="translate(-85.5 -205.86)"/><path class="cls-4" d="M338.3,271.59v35.05h8.94V287.39c0-2.9.8-5,2.44-6.49a8.35,8.35,0,0,1,5.83-2.22c2.18,0,3.71.62,4.69,1.9s1.53,3.55,1.53,6.56v19.5h8.95V286.91a7.89,7.89,0,0,1,2.51-6.13,8.54,8.54,0,0,1,5.75-2.1c4.69,0,6.87,2.68,6.87,8.46v19.5h8.94V285c0-4.64-1.28-8.27-3.8-10.77a13.52,13.52,0,0,0-9.91-3.76,15.82,15.82,0,0,0-12.36,5.86c-2.18-3.89-5.9-5.86-11.07-5.86a14.08,14.08,0,0,0-7.11,1.9,12.4,12.4,0,0,0-3.26,2.68v-3.43Z" transform="translate(-85.5 -205.86)"/><path class="cls-4" d="M429.37,266l2.59-7.17h-130v0a13.18,13.18,0,0,1-2.09,7.13Z" transform="translate(-85.5 -205.86)"/><path class="cls-5" d="M296.94,258.94a8.3,8.3,0,1,1-8.3-8.3A8.3,8.3,0,0,1,296.94,258.94Z" transform="translate(-85.5 -205.86)"/><path class="cls-4" d="M401.51,293.27s9.42-3.29,10.42-3.72l2.29-.8a5.48,5.48,0,1,0-3.64-10.33l-5.94,2.1L402,272.78l1.85-.63c2.39-.72,10.15-3.85,16.71.63a13.41,13.41,0,0,1,5.84,9.74c.91,7.2-3,11.31-8.58,14.16l9.95,9.95H414.86L401.54,293.3Z" transform="translate(-85.5 -205.86)"/><path class="cls-6" d="M458.7,319.81h4.21a3.84,3.84,0,0,1,2.73.95,2.84,2.84,0,0,1,.78,2v0a2.84,2.84,0,0,1-2.24,2.86l2.55,3.58h-2L462.44,326h-2.08v3.29H458.7Zm4.09,4.69c1.19,0,1.94-.62,1.94-1.58v0c0-1-.73-1.56-2-1.56h-2.42v3.17Z" transform="translate(-85.5 -205.86)"/><path class="cls-6" d="M468.45,319.81h7v1.49h-5.34v2.45h4.73v1.49h-4.73v2.53h5.41v1.49h-7.07Z" transform="translate(-85.5 -205.86)"/><path class="cls-6" d="M477.07,324.56v0a4.81,4.81,0,0,1,4.87-4.89,5.1,5.1,0,0,1,3.62,1.28l-1.05,1.26a3.69,3.69,0,0,0-2.64-1,3.19,3.19,0,0,0-3.06,3.33v0a3.15,3.15,0,0,0,3.21,3.37,3.8,3.8,0,0,0,2.28-.72v-1.76h-2.42V324h4v4a6,6,0,0,1-3.94,1.47A4.69,4.69,0,0,1,477.07,324.56Z" transform="translate(-85.5 -205.86)"/><path class="cls-6" d="M488.15,319.81h1.66v9.45h-1.66Z" transform="translate(-85.5 -205.86)"/><path class="cls-6" d="M491.91,324.56v0a4.84,4.84,0,0,1,4.95-4.89,4.79,4.79,0,0,1,4.92,4.86v0a4.94,4.94,0,0,1-9.87,0Zm8.13,0v0a3.23,3.23,0,0,0-3.21-3.36,3.19,3.19,0,0,0-3.18,3.33v0a3.22,3.22,0,0,0,3.21,3.34A3.17,3.17,0,0,0,500,324.56Z" transform="translate(-85.5 -205.86)"/><path class="cls-6" d="M503.79,319.81h1.54l5.05,6.53v-6.53H512v9.45h-1.39l-5.21-6.72v6.72h-1.63Z" transform="translate(-85.5 -205.86)"/><path class="cls-6" d="M517.78,319.75h1.54l4.16,9.51h-1.76l-1-2.28H516.3l-1,2.28h-1.7Zm2.38,5.76-1.63-3.78-1.62,3.78Z" transform="translate(-85.5 -205.86)"/><path class="cls-6" d="M525.09,319.81h1.66v7.94h5v1.51h-6.62Z" transform="translate(-85.5 -205.86)"/><path class="cls-6" d="M537.48,319.81h1.77l2.87,4.47,2.87-4.47h1.77v9.45H545.1v-6.77l-3,4.45h0l-3-4.43v6.75h-1.63Z" transform="translate(-85.5 -205.86)"/><path class="cls-6" d="M549.18,319.81h7v1.49h-5.34v2.45h4.74v1.49h-4.74v2.53h5.41v1.49h-7.07Z" transform="translate(-85.5 -205.86)"/><path class="cls-6" d="M558.21,319.81h3.53a4.71,4.71,0,0,1,5,4.7v0a4.73,4.73,0,0,1-5,4.72h-3.53Zm1.66,1.52v6.42h1.87a3.08,3.08,0,0,0,3.27-3.19v0a3.09,3.09,0,0,0-3.27-3.21Z" transform="translate(-85.5 -205.86)"/><path class="cls-6" d="M568.85,319.81h1.66v9.45h-1.66Z" transform="translate(-85.5 -205.86)"/><path class="cls-6" d="M572.61,324.56v0a4.78,4.78,0,0,1,4.87-4.89,4.94,4.94,0,0,1,3.7,1.47l-1.07,1.23a3.74,3.74,0,0,0-2.64-1.17,3.18,3.18,0,0,0-3.12,3.33v0a3.18,3.18,0,0,0,3.12,3.34,3.7,3.7,0,0,0,2.71-1.21l1.07,1.08a4.9,4.9,0,0,1-3.83,1.67A4.75,4.75,0,0,1,572.61,324.56Z" transform="translate(-85.5 -205.86)"/><path class="cls-6" d="M586.33,319.75h1.54l4.15,9.51h-1.75l-1-2.28h-4.47l-1,2.28h-1.7Zm2.37,5.76-1.63-3.78-1.62,3.78Z" transform="translate(-85.5 -205.86)"/><path class="cls-6" d="M593.63,319.81h1.66v7.94h5v1.51h-6.63Z" transform="translate(-85.5 -205.86)"/><path class="cls-6" d="M606,319.81h4.21a3.84,3.84,0,0,1,2.73.95,2.84,2.84,0,0,1,.78,2v0a2.84,2.84,0,0,1-2.24,2.86l2.55,3.58h-2L609.76,326h-2.08v3.29H606Zm4.09,4.69c1.19,0,1.94-.62,1.94-1.58v0c0-1-.73-1.56-1.95-1.56h-2.42v3.17Z" transform="translate(-85.5 -205.86)"/><path class="cls-6" d="M615.77,319.81h7v1.49h-5.34v2.45h4.73v1.49h-4.73v2.53h5.41v1.49h-7.07Z" transform="translate(-85.5 -205.86)"/><path class="cls-6" d="M624.17,327.88l1-1.19a4.33,4.33,0,0,0,3,1.23c1,0,1.67-.48,1.67-1.19v0c0-.68-.38-1-2.13-1.45-2-.48-3.14-1.07-3.14-2.81v0c0-1.62,1.35-2.74,3.22-2.74a5.24,5.24,0,0,1,3.43,1.19l-.89,1.25a4.32,4.32,0,0,0-2.57-1c-1,0-1.53.5-1.53,1.12v0c0,.73.43,1.05,2.25,1.48,2,.49,3,1.2,3,2.77v0c0,1.77-1.39,2.82-3.37,2.82A5.83,5.83,0,0,1,624.17,327.88Z" transform="translate(-85.5 -205.86)"/><path class="cls-6" d="M633.43,319.81h7v1.49h-5.34v2.45h4.74v1.49h-4.74v2.53h5.41v1.49h-7.07Z" transform="translate(-85.5 -205.86)"/><path class="cls-6" d="M645.81,319.75h1.54l4.15,9.51h-1.75l-1-2.28h-4.46l-1,2.28h-1.7Zm2.38,5.76-1.64-3.78-1.62,3.78Z" transform="translate(-85.5 -205.86)"/><path class="cls-6" d="M653.12,319.81h4.21a3.83,3.83,0,0,1,2.72.95,2.84,2.84,0,0,1,.78,2v0a2.84,2.84,0,0,1-2.24,2.86l2.55,3.58h-2L656.85,326h-2.07v3.29h-1.66Zm4.08,4.69c1.19,0,1.95-.62,1.95-1.58v0c0-1-.73-1.56-2-1.56h-2.41v3.17Z" transform="translate(-85.5 -205.86)"/><path class="cls-6" d="M662.45,324.56v0a4.78,4.78,0,0,1,4.87-4.89,4.91,4.91,0,0,1,3.69,1.47L670,322.35a3.78,3.78,0,0,0-2.65-1.17,3.17,3.17,0,0,0-3.11,3.33v0a3.18,3.18,0,0,0,3.11,3.34,3.7,3.7,0,0,0,2.71-1.21l1.07,1.08a4.89,4.89,0,0,1-3.83,1.67A4.75,4.75,0,0,1,662.45,324.56Z" transform="translate(-85.5 -205.86)"/><path class="cls-6" d="M672.81,319.81h1.66v3.93H679v-3.93h1.66v9.45H679v-4h-4.51v4h-1.66Z" transform="translate(-85.5 -205.86)"/><path class="cls-6" d="M458.29,338.06v0a4.76,4.76,0,0,1,4.86-4.88,4.9,4.9,0,0,1,3.7,1.47l-1.06,1.22a3.78,3.78,0,0,0-2.65-1.17A3.17,3.17,0,0,0,460,338v0a3.17,3.17,0,0,0,3.11,3.34,3.67,3.67,0,0,0,2.71-1.21l1.07,1.08a4.9,4.9,0,0,1-3.83,1.67A4.74,4.74,0,0,1,458.29,338.06Z" transform="translate(-85.5 -205.86)"/><path class="cls-6" d="M468.65,333.31h7v1.48h-5.34v2.46h4.74v1.48h-4.74v2.54h5.41v1.48h-7.07Z" transform="translate(-85.5 -205.86)"/><path class="cls-6" d="M477.69,333.31h1.53l5.06,6.53v-6.53h1.64v9.44h-1.39L479.32,336v6.72h-1.63Z" transform="translate(-85.5 -205.86)"/><path class="cls-6" d="M490.66,334.85h-3v-1.54h7.66v1.54h-3v7.9h-1.67Z" transform="translate(-85.5 -205.86)"/><path class="cls-6" d="M497.07,333.31h4.21a3.83,3.83,0,0,1,2.73.94,2.86,2.86,0,0,1,.78,2v0a2.84,2.84,0,0,1-2.24,2.86l2.55,3.57h-2l-2.32-3.29h-2.08v3.29h-1.66Zm4.09,4.68c1.19,0,1.94-.62,1.94-1.58v0c0-1-.73-1.56-2-1.56h-2.42V338Z" transform="translate(-85.5 -205.86)"/><path class="cls-6" d="M506.82,333.31h7v1.48h-5.34v2.46h4.73v1.48h-4.73v2.54h5.41v1.48h-7.07Z" transform="translate(-85.5 -205.86)"/><path class="cls-6" d="M515.1,344c.82-.16,1.21-.58,1.16-1.27h-.7v-1.86h1.79v1.58a2,2,0,0,1-2.08,2.25Z" transform="translate(-85.5 -205.86)"/><path class="cls-6" d="M523.53,333.31h4.23a3.41,3.41,0,0,1,2.47.83,2.13,2.13,0,0,1,.63,1.57v0a2.23,2.23,0,0,1-1.35,2.1,2.32,2.32,0,0,1,1.88,2.29v0c0,1.69-1.39,2.59-3.49,2.59h-4.37ZM529.2,336c0-.74-.59-1.2-1.66-1.2h-2.38v2.51h2.26c1.07,0,1.78-.42,1.78-1.28Zm-1.41,2.71h-2.63v2.59h2.75c1.13,0,1.82-.45,1.82-1.3v0C529.73,339.16,529.1,338.69,527.79,338.69Z" transform="translate(-85.5 -205.86)"/><path class="cls-6" d="M533.26,333.31h1.66v3.92h4.5v-3.92h1.66v9.44h-1.66v-4h-4.5v4h-1.66Z" transform="translate(-85.5 -205.86)"/><path class="cls-6" d="M543.36,338.74v-5.43H545v5.37c0,1.75.9,2.68,2.38,2.68s2.38-.88,2.38-2.62v-5.43h1.66v5.35c0,2.82-1.59,4.24-4.06,4.24S543.36,341.48,543.36,338.74Z" transform="translate(-85.5 -205.86)"/><path class="cls-6" d="M553.71,333.31H558a3.41,3.41,0,0,1,2.47.83,2.16,2.16,0,0,1,.63,1.57v0a2.24,2.24,0,0,1-1.35,2.1,2.32,2.32,0,0,1,1.88,2.29v0c0,1.69-1.39,2.59-3.5,2.59h-4.37Zm5.68,2.67c0-.74-.59-1.2-1.66-1.2h-2.39v2.51h2.27c1.07,0,1.78-.42,1.78-1.28ZM558,338.69h-2.63v2.59h2.76c1.13,0,1.82-.45,1.82-1.3v0C559.92,339.16,559.28,338.69,558,338.69Z" transform="translate(-85.5 -205.86)"/><path class="cls-6" d="M566.79,333.24h1.54l4.15,9.51h-1.75l-1-2.28h-4.46l-1,2.28h-1.7Zm2.38,5.76-1.64-3.78L565.92,339Z" transform="translate(-85.5 -205.86)"/><path class="cls-6" d="M574.1,333.31h1.54l5.05,6.53v-6.53h1.64v9.44h-1.39L575.73,336v6.72H574.1Z" transform="translate(-85.5 -205.86)"/><path class="cls-6" d="M584.75,333.31h7v1.48h-5.34v2.46h4.73v1.48h-4.73v2.54h5.41v1.48h-7.07Z" transform="translate(-85.5 -205.86)"/><path class="cls-6" d="M593.15,341.37l1-1.18a4.38,4.38,0,0,0,3,1.23c1,0,1.67-.49,1.67-1.19v0c0-.67-.38-1-2.13-1.44-2-.49-3.14-1.08-3.14-2.82v0c0-1.62,1.34-2.74,3.22-2.74a5.19,5.19,0,0,1,3.42,1.19l-.88,1.25a4.36,4.36,0,0,0-2.57-1c-1,0-1.54.5-1.54,1.12v0c0,.73.44,1,2.26,1.48,2,.49,3,1.2,3,2.77v0c0,1.76-1.39,2.81-3.37,2.81A5.76,5.76,0,0,1,593.15,341.37Z" transform="translate(-85.5 -205.86)"/><path class="cls-6" d="M601.34,333.31h1.8l2.25,7,2.32-7h1.4l2.32,7,2.26-7h1.74l-3.28,9.51h-1.44L608.39,336l-2.32,6.79h-1.43Z" transform="translate(-85.5 -205.86)"/><path class="cls-6" d="M619.25,333.24h1.54l4.15,9.51h-1.75l-1-2.28h-4.46l-1,2.28h-1.7Zm2.38,5.76L620,335.22,618.38,339Z" transform="translate(-85.5 -205.86)"/><path class="cls-6" d="M626.56,333.31h4.21a3.82,3.82,0,0,1,2.72.94,2.86,2.86,0,0,1,.78,2v0a2.84,2.84,0,0,1-2.24,2.86l2.55,3.57h-2l-2.32-3.29h-2.07v3.29h-1.66Zm4.08,4.68c1.19,0,2-.62,2-1.58v0c0-1-.73-1.56-2-1.56h-2.41V338Z" transform="translate(-85.5 -205.86)"/><path class="cls-4" d="M264.71,289a3.79,3.79,0,0,0-1.1-2.42,2.81,2.81,0,0,0-2.35-.62,4,4,0,0,0-1.2.36v0A84.94,84.94,0,0,0,257.72,275l-1.76.28q.22.8.42,1.59a3.09,3.09,0,0,0-.44-.23,2.91,2.91,0,0,0-1.66-.09,3.08,3.08,0,0,0-2.13,1.42,3.14,3.14,0,0,0-.23,2.27,5.53,5.53,0,0,0,.85,1.94,5.24,5.24,0,0,0,.49.57l-2.37.54h-.07l.47,2.07v.07l6.61-1.49c.14.87.28,1.75.4,2.63l-6.73.87h-.07l.29,2.17,6.77-.88q.3,2.81.42,5.64a1.31,1.31,0,0,1-.09.17,1.6,1.6,0,0,1-1.24.51h-.07a1,1,0,0,1-1-.65,2.82,2.82,0,0,1-.1-.73l-.13-2.76v-.07l-1.62.07h-.06l.06,1.37q-.47.25-.72.42a6.88,6.88,0,0,0-1.28,1,1.87,1.87,0,0,0-.53,1,2,2,0,0,0,0,.57l.12,2.62V298l1.62-.07H254l-.11-2.31c0-.09,0-.23,0-.41a.55.55,0,0,1,.26-.42l.5-.28.21-.09h0v.08a3.43,3.43,0,0,0,.51,1.7,2.33,2.33,0,0,0,2.12,1.1h.18a2.69,2.69,0,0,0,1.21-.37l.16-.11c0,.29,0,.58,0,.87,0,.94,0,1.87-.05,2.81a4.48,4.48,0,0,0-1-.51,5.7,5.7,0,0,0-1.77-.39,2.84,2.84,0,0,0-2.15.78,3.6,3.6,0,0,0-1,2.55,5.45,5.45,0,0,0,.29,2.15c.11.23.23.47.37.73l0,0,1.24.06h0l3.88-2.69c-.08,1.13-.18,2.26-.3,3.38l-6.66-.77h-.07l-.24,2.1v.07l6.72.78q-.49,3.57-1.28,7.06l-1.09-.23.52-2.43a5.07,5.07,0,0,0,0-1.34,2,2,0,0,0-1.66-1.73,2.33,2.33,0,0,0-2.37.7,5,5,0,0,0-1,2.27,5.09,5.09,0,0,0-.09,1.81,2.46,2.46,0,0,0,.13.52l-2.21,0h-.07l-.09,1.88,2.27-.17c.33,0,.66,0,1,0a4.86,4.86,0,0,1,.6,0l.07,0,.35-1.66v-.06l-.06,0a.93.93,0,0,1-.6-.46,2.58,2.58,0,0,1,0-1.45,2,2,0,0,1,.44-1,1,1,0,0,1,1-.26.93.93,0,0,1,.8,1,2.83,2.83,0,0,1-.07.4l-.73,3.47,0,.07,2.36.5c-.22.86-.45,1.71-.69,2.57l1.7.49a84.41,84.41,0,0,0,2.73-32.3v-.11a1.91,1.91,0,0,1,.45-.28,2.47,2.47,0,0,1,.6-.13,1.47,1.47,0,0,1,1.18.26,1.78,1.78,0,0,1,.56,1.22,3.39,3.39,0,0,1-.53,2.38,3.75,3.75,0,0,1-1.12,1.13l.12,1.8.61-.39a6.7,6.7,0,0,0,1.84-1.94A5.18,5.18,0,0,0,264.71,289Zm-10-6.59a2.69,2.69,0,0,1-.5-.33,2.16,2.16,0,0,1-.69-1.15,2.12,2.12,0,0,1,.21-1.57,1.89,1.89,0,0,1,1.28-.89,2.21,2.21,0,0,1,1.47.13,2.25,2.25,0,0,1,.44.32c.23.94.43,1.9.62,2.85Zm-.09,22.41c-.05-.11-.09-.19-.12-.27a2.2,2.2,0,0,1-.12-.83,2.3,2.3,0,0,1,.48-1.42,1.58,1.58,0,0,1,1.32-.57h.14a4.73,4.73,0,0,1,1.43.31,4.24,4.24,0,0,1,.55.21Z" transform="translate(-85.5 -205.86)"/><path class="cls-4" d="M111.5,250.44l1.34-1.6,0,0,0,0a2.69,2.69,0,0,1-.31-.62,1.53,1.53,0,0,1,.36-1.42,1.78,1.78,0,0,1,.81-.56.79.79,0,0,1,.81.15.64.64,0,0,1,.25.66,3.57,3.57,0,0,1-.14.34l-.65.78,1,.88.63-.75a2.64,2.64,0,0,1,.44-.29.81.81,0,0,1,.88.14,1.06,1.06,0,0,1,.4,1,1.78,1.78,0,0,1-.43,1.07,1.6,1.6,0,0,1-1.41.65,2.59,2.59,0,0,1-1.34-.67l0,0-1.32,1.56,0,.06.07,0c.27.2.55.39.82.57a3.49,3.49,0,0,0,1.71.48h.26a3.64,3.64,0,0,0,2.51-1.46,4.91,4.91,0,0,0,1.15-2.19,2.2,2.2,0,0,0-.79-2.23,1.53,1.53,0,0,0-1-.36h-.11a2.55,2.55,0,0,0-.37.08l1.52-1.82,3.07,2.58,1.41-1.68-5.19-4.35c.69-.73,1.4-1.44,2.12-2.15l4.69,4.9,0,.05,1.58-1.52-4.75-5c1-1,2.11-1.91,3.2-2.82H125a1.32,1.32,0,0,1,.81.51.83.83,0,0,1,.11.95,2.32,2.32,0,0,1-.7.78,2.73,2.73,0,0,1-.35.23l-.51.31-.09,0,.08.07.78.67a4.29,4.29,0,0,0,2,.84,2.73,2.73,0,0,0,.41,0,3.7,3.7,0,0,0,2.3-.87,5.36,5.36,0,0,0,1.27-1.42,3.62,3.62,0,0,0,.51-1.24l.48.59c.28.33.48.56.63.75l-.2.23a2.75,2.75,0,0,0-.28.45l0,.06,1.22.92,0-.09a1.61,1.61,0,0,1,.13-.33,1.43,1.43,0,0,1,.47-.55,1.48,1.48,0,0,1,.79-.31h0a.58.58,0,0,1,.51.29.72.72,0,0,1,0,.83,2.86,2.86,0,0,1-2.47,1.29h0a4.47,4.47,0,0,1-1.67-.35l-.08,0-.33,1.38,0,.07.06,0a5.94,5.94,0,0,0,1.39.31l.34,0a5,5,0,0,0,2.86-.92,5.12,5.12,0,0,0,1.65-1.63,2,2,0,0,0-1.7-3h0a3.17,3.17,0,0,0-1,.2l.19-.15-4.15-5.29c.89-.62,1.79-1.22,2.7-1.81l3.6,5.75,0,.06,1.8-1.13.06,0-3.64-5.81q3.51-2.12,7.2-3.87l.61,1.21h0a4.77,4.77,0,0,0-.72.05,6.38,6.38,0,0,0-1.9.6,4.77,4.77,0,0,0-2,1.62,1.9,1.9,0,0,0-.07,1.94,2.18,2.18,0,0,0,1.8,1.27,1.37,1.37,0,0,0,.29,0,4.67,4.67,0,0,0,2.08-.57,6.62,6.62,0,0,0,1.69-1.21,6.17,6.17,0,0,0,.41-.49l.81,1.61,0,.06,1.9-.95.06,0-3-6a82.7,82.7,0,0,1,11.68-4.15l.24.77-6.38,2a4.55,4.55,0,0,0-1.29.62,1.67,1.67,0,0,0,.4,3.07,2.81,2.81,0,0,0,1.67-.05l2.8-.89a1.18,1.18,0,0,1,.61-.05.42.42,0,0,1,.34.31.6.6,0,0,1-.2.7,2.85,2.85,0,0,1-.82.36l-.23.07a6.28,6.28,0,0,1-1.68.31,3.27,3.27,0,0,1-1.3-.12h0l-1.9,1.07-.1.05.09.06c.35.25.71.51,1.08.75h0a2.94,2.94,0,0,0,1.79-.09,2.21,2.21,0,0,1,2,.73,10.49,10.49,0,0,1,1,1.08l0,0,2-.64-.08-.08-.4-.43c-.32-.32-.56-.55-.73-.69a4.7,4.7,0,0,0-1.15-.58l-.43-.14.92-.29a3.61,3.61,0,0,0,1.69-1.06,1.93,1.93,0,0,0,.36-1.91,1.59,1.59,0,0,0-.89-1,1.87,1.87,0,0,0-1.34-.05l-3.5,1.11a.77.77,0,0,1-.45,0,.39.39,0,0,1-.27-.26.44.44,0,0,1,.19-.5,1.84,1.84,0,0,1,.29-.17l6.29-2,1.36,4.29,0,.07,2-.64.07,0-2-6.34c.92-.22,1.83-.42,2.76-.61l1.28,6.69v.06l2.15-.41-1.3-6.77a79.18,79.18,0,0,1,9.5-1.12l.1,1.21-5.42.47a4.06,4.06,0,0,0-1.12.34,2,2,0,0,0-1,2,2,2,0,0,0,.93,1.66,3.81,3.81,0,0,0,2.34.37,3.65,3.65,0,0,0,2-.68,1.8,1.8,0,0,0,.62-1.64,1.73,1.73,0,0,0-.32-.86,2,2,0,0,0-.15-.18l2.17-.19.37,4.26v.07l2.11-.19h.07l-.59-6.76c.5,0,1-.06,1.52-.06l0-1.77a83.49,83.49,0,0,0-32.45,7.08,6.08,6.08,0,0,1-.82-.37,2.51,2.51,0,0,1-1.33-1.27,1,1,0,0,1,0-.91A1.2,1.2,0,0,1,142,218l1-.44-.44-1.05,0-.06-1.61.68a2.64,2.64,0,0,0-1.25.9,1.84,1.84,0,0,0,0,1.77,3.18,3.18,0,0,0,1.55,1.5,9.92,9.92,0,0,0,1,.38,84.68,84.68,0,0,0-8.36,4.44,2.05,2.05,0,0,1-.42-.29,2.89,2.89,0,0,1-.38-.49,1.46,1.46,0,0,1-.24-1.18,1.79,1.79,0,0,1,.87-1,3.35,3.35,0,0,1,2.38-.5,3.73,3.73,0,0,1,1.49.53l1.6-.83-.61-.42a6.63,6.63,0,0,0-2.54-.85,5.18,5.18,0,0,0-3.37.81,3.85,3.85,0,0,0-1.74,2,2.82,2.82,0,0,0,.42,2.4,3.55,3.55,0,0,0,.83.93l-1,.66-.06,0h0a83.25,83.25,0,0,0-10,7.75v0l-.36.35c-.79.72-1.55,1.46-2.31,2.21l-.56.54,0,0h0c-1.35,1.37-2.68,2.76-3.94,4.22l1.9.54c.19-.22.4-.42.59-.64l1.2,1L116,245.78a1.13,1.13,0,0,0,0-.23,1.15,1.15,0,0,0-.44-.89,2,2,0,0,0-2.14-.37,4.56,4.56,0,0,0-1.75,1.38,4.2,4.2,0,0,0-1.15,2.76,2.58,2.58,0,0,0,.92,2Zm57.27-29.85a1.2,1.2,0,0,1-.7.24,1.3,1.3,0,0,1-.87-.18.82.82,0,0,1-.35-.64,1.13,1.13,0,0,1,.27-.9.79.79,0,0,1,.31-.19l.95-.08a.87.87,0,0,1,.28.15,1,1,0,0,1,.35.77A.91.91,0,0,1,168.77,220.59ZM143,226l.34,0,.42.83a4.79,4.79,0,0,1-.43.6,4.27,4.27,0,0,1-1.31,1,2.86,2.86,0,0,1-1.16.36h0a.93.93,0,0,1-.89-.58.83.83,0,0,1,0-.86,3.65,3.65,0,0,1,1.42-1,3.54,3.54,0,0,1,1.41-.39Zm-14.45,5.77,1.45,1.85h0s.13.18.08,1.23a2.82,2.82,0,0,1-1,2.2,2,2,0,0,1-1.51.42,1.54,1.54,0,0,1-.47-.12l-.11,0,.06-.05a2.55,2.55,0,0,0,1-1.49,1.87,1.87,0,0,0-.42-1.53,2.24,2.24,0,0,0-1-.72,1.63,1.63,0,0,0-.26-.07C127.1,232.93,127.82,232.36,128.55,231.81Z" transform="translate(-85.5 -205.86)"/><path class="cls-4" d="M114.35,344.94a3.31,3.31,0,1,0,3.31,3.31A3.31,3.31,0,0,0,114.35,344.94Z" transform="translate(-85.5 -205.86)"/><path class="cls-4" d="M177.27,241.51a56.13,56.13,0,1,0,56.13,56.13A56.19,56.19,0,0,0,177.27,241.51Zm0,110.59a54.47,54.47,0,1,1,54.47-54.46A54.53,54.53,0,0,1,177.27,352.1Z" transform="translate(-85.5 -205.86)"/><path class="cls-4" d="M177.27,205.86a91.78,91.78,0,1,0,91.78,91.78A91.88,91.88,0,0,0,177.27,205.86Zm0,181.9a90.12,90.12,0,1,1,90.12-90.12A90.23,90.23,0,0,1,177.27,387.76Z" transform="translate(-85.5 -205.86)"/><path class="cls-4" d="M134.1,340.9a3.31,3.31,0,1,0,3.31,3.31A3.31,3.31,0,0,0,134.1,340.9Z" transform="translate(-85.5 -205.86)"/><path class="cls-4" d="M221.37,340.9a3.31,3.31,0,1,0,3.3,3.31A3.31,3.31,0,0,0,221.37,340.9Z" transform="translate(-85.5 -205.86)"/><path class="cls-4" d="M241.51,344.94a3.31,3.31,0,1,0,3.31,3.31A3.31,3.31,0,0,0,241.51,344.94Z" transform="translate(-85.5 -205.86)"/><path class="cls-4" d="M100.9,267.85l-1.64-.65a83.49,83.49,0,0,0-3.81,12.7l-1,.08a6.85,6.85,0,0,0-2.47.83,3.59,3.59,0,0,0-1.75,2.4,3.79,3.79,0,0,0,.13,2.21A2.45,2.45,0,0,0,92.3,287a4.86,4.86,0,0,0,1.47.06,3.78,3.78,0,0,0,.47-.09,84.23,84.23,0,0,0,1,27.35l1.74-.35c-.14-.66-.24-1.32-.35-2l1.83-.3.6,2.49-2,.48a2.37,2.37,0,0,0-.83.61,2.7,2.7,0,0,0-.38,2.44,3.37,3.37,0,0,0,.83,1.62,1.7,1.7,0,0,0,1.22.53,2,2,0,0,0,.47-.06,1.37,1.37,0,0,0,.47-.23l.19-.16,0,0-.44-1.83-.09.1-.09.09a.9.9,0,0,1-.36.19.55.55,0,0,1-.51-.09,1.17,1.17,0,0,1-.29-.58c-.1-.4,0-.65.27-.79a.7.7,0,0,1,.21,0l1.7-.41.37,1.51a2.24,2.24,0,0,0,.88,1.36,1.86,1.86,0,0,0,1.57.26,2,2,0,0,0,1.53-1.28,3.43,3.43,0,0,0,0-2,3.3,3.3,0,0,0-1-1.73,1.94,1.94,0,0,0-1.85-.47l-.76.18-.58-2.39,3.66-.6h.07l-.34-2.09v-.07l-6.84,1.11,0-.27c-.1-.7-.18-1.4-.26-2.1l0-.31,6.83-.69h.07l-.22-2.17-6.9.69,0-.5c-.07-.76-.13-1.53-.17-2.3l0-2.57a1.24,1.24,0,0,1,.21-.46,1.56,1.56,0,0,1,1.25-.48h0a1,1,0,0,1,1,.68A2.89,2.89,0,0,1,98,300l0,2.77v.07l1.62,0h.07l0-1.36.73-.4a7.66,7.66,0,0,0,1.3-.93,1.86,1.86,0,0,0,.56-1,2,2,0,0,0,0-.57l0-2.62v-.07l-1.62,0h-.07l0,2.31v.41a.53.53,0,0,1-.27.41,3.94,3.94,0,0,1-.51.27l-.21.09v-.09a3.4,3.4,0,0,0-.46-1.72,2.36,2.36,0,0,0-2.2-1.16h-.06a2.76,2.76,0,0,0-1.22.33l-.34.22v-.8a82.54,82.54,0,0,1,.65-9.06l1.16.12-.45,4.29a4.12,4.12,0,0,0,.24,1.26,2.57,2.57,0,0,0,2.24,1.5,2.88,2.88,0,0,0,2.75-1,3.85,3.85,0,0,0,.76-2,3.28,3.28,0,0,0,0-.39v-.32l-1.64-.18,0,.11a.78.78,0,0,1,0,.22,3.91,3.91,0,0,1,0,.59.9.9,0,0,1-.36.66,1.5,1.5,0,0,1-1.12.24,1.21,1.21,0,0,1-1.14-.78,2,2,0,0,1-.06-.66l.35-3.33,4.1.43H103l.23-2.11v-.06L96.32,285l0-.2c.13-.83.26-1.66.42-2.49l6.94,1.44.45-2.14-6.94-1.44c.11-.51.21-1,.33-1.53h0l.29-1.19c.11-.44.23-.87.34-1.31a5.1,5.1,0,0,1,.5-.21,1.35,1.35,0,0,1,1,0,.85.85,0,0,1,.64.72,2.49,2.49,0,0,1-.14,1.05c0,.05-.07.18-.16.38s-.17.38-.25.54l0,.09h.09c.34.05.68.08,1,.12h.13a4.29,4.29,0,0,0,2-.45,3.58,3.58,0,0,0,1.76-2.22,5.39,5.39,0,0,0,.25-1.89,3.55,3.55,0,0,0-.28-1.32l.73.21,1,.28.07,0,.65-2.08-6.71-2.12C100.58,268.74,100.73,268.29,100.9,267.85Zm-6.36,17a2.28,2.28,0,0,1-.33.12,3,3,0,0,1-1.23,0,2.43,2.43,0,0,1-1.12-.52.91.91,0,0,1-.3-.92c.16-.77.85-1.27,2-1.48a8.8,8.8,0,0,1,1.44-.09C94.84,282.88,94.69,283.84,94.54,284.81Zm7,30.66a.93.93,0,0,1,.73.06,1,1,0,0,1,.39.64.8.8,0,0,1-.67,1.06.82.82,0,0,1-1-.27,1.71,1.71,0,0,1-.17-.48l-.19-.8Zm.59-43.38h0s.21.08.76,1a2.77,2.77,0,0,1,.39,2.38,1.94,1.94,0,0,1-1,1.2,1.38,1.38,0,0,1-.45.17l-.11,0,0-.07a2.58,2.58,0,0,0,0-1.82,1.86,1.86,0,0,0-1.21-1,2.16,2.16,0,0,0-.66-.1,2.39,2.39,0,0,0-.59.08c-.09,0-.43.1-.57.15.23-.77.46-1.54.72-2.3l.12-.39,0-.08Z" transform="translate(-85.5 -205.86)"/><path class="cls-4" d="M198,225.4a5,5,0,0,0,2.46.34,2.19,2.19,0,0,0,1.82-1.5,1.55,1.55,0,0,0,0-1.16,3.81,3.81,0,0,0-.21-.32l2.23.82-1.36,3.7,0,.06,2,.76,2.41-6.57a81.53,81.53,0,0,1,8.87,4.14l-.57,1.15-4.88-2.42a4,4,0,0,0-1.13-.29h-.07a1.93,1.93,0,0,0-1.81,1.23c-.69,1.38-.1,2.54,1.73,3.44a3.78,3.78,0,0,0,2.09.48,1.79,1.79,0,0,0,1.38-1.08,1.59,1.59,0,0,0,.18-.9,1.11,1.11,0,0,0,0-.23l2,1-1.88,3.79a2.2,2.2,0,0,0-.36-.13,2.45,2.45,0,0,0-.54-.07h-.06l-.29,1.4,0,.1h.1a1.56,1.56,0,0,1,.36,0,1.47,1.47,0,0,1,.69.18c.63.38.82.76.58,1.17a.73.73,0,0,1-.75.35,2.86,2.86,0,0,1-1.13-.4,2.82,2.82,0,0,1-1.11-1.3,4.94,4.94,0,0,1-.41-1.66v-.08l-1.46.31v.06a5.92,5.92,0,0,0,.31,1.39,5.07,5.07,0,0,0,2.19,2.51,5.16,5.16,0,0,0,2.18.78h.19a2,2,0,0,0,1.76-2.86,3,3,0,0,0-.64-.82l.26.13.07,0,3-6.15c1.36.78,2.69,1.61,4,2.46.14.31.25.71.3.83a1.36,1.36,0,0,1-.07,1.29,1.22,1.22,0,0,1-.71.52,1.07,1.07,0,0,1-.89-.24l-2.08-1.48-.06,0-.9,1.28,0,.06,1.18.83c-.07.38-.13.69-.16.91a4.78,4.78,0,0,0,0,1.68,1.82,1.82,0,0,0,.29.7,2,2,0,0,0,.43.43l.19.13,1.67,1.19.06,0,.9-1.28,0,0-1.57-1.12a.45.45,0,0,1-.2-.18,1.19,1.19,0,0,1-.12-.58,3.78,3.78,0,0,1,.08-.51s0-.1.06-.16a2.8,2.8,0,0,0,1.59.5h.1a2,2,0,0,0,1.57-.91,2.7,2.7,0,0,0,.53-1.64c0-.11,0-.47,0-.73,1,.72,2,1.46,3,2.22l-1.34,1.9-1.69-1.19-.05-.05-1,1.38,1.74,1.24-1.71,2.42,0,.06,1.72,1.22.06,0,4-5.66c.54.44,1.09.88,1.62,1.33a3.14,3.14,0,0,1,1.72-.84c-.5-.44-1-.85-1.52-1.27h0l-.07-.05a83.42,83.42,0,0,0-26.4-14.89l.08,1.9.85.32-.59,1.59-2.28-.84.23-.05a1.17,1.17,0,0,0,.69-.72,2,2,0,0,0-.38-2.14,4.56,4.56,0,0,0-1.9-1.18,4.12,4.12,0,0,0-3-.14,2.54,2.54,0,0,0-1.54,1.53l0,.07,1.95.72h.05l0,0a2.32,2.32,0,0,1,.48-.5,1.48,1.48,0,0,1,1.45-.14,1.82,1.82,0,0,1,.81.57.8.8,0,0,1,.13.81.65.65,0,0,1-.54.46,1.69,1.69,0,0,1-.37,0l-.95-.35-.45,1.23,0,.07.92.33a3.59,3.59,0,0,1,.42.32.8.8,0,0,1,.17.87,1.09,1.09,0,0,1-.76.71,1.85,1.85,0,0,1-1.16,0,1.61,1.61,0,0,1-1.09-1.11,2.55,2.55,0,0,1,.18-1.48l0-.07-2-.73,0,.07-.26,1a3.47,3.47,0,0,0,.23,2A3.66,3.66,0,0,0,198,225.4Zm13.37,1.88a1,1,0,0,1-.63.58,1.54,1.54,0,0,1-1.38-.77.83.83,0,0,1,0-.72,1.11,1.11,0,0,1,.71-.64h.14a.82.82,0,0,1,.21,0l.86.42a.92.92,0,0,1,.16.28A1,1,0,0,1,211.34,227.28Z" transform="translate(-85.5 -205.86)"/><path class="cls-4" d="M230.4,231.87a1.7,1.7,0,0,0,1,.43h.11a1,1,0,0,0,.78-.37,1.1,1.1,0,0,0,.24-1,1.71,1.71,0,0,0-.57-.91,1.53,1.53,0,0,0-1-.37h0a1.12,1.12,0,0,0-.88.41,1,1,0,0,0-.21.94A1.57,1.57,0,0,0,230.4,231.87Z" transform="translate(-85.5 -205.86)"/><path class="cls-4" d="M235.79,237.94l-.74,1.74c.45.45.86.94,1.31,1.4L234.3,243a5,5,0,0,1-2.08.05,3.11,3.11,0,0,1-1.47-.76,1.46,1.46,0,0,1-.48-.78.82.82,0,0,1,.21-.76.85.85,0,0,1,.94-.26,2,2,0,0,1,.78.48c.17.16.19.2.2.2l.08.09.87-.95-1-.91a2,2,0,0,1-.58-.76.87.87,0,0,1,.26-.89.83.83,0,0,1,.54-.29.72.72,0,0,1,.74,1,2.26,2.26,0,0,1-.33.39l0,0,1,.89,0,0,0,0a.31.31,0,0,0,.11-.09l.1-.11a2.2,2.2,0,0,0,.61-1.24,2.47,2.47,0,0,0-1-2,2.72,2.72,0,0,0-1.65-.76H232a1.86,1.86,0,0,0-1.41.66,1.74,1.74,0,0,0-.45,1.39,2.52,2.52,0,0,0,.34,1.2,1.84,1.84,0,0,0-.7,0,1.71,1.71,0,0,0-.92.52,1.94,1.94,0,0,0-.39,1.88,3.59,3.59,0,0,0,1.1,1.78,4.77,4.77,0,0,0,2.13,1.18,4.44,4.44,0,0,0,.92.1H233l-1.57,1.48,0,0,1.46,1.54,0,0,5-4.73c.61.67,1.21,1.36,1.8,2l-5.18,4.36-.05,0,1.36,1.62.05.06,5.21-4.39a83,83,0,0,1,5.53,7.78l-1.11.76-3.07-4.5a4.29,4.29,0,0,0-.84-.81,2,2,0,0,0-2.25.15c-1.27.86-1.33,2.16-.18,3.85a3.73,3.73,0,0,0,1.6,1.44,1.79,1.79,0,0,0,1.73-.26,1.84,1.84,0,0,0,.6-.7,1.94,1.94,0,0,0,.07-.22l1.23,1.8-3.53,2.41,0,0,1.19,1.75,0,.06,5.71-3.9c.23.38.48.74.69,1.13l1.45-1A83.57,83.57,0,0,0,235.79,237.94Zm5.71,15.32a.9.9,0,0,1-.84.19,1.16,1.16,0,0,1-.55-.49,1.25,1.25,0,0,1-.27-.85.83.83,0,0,1,.38-.62,1.26,1.26,0,0,1,.68-.23,1.07,1.07,0,0,1,.25,0,.84.84,0,0,1,.3.18l.54.79a.88.88,0,0,1,0,.32A1.06,1.06,0,0,1,241.5,253.26Z" transform="translate(-85.5 -205.86)"/><path class="cls-4" d="M164.64,368.35a1.2,1.2,0,0,1,.79-.15l1.13.17.18-1.19-1.73-.26a2.63,2.63,0,0,0-1.53.11,1.84,1.84,0,0,0-.93,1.51,3.18,3.18,0,0,0,.54,2.09,7.67,7.67,0,0,0,.54.75A74.92,74.92,0,0,1,146,365.83l-.68,1.63a77,77,0,0,0,7.71,3l-.39,1-5.07-2a4,4,0,0,0-1.15-.19,1.93,1.93,0,0,0-1.77,1.39,2.06,2.06,0,0,0,.09,1.91,3.87,3.87,0,0,0,1.94,1.37,3.66,3.66,0,0,0,2.13.28,1.79,1.79,0,0,0,1.28-1.19,1.62,1.62,0,0,0,.09-.92,1.23,1.23,0,0,0-.06-.22l2,.79-1.55,4,0,.06,2,.77.07,0,2.5-6.43c2.19.65,4.42,1.21,6.67,1.67l-.26,1.1-2.5-.58a7.76,7.76,0,0,0-1.19-.14h0a1.49,1.49,0,0,0-1.54,1.17,1.54,1.54,0,0,0,.46,1.5,3,3,0,0,0,1.47.76l2.86.66a1,1,0,0,1,.53.3.51.51,0,0,1,.13.5,1,1,0,0,1-1,.82,5.61,5.61,0,0,1-1.43-.2,5.5,5.5,0,0,1-1.77-.68l-.65-.77,0,0-1.77.52H155v.07a1.69,1.69,0,0,0,.32.63,3.51,3.51,0,0,0,1.93,1,2.21,2.21,0,0,1,1.43,1.51,7.62,7.62,0,0,1,.33,1.25v.05l2.06.47-.09-.58a5.29,5.29,0,0,0-.34-1,3.22,3.22,0,0,0-.51-.72l-.33-.36.22.05a4.26,4.26,0,0,0,2.68-.1,1.84,1.84,0,0,0,1.1-1.36,1.76,1.76,0,0,0-.22-1.41,1.74,1.74,0,0,0-1.12-.78l-3.56-.82-.21-.1a.52.52,0,0,1-.28-.58.46.46,0,0,1,.38-.38.6.6,0,0,1,.27,0l4.09.93.07,0,.53-2.33c.89.15,1.78.3,2.68.42l.25-1.75c-.47-.06-.94-.15-1.41-.22a2.8,2.8,0,0,1-.58-.73,2.51,2.51,0,0,1-.47-1.78A1,1,0,0,1,164.64,368.35Zm-16.21,4a.92.92,0,0,1-.58.63,1.13,1.13,0,0,1-.74-.09,1.29,1.29,0,0,1-.7-.54.88.88,0,0,1,0-.73,1.12,1.12,0,0,1,.65-.69.55.55,0,0,1,.24,0h.12l.89.34a1.11,1.11,0,0,1,.19.26A1.15,1.15,0,0,1,148.43,372.33Z" transform="translate(-85.5 -205.86)"/><path class="cls-4" d="M199,372.72a3,3,0,0,0-.54.17,2.52,2.52,0,0,0-.56.31,4.83,4.83,0,0,0-.62.64l-.21.26a2.33,2.33,0,0,0-1.08-.61,3.49,3.49,0,0,0-1.73,0,3.58,3.58,0,0,0-2,1.24,2.43,2.43,0,0,0-.52,2.18,2.68,2.68,0,0,0,2,2.17,3.69,3.69,0,0,0,1.07.14,6.11,6.11,0,0,0,1.3-.15l.71-.16-.3-1.3v-.07l-.27.06-.27.07a2.49,2.49,0,0,1-1.18,0,1.18,1.18,0,0,1-.88-1,1.28,1.28,0,0,1,.24-1.13,1.64,1.64,0,0,1,1-.65,1.44,1.44,0,0,1,1,.1,1,1,0,0,1,.58.71l.22,1v.07l1.31-.3.06,0-.23-1s0-.1.1-.41a1.91,1.91,0,0,1,.43-.63,1.06,1.06,0,0,1,.31-.21,3.25,3.25,0,0,1,.45-.13h0l.23-1.44-.37.06Z" transform="translate(-85.5 -205.86)"/><path class="cls-4" d="M213.53,365.23l-1-1.47c-.32.17-.66.32-1,.49l-.36-.44-.51-.55a6.93,6.93,0,0,0-2.2-1.4,3.58,3.58,0,0,0-3,.13,3.81,3.81,0,0,0-1.65,1.48,2.44,2.44,0,0,0,0,2.45,4.61,4.61,0,0,0,.87,1.19l.19.17a75.68,75.68,0,0,1-19,4.8l-.35-.72a6.67,6.67,0,0,0-1.72-2.05,5.24,5.24,0,0,0-3.21-1.05h-.1a3.82,3.82,0,0,0-2.52.82,2.8,2.8,0,0,0-.88,2.27,3.78,3.78,0,0,0,.22,1.23l-1.15,0h-.49l0,1.77h1.71l.11,6.76v.07l2.12,0h.07l-.11-6.86c2.28-.07,4.56-.22,6.82-.49l.13,1.22-2.47.26a4.75,4.75,0,0,0-1.29.39,2,2,0,0,0-1.13,2.11,2.32,2.32,0,0,0,1.4,2,4.89,4.89,0,0,0,2.46.24,5.25,5.25,0,0,0,1.74-.48,2.1,2.1,0,0,0,.46-.28l.67,2.11,0,.06,1.81-.5-.86-2.1q-.16-.45-.3-.93a4.75,4.75,0,0,1-.14-.59v-.07l-1.75.18v.06a.93.93,0,0,1-.25.72,2.56,2.56,0,0,1-1.38.45,2.12,2.12,0,0,1-1.07-.11,1.06,1.06,0,0,1-.57-.92.93.93,0,0,1,.76-1.08l.4-.06,3.52-.37h.07l-.27-2.62,0,0a76.83,76.83,0,0,0,17.9-4.9l.47,1.25h0l-.16.06a4,4,0,0,0-.6.28,2.2,2.2,0,0,0-.54.39,4.19,4.19,0,0,0-.54.7,1.45,1.45,0,0,1-.12.19l-.05.09a2.52,2.52,0,0,0-1.15-.46,3.85,3.85,0,0,0-3.57,1.75,2.42,2.42,0,0,0-.22,2.23A2.67,2.67,0,0,0,202,377a2.74,2.74,0,0,0,.5,0,5.38,5.38,0,0,0,1.84-.37l.38-.14.31-.12-.47-1.24,0-.06-.25.09-.16.06-.1,0a2.54,2.54,0,0,1-1.17.18,1.17,1.17,0,0,1-1-.84,1.33,1.33,0,0,1,.08-1.15,1.65,1.65,0,0,1,.89-.78,1.53,1.53,0,0,1,1,0,1,1,0,0,1,.66.63l.38,1,1.31-.5-.37-1s0-.09,0-.41a1.74,1.74,0,0,1,.34-.68,1.36,1.36,0,0,1,.46-.37l.54-.26,1.46,3.89,0,.07,2-.77-2.44-6.49,0,0c.71-.31,1.41-.64,2.11-1l3,6,0,.06,2-1-3.05-6Zm-34.13,7.31a2,2,0,0,1-.22-.48,3,3,0,0,1-.07-.61,1.54,1.54,0,0,1,.4-1.14,1.79,1.79,0,0,1,1.27-.42h.07a3.36,3.36,0,0,1,2.24.8,3.12,3.12,0,0,1,1.11,1.55Q181.8,372.47,179.4,372.54ZM207,366.39a1.55,1.55,0,0,1-.39-.25,2.82,2.82,0,0,1-.76-1,2.35,2.35,0,0,1-.3-1.21.91.91,0,0,1,.53-.8c.7-.35,1.52-.14,2.42.65a11.65,11.65,0,0,1,1.17,1.35C208.8,365.59,207.91,366,207,366.39Z" transform="translate(-85.5 -205.86)"/><polygon class="cls-4" points="69.28 151.58 68.55 145.67 67.24 145.13 64.27 152.28 65.52 152.8 67.45 148.14 68.2 153.91 69.55 154.47 72.52 147.32 71.27 146.8 69.28 151.58"/><polygon class="cls-4" points="78.43 150.44 78.79 149.18 73.66 147.71 71.53 155.15 76.79 156.66 77.15 155.41 73.28 154.3 73.86 152.27 77.34 153.27 77.7 152.01 74.22 151.02 74.69 149.37 78.43 150.44"/><polygon class="cls-4" points="85.08 155.71 84.61 150.18 82.9 149.93 80.83 155 80.52 149.58 79.05 149.37 79.63 157.28 81.19 157.5 83.44 151.98 84.03 157.92 85.56 158.14 88.4 150.73 86.95 150.52 85.08 155.71"/><path class="cls-4" d="M183.91,363.8a2.48,2.48,0,0,0,1-.7,3.6,3.6,0,0,0,.66-1.42,5.48,5.48,0,0,0,.09-1.66,6.37,6.37,0,0,0-.38-1.81,3.53,3.53,0,0,0-.79-1.2,2.38,2.38,0,0,0-1.13-.62,4.87,4.87,0,0,0-1.38,0l-2.65.21.61,7.72,2.73-.22A4.2,4.2,0,0,0,183.91,363.8Zm-2.66-.94-.4-5.11.65-.05a6.16,6.16,0,0,1,1.2,0,1.32,1.32,0,0,1,.7.31,1.73,1.73,0,0,1,.47.71,4.94,4.94,0,0,1,.25,1.37,5.32,5.32,0,0,1,0,1.42,1.68,1.68,0,0,1-.32.78,1.48,1.48,0,0,1-.56.37,3.89,3.89,0,0,1-.87.14Z" transform="translate(-85.5 -205.86)"/><polygon class="cls-4" points="105.94 149.04 100.7 150.07 102.19 157.67 107.57 156.62 107.32 155.34 103.37 156.11 102.96 154.04 106.51 153.35 106.26 152.07 102.71 152.76 102.38 151.08 106.2 150.33 105.94 149.04"/><polygon class="cls-4" points="108.41 148.38 107.02 148.81 109.29 156.15 114.14 154.66 113.75 153.41 110.3 154.48 108.41 148.38"/><polygon class="cls-4" points="113.86 146.43 112.53 147.01 115.62 154.11 116.95 153.53 115.6 150.43 118.21 149.29 119.56 152.4 120.9 151.81 117.81 144.71 116.47 145.29 117.69 148.09 115.08 149.23 113.86 146.43"/><rect class="cls-4" x="206.1" y="349.16" width="1.45" height="7.74" transform="translate(-228 -65.84) rotate(-28.26)"/><path class="cls-4" d="M213.43,281.13l1.13-.44a35.67,35.67,0,0,0-15.47-18.2l-.59,1.06A34.47,34.47,0,0,1,213.43,281.13Z" transform="translate(-85.5 -205.86)"/><path class="cls-4" d="M209.5,281.72l1.13-.48a31.93,31.93,0,0,0-12.51-14.7l-.64,1A30.72,30.72,0,0,1,209.5,281.72Z" transform="translate(-85.5 -205.86)"/><path class="cls-4" d="M204.56,281.24l1.07-.58a27.34,27.34,0,0,0-8.58-9.59l-.69,1A26.13,26.13,0,0,1,204.56,281.24Z" transform="translate(-85.5 -205.86)"/><path class="cls-4" d="M155.38,263.35l-.63-1A35.68,35.68,0,0,0,139.86,281l1.14.4A34.49,34.49,0,0,1,155.38,263.35Z" transform="translate(-85.5 -205.86)"/><path class="cls-4" d="M143.81,281.41l1.14.44a30.72,30.72,0,0,1,11.57-14.51l-.67-1A31.94,31.94,0,0,0,143.81,281.41Z" transform="translate(-85.5 -205.86)"/><path class="cls-4" d="M148.78,280.68l1.1.54a26.11,26.11,0,0,1,7.9-9.42l-.72-1A27.27,27.27,0,0,0,148.78,280.68Z" transform="translate(-85.5 -205.86)"/><polygon class="cls-4" points="33.89 124.9 33.83 124.94 34.88 126.64 41.95 122.27 42.01 122.24 40.95 120.53 33.89 124.9"/><polygon class="cls-4" points="37.84 114.56 36.98 112.78 29.5 116.39 29.44 116.42 30.25 118.1 35.07 115.78 31.87 121.37 31.85 121.41 32.68 123.13 40.16 119.52 40.22 119.49 39.41 117.81 34.71 120.08 37.82 114.59 37.84 114.56"/><path class="cls-4" d="M120.28,312.42a3.26,3.26,0,0,0-2.75-1.6,4.67,4.67,0,0,0-1.78.24,5.7,5.7,0,0,0-1.8.87,3.65,3.65,0,0,0-1,1.25,3.41,3.41,0,0,0-.32,1.59,7.77,7.77,0,0,0,.36,1.74l1,3.32,8-2.45-1-3.41A6.67,6.67,0,0,0,120.28,312.42Zm-5.43,5.05-.23-.73a9.61,9.61,0,0,1-.36-1.48,1.62,1.62,0,0,1,.7-1.61,4.58,4.58,0,0,1,1.32-.6,5.12,5.12,0,0,1,1.41-.26h.07a1.58,1.58,0,0,1,.86.22,1.71,1.71,0,0,1,.53.59,6.73,6.73,0,0,1,.4,1l.38,1.27Z" transform="translate(-85.5 -205.86)"/><polygon class="cls-4" points="34.1 102.99 33.72 101.02 25.57 102.6 25.5 102.61 25.88 104.58 34.03 103 34.1 102.99"/><path class="cls-4" d="M119,306.64l-.18-2.08v0l-1.93-.6-.31-3.58,1.76-.94,0,0-.19-2.17-8,4.45.17,2v0l8.55,2.89Zm-6.57-4.12,2.69-1.4.2,2.3Z" transform="translate(-85.5 -205.86)"/><polygon class="cls-4" points="32.74 90.98 32.87 89.11 27.66 88.77 33.08 85.53 33.11 85.51 33.24 83.54 24.95 82.99 24.89 82.98 24.76 84.85 30.09 85.2 24.55 88.49 24.52 88.51 24.39 90.42 32.68 90.97 32.74 90.98"/><path class="cls-4" d="M114.59,278a1.66,1.66,0,0,1,1.06-.36h.12l.13-1.94v-.08h-.07a3.17,3.17,0,0,0-1.75.51,4.17,4.17,0,0,0-1.64,2.43,4.4,4.4,0,0,0,.24,3.37,4.29,4.29,0,0,0,2.79,2.06,5.5,5.5,0,0,0,1.4.2,3.7,3.7,0,0,0,1.92-.51,4.3,4.3,0,0,0,1.94-2.64,4.38,4.38,0,0,0,0-2.58,3.69,3.69,0,0,0-1.58-1.91l-.06,0-1.06,1.72.06,0a2.29,2.29,0,0,1,1,1.06,1.93,1.93,0,0,1,0,1.3,2.08,2.08,0,0,1-1,1.35,3.14,3.14,0,0,1-2.26,0,2.93,2.93,0,0,1-1.83-1.16,2.18,2.18,0,0,1-.17-1.73A2.08,2.08,0,0,1,114.59,278Z" transform="translate(-85.5 -205.86)"/><path class="cls-4" d="M123.89,272.62a4.65,4.65,0,0,0,.36-3.46,4.7,4.7,0,0,0-5.77-2.68A4.69,4.69,0,0,0,116,269a5.82,5.82,0,0,0-.55,2,3.65,3.65,0,0,0,.17,1.42,4,4,0,0,0,.67,1.28,4.8,4.8,0,0,0,1.76,1.29,4.71,4.71,0,0,0,2,.48,3.7,3.7,0,0,0,1.39-.27A4.68,4.68,0,0,0,123.89,272.62Zm-1.41-.65a2.51,2.51,0,0,1-1.39,1.33,2.88,2.88,0,0,1-2.18-.24,2.83,2.83,0,0,1-1.59-1.5,2.72,2.72,0,0,1,1.51-3.27,2.81,2.81,0,0,1,2.16.26,2.84,2.84,0,0,1,1.61,1.52A2.43,2.43,0,0,1,122.48,272Z" transform="translate(-85.5 -205.86)"/><path class="cls-4" d="M125.43,266.74a2.56,2.56,0,0,0,.39,0,3,3,0,0,0,1.22-.51,6,6,0,0,0,1.37-1.53,5.22,5.22,0,0,0,.79-1.63,2.81,2.81,0,0,0,.05-1.31,2.26,2.26,0,0,0-.56-1.07,9.81,9.81,0,0,0-1.66-1.31l-3.65-2.46-1.12,1.66,3.84,2.59a8.42,8.42,0,0,1,1.1.84,1.07,1.07,0,0,1,.3.75,1.93,1.93,0,0,1-.42,1.11,2.12,2.12,0,0,1-.91.83,1.27,1.27,0,0,1-.94,0,7.32,7.32,0,0,1-1.16-.7l-3.76-2.53-1.12,1.65,3.7,2.5a9.44,9.44,0,0,0,1.85,1A2.17,2.17,0,0,0,125.43,266.74Z" transform="translate(-85.5 -205.86)"/><polygon class="cls-4" points="49.39 50.6 50.73 49.14 44.61 43.52 44.56 43.48 43.3 44.85 47.23 48.47 40.85 47.56 40.82 47.55 39.52 48.97 45.63 54.58 45.68 54.63 46.95 53.26 43.1 49.73 49.35 50.59 49.39 50.6"/><path class="cls-4" d="M137.6,252.75a4.85,4.85,0,0,0,4.29-3.14,3.63,3.63,0,0,0-.18-2.47l0-.06-1.79.76-.06,0,0,.06a2.38,2.38,0,0,1,.23,1.47,2,2,0,0,1-.71,1.09,2.06,2.06,0,0,1-1.64.5,3.16,3.16,0,0,1-1.84-1.31,3,3,0,0,1-.82-2,2.11,2.11,0,0,1,.86-1.51,2.07,2.07,0,0,1,1.17-.49,1.7,1.7,0,0,1,1.12.35l.06,0,1.27-1.58-.06,0a3.28,3.28,0,0,0-1.72-.6h-.08a4.21,4.21,0,0,0-2.67,1,4.42,4.42,0,0,0-1.74,2.89,4.28,4.28,0,0,0,1.09,3.29,4.08,4.08,0,0,0,2.89,1.66Z" transform="translate(-85.5 -205.86)"/><rect class="cls-4" x="141.8" y="240.43" width="2" height="8.37" transform="translate(-195.77 -88.45) rotate(-33.04)"/><polygon class="cls-4" points="61.53 40.96 67.39 37.87 66.71 36.58 66.68 36.52 62.58 38.68 59.45 32.74 59.41 32.69 57.71 33.59 57.65 33.62 61.49 40.9 61.53 40.96"/><path class="cls-4" d="M156.93,241a4.09,4.09,0,0,0,1.82.41,5.76,5.76,0,0,0,1.68-.27,4.64,4.64,0,0,0,2.83-2,4.14,4.14,0,0,0,.28-3.39,4.18,4.18,0,0,0-2.11-2.71,4.73,4.73,0,0,0-3.5-.15,5.89,5.89,0,0,0-1.83.89,3.93,3.93,0,0,0-.95,1.07,4.07,4.07,0,0,0-.5,1.36,4.67,4.67,0,0,0,.2,2.17h0A4.08,4.08,0,0,0,156.93,241Zm-.07-5.48a2.49,2.49,0,0,1,1.54-1.17,2.44,2.44,0,0,1,1.91.13,3.53,3.53,0,0,1,1.18,4,2.64,2.64,0,0,1-3.42,1,2.81,2.81,0,0,1-1.27-1.78A2.89,2.89,0,0,1,156.86,235.55Z" transform="translate(-85.5 -205.86)"/><polygon class="cls-4" points="85.51 26.09 85.3 24.65 85.29 24.58 78.97 25.51 78.9 25.52 80.11 33.73 80.12 33.8 82.03 33.52 82.1 33.51 81.59 30.05 85.33 29.5 85.4 29.49 85.18 28.04 85.17 27.97 81.36 28.53 81.1 26.74 85.44 26.1 85.51 26.09"/><polygon class="cls-4" points="91.18 24.2 90.72 32.49 90.71 32.56 92.51 32.67 92.58 32.67 92.92 26.63 94.26 32.72 94.28 32.77 96.12 32.87 96.17 32.87 98.22 26.93 97.88 32.9 97.88 32.97 99.67 33.07 99.74 33.08 100.21 24.79 100.22 24.72 97.36 24.55 97.31 24.55 95.4 29.89 94.1 24.42 94.09 24.37 91.25 24.21 91.18 24.2"/><polygon class="cls-4" points="107.95 34.83 108.25 33.4 108.27 33.34 103.23 32.25 103.67 30.2 108.13 31.16 108.2 31.17 108.5 29.75 108.52 29.68 103.99 28.7 104.35 27.05 109.15 28.09 109.21 28.1 109.52 26.67 109.53 26.6 102.78 25.15 102.71 25.14 100.97 33.26 100.95 33.32 107.88 34.81 107.95 34.83"/><path class="cls-4" d="M203.59,237.89a3.68,3.68,0,0,0-.37-1.59,3.34,3.34,0,0,0-1.06-1.22,7.42,7.42,0,0,0-1.61-.76l-3.19-1.19-.06,0-2.89,7.78,0,.07,3.35,1.24a6.13,6.13,0,0,0,1.63.41l.37,0a3.15,3.15,0,0,0,1.11-.18,3.62,3.62,0,0,0,1.46-1,5.09,5.09,0,0,0,.89-1.57A5.65,5.65,0,0,0,203.59,237.89Zm-2.31,1.17a5.06,5.06,0,0,1-.69,1.33,1.67,1.67,0,0,1-.7.55,1.74,1.74,0,0,1-.8.06,5.75,5.75,0,0,1-1.06-.32l-1.24-.46,1.85-5,.72.27a9,9,0,0,1,1.39.6,1.79,1.79,0,0,1,.65.63,1.81,1.81,0,0,1,.21.9A4.37,4.37,0,0,1,201.28,239.06Z" transform="translate(-85.5 -205.86)"/><polygon class="cls-4" points="118.92 39.27 122.6 31.82 122.63 31.76 120.9 30.9 120.83 30.87 117.16 38.32 117.13 38.38 118.86 39.24 118.92 39.27"/><path class="cls-4" d="M208.84,247.83a4.46,4.46,0,0,0,2.34.76h.12a3.72,3.72,0,0,0,2.28-1l0-.05-1.35-1.5-.05.05a2.32,2.32,0,0,1-1.32.7,1.93,1.93,0,0,1-1.26-.32,2.06,2.06,0,0,1-1-1.38,3.12,3.12,0,0,1,.64-2.17,2.91,2.91,0,0,1,1.63-1.43,2.15,2.15,0,0,1,1.7.32,2,2,0,0,1,.85.95,1.68,1.68,0,0,1,0,1.17l0,.07,1.9.69,0-.07a3.34,3.34,0,0,0,0-1.83,4.19,4.19,0,0,0-1.89-2.25,4.35,4.35,0,0,0-3.3-.71,4.29,4.29,0,0,0-2.75,2.1,4.11,4.11,0,0,0-.64,3.28A4.33,4.33,0,0,0,208.84,247.83Z" transform="translate(-85.5 -205.86)"/><path class="cls-4" d="M217.8,254.51l1.65,1.41,2.6-8.75v0l-1.53-1.32,0,0-8.13,3.93-.1,0,1.62,1.38,1.79-.92,2.73,2.34-.6,1.9Zm-.65-5,2.7-1.38L218.9,251Z" transform="translate(-85.5 -205.86)"/><polygon class="cls-4" points="134.22 50.39 134.17 50.43 138.52 55.35 138.57 55.4 139.66 54.43 139.71 54.39 136.64 50.92 141.66 46.47 141.72 46.43 140.39 44.93 134.22 50.39"/><path class="cls-4" d="M235.57,263.53l-2-3.44-7.15,4.23-.06,0,1,1.73,3-1.75.16.26a3.53,3.53,0,0,1,.39.84,1.45,1.45,0,0,1,0,.62,14.71,14.71,0,0,1-.54,1.45l-.86,2.07v0l1.15,1.95.06.12.87-1.91a9.54,9.54,0,0,0,.61-1.61,4,4,0,0,0,.1-1,3,3,0,0,0,1.49,1.05,2.14,2.14,0,0,0,1.68-.26,2.3,2.3,0,0,0,.94-1,2.15,2.15,0,0,0,.14-1.37A7.34,7.34,0,0,0,235.57,263.53Zm-.89,2.16a.8.8,0,0,1-.42.51.92.92,0,0,1-.58.14,1,1,0,0,1-.53-.25,8.4,8.4,0,0,1-.92-1.38l-.67-1.12,1.68-1,.7,1.19c.47.79.62,1.08.67,1.17A1.12,1.12,0,0,1,234.68,265.69Z" transform="translate(-85.5 -205.86)"/><polygon class="cls-4" points="152.98 62.98 145.29 66.12 145.23 66.15 147.9 72.71 147.93 72.77 149.28 72.22 149.34 72.19 147.39 67.42 149.34 66.63 151.06 70.85 151.09 70.92 152.44 70.36 152.5 70.34 150.75 66.05 152.31 65.41 154.17 69.96 154.2 70.02 155.55 69.47 155.61 69.44 153 63.05 152.98 62.98"/><path class="cls-4" d="M242,279a2.56,2.56,0,0,0-1.12-.94,2.1,2.1,0,0,0-1.28-.1,2.13,2.13,0,0,0-1.45,1.27,5.52,5.52,0,0,0-.28,2.26c0,.75,0,1.29,0,1.53a1.53,1.53,0,0,1-.18.7.59.59,0,0,1-.39.28.9.9,0,0,1-.82-.24,2.16,2.16,0,0,1-.64-1.19,2.14,2.14,0,0,1,0-1.36,1.89,1.89,0,0,1,1-.9l.06,0-.61-1.78,0-.07-.06,0a3.06,3.06,0,0,0-1.81,1.63,4.39,4.39,0,0,0,0,2.83,5.84,5.84,0,0,0,.79,1.89,2.65,2.65,0,0,0,1.23,1,2.32,2.32,0,0,0,.89.18,2.5,2.5,0,0,0,.54-.07,2.34,2.34,0,0,0,1.22-.7,2.53,2.53,0,0,0,.58-1.22,9.93,9.93,0,0,0,.08-2.11,5.34,5.34,0,0,1,.12-1.77.56.56,0,0,1,.37-.35.54.54,0,0,1,.5.15,2.27,2.27,0,0,1,.58,1.13,2,2,0,0,1,0,1.17,1.29,1.29,0,0,1-.73.68l-.05,0,.56,1.91h.07a2.4,2.4,0,0,0,1.58-1.38,4.27,4.27,0,0,0,0-2.74A5.15,5.15,0,0,0,242,279Z" transform="translate(-85.5 -205.86)"/><polygon class="cls-4" points="158.44 80.83 158.44 80.76 150.18 81.63 150.11 81.63 150.85 88.68 150.85 88.74 152.37 88.59 151.83 83.46 153.93 83.24 154.4 87.78 154.41 87.85 155.93 87.69 155.44 83.08 157.12 82.91 157.63 87.79 157.64 87.86 159.16 87.7 158.44 80.83"/><path class="cls-4" d="M244.55,300.67l.08-2.05-8.11-4-.1,0-.09,2.12,1.84.84-.15,3.59-1.86.71,0,0L236,304v.1l8.48-3.38Zm-5-.09.1-2.31,2.75,1.26Z" transform="translate(-85.5 -205.86)"/><path class="cls-4" d="M238.58,308.22a1.55,1.55,0,0,1-.43.46,11,11,0,0,1-1.36.72l-2,1,0,0-.44,2.22,0,.13,1.92-.85a9.66,9.66,0,0,0,1.53-.79,4,4,0,0,0,.75-.69,3.06,3.06,0,0,0,.41,1.77,2.15,2.15,0,0,0,1.43.92,2.61,2.61,0,0,0,.48,0,2.19,2.19,0,0,0,.91-.2,2.09,2.09,0,0,0,1-.93,7.57,7.57,0,0,0,.64-2.08l.76-3.85V306L236,304.42h-.07l-.38,1.89v.07l3.37.66-.06.31A3.8,3.8,0,0,1,238.58,308.22Zm1.5.38.25-1.29,1.91.38-.27,1.36c-.14.74-.24,1.18-.28,1.32a1.13,1.13,0,0,1-.43.59.84.84,0,0,1-.65.1.94.94,0,0,1-.54-.28,1,1,0,0,1-.22-.54A7.43,7.43,0,0,1,240.08,308.6Z" transform="translate(-85.5 -205.86)"/><path class="cls-4" d="M240.73,319.77a4.43,4.43,0,0,0,0-3.38,4.27,4.27,0,0,0-2.63-2.24,4.11,4.11,0,0,0-3.34.06,4.81,4.81,0,0,0-2.34,5.06,3.67,3.67,0,0,0,1.43,2l.06,0,1.14-1.58,0-.06-.06,0a2.31,2.31,0,0,1-1-1.14,2,2,0,0,1,0-1.3,2.13,2.13,0,0,1,1.15-1.27,3.14,3.14,0,0,1,2.25.17,3,3,0,0,1,1.75,1.3,2.16,2.16,0,0,1,0,1.73,2,2,0,0,1-.75,1,1.71,1.71,0,0,1-1.14.29h-.07l-.27,2h.26a3.21,3.21,0,0,0,1.6-.38A4.29,4.29,0,0,0,240.73,319.77Z" transform="translate(-85.5 -205.86)"/><polygon class="cls-4" points="145.51 115.45 144.58 117.14 144.55 117.2 147.71 118.93 146.02 122.01 142.92 120.31 142.86 120.28 141.93 121.97 141.9 122.03 149.18 126.02 149.25 126.06 150.17 124.36 150.2 124.3 147.36 122.75 149.05 119.67 151.83 121.19 151.89 121.22 152.82 119.53 152.85 119.47 145.57 115.48 145.51 115.45"/><path class="cls-4" d="M217.67,305.86c-1.38-2-5.24-2.52-11.49-1.66a2.12,2.12,0,0,0-.35.07h-.45v.11c-1.38.37-4,1.4-3.91,3.74a.83.83,0,0,0,0,.15v4.34a66,66,0,0,1-47.34.25v-4.59s0-.1,0-.15c.15-2.5-2.9-3.5-4.19-3.81v-.06h-.22l-.32-.07c-6.23-.85-10.08-.29-11.47,1.67a3.29,3.29,0,0,0-.23,3.2l4.71,18.12a.73.73,0,0,0,.7.54h2.36a.76.76,0,0,0,.52-.21.71.71,0,0,0,.2-.52v-1.32h1.4v3.85a1.32,1.32,0,0,0,.84,1.24,76.22,76.22,0,0,0,29.17,5.79,73.57,73.57,0,0,0,29.19-5.79,1.35,1.35,0,0,0,.77-1.22v-3.87h1.8V327a.72.72,0,0,0,.21.52.74.74,0,0,0,.51.21h2.36a.73.73,0,0,0,.7-.54l4.71-18.12A3.29,3.29,0,0,0,217.67,305.86Zm-78.48.82c.45-.63,1.76-1.49,5.55-1.44l-.06.13a4.07,4.07,0,0,1-2,2.78,5.25,5.25,0,0,1-3.67.09A1.75,1.75,0,0,1,139.19,306.68Zm4.55,19.6-4.28-16.44a6.23,6.23,0,0,0,3.84-.39,4.79,4.79,0,0,0,1.38-1l.14,17.86Zm61.67-20.4.05,3.32a7.5,7.5,0,0,0-2.51-1,.93.93,0,0,1,0-.13C202.84,306.87,204.35,306.2,205.41,305.88ZM152.76,308a.93.93,0,0,1,0,.13,7.34,7.34,0,0,0-2.63,1.11L150,305.8C151.19,306.13,152.83,306.86,152.76,308Zm-4.11,2.74a1.4,1.4,0,0,0-.35.1,1.34,1.34,0,0,0-.65,1.15v12.2h-1.41l-.14-18.68a.7.7,0,0,0,0-.25c.76,0,1.61.12,2.54.23l.08,5.22Zm.45,18.74,0-17.34c4.73,2.43,28.32,13.05,57.12.07l.07,17.19C203.49,330.72,178.48,341.54,149.1,329.52Zm60.47-24-.14,18.68H208l-.06-11.94a.72.72,0,0,0-.43-.65,1.2,1.2,0,0,0-.25-.42,6.33,6.33,0,0,0-.34-.58l-.08-5.08c1-.13,2-.21,2.78-.26A.7.7,0,0,0,209.57,305.55Zm2.36,20.73h-1.08l.14-17.86a4.79,4.79,0,0,0,1.38,1,6.23,6.23,0,0,0,3.84.39Zm4.74-18a5.2,5.2,0,0,1-3.67-.09,4.07,4.07,0,0,1-2-2.78.45.45,0,0,0-.06-.12c3.79-.05,5.1.81,5.55,1.43A1.75,1.75,0,0,1,216.67,308.24Z" transform="translate(-85.5 -205.86)"/><path class="cls-4" d="M158.28,321.54l.31.1.27,0a.94.94,0,0,0,.3-.05l-.39,1.35.74.21,1.06-3.66c.72.21,1.51.41,2.35.62l-.21.88a.6.6,0,0,1-.1.23.34.34,0,0,1-.26.17l-.16,0a.44.44,0,0,1-.25-.27l-.19-.63-.32-.08-.39.16.1.33.09.33.14.43.16.43c.17.43.34.84.53,1.22a1.84,1.84,0,0,0,.35.53l.32.08.36-.2-.14-.22-.3-.55-.16-.34-.35-.91.26.07a.85.85,0,0,0,.64-.07.74.74,0,0,0,.41-.51l.22-.93,1,.21-.75,3.7.74.15.75-3.7.56.11a1.09,1.09,0,0,1,.23-.33l-.75-.15-.23-.67-.16-.41a2.61,2.61,0,0,0-.49-.78,1.08,1.08,0,0,0-.57-.34l-.32-.05a.9.9,0,0,0-.4,0,1,1,0,0,0-.63.49,1,1,0,0,0-.15.38l0,.19,0,.19,0,.17.09.21a51.49,51.49,0,0,1-5.57-1.71l-.13.35,1,.35-.42,1.44a1.38,1.38,0,0,0,0,.45,1.59,1.59,0,0,0,.13.42A1.16,1.16,0,0,0,158.28,321.54Zm5-2.52a1.27,1.27,0,0,1,0-.15l.08-.15a.61.61,0,0,1,.12-.15l.13-.1.14,0a1.5,1.5,0,0,1,.44.53,3.11,3.11,0,0,1,.5,1.21l-1.27-.28-.08-.18-.07-.22c0-.12,0-.21,0-.27A.69.69,0,0,1,163.26,319Zm-5.06,1.37.42-1.46,1.21.38-.47,1.63-.17.13-.13.08a1.67,1.67,0,0,1-.29.1l-.13,0h-.12l-.14-.1-.11-.14A.68.68,0,0,1,158.2,320.39Z" transform="translate(-85.5 -205.86)"/><path class="cls-4" d="M197,326l-.12-.34c-1.18.41-2.44.77-3.77,1.09l-.21-.14-.28-.2-.67-.38a4.2,4.2,0,0,0-1.43-.5,1.93,1.93,0,0,0-.67,0l-.32.07a1.21,1.21,0,0,0-1.05.95,1,1,0,0,0,0,.48l0,.13.09.21.09.19.07.08a66.74,66.74,0,0,1-7.21.75l.16.36,1-.06h.12l.13,1.55-1.35.06,0-1.11a.63.63,0,0,0-.26-.52.81.81,0,0,0-.56-.17l-.33,0a1,1,0,0,0-.58.22.63.63,0,0,0-.21.58v.11l0,.11v.05l0,0h.74l0-.07,0-.06,0-.12v-.12l0-.17.09-.13.06,0,.07,0,.1.06a.31.31,0,0,1,.09.12.25.25,0,0,1,0,.13l.06,1.15-.49,0-.06,0-.07.05-.07.06,0,.07a.7.7,0,0,0,.12.22l.33.35a1.9,1.9,0,0,0,.37.31.32.32,0,0,0,.22.09h.33l.08,0,.06-.06v0l0-.75,1.36-.06.16,2,.76-.06-.32-3.9h.08c1.06-.08,2.09-.2,3.11-.33l.1.78a1.69,1.69,0,0,0-1.42.14l0,0-.06,0a1.8,1.8,0,0,0-.25.27,1.2,1.2,0,0,0-.21.85.92.92,0,0,0,.15.43,1.19,1.19,0,0,0,.34.33l.16.09a1.7,1.7,0,0,0,1.51-.08l0,0v0h0l.14,1,.75-.1-.5-3.84,1.25-.19.68,3.78.75-.13-.68-3.77a49.27,49.27,0,0,0,5.9-1.36l.19.68-1.74.49-.14,0-.14.1a.77.77,0,0,0-.14.25l-2,.45-.32.07-.09,0-.07,0a.28.28,0,0,0-.08.26,2.7,2.7,0,0,0,.28.32,1.56,1.56,0,0,0,.19.14l.37.24a.32.32,0,0,0,.19.05l.32-.07.12,0a.07.07,0,0,0,0-.08v-.08l-.15-.71,1.2-.26a.89.89,0,0,0,0,.28,2.34,2.34,0,0,0,.62,1l.17.16.19.16.42.27.28.15.1,0h0l.32-.09.2-.36c-.19.05-.51-.13-1-.55a1.5,1.5,0,0,1-.22-.22,2.09,2.09,0,0,1-.41-.76l0-.21a.38.38,0,0,1,.19-.34.9.9,0,0,1,.24-.12l1.16-.32.72,2.63.74-.2-1-3.68C196.41,326.17,196.7,326.08,197,326Zm-11.06,4.75a.92.92,0,0,1-.26-.56.77.77,0,0,1,0-.3,2,2,0,0,1,.09-.27,1,1,0,0,1,.12-.15.46.46,0,0,1,.21-.1h0a1.72,1.72,0,0,1,.79,0l0,.09h0l0,.19h0l.1.73C186.52,331.14,186,330.83,185.91,330.73Zm3.52-3.24-.06-.09-.08-.14-.07-.18,0-.16a1.21,1.21,0,0,1,0-.39.74.74,0,0,1,.32-.51.47.47,0,0,1,.21-.13,2.56,2.56,0,0,1,.51.05,2.52,2.52,0,0,1,.52.15l.55.24.22.1.1.06.23.14.22.16.22.13C191.35,327.13,190.41,327.32,189.43,327.49Z" transform="translate(-85.5 -205.86)"/><path class="cls-4" d="M197.61,318c-.42.15-.9.33-1.43.5l-.18-.11-.69-.34a4.32,4.32,0,0,0-1.46-.43,1.79,1.79,0,0,0-.67,0l-.32.08a1.21,1.21,0,0,0-1,1,1.27,1.27,0,0,0,0,.48l0,.12.1.21.07.13-1.24.3-2-1.57-.32.07-.21.37,1.9,1.26c-1.65.35-3.48.67-5.49.9l-.05,0-.24-.23-.62-.47a4.32,4.32,0,0,0-1.35-.69,1.74,1.74,0,0,0-.66-.11l-.33,0a1.19,1.19,0,0,0-1.16.8,1.12,1.12,0,0,0-.07.47l0,.14.06.22.06.2,0,.05c-1,0-2,.08-3.11.08a62.45,62.45,0,0,1-9.12-.67,1,1,0,0,1,.12.39l1.27.16.11.19a1.14,1.14,0,0,1,.14.59.74.74,0,0,1-.26.52l-.17.08-.18,0h0l-.07,0,0,0h0l.07-.38-.33,0-.13.06-.16,0-.25,0h-.19a.94.94,0,0,1-.22,0l-.19-.05-.18-.06-.07,0-.07-.05.19-.08.14-.09.15-.11a.92.92,0,0,0,.22-.41.7.7,0,0,0-.45-.81.6.6,0,0,0-.33-.12l-.32-.05a1.79,1.79,0,0,0-.32,0,.86.86,0,0,0-.33.11.67.67,0,0,0-.32.49v.25a1.11,1.11,0,0,0,.07.26l.12.27a.7.7,0,0,0,.14.16l-.24.11-.17.1a1.62,1.62,0,0,0-.33.29.7.7,0,0,0-.15.34,1.19,1.19,0,0,0,0,.46,1.22,1.22,0,0,0,.18.38,1,1,0,0,0,.33.28,2.31,2.31,0,0,0,.46.14l.32.07h.1v.07l0,0,0,.08.08.19.14.19.06.06.32.06.39-.19-.15-.15-.09-.12-.1-.15-.06-.17.14,0a.2.2,0,0,0,.11-.06l.07-.1.05-.13v-.17l-.06-.15a.51.51,0,0,0-.12-.13.38.38,0,0,0-.17-.06l-.32,0h-.16a.28.28,0,0,0-.13.06l-.09.11-.06.19,0,.13v0h0l-.19-.06-.14-.1a.63.63,0,0,1-.18-.24.83.83,0,0,1,0-.36.8.8,0,0,1,.41-.56l.1-.05.09-.06.11.06.47.17.3.07.32.06.32.05h.26l.18,0a1.46,1.46,0,0,0,.35,1,1.38,1.38,0,0,0,.44.35,1.84,1.84,0,0,0,.59.16l.33.05h.35a1.59,1.59,0,0,0,.33-.09l-.12,1,.76.09.44-3.81c.91.08,1.84.14,2.81.17l-.08,2a.54.54,0,0,1-.2.33l-.11.1-.17.11a.5.5,0,0,1-.16.05l-.2-.08-.15-.15a1,1,0,0,1-.16-.56.86.86,0,0,1,.22-.56.75.75,0,0,1,.37-.23l0,0,.05,0,0,0,.08,0,.33,0v-.35l-.16-.06-.14-.05h-.46a.79.79,0,0,0-.23,0,1.11,1.11,0,0,0-.59.28,1,1,0,0,0-.36.77,1.07,1.07,0,0,0,.06.45,1,1,0,0,0,.27.38,1.24,1.24,0,0,0,.8.34l.33,0h.22l.22-.07,0,1,.75,0,.08-1.75a.73.73,0,0,1,.07-.31,1.48,1.48,0,0,1,.21-.32.81.81,0,0,1,.47-.32l.16.07a.72.72,0,0,1,.2.22,1.07,1.07,0,0,1,.06.4,1.51,1.51,0,0,1-.4.84c-.19.23-.3.35-.35.36l0,0,.34.27.33,0,.25-.26.19-.21a1.61,1.61,0,0,0,.47-1,1.11,1.11,0,0,0-.07-.43,1.07,1.07,0,0,0-.57-.58,1,1,0,0,0-.44-.11h-.49l-.17,0-.16.07,0-.91c.51,0,1,0,1.52,0h1.25l.06,3.87.76,0-.06-3.87,1.1-.05.18,3.89.76,0-.17-3.89c.85-.05,1.67-.12,2.47-.2l.09,1.05a.52.52,0,0,1,0,.25.39.39,0,0,1-.19.25l-.15.06a.44.44,0,0,1-.32-.17l-.38-.55-.33,0-.31.27.19.29.19.27.27.38.29.35a12.36,12.36,0,0,0,.88,1,1.85,1.85,0,0,0,.5.4l.33,0,.28-.3-.2-.16-.46-.43-.26-.27-.62-.75.27,0a.89.89,0,0,0,.59-.27.73.73,0,0,0,.22-.62l-.09-1.1,1-.11.2,1.49a1,1,0,0,0,.13.38,1,1,0,0,0,.61.45,1.39,1.39,0,0,0,.41,0l.33,0a.89.89,0,0,0,.67-.39.92.92,0,0,0,.17-.6,1.49,1.49,0,0,0,0-.17l-.22-1.47.74-.13.68,3.89.76-.13-.68-3.84,0-.07,1-.21.8,3.89.75-.15-.81-3.9,1.21-.28.93,3.88.74-.18-.93-3.89c1.08-.29,2-.58,2.9-.85l.24.83-1.67.49-.13.06-.1.1-.06.14,0,.15s.05.09.08.14.06.1.07.13a2.27,2.27,0,0,0,.31.28l.14.1.22.13-.14.24a1.22,1.22,0,0,0-.1.24.86.86,0,0,0,0,.42c.14.49.59.75,1.34.78l.44,0a2.47,2.47,0,0,0,.54-.05c.07,0,.12-.05.13-.08l.32-.09.06-.34a.14.14,0,0,1-.07,0l-.19,0-.72,0a1.49,1.49,0,0,1-.74-.13.6.6,0,0,1-.34-.38.7.7,0,0,1,.29-.85.5.5,0,0,1,.14-.1l.18-.06.25,0h.2a.43.43,0,0,1,.32.34.47.47,0,0,1,0,.35v0l0,0,0,0,0,0,.37.14.32-.08.05-.06.13-.17a.51.51,0,0,0,0-.51.85.85,0,0,0-.18-.34.93.93,0,0,0-.72-.22,1.25,1.25,0,0,0-.5.08l-.32.1-.17.07-.23.1,0,0-.05,0-.13-.09-.06-.05-.05,0a.29.29,0,0,1-.15-.14l-.07-.12v-.08a.16.16,0,0,1,.09-.07l1.88-.54-.35-1.2,1.16-.42ZM167,321.83h0l0,0,0,0v0l0,0v0a.73.73,0,0,1-.1-.51l.06-.17A.29.29,0,0,1,167,321l.09,0,.08,0,.11.07,0,0,0,0a.37.37,0,0,1,.09.32A.64.64,0,0,1,167,321.83Zm4.24,1.66-.2.23-.12.1-.15.09-.24.09a.75.75,0,0,1-.25,0,1,1,0,0,1-.67-.66l0-.05v-.07l0-.07v-.09l.28,0,.22-.06a.91.91,0,0,0,.56-.77V322l-.09-.33-.05-.13,0-.06,1.05.09Zm9.9-2.15,0,0-.06-.16L181,321v-.17a1.16,1.16,0,0,1,0-.39.75.75,0,0,1,.38-.46.55.55,0,0,1,.23-.1,3.86,3.86,0,0,1,.5.12,3.39,3.39,0,0,1,.5.22l.5.31a1.53,1.53,0,0,1,.21.13l.09.07.2.17.21.19.06.05C183.06,321.2,182.12,321.28,181.17,321.34Zm5.94,1.73a.34.34,0,0,1-.25.23l-.15-.05-.12-.1a.71.71,0,0,1-.21-.46l-.2-1.49.8-.11.19,1.46v.28A1.2,1.2,0,0,1,187.11,323.07Zm5.69-3.56,0-.07-.08-.18-.05-.16a1.38,1.38,0,0,1,0-.38.78.78,0,0,1,.29-.53.7.7,0,0,1,.21-.14,3.12,3.12,0,0,1,.51,0,3,3,0,0,1,.53.12l.56.21a1,1,0,0,1,.22.09l.11.05a1.71,1.71,0,0,1,.23.13l.15.09C194.63,319,193.76,319.26,192.8,319.51Z" transform="translate(-85.5 -205.86)"/><path class="cls-4" d="M162.26,331a.72.72,0,0,0-.33-.15l-.32-.06a1.75,1.75,0,0,0-.69,0l-.24.07-.11.07.24.35.33.07.22-.13a.24.24,0,0,1,.14-.05l.13,0,.09.08.06.09.09.19a1.79,1.79,0,0,1,0,.21.57.57,0,0,1-.12.26.75.75,0,0,1-.5.23,1.11,1.11,0,0,1-.26,0,3,3,0,0,1-.59-.38l-.21-.18-.19-.21-.25-.28-.32-.07-.35.28a1.53,1.53,0,0,0,.29.32l.22.2.29.22a2.47,2.47,0,0,0,.85.42l.32.07a1.87,1.87,0,0,0,.48,0,1,1,0,0,0,1.06-.75.92.92,0,0,0,0-.37A.74.74,0,0,0,162.26,331Z" transform="translate(-85.5 -205.86)"/><path class="cls-4" d="M157.76,326c.78.27,1.61.52,2.46.75l-.45,1.66c0,.1-.11.19-.26.28l-.13.07-.19.07a.31.31,0,0,1-.17,0,.52.52,0,0,1-.17-.12l-.12-.17a1,1,0,0,1,0-.58.86.86,0,0,1,.34-.51.7.7,0,0,1,.41-.13l.05,0,0,0,0,0,.07,0,.32.09.09-.34-.15-.09-.13-.08-.12,0-.32-.07a.7.7,0,0,0-.23,0,1.29,1.29,0,0,0-.63.14,1,1,0,0,0-.53.68,1.21,1.21,0,0,0,0,.45,1,1,0,0,0,.18.43,1.19,1.19,0,0,0,.71.51l.32.1.22,0a.9.9,0,0,0,.22,0l-.26,1,.73.2.46-1.7a1,1,0,0,1,.13-.29,1.63,1.63,0,0,1,.28-.26.84.84,0,0,1,.53-.21l.14.11a.66.66,0,0,1,.15.25,1.24,1.24,0,0,1,0,.41,1.51,1.51,0,0,1-.58.73,1.78,1.78,0,0,1-.42.28h-.05l.27.34.31.09.31-.19.23-.17a1.63,1.63,0,0,0,.68-.86,1.17,1.17,0,0,0,0-.42,1.08,1.08,0,0,0-.43-.7.94.94,0,0,0-.4-.2l-.32-.08-.17,0H161l-.17,0,.16-.61c1.13.3,2.31.56,3.54.79a.71.71,0,0,0-.31.79,1,1,0,0,0,.16.34.91.91,0,0,0,.6.36l.32.07.19,0,.23-.05a.08.08,0,0,0,0,0v0l0,0,0,0-.17.2-.23.16-.29.12a1.66,1.66,0,0,1-.28.05h-.19l-.21-.26-.32-.07-.34.23,1.61,2,.32.06.34-.22-1.12-1.38a1.47,1.47,0,0,0,.59,0,1.53,1.53,0,0,0,1-.67,1.39,1.39,0,0,0,.22-.53l0-.26,0-.27-.08-.25a1.09,1.09,0,0,0-.14-.29l1.29.18-.61,3.92.75.11.62-3.93c1.44.18,2.93.31,4.44.4l-.13,1.27h-.19l-.21,0-.19.05-.11.05-.12.06-.07-.07-.09-.07a1.06,1.06,0,0,0-.35-.22,1,1,0,0,0-.41-.11l-.32,0a1.32,1.32,0,0,0-.91.24,1.05,1.05,0,0,0-.41.77,1.59,1.59,0,0,0,.39,1.15c.4.52.74.79,1,.82l.33,0,.23-.32-.39-.24-.27-.2a1.75,1.75,0,0,1-.48-.56,1.09,1.09,0,0,1-.11-.58.71.71,0,0,1,.08-.28l.08-.13.12-.14a.65.65,0,0,1,.39-.18l.18.08.18.1a.9.9,0,0,1,.23.18c.07.06.1.11.1.14l-.06.12-.16.22L171,331l0,.09.33.23.32.05.09-.19.14-.22.15-.18.15-.15.19-.13.2-.1-.24,2.38.75.08.42-4.13,1.29.05-.19,4.14.76,0,.19-4.15,1.11,0v-.37a60.85,60.85,0,0,1-18.78-2.82Zm7.17,2.3.07-.18a.47.47,0,0,1,.14-.14.24.24,0,0,1,.11-.06l.12,0a.7.7,0,0,1,.33.37.27.27,0,0,1,0,.14l0,.18-.11.11-.08.08-.19.1-.19,0-.12-.07-.09-.12A.51.51,0,0,1,164.93,328.29Z" transform="translate(-85.5 -205.86)"/><path class="cls-4" d="M158.18,308.2a1,1,0,0,0,.54.16,1.17,1.17,0,0,0,.75-.29h.06l-.24.33a.6.6,0,0,0,0,.84,1,1,0,0,0,0,.35,1,1,0,0,0,.56.62,1.33,1.33,0,0,0,.49.09,1.5,1.5,0,0,0,.79-.25,1,1,0,0,0,.17,0,1,1,0,0,0,.69-.35l-.07.16a.85.85,0,0,0,0,.7.7.7,0,0,0,.32.34,1.61,1.61,0,0,0,.08.38,1.38,1.38,0,0,0,.83.74,1.59,1.59,0,0,0,.48.07,1.56,1.56,0,0,0,1-.4h.07a.91.91,0,0,0,.64-.31,1,1,0,0,0,.13.55,1,1,0,0,0,.24.23,1.36,1.36,0,0,0,.22.73,1.54,1.54,0,0,0,1.06.69,1.42,1.42,0,0,0,.29,0,1.8,1.8,0,0,0,1.52-.85.9.9,0,0,0,.36-.08,1,1,0,0,0,.72.83,1.61,1.61,0,0,0,.3.6,2.13,2.13,0,0,0,1.56.78H172a2.37,2.37,0,0,0,2-1.09,1.42,1.42,0,0,0,.6-.23,1.17,1.17,0,0,0,.24.38,1.3,1.3,0,0,0,.79.37,1.88,1.88,0,0,0,.27.42,2.32,2.32,0,0,0,3.28,0,2.09,2.09,0,0,0,.29-.44,1.3,1.3,0,0,0,.69-.35,1.26,1.26,0,0,0,.29-.48,1.49,1.49,0,0,0,.62.22,2.38,2.38,0,0,0,2.1,1.2h0a2.17,2.17,0,0,0,1.62-.71,1.72,1.72,0,0,0,.37-.69,1,1,0,0,0,.35-.25,1.15,1.15,0,0,0,.24-.48,1,1,0,0,0,.39.11,1.77,1.77,0,0,0,1.6,1.05l.2,0a1.6,1.6,0,0,0,1.13-.64,1.62,1.62,0,0,0,.26-.88,1.45,1.45,0,0,0,.18-.17,1,1,0,0,0,.17-.55.93.93,0,0,0,.67.35h0a1.59,1.59,0,0,0,1.13.49,2,2,0,0,0,.41-.05,1.37,1.37,0,0,0,.88-.71,1.26,1.26,0,0,0,.12-.42.8.8,0,0,0,.32-.31.85.85,0,0,0,0-.7l-.07-.18a.93.93,0,0,0,.73.4.64.64,0,0,0,.24,0h0a1.55,1.55,0,0,0,.89.33,1.29,1.29,0,0,0,.43-.07.94.94,0,0,0,.6-.6,1,1,0,0,0,0-.54.33.33,0,0,0,0-.06.69.69,0,0,0-.1-.6l-.22-.34h0l.05,0a1.15,1.15,0,0,0,.79.33,1,1,0,0,0,.51-.13.73.73,0,0,0,.19-1.13s.05,0,.05-.08a.52.52,0,0,0-.16-.46l-.75-.81a.92.92,0,0,0,.26-.57c0-.49-.5-1-1.38-1.37a46.15,46.15,0,0,0-11.07-1.71l-1.64-8.82a3.3,3.3,0,0,0,1.56-1.14,6.57,6.57,0,0,0,.91-4.25h.15a3,3,0,0,0,2.43-1c1.6-2,0-6.14-.15-6.61l-.26-.64-.56.4c-3.61,2.6-3.47,5.34-3.11,6.69a5.07,5.07,0,0,0-1.78.53l-.65-7.88a1.51,1.51,0,0,0-.49-1,3.27,3.27,0,0,0,.46-.45l.25-.18a11.57,11.57,0,0,0,4-10.58l-.15-1.23-.92.84a31.3,31.3,0,0,0-3.62,4l-.21-6.34a1.16,1.16,0,0,0-.49-.92,3.24,3.24,0,0,0-.36-.2,2.08,2.08,0,0,0,.89-1.06,2.22,2.22,0,0,0,1.43-.56c1.8-1.6,1-6,.9-6.47l-.17-.86-.74.48a8.15,8.15,0,0,0-2.3,2.21,12.43,12.43,0,0,0-2.09-4.55l-.45-.6-.48.58a9.35,9.35,0,0,0-2.36,4.63,7.83,7.83,0,0,0-2.34-2.27l-.73-.48-.17.86c-.1.5-.91,4.87.89,6.47a2.17,2.17,0,0,0,1.22.52,2,2,0,0,0,.82,1.05,6.09,6.09,0,0,0-.64.43c-.26.1-.44.4-.65,6.67a30.48,30.48,0,0,0-3.54-3.9l-.91-.85-.16,1.24a11.58,11.58,0,0,0,4,10.58l.21.16a3.07,3.07,0,0,0,.64.72c-.13.11-.23.22-.31.3-.32.16-.59.92-1.11,8.43a5,5,0,0,0-2-.64c.37-1.35.51-4.09-3.11-6.69l-.55-.4-.26.64c-.18.46-1.76,4.6-.15,6.61a2.93,2.93,0,0,0,2.43,1l.15,0a6.58,6.58,0,0,0,.91,4.26,3.2,3.2,0,0,0,1.52,1.12c-.31,1.28-.76,4.72-1.48,9.34a43.37,43.37,0,0,0-8.48,1.41c-1.1.46-1.72,1-1.72,1.52v0l-.74.72a.55.55,0,0,0-.18.45s0,.05,0,.08a.83.83,0,0,0-.21.59A.71.71,0,0,0,158.18,308.2ZM188.69,313a1.12,1.12,0,0,1-.78.45,1.29,1.29,0,0,1-1.42-1.05c-.05-.29.23-.68.76-1.07a.46.46,0,0,1,.28-.1.41.41,0,0,1,.16,0c.68.27,1.12.6,1.18.9A1.08,1.08,0,0,1,188.69,313Zm3.72-1.43a1,1,0,0,1-.6.47,1.13,1.13,0,0,1-1.35-.69c-.08-.23.12-.6.52-1a.32.32,0,0,1,.3-.1c.64.14,1.07.36,1.16.61A.88.88,0,0,1,192.41,311.59Zm3.32-1.53a.53.53,0,0,1-.35.33,1.09,1.09,0,0,1-1.21-.45c-.12-.2.05-.5.15-.67a.34.34,0,0,1,.33-.16,1.56,1.56,0,0,1,1,.4A.65.65,0,0,1,195.73,310.06Zm1.45-1.82a.32.32,0,0,1-.17.23.71.71,0,0,1-.82-.15.31.31,0,0,1-.07-.27.51.51,0,0,1,.14-.29.78.78,0,0,1,.8.16A.38.38,0,0,1,197.18,308.24Zm-.92-1.59.66.72a1.12,1.12,0,0,0-.89,0,.85.85,0,0,0-.33.6.43.43,0,0,0,0,.16s-.05,0-.06,0l-.7-.77A5.58,5.58,0,0,0,196.26,306.65Zm-1.73.87.26.29.72,1.09a3.32,3.32,0,0,0-.79-.21.77.77,0,0,0-.75.35,1,1,0,0,0-.17,1.08.54.54,0,0,1-.28-.21l-1-1.67a.3.3,0,0,1,0-.13A18,18,0,0,0,194.53,307.52Zm-5.33,1.28a.35.35,0,0,1,.15-.12c.92-.13,1.77-.29,2.55-.45a.46.46,0,0,1,.14.17l.81,2.12c0,.06,0,.11,0,.17-.21-.49-.91-.74-1.48-.86a.77.77,0,0,0-.71.21,1.71,1.71,0,0,0-.64,1.36s-.09-.08-.11-.14l-.73-2.17A.36.36,0,0,1,189.2,308.8Zm-3.85.34c1.11-.1,2.17-.21,3.16-.34a.67.67,0,0,1,.11.18l.54,2.58s0,.06,0,.09a3.16,3.16,0,0,0-1.27-.83.94.94,0,0,0-.91.14,2,2,0,0,0-.94,1.34.52.52,0,0,1-.31-.39l-.4-2.61A.29.29,0,0,1,185.35,309.14ZM186.87,282c.44,1.39.93,3.78.07,4.86a2.23,2.23,0,0,1-2.09.6C184.56,286.69,183.94,284.36,186.87,282ZM182,257c.19,1.61.14,3.69-.67,4.41a1.09,1.09,0,0,1-.79.27,2.12,2.12,0,0,0-.57-.64A4.94,4.94,0,0,1,182,257Zm-13.45,30.08a2.21,2.21,0,0,1-2.09-.59c-.87-1.08-.37-3.47.07-4.87C169.44,284,168.82,286.33,168.52,287.05Zm-7.26,22.38a1.07,1.07,0,0,1-1.21.4.51.51,0,0,1-.32-.34.65.65,0,0,1,.13-.55,1.43,1.43,0,0,1,.93-.35h0a.39.39,0,0,1,.35.23C161.28,309,161.37,309.27,161.26,309.43Zm3.42,1.57a1.11,1.11,0,0,1-1.37.62.88.88,0,0,1-.55-.48.86.86,0,0,1,0-.72c.1-.23.51-.43,1.11-.54H164a.45.45,0,0,1,.33.16C164.62,310.43,164.77,310.79,164.68,311Zm2.44,2.15a1.07,1.07,0,0,1-.86-1.34c.08-.29.54-.61,1.24-.85a.41.41,0,0,1,.39.09c.51.42.77.83.7,1.12A1.31,1.31,0,0,1,167.12,313.15Zm4.71,1.18a1.51,1.51,0,0,1-1.13-.56,1.11,1.11,0,0,1-.23-.91c.06-.37.69-.81,1.64-1.16a.35.35,0,0,1,.14,0,.45.45,0,0,1,.19.05c.8.46,1.26,1,1.22,1.3A1.67,1.67,0,0,1,171.83,314.33Zm2.64-1.68a.6.6,0,0,1-.22.4c.05-.78-.78-1.43-1.52-1.85a1,1,0,0,0-.83-.07c-.81.3-1.77.81-2,1.52a.42.42,0,0,1,0-.25l.56-3.07a.61.61,0,0,1,.09-.18c1.35.11,2.79.18,4.28.23a.32.32,0,0,1,0,.17Zm4.24,1.7a1.72,1.72,0,0,1-2.38,0,1.47,1.47,0,0,1-.42-1.06c0-.4.57-.93,1.45-1.37a.38.38,0,0,1,.34,0c.89.45,1.43,1,1.44,1.37h0A1.44,1.44,0,0,1,178.71,314.35Zm1-1.14c-.07-.82-1-1.46-1.77-1.85a1,1,0,0,0-.9,0c-.66.33-1.77,1-1.8,1.91,0,.08,0,.16,0,.24a.71.71,0,0,1-.17-.46l0-.59.33-2.83c0-.08,0-.15,0-.23.78,0,1.58,0,2.39,0l1.71,0a.55.55,0,0,1,.09.19l.07,1.35.07,2.09C179.81,313.11,179.77,313.15,179.75,313.21Zm4.61.62a1.6,1.6,0,0,1-1.18.51h0a1.67,1.67,0,0,1-1.72-1.39c0-.36.5-.84,1.36-1.26a.27.27,0,0,1,.22,0c1,.4,1.59.89,1.64,1.26A1.17,1.17,0,0,1,184.36,313.83Zm.77-1.32a3.77,3.77,0,0,0-1.89-1.38.84.84,0,0,0-.71,0c-.66.32-1.74,1-1.7,1.83a.61.61,0,0,1-.33-.48l-.16-3.09h0c1.51,0,3-.11,4.34-.22a.58.58,0,0,1,.07.21l.38,3.08Zm-1.88-9.86c-1,0-2-.09-3-.11l-.85-7.84a7.56,7.56,0,0,0,2-.76l.14.2.19,0Zm-3.73-.12-1.7,0c-1.22,0-2.38,0-3.5.06l.53-7.8a10.62,10.62,0,0,0,3.83.05Zm4.59-14.17a5.8,5.8,0,0,1-.68,3.75,2.12,2.12,0,0,1-.7.6,2.22,2.22,0,0,0,.4-1.23,2.76,2.76,0,0,0-1.39-2.19A3.75,3.75,0,0,1,184.11,288.36Zm-3.21.25-.12.14a9.13,9.13,0,0,0-2-.58l-.42-7.45a2.51,2.51,0,0,0-.12-.78,6.31,6.31,0,0,0,1.54-.43l.22.14a.45.45,0,0,1,.18.38Zm3.44-19.38a10.28,10.28,0,0,1-2.68,7.14,3,3,0,0,0-1.39-1.46C180.84,273.21,182.69,270.92,184.34,269.23Zm-4.55-4.2.25,7.46a10.19,10.19,0,0,0-1,1.93,5.62,5.62,0,0,0-.62-.15v-9.61a1.37,1.37,0,0,0,0-.23l.44-.12a4.26,4.26,0,0,1,.8.44A.36.36,0,0,1,179.79,265Zm-2.61-10.6c.79,1.25,1.87,3.44,1.37,4.85a1.84,1.84,0,0,1-.79.94,6.85,6.85,0,0,0-.79,0,4.93,4.93,0,0,0-.55,0,2.58,2.58,0,0,1-.79-1.32C175.34,257.7,175.88,256.17,177.18,254.43Zm-.21,7.11c1.48,0,2.39.59,2.39.84s-.51.57-1.4.75a5,5,0,0,0-2,0c-.87-.17-1.38-.55-1.38-.74S175.48,261.54,177,261.54Zm1,3.12v9.51c-.31,0-.63-.05-1-.05a9.3,9.3,0,0,0-1.07.07v-9.53a.94.94,0,0,1,0-.16,6.83,6.83,0,0,0,1,.09,7,7,0,0,0,.93-.07C177.9,264.57,177.93,264.61,177.93,264.66Zm-4.5-3a1.13,1.13,0,0,1-.59-.25c-.81-.72-.85-2.81-.67-4.42a5,5,0,0,1,2.05,3.89A2.27,2.27,0,0,0,173.43,261.63Zm.53,3.27a5.23,5.23,0,0,1,1-.62c.13.05.27.08.41.12a1.72,1.72,0,0,0,0,.26v9.63l-.63.16a9.32,9.32,0,0,0-1.13-2.38C173.71,268.8,173.84,265.58,174,264.9Zm-1.67,11.43a10.35,10.35,0,0,1-2.92-7.41c1.78,1.82,3.78,4.33,4.17,6.05A3,3,0,0,0,172.29,276.33Zm.77.76c0-1.1,1.79-2,3.9-2s3.91.93,3.91,2-1.47,1.84-3.31,2a1.93,1.93,0,0,0-.77-.16h-.12a1.94,1.94,0,0,0-.66.12C174.34,278.82,173.06,278,173.06,277.09Zm5,11a11.37,11.37,0,0,0-1.18-.06,11.09,11.09,0,0,0-1.56.12l.42-7.33A1.51,1.51,0,0,1,176,280a8.06,8.06,0,0,0,1,.1c.2,0,.37,0,.56-.05a1.46,1.46,0,0,1,.16.73Zm-4.62-8v0a5.36,5.36,0,0,1,.56-.53,7.14,7.14,0,0,0,1.21.39,2.45,2.45,0,0,0-.18.91l-.43,7.47a8.17,8.17,0,0,0-1.71.56,2.18,2.18,0,0,0-.25-.28C173,284.8,173.27,280.84,173.47,280Zm3.44,9.14c3,0,5.06,1.22,5.06,2.32s-2.08,2.33-5.06,2.33-5.07-1.23-5.07-2.33S173.92,289.16,176.91,289.16Zm-7,2.6a5.8,5.8,0,0,1-.68-3.75,3.45,3.45,0,0,1,2.73,1.34,2.71,2.71,0,0,0-1.31,2.13,2.14,2.14,0,0,0,.29,1A2.24,2.24,0,0,1,169.94,291.76Zm1.7,2,.24,0,.11-.17a6.59,6.59,0,0,0,2.17,1l-.54,8q-1.78.06-3.39.18C170.75,299.44,171.3,295.3,171.64,293.76Zm5.63,10.05a25.79,25.79,0,0,1,7.78,1,30.73,30.73,0,0,1-15.55,0A25.7,25.7,0,0,1,177.27,303.81Zm-10.62,4.91c1,.14,2.07.26,3.21.37,0,0,0,.08,0,.12l-.56,2.6a.56.56,0,0,1-.25.36,2,2,0,0,0-.86-1.5.91.91,0,0,0-.86-.17,2.88,2.88,0,0,0-1.4.88s0-.05,0-.08l.69-2.56Zm-.59-.09a.31.31,0,0,1,0,.19l-.85,2.14c0,.05-.06.07-.09.1a1.65,1.65,0,0,0-.5-1.33.9.9,0,0,0-.83-.3,1.94,1.94,0,0,0-1.43.8.38.38,0,0,1,0-.15l.89-2C164.09,308.3,165,308.48,166.06,308.63Zm-5.43-1.34a13.84,13.84,0,0,0,2.11.68l-1,1.47,0,0a1.12,1.12,0,0,0-.14-.84.8.8,0,0,0-.81-.46,2.08,2.08,0,0,0-1,.36l.9-1.24Zm-1.54-1a2.84,2.84,0,0,0,1.13.86l-.46.46,0,0a.5.5,0,0,0,0-.17.84.84,0,0,0-.29-.6l-.86-.08Zm-.69,1.05a.78.78,0,0,1,.53-.18.45.45,0,0,1,.26.06.43.43,0,0,1,.12.28.32.32,0,0,1-.09.27.67.67,0,0,1-.81.12.28.28,0,0,1-.14-.23A.42.42,0,0,1,158.4,307.3Z" transform="translate(-85.5 -205.86)"/></svg>