<svg id="Layer_1" data-name="Layer 1" xmlns="http://www.w3.org/2000/svg" viewBox="0 0 671.33 183.55"><defs><style>.cls-1{fill:#1f77ba;}.cls-2{fill:none;stroke:#231f20;stroke-miterlimit:10;stroke-width:1.18px;}.cls-3{fill:#1b75bc;}.cls-4{fill:#23376d;}.cls-5{fill:#f15a29;}.cls-6{fill:#f15b2d;}</style></defs><title>23_rmrc_dibrugarh_logo_new</title><path class="cls-1" d="M467.2,259H489c6.07,0,10.78,1.71,13.92,4.86A15.06,15.06,0,0,1,507,274.8v.13c0,7.74-4.16,12.6-10.23,14.86l11.66,17.11H496.18L486,291.57H477.7V306.9H467.2Zm21.14,23.27c5.12,0,8.05-2.74,8.05-6.78v-.13c0-4.52-3.14-6.85-8.25-6.85H477.7v13.76Z" transform="translate(-94.28 -205.86)"/><path class="cls-1" d="M516.51,259h11.32l12.55,20.26L552.93,259h11.33V306.9H553.82V275.62l-13.44,20.47h-.27l-13.3-20.27V306.9h-10.3Z" transform="translate(-94.28 -205.86)"/><path class="cls-1" d="M575.72,259h21.82c6.07,0,10.78,1.71,13.92,4.86a15.06,15.06,0,0,1,4.09,10.95v.13c0,7.74-4.16,12.6-10.23,14.86L617,306.9H604.7l-10.23-15.33h-8.25V306.9h-10.5Zm21.14,23.27c5.12,0,8-2.74,8-6.78v-.13c0-4.52-3.14-6.85-8.25-6.85H586.22v13.76Z" transform="translate(-94.28 -205.86)"/><path class="cls-1" d="M622.92,283.08v-.14c0-13.62,10.23-24.78,24.89-24.78,9,0,14.39,3,18.82,7.4L660,273.29c-3.68-3.35-7.43-5.41-12.21-5.41-8,0-13.84,6.71-13.84,14.93v.13c0,8.22,5.66,15.06,13.84,15.06,5.46,0,8.8-2.19,12.55-5.61l6.69,6.78c-4.91,5.27-10.37,8.55-19.58,8.55C633.35,307.72,622.92,296.84,622.92,283.08Z" transform="translate(-94.28 -205.86)"/><path class="cls-1" d="M675.37,259h9.68l22.37,29.5V259h10.37V306.9h-8.93l-23.13-30.46V306.9H675.37Z" transform="translate(-94.28 -205.86)"/><path class="cls-1" d="M729.25,259h36v9.37H739.69v9.72h22.5v9.38h-22.5v10.06h25.92v9.38H729.25Z" transform="translate(-94.28 -205.86)"/><line class="cls-2" x1="357.59" y1="53.01" x2="357.59" y2="136.75"/><path class="cls-3" d="M293,319.86h1.65v9.41H293Z" transform="translate(-94.28 -205.86)"/><path class="cls-3" d="M297.2,319.86h1.53l5,6.5v-6.5h1.62v9.41H304l-5.19-6.7v6.7H297.2Z" transform="translate(-94.28 -205.86)"/><path class="cls-3" d="M307.9,319.86h3.51a4.69,4.69,0,0,1,5,4.68v0a4.72,4.72,0,0,1-5,4.71H307.9Zm3.51,7.9a3.06,3.06,0,0,0,3.26-3.17v0a3.09,3.09,0,0,0-3.26-3.2h-1.86v6.4Z" transform="translate(-94.28 -205.86)"/><path class="cls-3" d="M318.58,319.86h1.66v9.41h-1.66Z" transform="translate(-94.28 -205.86)"/><path class="cls-3" d="M326.16,319.79h1.54l4.14,9.48h-1.75l-1-2.27h-4.45l-1,2.27H322Zm2.37,5.74-1.63-3.76-1.61,3.76Z" transform="translate(-94.28 -205.86)"/><path class="cls-3" d="M333.52,319.86h1.54l5,6.5v-6.5h1.63v9.41h-1.39l-5.19-6.7v6.7h-1.63Z" transform="translate(-94.28 -205.86)"/><path class="cls-3" d="M347.84,324.59v0a4.76,4.76,0,0,1,4.85-4.86,4.89,4.89,0,0,1,3.68,1.46l-1.06,1.22a3.76,3.76,0,0,0-2.63-1.16,3.16,3.16,0,0,0-3.11,3.32v0a3.19,3.19,0,0,0,3.11,3.35,3.71,3.71,0,0,0,2.7-1.22l1.06,1.07a4.87,4.87,0,0,1-3.82,1.67A4.73,4.73,0,0,1,347.84,324.59Z" transform="translate(-94.28 -205.86)"/><path class="cls-3" d="M357.57,324.59v0a4.92,4.92,0,0,1,9.84,0v0a4.83,4.83,0,0,1-4.94,4.87A4.77,4.77,0,0,1,357.57,324.59Zm8.1,0v0a3.22,3.22,0,0,0-3.2-3.34,3.18,3.18,0,0,0-3.17,3.32v0a3.23,3.23,0,0,0,3.2,3.35A3.18,3.18,0,0,0,365.67,324.59Z" transform="translate(-94.28 -205.86)"/><path class="cls-3" d="M369.34,325.27v-5.41H371v5.35c0,1.74.9,2.69,2.38,2.69s2.37-.89,2.37-2.63v-5.41h1.65v5.33c0,2.81-1.58,4.22-4,4.22S369.34,328,369.34,325.27Z" transform="translate(-94.28 -205.86)"/><path class="cls-3" d="M379.74,319.86h1.53l5,6.5v-6.5h1.63v9.41h-1.38l-5.19-6.7v6.7h-1.63Z" transform="translate(-94.28 -205.86)"/><path class="cls-3" d="M390,324.59v0a4.76,4.76,0,0,1,4.86-4.86,4.9,4.9,0,0,1,3.68,1.46l-1.06,1.22a3.79,3.79,0,0,0-2.64-1.16,3.15,3.15,0,0,0-3.1,3.32v0a3.18,3.18,0,0,0,3.1,3.35,3.67,3.67,0,0,0,2.7-1.22l1.07,1.07a4.88,4.88,0,0,1-3.82,1.67A4.73,4.73,0,0,1,390,324.59Z" transform="translate(-94.28 -205.86)"/><path class="cls-3" d="M400.53,319.86h1.65v9.41h-1.65Z" transform="translate(-94.28 -205.86)"/><path class="cls-3" d="M404.78,319.86h1.65v7.9h4.95v1.51h-6.6Z" transform="translate(-94.28 -205.86)"/><path class="cls-3" d="M417.65,324.59v0a4.92,4.92,0,0,1,9.84,0v0a4.83,4.83,0,0,1-4.94,4.87A4.77,4.77,0,0,1,417.65,324.59Zm8.1,0v0a3.22,3.22,0,0,0-3.2-3.34,3.18,3.18,0,0,0-3.17,3.32v0a3.23,3.23,0,0,0,3.2,3.35A3.18,3.18,0,0,0,425.75,324.59Z" transform="translate(-94.28 -205.86)"/><path class="cls-3" d="M429.57,319.86h7v1.5h-5.35v2.57H436v1.51h-4.75v3.83h-1.65Z" transform="translate(-94.28 -205.86)"/><path class="cls-3" d="M293,333.3h1.76l2.86,4.45,2.86-4.45h1.76v9.41h-1.65V336l-3,4.43h0l-3-4.4v6.72H293Z" transform="translate(-94.28 -205.86)"/><path class="cls-3" d="M304.63,333.3h7v1.47h-5.32v2.45H311v1.48h-4.71v2.53h5.39v1.48h-7.05Z" transform="translate(-94.28 -205.86)"/><path class="cls-3" d="M313.64,333.3h3.5a4.7,4.7,0,0,1,5,4.67v0a4.72,4.72,0,0,1-5,4.71h-3.5Zm3.5,7.9a3.07,3.07,0,0,0,3.27-3.17v0a3.09,3.09,0,0,0-3.27-3.2h-1.85v6.4Z" transform="translate(-94.28 -205.86)"/><path class="cls-3" d="M324.24,333.3h1.65v9.41h-1.65Z" transform="translate(-94.28 -205.86)"/><path class="cls-3" d="M328,338v0a4.77,4.77,0,0,1,4.85-4.87,4.91,4.91,0,0,1,3.68,1.47l-1.06,1.22a3.73,3.73,0,0,0-2.63-1.17,3.16,3.16,0,0,0-3.11,3.32v0a3.19,3.19,0,0,0,3.11,3.35,3.71,3.71,0,0,0,2.7-1.22l1.06,1.07a4.87,4.87,0,0,1-3.82,1.67A4.73,4.73,0,0,1,328,338Z" transform="translate(-94.28 -205.86)"/><path class="cls-3" d="M341.66,333.23h1.53l4.14,9.48h-1.75l-.95-2.28h-4.45l-1,2.28h-1.7ZM344,339l-1.62-3.76L340.78,339Z" transform="translate(-94.28 -205.86)"/><path class="cls-3" d="M348.94,333.3h1.65v7.9h5v1.51h-6.6Z" transform="translate(-94.28 -205.86)"/><path class="cls-3" d="M362.19,333.3h4.2a3.78,3.78,0,0,1,2.71.94,2.83,2.83,0,0,1,.78,2v0a2.82,2.82,0,0,1-2.24,2.85l2.54,3.57h-1.95l-2.31-3.28h-2.07v3.28h-1.66Zm4.08,4.66c1.18,0,1.93-.62,1.93-1.57v0c0-1-.73-1.56-1.95-1.56h-2.4V338Z" transform="translate(-94.28 -205.86)"/><path class="cls-3" d="M371.91,333.3h7v1.47h-5.33v2.45h4.72v1.48h-4.72v2.53H379v1.48h-7Z" transform="translate(-94.28 -205.86)"/><path class="cls-3" d="M380.28,341.34l1-1.19a4.32,4.32,0,0,0,3,1.22c1,0,1.66-.46,1.66-1.18v0c0-.68-.37-1-2.12-1.44-2-.49-3.13-1.08-3.13-2.81v0c0-1.61,1.34-2.73,3.21-2.73a5.28,5.28,0,0,1,3.42,1.18l-.89,1.25a4.3,4.3,0,0,0-2.56-1c-1,0-1.53.49-1.53,1.11v0c0,.73.43,1.05,2.23,1.48,2,.48,3,1.2,3,2.75v0c0,1.76-1.39,2.81-3.36,2.81A5.84,5.84,0,0,1,380.28,341.34Z" transform="translate(-94.28 -205.86)"/><path class="cls-3" d="M389.51,333.3h7v1.47h-5.32v2.45h4.72v1.48h-4.72v2.53h5.39v1.48h-7.05Z" transform="translate(-94.28 -205.86)"/><path class="cls-3" d="M401.85,333.23h1.53l4.14,9.48h-1.74l-1-2.28h-4.45l-1,2.28h-1.69Zm2.37,5.74-1.63-3.76L401,339Z" transform="translate(-94.28 -205.86)"/><path class="cls-3" d="M409.13,333.3h4.2a3.78,3.78,0,0,1,2.71.94,2.83,2.83,0,0,1,.78,2v0a2.81,2.81,0,0,1-2.24,2.85l2.54,3.57h-1.95l-2.31-3.28h-2.07v3.28h-1.66Zm4.08,4.66c1.18,0,1.93-.62,1.93-1.57v0c0-1-.72-1.56-1.95-1.56h-2.4V338Z" transform="translate(-94.28 -205.86)"/><path class="cls-3" d="M418.43,338v0a4.77,4.77,0,0,1,4.86-4.87A4.91,4.91,0,0,1,427,334.6l-1.06,1.22a3.76,3.76,0,0,0-2.64-1.17,3.16,3.16,0,0,0-3.1,3.32v0a3.18,3.18,0,0,0,3.1,3.35,3.67,3.67,0,0,0,2.7-1.22L427,341.2a4.87,4.87,0,0,1-3.82,1.67A4.74,4.74,0,0,1,418.43,338Z" transform="translate(-94.28 -205.86)"/><path class="cls-3" d="M428.77,333.3h1.65v3.91h4.49V333.3h1.65v9.41h-1.65v-4h-4.49v4h-1.65Z" transform="translate(-94.28 -205.86)"/><path class="cls-4" d="M297.42,272.24a13.48,13.48,0,0,1-4.48-.78v35.18h8.95V271.46A13.42,13.42,0,0,1,297.42,272.24Z" transform="translate(-94.28 -205.86)"/><path class="cls-4" d="M335.74,294.79c-2.61,2.69-5.4,4-8.3,4a10.18,10.18,0,0,1-10.33-10.27,8.86,8.86,0,0,1,3-7,10.19,10.19,0,0,1,7.13-2.73c2.73,0,5.51,1.21,8.26,3.6l.7.61,5.31-6.51-.57-.58a18.56,18.56,0,0,0-13.57-5.55,19.44,19.44,0,0,0-13.57,5.11,17.27,17.27,0,0,0-5.61,13.31,17.46,17.46,0,0,0,5.37,13.23,18.06,18.06,0,0,0,12.79,5.06,20.46,20.46,0,0,0,14.91-6.51l.6-.62-5.43-5.92Z" transform="translate(-94.28 -205.86)"/><path class="cls-4" d="M347.08,271.59v35.05H356V287.39c0-2.9.8-5,2.44-6.49a8.35,8.35,0,0,1,5.83-2.22c2.18,0,3.71.62,4.69,1.9s1.54,3.55,1.54,6.56v19.5h8.94V286.91a7.89,7.89,0,0,1,2.51-6.13,8.54,8.54,0,0,1,5.75-2.1c4.69,0,6.87,2.68,6.87,8.46v19.5h8.94V285c0-4.64-1.28-8.27-3.8-10.77a13.51,13.51,0,0,0-9.91-3.76,15.82,15.82,0,0,0-12.36,5.86c-2.18-3.89-5.9-5.86-11.07-5.86a14.08,14.08,0,0,0-7.11,1.9A12.73,12.73,0,0,0,356,275v-3.43Z" transform="translate(-94.28 -205.86)"/><path class="cls-4" d="M438.15,266l2.59-7.17h-130v0a13.18,13.18,0,0,1-2.09,7.13Z" transform="translate(-94.28 -205.86)"/><path class="cls-5" d="M305.72,258.94a8.3,8.3,0,1,1-8.3-8.3A8.3,8.3,0,0,1,305.72,258.94Z" transform="translate(-94.28 -205.86)"/><path class="cls-4" d="M410.29,293.27s9.42-3.29,10.42-3.72l2.29-.8a5.48,5.48,0,1,0-3.64-10.33l-5.94,2.1-2.63-7.74,1.85-.63c2.39-.72,10.15-3.85,16.71.63a13.41,13.41,0,0,1,5.84,9.74c.91,7.2-3,11.31-8.58,14.16l9.95,9.95H423.65L410.32,293.3Z" transform="translate(-94.28 -205.86)"/><path class="cls-6" d="M467.63,319.69h4.2a3.79,3.79,0,0,1,2.73.95,2.83,2.83,0,0,1,.78,2v0a2.84,2.84,0,0,1-2.24,2.86l2.55,3.58h-2l-2.32-3.3h-2.08v3.3h-1.65Zm4.08,4.68c1.19,0,1.94-.62,1.94-1.57v0c0-1-.72-1.57-1.95-1.57h-2.42v3.17Z" transform="translate(-94.28 -205.86)"/><path class="cls-6" d="M477.37,319.69h7v1.49H479v2.45h4.74v1.49H479v2.53h5.41v1.49h-7.07Z" transform="translate(-94.28 -205.86)"/><path class="cls-6" d="M486,324.44v0a4.81,4.81,0,0,1,4.87-4.89,5.14,5.14,0,0,1,3.63,1.28l-1.06,1.26a3.68,3.68,0,0,0-2.64-1,3.19,3.19,0,0,0-3.06,3.33v0a3.15,3.15,0,0,0,3.21,3.37,3.87,3.87,0,0,0,2.28-.72V325.3H490.8v-1.44h4v4a6,6,0,0,1-3.94,1.47A4.69,4.69,0,0,1,486,324.44Z" transform="translate(-94.28 -205.86)"/><path class="cls-6" d="M497.07,319.69h1.66v9.45h-1.66Z" transform="translate(-94.28 -205.86)"/><path class="cls-6" d="M500.83,324.44v0a4.94,4.94,0,0,1,9.88,0v0a4.94,4.94,0,0,1-9.88,0Zm8.14,0v0a3.24,3.24,0,0,0-3.21-3.36,3.19,3.19,0,0,0-3.19,3.33v0a3.22,3.22,0,0,0,3.21,3.34A3.18,3.18,0,0,0,509,324.44Z" transform="translate(-94.28 -205.86)"/><path class="cls-6" d="M512.71,319.69h1.54l5.06,6.53v-6.53h1.63v9.45h-1.39l-5.21-6.72v6.72h-1.63Z" transform="translate(-94.28 -205.86)"/><path class="cls-6" d="M526.71,319.63h1.53l4.16,9.51h-1.76l-.95-2.28h-4.47l-1,2.28h-1.7Zm2.37,5.76-1.63-3.78-1.62,3.78Z" transform="translate(-94.28 -205.86)"/><path class="cls-6" d="M534,319.69h1.66v7.94h5v1.51H534Z" transform="translate(-94.28 -205.86)"/><path class="cls-6" d="M546.4,319.69h1.77l2.87,4.47,2.88-4.47h1.76v9.45H554v-6.78l-3,4.46h0l-3-4.43v6.75H546.4Z" transform="translate(-94.28 -205.86)"/><path class="cls-6" d="M558.1,319.69h7v1.49h-5.35v2.45h4.74v1.49h-4.74v2.53h5.41v1.49H558.1Z" transform="translate(-94.28 -205.86)"/><path class="cls-6" d="M567.14,319.69h3.52a4.7,4.7,0,0,1,5,4.7v0a4.72,4.72,0,0,1-5,4.72h-3.52Zm1.66,1.51v6.43h1.86a3.08,3.08,0,0,0,3.28-3.19v0a3.11,3.11,0,0,0-3.28-3.22Z" transform="translate(-94.28 -205.86)"/><path class="cls-6" d="M577.78,319.69h1.65v9.45h-1.65Z" transform="translate(-94.28 -205.86)"/><path class="cls-6" d="M581.54,324.44v0a4.78,4.78,0,0,1,4.87-4.89A4.91,4.91,0,0,1,590.1,321L589,322.23a3.78,3.78,0,0,0-2.65-1.17,3.17,3.17,0,0,0-3.11,3.33v0a3.18,3.18,0,0,0,3.11,3.34,3.7,3.7,0,0,0,2.71-1.21l1.07,1.08a4.89,4.89,0,0,1-3.83,1.67A4.75,4.75,0,0,1,581.54,324.44Z" transform="translate(-94.28 -205.86)"/><path class="cls-6" d="M595.25,319.63h1.54l4.15,9.51h-1.75l-1-2.28h-4.46l-1,2.28h-1.7Zm2.37,5.76L596,321.61l-1.62,3.78Z" transform="translate(-94.28 -205.86)"/><path class="cls-6" d="M602.55,319.69h1.66v7.94h5v1.51h-6.63Z" transform="translate(-94.28 -205.86)"/><path class="cls-6" d="M615,319.69h4.2a3.79,3.79,0,0,1,2.73.95,2.83,2.83,0,0,1,.78,2v0a2.84,2.84,0,0,1-2.24,2.86l2.55,3.58h-2l-2.32-3.3H616.6v3.3H615Zm4.08,4.68c1.19,0,1.94-.62,1.94-1.57v0c0-1-.72-1.57-2-1.57H616.6v3.17Z" transform="translate(-94.28 -205.86)"/><path class="cls-6" d="M624.69,319.69h7v1.49h-5.34v2.45h4.74v1.49h-4.74v2.53h5.41v1.49h-7.07Z" transform="translate(-94.28 -205.86)"/><path class="cls-6" d="M633.09,327.76l1-1.19a4.33,4.33,0,0,0,3,1.23c1,0,1.67-.49,1.67-1.19v0c0-.68-.37-1-2.13-1.45-2-.48-3.14-1.08-3.14-2.82v0c0-1.62,1.35-2.74,3.22-2.74a5.24,5.24,0,0,1,3.43,1.19l-.89,1.25a4.31,4.31,0,0,0-2.56-1c-1,0-1.54.5-1.54,1.12v0c0,.72.43,1.05,2.25,1.48,2,.48,3,1.2,3,2.76v0c0,1.77-1.39,2.82-3.37,2.82A5.83,5.83,0,0,1,633.09,327.76Z" transform="translate(-94.28 -205.86)"/><path class="cls-6" d="M642.35,319.69h7v1.49H644v2.45h4.74v1.49H644v2.53h5.41v1.49h-7.07Z" transform="translate(-94.28 -205.86)"/><path class="cls-6" d="M654.73,319.63h1.54l4.16,9.51h-1.76l-1-2.28h-4.46l-1,2.28h-1.7Zm2.38,5.76-1.64-3.78-1.61,3.78Z" transform="translate(-94.28 -205.86)"/><path class="cls-6" d="M662,319.69h4.21a3.78,3.78,0,0,1,2.72.95,2.83,2.83,0,0,1,.78,2v0a2.84,2.84,0,0,1-2.24,2.86l2.55,3.58h-2l-2.32-3.3H663.7v3.3H662Zm4.09,4.68c1.18,0,1.94-.62,1.94-1.57v0c0-1-.73-1.57-2-1.57H663.7v3.17Z" transform="translate(-94.28 -205.86)"/><path class="cls-6" d="M671.37,324.44v0a4.78,4.78,0,0,1,4.87-4.89,4.91,4.91,0,0,1,3.69,1.47l-1.06,1.23a3.78,3.78,0,0,0-2.65-1.17,3.17,3.17,0,0,0-3.11,3.33v0a3.18,3.18,0,0,0,3.11,3.34,3.73,3.73,0,0,0,2.72-1.21l1.06,1.08a4.87,4.87,0,0,1-3.83,1.67A4.75,4.75,0,0,1,671.37,324.44Z" transform="translate(-94.28 -205.86)"/><path class="cls-6" d="M681.74,319.69h1.66v3.93h4.5v-3.93h1.66v9.45H687.9v-4h-4.5v4h-1.66Z" transform="translate(-94.28 -205.86)"/><path class="cls-6" d="M467.21,337.93v0a4.77,4.77,0,0,1,4.87-4.88,4.88,4.88,0,0,1,3.69,1.47l-1.06,1.22a3.78,3.78,0,0,0-2.65-1.17,3.17,3.17,0,0,0-3.11,3.33v0a3.18,3.18,0,0,0,3.11,3.34,3.7,3.7,0,0,0,2.71-1.21l1.07,1.08a4.87,4.87,0,0,1-3.83,1.67A4.75,4.75,0,0,1,467.21,337.93Z" transform="translate(-94.28 -205.86)"/><path class="cls-6" d="M477.58,333.19h7v1.48h-5.35v2.46H484v1.48h-4.74v2.54h5.41v1.48h-7.06Z" transform="translate(-94.28 -205.86)"/><path class="cls-6" d="M486.61,333.19h1.54l5.05,6.52v-6.52h1.64v9.44h-1.39l-5.21-6.72v6.72h-1.63Z" transform="translate(-94.28 -205.86)"/><path class="cls-6" d="M499.58,334.72h-3v-1.53h7.67v1.53h-3v7.91h-1.67Z" transform="translate(-94.28 -205.86)"/><path class="cls-6" d="M506,333.19h4.2a3.83,3.83,0,0,1,2.73.94,2.84,2.84,0,0,1,.78,2v0a2.82,2.82,0,0,1-2.24,2.86l2.55,3.58h-2l-2.32-3.29h-2.08v3.29H506Zm4.08,4.68c1.19,0,1.94-.62,1.94-1.58v0c0-1-.72-1.56-1.95-1.56h-2.42v3.17Z" transform="translate(-94.28 -205.86)"/><path class="cls-6" d="M515.74,333.19h7v1.48H517.4v2.46h4.74v1.48H517.4v2.54h5.41v1.48h-7.07Z" transform="translate(-94.28 -205.86)"/><path class="cls-6" d="M524,343.9c.82-.16,1.22-.58,1.16-1.27h-.7v-1.86h1.79v1.58a2,2,0,0,1-2.07,2.25Z" transform="translate(-94.28 -205.86)"/><path class="cls-6" d="M532.45,333.19H536a4.7,4.7,0,0,1,5,4.69v0a4.73,4.73,0,0,1-5,4.72h-3.52Zm1.66,1.51v6.42H536a3.08,3.08,0,0,0,3.28-3.19v0A3.1,3.1,0,0,0,536,334.7Z" transform="translate(-94.28 -205.86)"/><path class="cls-6" d="M543.08,333.19h1.66v9.44h-1.66Z" transform="translate(-94.28 -205.86)"/><path class="cls-6" d="M547.26,333.19h4.24A3.41,3.41,0,0,1,554,334a2.11,2.11,0,0,1,.63,1.57v0a2.24,2.24,0,0,1-1.35,2.1,2.32,2.32,0,0,1,1.88,2.29v0c0,1.69-1.39,2.59-3.5,2.59h-4.37Zm5.68,2.67c0-.74-.59-1.2-1.66-1.2H548.9v2.51h2.26c1.07,0,1.78-.42,1.78-1.29Zm-1.41,2.71H548.9v2.59h2.75c1.13,0,1.82-.45,1.82-1.3v0C553.47,339,552.84,338.57,551.53,338.57Z" transform="translate(-94.28 -205.86)"/><path class="cls-6" d="M557,333.19h4.21a3.82,3.82,0,0,1,2.72.94,2.84,2.84,0,0,1,.78,2v0a2.82,2.82,0,0,1-2.24,2.86l2.55,3.58h-2l-2.32-3.29h-2.07v3.29H557Zm4.08,4.68c1.19,0,1.95-.62,1.95-1.58v0c0-1-.73-1.56-2-1.56h-2.41v3.17Z" transform="translate(-94.28 -205.86)"/><path class="cls-6" d="M566.6,338.62v-5.43h1.66v5.37c0,1.75.9,2.68,2.38,2.68s2.38-.88,2.38-2.62v-5.43h1.66v5.35c0,2.82-1.59,4.24-4.06,4.24S566.6,341.36,566.6,338.62Z" transform="translate(-94.28 -205.86)"/><path class="cls-6" d="M576.53,337.93v0A4.81,4.81,0,0,1,581.4,333a5.06,5.06,0,0,1,3.63,1.28l-1,1.25a3.69,3.69,0,0,0-2.64-1,3.2,3.2,0,0,0-3.07,3.33v0a3.16,3.16,0,0,0,3.21,3.37,3.84,3.84,0,0,0,2.28-.71V338.8h-2.41v-1.45h4v4a6,6,0,0,1-3.94,1.47A4.69,4.69,0,0,1,576.53,337.93Z" transform="translate(-94.28 -205.86)"/><path class="cls-6" d="M590.87,333.12h1.54l4.15,9.51h-1.75l-1-2.28h-4.47l-1,2.28h-1.7Zm2.37,5.76-1.63-3.78L590,338.88Z" transform="translate(-94.28 -205.86)"/><path class="cls-6" d="M598.17,333.19h4.21a3.83,3.83,0,0,1,2.73.94,2.84,2.84,0,0,1,.78,2v0a2.82,2.82,0,0,1-2.24,2.86l2.55,3.58h-2l-2.32-3.29h-2.08v3.29h-1.66Zm4.09,4.68c1.19,0,1.94-.62,1.94-1.58v0c0-1-.73-1.56-2-1.56h-2.42v3.17Z" transform="translate(-94.28 -205.86)"/><path class="cls-6" d="M607.92,333.19h1.66v3.92h4.5v-3.92h1.66v9.44h-1.66v-4h-4.5v4h-1.66Z" transform="translate(-94.28 -205.86)"/><path class="cls-4" d="M273.49,289a3.79,3.79,0,0,0-1.1-2.42A2.81,2.81,0,0,0,270,286a4,4,0,0,0-1.2.36v0A84.94,84.94,0,0,0,266.5,275l-1.76.28q.22.8.42,1.59a3.09,3.09,0,0,0-.44-.23,2.91,2.91,0,0,0-1.66-.09,3,3,0,0,0-2.12,1.42,3.09,3.09,0,0,0-.24,2.27,5.53,5.53,0,0,0,.85,1.94,6.66,6.66,0,0,0,.49.57l-2.37.54h-.07l.47,2.07v.07l6.61-1.49c.14.87.28,1.75.4,2.63l-6.73.87h-.06l.28,2.17,6.77-.88c.21,1.87.34,3.75.42,5.64a1.31,1.31,0,0,1-.09.17,1.6,1.6,0,0,1-1.24.51h-.07a1,1,0,0,1-1-.65,2.82,2.82,0,0,1-.1-.73l-.12-2.76v-.07l-1.62.07h-.06l.06,1.37q-.46.25-.72.42a7.24,7.24,0,0,0-1.28,1,1.87,1.87,0,0,0-.53,1,2,2,0,0,0,0,.57l.12,2.62V298l1.62-.07h.07l-.11-2.31v-.41a.51.51,0,0,1,.25-.42l.5-.28.21-.09h0v.08a3.43,3.43,0,0,0,.51,1.7,2.33,2.33,0,0,0,2.12,1.1h.18a2.69,2.69,0,0,0,1.21-.37l.16-.11c0,.29,0,.58,0,.87,0,.94,0,1.87,0,2.81a4.6,4.6,0,0,0-1-.51,5.82,5.82,0,0,0-1.78-.39,2.84,2.84,0,0,0-2.15.78,3.6,3.6,0,0,0-1,2.55,5.45,5.45,0,0,0,.29,2.15c.11.23.23.47.37.73l0,0,1.24.06h0l3.88-2.69c-.08,1.13-.18,2.26-.3,3.38l-6.66-.77h-.07l-.24,2.1v.07l6.72.78q-.48,3.57-1.28,7.06l-1.09-.23.52-2.43a5.07,5.07,0,0,0,0-1.34,2,2,0,0,0-1.66-1.73,2.33,2.33,0,0,0-2.37.7,5,5,0,0,0-1,2.27,4.86,4.86,0,0,0-.08,1.81,1.92,1.92,0,0,0,.12.52l-2.21,0H258l-.09,1.88,2.27-.17c.34,0,.66,0,1,0a4.86,4.86,0,0,1,.6,0l.07,0,.35-1.66v-.06l-.06,0a.93.93,0,0,1-.6-.46,2.58,2.58,0,0,1,0-1.45,2,2,0,0,1,.44-1,1,1,0,0,1,1-.26.93.93,0,0,1,.8,1,2.83,2.83,0,0,1-.07.4l-.73,3.47,0,.07,2.36.5c-.22.86-.45,1.71-.69,2.57l1.7.49a83.76,83.76,0,0,0,2.73-32.3v-.11a1.91,1.91,0,0,1,.45-.28,2.45,2.45,0,0,1,.61-.13,1.46,1.46,0,0,1,1.17.26,1.78,1.78,0,0,1,.56,1.22,3.39,3.39,0,0,1-.53,2.38,3.75,3.75,0,0,1-1.12,1.13l.12,1.8.61-.39a6.7,6.7,0,0,0,1.84-1.94A5.18,5.18,0,0,0,273.49,289Zm-10-6.59a2.69,2.69,0,0,1-.5-.33,2.16,2.16,0,0,1-.69-1.15,2.12,2.12,0,0,1,.21-1.57,1.89,1.89,0,0,1,1.28-.89,2.21,2.21,0,0,1,1.47.13,2.59,2.59,0,0,1,.45.32c.22.94.42,1.9.61,2.85Zm-.09,22.41a1.71,1.71,0,0,1-.11-.27,2.21,2.21,0,0,1-.13-.83,2.37,2.37,0,0,1,.48-1.42,1.58,1.58,0,0,1,1.32-.57h.14a4.73,4.73,0,0,1,1.43.31,4.24,4.24,0,0,1,.55.21Z" transform="translate(-94.28 -205.86)"/><path class="cls-4" d="M120.28,250.44l1.34-1.6,0,0,0,0a2.69,2.69,0,0,1-.31-.62,1.53,1.53,0,0,1,.36-1.42,1.78,1.78,0,0,1,.81-.56.79.79,0,0,1,.81.15.64.64,0,0,1,.25.66,3.57,3.57,0,0,1-.14.34l-.65.78,1.06.88.62-.75a3.13,3.13,0,0,1,.44-.29.81.81,0,0,1,.88.14,1.09,1.09,0,0,1,.41,1,1.85,1.85,0,0,1-.44,1.07,1.6,1.6,0,0,1-1.41.65,2.59,2.59,0,0,1-1.34-.67l0,0-1.32,1.56,0,.06.06,0c.27.2.55.39.82.57a3.5,3.5,0,0,0,1.72.48h.26a3.64,3.64,0,0,0,2.5-1.46,4.91,4.91,0,0,0,1.15-2.19,2.2,2.2,0,0,0-.79-2.23,1.53,1.53,0,0,0-1-.36h-.11a2.86,2.86,0,0,0-.37.08l1.52-1.82,3.07,2.58,1.41-1.68-5.19-4.35c.69-.73,1.4-1.44,2.12-2.15l4.69,4.9,0,.05,1.58-1.52-4.75-5c1.05-1,2.11-1.91,3.2-2.82h.25a1.32,1.32,0,0,1,.81.51.84.84,0,0,1,.12.95,2.48,2.48,0,0,1-.71.78l-.34.23-.52.31-.08,0,.07.07.78.67a4.29,4.29,0,0,0,2,.84,2.73,2.73,0,0,0,.41,0,3.7,3.7,0,0,0,2.3-.87,5.36,5.36,0,0,0,1.27-1.42,3.88,3.88,0,0,0,.52-1.24l.48.59.62.75-.2.23a3.66,3.66,0,0,0-.28.45l0,.06,1.22.92,0-.09a1.61,1.61,0,0,1,.13-.33,1.52,1.52,0,0,1,.47-.55,1.48,1.48,0,0,1,.79-.31h0a.58.58,0,0,1,.51.29.7.7,0,0,1,0,.83,2.84,2.84,0,0,1-.85.84,2.81,2.81,0,0,1-1.62.45h0a4.47,4.47,0,0,1-1.67-.35l-.08,0-.33,1.38,0,.07.06,0a5.94,5.94,0,0,0,1.39.31l.34,0a5,5,0,0,0,2.86-.92,5.12,5.12,0,0,0,1.65-1.63,2,2,0,0,0-1.7-3h0a3.17,3.17,0,0,0-1,.2l.19-.15-4.15-5.29c.89-.62,1.79-1.22,2.7-1.81l3.6,5.75,0,.06,1.8-1.13.06,0-3.64-5.81q3.51-2.12,7.2-3.87l.61,1.21h0a4.77,4.77,0,0,0-.72.05,6.38,6.38,0,0,0-1.9.6,4.77,4.77,0,0,0-2,1.62,1.9,1.9,0,0,0-.07,1.94,2.18,2.18,0,0,0,1.8,1.27,1.46,1.46,0,0,0,.3,0,4.66,4.66,0,0,0,2.07-.57,6.45,6.45,0,0,0,1.69-1.21,4.58,4.58,0,0,0,.41-.49l.81,1.61,0,.06,1.9-.95.06,0-3-6a82.13,82.13,0,0,1,11.67-4.15l.25.77-6.39,2a4.55,4.55,0,0,0-1.29.62,1.67,1.67,0,0,0,.4,3.07,2.81,2.81,0,0,0,1.67-.05l2.8-.89a1.18,1.18,0,0,1,.61-.05.42.42,0,0,1,.34.31.59.59,0,0,1-.2.7,2.85,2.85,0,0,1-.82.36l-.23.07a6.28,6.28,0,0,1-1.68.31,3.27,3.27,0,0,1-1.3-.12h0l-1.9,1.07-.1.05.09.06c.35.25.71.51,1.08.75h0a2.94,2.94,0,0,0,1.79-.09,2.21,2.21,0,0,1,2,.73,10.49,10.49,0,0,1,1,1.08l0,0,2-.64-.08-.08c-.16-.18-.3-.32-.39-.43-.32-.32-.56-.55-.73-.69a4.79,4.79,0,0,0-1.16-.58l-.43-.14.92-.29a3.56,3.56,0,0,0,1.69-1.06,1.91,1.91,0,0,0,.36-1.91,1.59,1.59,0,0,0-.89-1,1.87,1.87,0,0,0-1.34-.05l-3.5,1.11a.77.77,0,0,1-.45,0,.39.39,0,0,1-.27-.26.45.45,0,0,1,.19-.5,1.84,1.84,0,0,1,.29-.17l6.29-2,1.36,4.29,0,.07,2-.64.07,0-2-6.34c.92-.22,1.84-.42,2.76-.61l1.28,6.69,0,.06,2.14-.41-1.3-6.77a79.18,79.18,0,0,1,9.5-1.12l.11,1.21-5.43.47a4.06,4.06,0,0,0-1.12.34,2,2,0,0,0-1,2,2,2,0,0,0,.93,1.66A3.81,3.81,0,0,0,177,222a3.65,3.65,0,0,0,2-.68,1.8,1.8,0,0,0,.62-1.64,1.73,1.73,0,0,0-.32-.86,2,2,0,0,0-.15-.18l2.17-.19.37,4.26v.07l2.11-.19h.07l-.59-6.76c.5,0,1-.06,1.52-.06l0-1.77a83.49,83.49,0,0,0-32.45,7.08,6.08,6.08,0,0,1-.82-.37,2.55,2.55,0,0,1-1.33-1.27,1.08,1.08,0,0,1,0-.91,1.18,1.18,0,0,1,.6-.54l1-.44-.44-1.05,0-.06-1.61.68a2.64,2.64,0,0,0-1.25.9,1.84,1.84,0,0,0,0,1.77,3.17,3.17,0,0,0,1.56,1.5,8.71,8.71,0,0,0,1,.38,83.42,83.42,0,0,0-8.35,4.44,1.89,1.89,0,0,1-.43-.29,2.47,2.47,0,0,1-.37-.49,1.43,1.43,0,0,1-.25-1.18,1.79,1.79,0,0,1,.87-1,3.35,3.35,0,0,1,2.38-.5,3.73,3.73,0,0,1,1.49.53l1.6-.83-.61-.42a6.63,6.63,0,0,0-2.54-.85,5.18,5.18,0,0,0-3.37.81,3.85,3.85,0,0,0-1.74,2,2.82,2.82,0,0,0,.42,2.4,3.55,3.55,0,0,0,.83.93l-1,.66-.06,0h0a83.25,83.25,0,0,0-10,7.75v0l-.36.35c-.79.72-1.55,1.46-2.31,2.21l-.56.54,0,0h0c-1.35,1.37-2.68,2.76-3.94,4.22l1.9.54c.19-.22.4-.42.6-.64l1.19,1-1.57,1.86a1.13,1.13,0,0,0,0-.23,1.15,1.15,0,0,0-.44-.89,2,2,0,0,0-2.14-.37,4.71,4.71,0,0,0-1.75,1.38,4.2,4.2,0,0,0-1.15,2.76,2.56,2.56,0,0,0,.93,2Zm57.27-29.85a1.17,1.17,0,0,1-.7.24,1.32,1.32,0,0,1-.87-.18.82.82,0,0,1-.35-.64,1.13,1.13,0,0,1,.27-.9.79.79,0,0,1,.31-.19l.95-.08a.87.87,0,0,1,.28.15,1.06,1.06,0,0,1,.36.77A.94.94,0,0,1,177.55,220.59ZM151.78,226l.34,0,.42.83a3.94,3.94,0,0,1-.43.6,4.27,4.27,0,0,1-1.31,1,2.86,2.86,0,0,1-1.16.36h0a.93.93,0,0,1-.89-.58.83.83,0,0,1,0-.86,3.65,3.65,0,0,1,1.42-1,3.54,3.54,0,0,1,1.41-.39Zm-14.45,5.77,1.45,1.85h0s.13.18.08,1.23a2.82,2.82,0,0,1-1,2.2,2,2,0,0,1-1.51.42,1.54,1.54,0,0,1-.47-.12l-.11,0,.06-.05a2.55,2.55,0,0,0,1-1.49,1.87,1.87,0,0,0-.42-1.53,2.24,2.24,0,0,0-1-.72,1.63,1.63,0,0,0-.26-.07C135.88,232.93,136.6,232.36,137.33,231.81Z" transform="translate(-94.28 -205.86)"/><path class="cls-4" d="M123.13,344.94a3.31,3.31,0,1,0,3.31,3.31A3.31,3.31,0,0,0,123.13,344.94Z" transform="translate(-94.28 -205.86)"/><path class="cls-4" d="M186.05,241.51a56.13,56.13,0,1,0,56.13,56.13A56.19,56.19,0,0,0,186.05,241.51Zm0,110.59a54.47,54.47,0,1,1,54.47-54.46A54.52,54.52,0,0,1,186.05,352.1Z" transform="translate(-94.28 -205.86)"/><path class="cls-4" d="M186.05,205.86a91.78,91.78,0,1,0,91.78,91.78A91.88,91.88,0,0,0,186.05,205.86Zm0,181.9a90.12,90.12,0,1,1,90.12-90.12A90.22,90.22,0,0,1,186.05,387.76Z" transform="translate(-94.28 -205.86)"/><path class="cls-4" d="M142.88,340.9a3.31,3.31,0,1,0,3.31,3.31A3.31,3.31,0,0,0,142.88,340.9Z" transform="translate(-94.28 -205.86)"/><path class="cls-4" d="M230.15,340.9a3.31,3.31,0,1,0,3.3,3.31A3.31,3.31,0,0,0,230.15,340.9Z" transform="translate(-94.28 -205.86)"/><path class="cls-4" d="M250.29,344.94a3.31,3.31,0,1,0,3.31,3.31A3.31,3.31,0,0,0,250.29,344.94Z" transform="translate(-94.28 -205.86)"/><path class="cls-4" d="M109.69,267.85,108,267.2a83.49,83.49,0,0,0-3.81,12.7l-1,.08a6.85,6.85,0,0,0-2.47.83,3.59,3.59,0,0,0-1.75,2.4,3.79,3.79,0,0,0,.13,2.21,2.45,2.45,0,0,0,1.9,1.54,4.86,4.86,0,0,0,1.47.06,3.78,3.78,0,0,0,.47-.09,83.93,83.93,0,0,0,1,27.35l1.73-.35c-.13-.66-.23-1.32-.35-2l1.84-.3.59,2.49-2,.48a2.37,2.37,0,0,0-.83.61,2.7,2.7,0,0,0-.38,2.44,3.37,3.37,0,0,0,.83,1.62,1.72,1.72,0,0,0,1.22.53,1.89,1.89,0,0,0,.47-.06,1.51,1.51,0,0,0,.48-.23l.18-.16,0,0-.44-1.83-.09.1-.08.09a1,1,0,0,1-.37.19.55.55,0,0,1-.51-.09,1.17,1.17,0,0,1-.29-.58c-.1-.4,0-.65.27-.79a.7.7,0,0,1,.21,0l1.71-.41.36,1.51a2.24,2.24,0,0,0,.88,1.36,1.86,1.86,0,0,0,1.57.26,2,2,0,0,0,1.53-1.28,3.34,3.34,0,0,0,0-2,3.3,3.3,0,0,0-1-1.73,1.93,1.93,0,0,0-1.85-.47l-.76.18-.58-2.39,3.66-.6h.07l-.34-2.09v-.07L105,309.79l-.05-.27c-.1-.7-.18-1.4-.26-2.1l0-.31,6.83-.69h.07l-.22-2.17-6.9.69,0-.5c-.06-.76-.13-1.53-.17-2.3l0-2.57a1.1,1.1,0,0,1,.2-.46,1.56,1.56,0,0,1,1.25-.48h0a1,1,0,0,1,1,.68,2.89,2.89,0,0,1,.09.72l0,2.77v.07l1.62,0h.07l0-1.36.73-.4a7.66,7.66,0,0,0,1.3-.93,1.86,1.86,0,0,0,.56-1,2,2,0,0,0,0-.57l0-2.62v-.07l-1.62,0h-.07l0,2.31v.41a.51.51,0,0,1-.27.41,3.94,3.94,0,0,1-.51.27l-.2.09v-.09a3.4,3.4,0,0,0-.46-1.72,2.36,2.36,0,0,0-2.2-1.16h-.06a2.76,2.76,0,0,0-1.22.33l-.34.22v-.8a82.54,82.54,0,0,1,.65-9.06l1.17.12-.46,4.29a4.12,4.12,0,0,0,.24,1.26,2.57,2.57,0,0,0,2.24,1.5,2.91,2.91,0,0,0,2.76-1,3.93,3.93,0,0,0,.75-2,3.28,3.28,0,0,0,0-.39,1.22,1.22,0,0,0,0-.27v-.05l-1.64-.18,0,.11a.78.78,0,0,1,0,.22,3.54,3.54,0,0,1,0,.59.91.91,0,0,1-.37.66,1.5,1.5,0,0,1-1.12.24,1.21,1.21,0,0,1-1.14-.78,2,2,0,0,1-.06-.66l.36-3.33,4.09.43h.07l.22-2.11v-.06L105.1,285l0-.2c.13-.83.26-1.66.42-2.49l6.95,1.44.44-2.14L106,280.12c.12-.51.21-1,.34-1.53h0l.29-1.19c.11-.44.23-.87.35-1.31a4.2,4.2,0,0,1,.49-.21,1.35,1.35,0,0,1,1,0,.85.85,0,0,1,.64.72,2.49,2.49,0,0,1-.14,1.05,3.31,3.31,0,0,1-.16.38c-.09.2-.17.38-.25.54l0,.09h.09c.34.05.68.08,1,.12h.13a4.29,4.29,0,0,0,2-.45,3.58,3.58,0,0,0,1.76-2.22,5.39,5.39,0,0,0,.25-1.89,3.78,3.78,0,0,0-.27-1.32l.72.21,1,.28.07,0,.66-2.08-6.72-2.12C109.36,268.74,109.51,268.29,109.69,267.85Zm-6.37,17a1.92,1.92,0,0,1-.33.12,3,3,0,0,1-1.22,0,2.42,2.42,0,0,1-1.13-.52.89.89,0,0,1-.29-.92c.16-.77.84-1.27,2-1.48a8.8,8.8,0,0,1,1.44-.09C103.62,282.88,103.47,283.84,103.32,284.81Zm7.05,30.66a.91.91,0,0,1,.72.06,1,1,0,0,1,.39.64.91.91,0,0,1-.07.68.89.89,0,0,1-.6.38.8.8,0,0,1-1-.27,1.67,1.67,0,0,1-.18-.48l-.19-.8Zm.58-43.38h0s.21.08.76,1a2.78,2.78,0,0,1,.4,2.38,2,2,0,0,1-1,1.2,1.52,1.52,0,0,1-.46.17l-.11,0,0-.07a2.53,2.53,0,0,0,0-1.82,1.86,1.86,0,0,0-1.21-1,2.16,2.16,0,0,0-.66-.1,2.32,2.32,0,0,0-.58.08c-.1,0-.44.1-.58.15.23-.77.46-1.54.72-2.3l.12-.39,0-.08Z" transform="translate(-94.28 -205.86)"/><path class="cls-4" d="M206.75,225.4a5,5,0,0,0,2.46.34,2.19,2.19,0,0,0,1.82-1.5,1.55,1.55,0,0,0,0-1.16,2.24,2.24,0,0,0-.21-.32l2.23.82-1.36,3.7,0,.06,2.06.76,2.4-6.57a81.53,81.53,0,0,1,8.87,4.14l-.56,1.15-4.88-2.42a4.17,4.17,0,0,0-1.14-.29h-.07a1.93,1.93,0,0,0-1.81,1.23c-.69,1.38-.1,2.54,1.73,3.44a3.78,3.78,0,0,0,2.09.48,1.82,1.82,0,0,0,1.39-1.08,1.67,1.67,0,0,0,.17-.9.7.7,0,0,0,0-.23l2,1-1.88,3.79a1.91,1.91,0,0,0-.36-.13,2.45,2.45,0,0,0-.54-.07H221l-.29,1.4,0,.1h.09a1.58,1.58,0,0,1,.36,0,1.54,1.54,0,0,1,.7.18c.63.38.81.76.57,1.17a.72.72,0,0,1-.75.35,2.81,2.81,0,0,1-2.24-1.7,4.94,4.94,0,0,1-.41-1.66v-.08l-1.46.31v.06a6.47,6.47,0,0,0,.31,1.39,5.07,5.07,0,0,0,2.19,2.51,5.16,5.16,0,0,0,2.18.78h.19a2,2,0,0,0,1.76-2.86,3,3,0,0,0-.64-.82l.26.13.07,0,3-6.15c1.36.78,2.69,1.61,4,2.46.14.31.25.71.3.83a1.36,1.36,0,0,1-.07,1.29,1.22,1.22,0,0,1-.71.52,1.07,1.07,0,0,1-.89-.24l-2.08-1.48-.06,0-.9,1.28,0,.06,1.18.83c-.07.38-.13.69-.16.91a4.78,4.78,0,0,0,0,1.68,1.82,1.82,0,0,0,.29.7,2,2,0,0,0,.43.43l.19.13,1.67,1.19.06,0L231,236l0,0-1.57-1.12a.51.51,0,0,1-.2-.18,1.48,1.48,0,0,1-.12-.58,3.78,3.78,0,0,1,.08-.51s0-.1.06-.16a2.82,2.82,0,0,0,1.59.5h.1a2,2,0,0,0,1.57-.91,2.63,2.63,0,0,0,.53-1.64c0-.11,0-.47,0-.73,1,.72,2,1.46,3,2.22l-1.35,1.9L233,233.59l-.05-.05-1,1.38,1.74,1.24L232,238.58l0,.06,1.72,1.22.06,0,4-5.66c.54.44,1.09.88,1.62,1.33a3.14,3.14,0,0,1,1.72-.84c-.49-.44-1-.85-1.51-1.27h0l-.07-.05a83.42,83.42,0,0,0-26.4-14.89l.09,1.9.84.32-.59,1.59-2.28-.84.23-.05a1.17,1.17,0,0,0,.69-.72,2,2,0,0,0-.38-2.14,4.56,4.56,0,0,0-1.9-1.18,4.12,4.12,0,0,0-3-.14,2.54,2.54,0,0,0-1.54,1.53l0,.07,1.95.72h.05l0,0a2.59,2.59,0,0,1,.48-.5,1.48,1.48,0,0,1,1.45-.14,1.82,1.82,0,0,1,.81.57.8.8,0,0,1,.13.81.65.65,0,0,1-.54.46,1.58,1.58,0,0,1-.36,0l-1-.35-.45,1.23,0,.07.92.33a2.88,2.88,0,0,1,.42.32.8.8,0,0,1,.17.87,1.09,1.09,0,0,1-.76.71,1.85,1.85,0,0,1-1.16,0,1.6,1.6,0,0,1-1.08-1.11,2.53,2.53,0,0,1,.17-1.48l0-.07-2-.73,0,.07c-.1.37-.18.67-.25,1a3.31,3.31,0,0,0,.23,2A3.61,3.61,0,0,0,206.75,225.4Zm13.37,1.88a1,1,0,0,1-.63.58,1.31,1.31,0,0,1-.73-.16,1.34,1.34,0,0,1-.65-.61.83.83,0,0,1,0-.72,1.11,1.11,0,0,1,.71-.64H219a.82.82,0,0,1,.21,0l.86.42a.75.75,0,0,1,.16.28A1,1,0,0,1,220.12,227.28Z" transform="translate(-94.28 -205.86)"/><path class="cls-4" d="M239.18,231.87a1.7,1.7,0,0,0,1,.43h.11a1,1,0,0,0,.78-.37,1.07,1.07,0,0,0,.24-1,1.65,1.65,0,0,0-.57-.91,1.52,1.52,0,0,0-1-.37h0a1.12,1.12,0,0,0-.88.41,1,1,0,0,0-.21.94A1.62,1.62,0,0,0,239.18,231.87Z" transform="translate(-94.28 -205.86)"/><path class="cls-4" d="M244.57,237.94l-.74,1.74c.45.45.87.94,1.31,1.4L243.08,243a5,5,0,0,1-2.08.05,3.11,3.11,0,0,1-1.47-.76,1.59,1.59,0,0,1-.48-.78.8.8,0,0,1,.22-.76.83.83,0,0,1,.93-.26,2,2,0,0,1,.78.48l.2.2.08.09.87-.95-1-.91a2,2,0,0,1-.59-.76.87.87,0,0,1,.26-.89.83.83,0,0,1,.55-.29.62.62,0,0,1,.53.17.62.62,0,0,1,.2.81,2.26,2.26,0,0,1-.33.39l0,0,1,.89,0,0,0,0a.31.31,0,0,0,.11-.09l.1-.11a2.14,2.14,0,0,0,.61-1.24,2.47,2.47,0,0,0-1-2,2.72,2.72,0,0,0-1.64-.76h-.15a1.86,1.86,0,0,0-1.41.66,1.74,1.74,0,0,0-.45,1.39,2.41,2.41,0,0,0,.35,1.2,1.89,1.89,0,0,0-.71,0,1.75,1.75,0,0,0-.92.52,1.94,1.94,0,0,0-.39,1.88,3.59,3.59,0,0,0,1.1,1.78,4.77,4.77,0,0,0,2.13,1.18,4.44,4.44,0,0,0,.92.1h.35l-1.57,1.48-.05,0,1.46,1.54.05,0,5-4.73c.61.67,1.22,1.36,1.8,2l-5.18,4.36-.05,0,1.36,1.62.05.06,5.21-4.39a83,83,0,0,1,5.53,7.78l-1.11.76-3.07-4.5a4,4,0,0,0-.84-.81,2,2,0,0,0-2.25.15c-1.27.86-1.33,2.16-.18,3.85a3.73,3.73,0,0,0,1.6,1.44,1.78,1.78,0,0,0,1.73-.26,1.84,1.84,0,0,0,.6-.7,1.94,1.94,0,0,0,.07-.22l1.23,1.8-3.53,2.41,0,0,1.19,1.75,0,.06,5.71-3.9c.23.38.48.74.69,1.13l1.45-1A83.26,83.26,0,0,0,244.57,237.94Zm5.71,15.32a.9.9,0,0,1-.84.19,1.16,1.16,0,0,1-.55-.49,1.25,1.25,0,0,1-.27-.85.83.83,0,0,1,.38-.62,1.26,1.26,0,0,1,.69-.23l.24,0a1,1,0,0,1,.31.18l.53.79a.88.88,0,0,1,0,.32A1.06,1.06,0,0,1,250.28,253.26Z" transform="translate(-94.28 -205.86)"/><path class="cls-4" d="M173.42,368.35a1.2,1.2,0,0,1,.79-.15l1.13.17.18-1.19-1.72-.26a2.65,2.65,0,0,0-1.54.11,1.84,1.84,0,0,0-.93,1.51,3.18,3.18,0,0,0,.54,2.09,7.67,7.67,0,0,0,.54.75,74.92,74.92,0,0,1-17.62-5.55l-.68,1.63a77,77,0,0,0,7.71,3l-.39,1-5.07-2a4,4,0,0,0-1.15-.19,1.93,1.93,0,0,0-1.77,1.39,2.06,2.06,0,0,0,.09,1.91,3.87,3.87,0,0,0,1.94,1.37,3.66,3.66,0,0,0,2.13.28,1.77,1.77,0,0,0,1.28-1.19,1.71,1.71,0,0,0,.1-.92c0-.06,0-.14-.06-.22l2,.79-1.55,4,0,.06,2,.77.07,0,2.5-6.43c2.19.65,4.42,1.21,6.67,1.67l-.25,1.1-2.51-.58a7.76,7.76,0,0,0-1.19-.14h0a1.49,1.49,0,0,0-1.54,1.17,1.54,1.54,0,0,0,.46,1.5,3,3,0,0,0,1.47.76l2.87.66a1.05,1.05,0,0,1,.52.3.52.52,0,0,1,.14.5,1,1,0,0,1-1.06.82,5.61,5.61,0,0,1-1.43-.2,5.5,5.5,0,0,1-1.77-.68l-.65-.77,0,0-1.77.52h-.06v.07a1.69,1.69,0,0,0,.32.63,3.51,3.51,0,0,0,1.93,1,2.21,2.21,0,0,1,1.43,1.51,6.72,6.72,0,0,1,.33,1.25v.05l2.05.47-.09-.58a4.7,4.7,0,0,0-.34-1,3.22,3.22,0,0,0-.51-.72l-.33-.36.22.05a4.26,4.26,0,0,0,2.68-.1,1.84,1.84,0,0,0,1.1-1.36,1.76,1.76,0,0,0-1.34-2.19l-3.56-.82-.21-.1a.52.52,0,0,1-.28-.58.46.46,0,0,1,.38-.38.65.65,0,0,1,.28,0l4.08.93.07,0,.53-2.33c.89.15,1.79.3,2.68.42l.25-1.75c-.47-.06-.94-.15-1.41-.22a2.8,2.8,0,0,1-.58-.73,2.56,2.56,0,0,1-.47-1.78A1,1,0,0,1,173.42,368.35Zm-16.21,4a.92.92,0,0,1-.58.63,1.14,1.14,0,0,1-.74-.09,1.29,1.29,0,0,1-.7-.54.85.85,0,0,1,0-.73,1.08,1.08,0,0,1,.64-.69.57.57,0,0,1,.25,0h.11l.89.34a1.11,1.11,0,0,1,.19.26A1.06,1.06,0,0,1,157.21,372.33Z" transform="translate(-94.28 -205.86)"/><path class="cls-4" d="M207.75,372.72a3,3,0,0,0-.54.17,2.25,2.25,0,0,0-.55.31,4.77,4.77,0,0,0-.63.64l-.21.26a2.33,2.33,0,0,0-1.08-.61,3.49,3.49,0,0,0-1.73,0,3.58,3.58,0,0,0-2,1.24,2.43,2.43,0,0,0-.52,2.18,2.7,2.7,0,0,0,2,2.17,3.69,3.69,0,0,0,1.07.14,6.11,6.11,0,0,0,1.3-.15l.71-.16-.3-1.3v-.07l-.27.06-.27.07a2.49,2.49,0,0,1-1.18,0,1.19,1.19,0,0,1-.88-1,1.28,1.28,0,0,1,.24-1.13,1.67,1.67,0,0,1,1-.65,1.47,1.47,0,0,1,1,.1,1,1,0,0,1,.57.71l.22,1,0,.07,1.3-.3.07,0-.24-1s0-.1.1-.41a1.91,1.91,0,0,1,.43-.63,1.06,1.06,0,0,1,.31-.21,3.06,3.06,0,0,1,.46-.13h0l.23-1.44-.37.06Z" transform="translate(-94.28 -205.86)"/><path class="cls-4" d="M222.31,365.23l-1-1.47c-.32.17-.66.32-1,.49l-.36-.44-.51-.55a6.93,6.93,0,0,0-2.2-1.4,3.58,3.58,0,0,0-3,.13,3.81,3.81,0,0,0-1.65,1.48,2.46,2.46,0,0,0,0,2.45,4.61,4.61,0,0,0,.87,1.19l.19.17a75.68,75.68,0,0,1-19,4.8l-.35-.72a6.67,6.67,0,0,0-1.72-2.05,5.23,5.23,0,0,0-3.2-1.05h-.11a3.82,3.82,0,0,0-2.52.82,2.8,2.8,0,0,0-.88,2.27,3.78,3.78,0,0,0,.22,1.23l-1.15,0h-.48l0,1.77h1.71l.12,6.76v.07l2.11,0h.07l-.11-6.86c2.28-.07,4.56-.22,6.82-.49l.13,1.22-2.47.26a4.75,4.75,0,0,0-1.29.39,2,2,0,0,0-1.13,2.11,2.32,2.32,0,0,0,1.4,2,4.89,4.89,0,0,0,2.46.24,5.38,5.38,0,0,0,1.75-.48,2.32,2.32,0,0,0,.45-.28l.67,2.11,0,.06L199,381l-.86-2.1c-.11-.3-.2-.61-.3-.93a4.75,4.75,0,0,1-.14-.59v-.07l-1.75.18v.06a.89.89,0,0,1-.25.72,2.56,2.56,0,0,1-1.38.45,2.12,2.12,0,0,1-1.07-.11,1.06,1.06,0,0,1-.57-.92.94.94,0,0,1,.76-1.08l.4-.06,3.52-.37h.07l-.27-2.62,0,0a76.83,76.83,0,0,0,17.9-4.9l.47,1.25h0l-.16.06a4,4,0,0,0-.6.28,2.2,2.2,0,0,0-.54.39,4.19,4.19,0,0,0-.54.7,1.45,1.45,0,0,1-.12.19l-.05.09a2.48,2.48,0,0,0-1.15-.46,3.85,3.85,0,0,0-3.57,1.75,2.42,2.42,0,0,0-.22,2.23,2.67,2.67,0,0,0,2.23,1.89,2.74,2.74,0,0,0,.5,0,5.33,5.33,0,0,0,1.84-.37l.38-.14.31-.12-.47-1.24,0-.06-.26.09-.16.06-.1,0a2.54,2.54,0,0,1-1.17.18,1.19,1.19,0,0,1-1-.84,1.33,1.33,0,0,1,.08-1.15,1.65,1.65,0,0,1,.89-.78,1.53,1.53,0,0,1,1,0,1,1,0,0,1,.66.63l.38,1,1.32-.5-.38-1s0-.09,0-.41a1.77,1.77,0,0,1,.35-.68,1.31,1.31,0,0,1,.45-.37l.55-.26,1.45,3.89,0,.07,2-.77-2.44-6.49,0,0c.7-.31,1.4-.64,2.1-1l3,6,0,.06,2-1-3.05-6Zm-34.13,7.31a2,2,0,0,1-.21-.48,2,2,0,0,1-.07-.61,1.5,1.5,0,0,1,.39-1.14,1.8,1.8,0,0,1,1.28-.42h.06a3.34,3.34,0,0,1,2.24.8,3.12,3.12,0,0,1,1.11,1.55C191.38,372.39,189.79,372.49,188.18,372.54Zm27.61-6.15a1.55,1.55,0,0,1-.39-.25,2.82,2.82,0,0,1-.76-1,2.35,2.35,0,0,1-.3-1.21.91.91,0,0,1,.53-.8c.7-.35,1.52-.14,2.43.65a12.84,12.84,0,0,1,1.16,1.35C217.58,365.59,216.69,366,215.79,366.39Z" transform="translate(-94.28 -205.86)"/><polygon class="cls-4" points="69.28 151.58 68.55 145.67 67.24 145.13 64.27 152.28 65.52 152.8 67.45 148.14 68.2 153.91 69.55 154.47 72.52 147.32 71.27 146.8 69.28 151.58"/><polygon class="cls-4" points="78.43 150.44 78.79 149.18 73.66 147.71 71.53 155.15 76.79 156.66 77.15 155.41 73.28 154.3 73.86 152.27 77.34 153.27 77.7 152.01 74.22 151.02 74.69 149.37 78.43 150.44"/><polygon class="cls-4" points="85.08 155.71 84.61 150.18 82.9 149.93 80.83 155 80.52 149.58 79.05 149.37 79.63 157.28 81.19 157.5 83.44 151.98 84.03 157.92 85.56 158.14 88.4 150.73 86.95 150.52 85.08 155.71"/><path class="cls-4" d="M192.69,363.8a2.48,2.48,0,0,0,1-.7,3.6,3.6,0,0,0,.66-1.42,5.48,5.48,0,0,0,.09-1.66,6,6,0,0,0-.38-1.81,3.67,3.67,0,0,0-.78-1.2,2.46,2.46,0,0,0-1.14-.62,4.87,4.87,0,0,0-1.38,0l-2.65.21.61,7.72,2.73-.22A4.2,4.2,0,0,0,192.69,363.8Zm-2.65-.94-.41-5.11.65-.05a6.16,6.16,0,0,1,1.2,0,1.29,1.29,0,0,1,.7.31,1.73,1.73,0,0,1,.47.71,5.27,5.27,0,0,1,.26,1.37,5.7,5.7,0,0,1,0,1.42,1.68,1.68,0,0,1-.32.78,1.41,1.41,0,0,1-.56.37,3.89,3.89,0,0,1-.87.14Z" transform="translate(-94.28 -205.86)"/><polygon class="cls-4" points="105.94 149.04 100.7 150.07 102.19 157.67 107.57 156.62 107.32 155.34 103.37 156.11 102.96 154.04 106.51 153.35 106.26 152.07 102.71 152.76 102.38 151.08 106.2 150.33 105.94 149.04"/><polygon class="cls-4" points="108.41 148.38 107.02 148.81 109.29 156.15 114.14 154.66 113.75 153.41 110.3 154.48 108.41 148.38"/><polygon class="cls-4" points="113.86 146.43 112.53 147.01 115.62 154.11 116.95 153.53 115.6 150.43 118.21 149.29 119.56 152.4 120.9 151.81 117.81 144.71 116.47 145.29 117.69 148.09 115.08 149.23 113.86 146.43"/><rect class="cls-4" x="214.88" y="349.16" width="1.45" height="7.74" transform="translate(-235.74 -61.69) rotate(-28.26)"/><path class="cls-4" d="M222.21,281.13l1.13-.44a35.7,35.7,0,0,0-15.46-18.2l-.6,1.06A34.47,34.47,0,0,1,222.21,281.13Z" transform="translate(-94.28 -205.86)"/><path class="cls-4" d="M218.28,281.72l1.13-.48a31.93,31.93,0,0,0-12.51-14.7l-.64,1A30.72,30.72,0,0,1,218.28,281.72Z" transform="translate(-94.28 -205.86)"/><path class="cls-4" d="M213.34,281.24l1.08-.58a27.44,27.44,0,0,0-8.58-9.59l-.7,1A26.13,26.13,0,0,1,213.34,281.24Z" transform="translate(-94.28 -205.86)"/><path class="cls-4" d="M164.16,263.35l-.63-1A35.73,35.73,0,0,0,148.64,281l1.15.4A34.43,34.43,0,0,1,164.16,263.35Z" transform="translate(-94.28 -205.86)"/><path class="cls-4" d="M152.59,281.41l1.14.44a30.72,30.72,0,0,1,11.57-14.51l-.67-1A31.94,31.94,0,0,0,152.59,281.41Z" transform="translate(-94.28 -205.86)"/><path class="cls-4" d="M157.56,280.68l1.1.54a26.11,26.11,0,0,1,7.9-9.42l-.72-1A27.27,27.27,0,0,0,157.56,280.68Z" transform="translate(-94.28 -205.86)"/><polygon class="cls-4" points="33.89 124.9 33.83 124.94 34.88 126.64 41.95 122.27 42.01 122.24 40.95 120.53 33.89 124.9"/><polygon class="cls-4" points="37.84 114.56 36.98 112.78 29.5 116.39 29.44 116.42 30.25 118.1 35.07 115.78 31.87 121.37 31.85 121.41 32.68 123.13 40.16 119.52 40.22 119.49 39.41 117.81 34.71 120.08 37.82 114.59 37.84 114.56"/><path class="cls-4" d="M129.06,312.42a3.26,3.26,0,0,0-2.75-1.6,4.67,4.67,0,0,0-1.78.24,5.7,5.7,0,0,0-1.8.87,3.51,3.51,0,0,0-1,1.25,3.3,3.3,0,0,0-.33,1.59,7.35,7.35,0,0,0,.37,1.74l1,3.32,8-2.45-1-3.41A6.67,6.67,0,0,0,129.06,312.42Zm-5.43,5.05-.22-.73a8.87,8.87,0,0,1-.37-1.48,1.62,1.62,0,0,1,.7-1.61,4.58,4.58,0,0,1,1.32-.6,5.12,5.12,0,0,1,1.41-.26h.07a1.58,1.58,0,0,1,.86.22,1.71,1.71,0,0,1,.53.59,6.73,6.73,0,0,1,.4,1l.38,1.27Z" transform="translate(-94.28 -205.86)"/><polygon class="cls-4" points="34.1 102.99 33.72 101.02 25.57 102.6 25.5 102.61 25.88 104.58 34.03 103 34.1 102.99"/><path class="cls-4" d="M127.76,306.64l-.18-2.08v0l-1.93-.6-.3-3.58,1.75-.94,0,0-.19-2.17-8,4.45.18,2v0l8.55,2.89Zm-6.57-4.12,2.69-1.4.2,2.3Z" transform="translate(-94.28 -205.86)"/><polygon class="cls-4" points="32.74 90.98 32.87 89.11 27.66 88.77 33.08 85.53 33.11 85.51 33.24 83.54 24.95 82.99 24.89 82.98 24.76 84.85 30.09 85.2 24.55 88.49 24.52 88.51 24.39 90.42 32.68 90.97 32.74 90.98"/><path class="cls-4" d="M123.37,278a1.66,1.66,0,0,1,1.06-.36h.12l.13-1.94v-.08h-.08a3.17,3.17,0,0,0-1.75.51,4.17,4.17,0,0,0-1.64,2.43,4.4,4.4,0,0,0,.24,3.37,4.29,4.29,0,0,0,2.79,2.06,5.5,5.5,0,0,0,1.4.2,3.76,3.76,0,0,0,1.93-.51,4.32,4.32,0,0,0,1.93-2.64,4.38,4.38,0,0,0,0-2.58,3.69,3.69,0,0,0-1.58-1.91l-.06,0-1.06,1.72.07,0a2.26,2.26,0,0,1,1,1.06,1.93,1.93,0,0,1,.06,1.3A2.12,2.12,0,0,1,127,282a3.14,3.14,0,0,1-2.26,0,2.93,2.93,0,0,1-1.83-1.16,2.18,2.18,0,0,1-.17-1.73A2.08,2.08,0,0,1,123.37,278Z" transform="translate(-94.28 -205.86)"/><path class="cls-4" d="M132.67,272.62a4.65,4.65,0,0,0,.36-3.46,4.7,4.7,0,0,0-5.77-2.68,4.69,4.69,0,0,0-2.44,2.51,5.82,5.82,0,0,0-.55,2,3.65,3.65,0,0,0,.17,1.42,4,4,0,0,0,.67,1.28,4.88,4.88,0,0,0,1.76,1.29,4.71,4.71,0,0,0,2,.48,3.66,3.66,0,0,0,1.39-.27A4.68,4.68,0,0,0,132.67,272.62Zm-1.41-.65a2.48,2.48,0,0,1-1.39,1.33,3.45,3.45,0,0,1-3.77-1.74,2.48,2.48,0,0,1,.14-1.93,2.44,2.44,0,0,1,1.38-1.34,2.79,2.79,0,0,1,2.15.26,2.84,2.84,0,0,1,1.61,1.52A2.43,2.43,0,0,1,131.26,272Z" transform="translate(-94.28 -205.86)"/><path class="cls-4" d="M134.21,266.74a2.56,2.56,0,0,0,.39,0,3,3,0,0,0,1.22-.51,6,6,0,0,0,1.37-1.53A5.22,5.22,0,0,0,138,263a2.81,2.81,0,0,0,.05-1.31,2.26,2.26,0,0,0-.56-1.07,9.81,9.81,0,0,0-1.66-1.31l-3.65-2.46-1.11,1.66,3.83,2.59a8.42,8.42,0,0,1,1.1.84,1.07,1.07,0,0,1,.3.75,1.93,1.93,0,0,1-.42,1.11,2.07,2.07,0,0,1-.91.83,1.27,1.27,0,0,1-.94,0,7.81,7.81,0,0,1-1.16-.7l-3.76-2.53L128,263.1l3.7,2.5a9.44,9.44,0,0,0,1.85,1A2.17,2.17,0,0,0,134.21,266.74Z" transform="translate(-94.28 -205.86)"/><polygon class="cls-4" points="49.39 50.6 50.73 49.14 44.61 43.52 44.56 43.48 43.3 44.85 47.23 48.47 40.85 47.56 40.82 47.55 39.52 48.97 45.63 54.58 45.68 54.63 46.95 53.26 43.1 49.73 49.35 50.59 49.39 50.6"/><path class="cls-4" d="M146.38,252.75a4.42,4.42,0,0,0,2.78-1.05,4.49,4.49,0,0,0,1.52-2.09,3.64,3.64,0,0,0-.19-2.47l0-.06-1.8.76-.06,0,0,.06a2.31,2.31,0,0,1,.23,1.47,2,2,0,0,1-.71,1.09,2,2,0,0,1-1.63.5,3.15,3.15,0,0,1-1.85-1.31,3,3,0,0,1-.82-2,2.18,2.18,0,0,1,.86-1.51,2.1,2.1,0,0,1,1.17-.49A1.7,1.7,0,0,1,147,246l.06,0,1.28-1.58-.07,0a3.28,3.28,0,0,0-1.72-.6h-.08a4.21,4.21,0,0,0-2.67,1,4.42,4.42,0,0,0-1.74,2.89,4.28,4.28,0,0,0,1.09,3.29,4.1,4.1,0,0,0,2.89,1.66Z" transform="translate(-94.28 -205.86)"/><rect class="cls-4" x="150.58" y="240.43" width="2" height="8.37" transform="translate(-203.13 -83.66) rotate(-33.04)"/><polygon class="cls-4" points="61.53 40.96 67.39 37.87 66.71 36.58 66.68 36.52 62.58 38.68 59.45 32.74 59.41 32.69 57.71 33.59 57.65 33.62 61.49 40.9 61.53 40.96"/><path class="cls-4" d="M165.71,241a4.09,4.09,0,0,0,1.82.41,5.88,5.88,0,0,0,1.69-.27,4.64,4.64,0,0,0,2.82-2,4.1,4.1,0,0,0,.28-3.39,4.15,4.15,0,0,0-2.11-2.71,4.71,4.71,0,0,0-3.49-.15,6,6,0,0,0-1.84.89,3.93,3.93,0,0,0-.95,1.07,4.07,4.07,0,0,0-.5,1.36,4.81,4.81,0,0,0,.2,2.17h0A4.08,4.08,0,0,0,165.71,241Zm-.07-5.48a2.75,2.75,0,0,1,3.46-1,3.54,3.54,0,0,1,1.17,4,2.64,2.64,0,0,1-3.42,1,2.81,2.81,0,0,1-1.27-1.78A2.89,2.89,0,0,1,165.64,235.55Z" transform="translate(-94.28 -205.86)"/><polygon class="cls-4" points="85.51 26.09 85.3 24.65 85.29 24.58 78.97 25.51 78.9 25.52 80.11 33.73 80.12 33.8 82.03 33.52 82.1 33.51 81.59 30.05 85.33 29.5 85.4 29.49 85.18 28.04 85.17 27.97 81.36 28.53 81.1 26.74 85.44 26.1 85.51 26.09"/><polygon class="cls-4" points="91.18 24.2 90.72 32.49 90.71 32.56 92.51 32.67 92.58 32.67 92.92 26.63 94.26 32.72 94.28 32.77 96.12 32.87 96.17 32.87 98.22 26.93 97.88 32.9 97.88 32.97 99.67 33.07 99.74 33.08 100.21 24.79 100.22 24.72 97.36 24.55 97.31 24.55 95.4 29.89 94.1 24.42 94.09 24.37 91.25 24.21 91.18 24.2"/><polygon class="cls-4" points="107.95 34.83 108.25 33.4 108.27 33.34 103.23 32.25 103.67 30.2 108.13 31.16 108.2 31.17 108.5 29.75 108.52 29.68 103.99 28.7 104.35 27.05 109.15 28.09 109.21 28.1 109.52 26.67 109.53 26.6 102.78 25.15 102.71 25.14 100.97 33.26 100.95 33.32 107.88 34.81 107.95 34.83"/><path class="cls-4" d="M212.37,237.89a3.68,3.68,0,0,0-.37-1.59,3.34,3.34,0,0,0-1.06-1.22,7.42,7.42,0,0,0-1.61-.76l-3.19-1.19-.06,0-2.89,7.78,0,.07,3.35,1.24a6.22,6.22,0,0,0,1.63.41l.37,0a3.11,3.11,0,0,0,1.11-.18,3.62,3.62,0,0,0,1.46-1,5.09,5.09,0,0,0,.89-1.57A5.65,5.65,0,0,0,212.37,237.89Zm-2.31,1.17a5.06,5.06,0,0,1-.69,1.33,1.67,1.67,0,0,1-.7.55,1.7,1.7,0,0,1-.79.06,5.58,5.58,0,0,1-1.07-.32l-1.24-.46,1.85-5,.72.27a9,9,0,0,1,1.39.6,1.72,1.72,0,0,1,.65.63,1.81,1.81,0,0,1,.21.9A4.37,4.37,0,0,1,210.06,239.06Z" transform="translate(-94.28 -205.86)"/><polygon class="cls-4" points="118.92 39.27 122.6 31.82 122.63 31.76 120.9 30.9 120.83 30.87 117.16 38.32 117.13 38.38 118.86 39.24 118.92 39.27"/><path class="cls-4" d="M217.62,247.83a4.46,4.46,0,0,0,2.34.76h.12a3.72,3.72,0,0,0,2.28-1l0-.05-1.35-1.5-.05.05a2.32,2.32,0,0,1-1.32.7,1.93,1.93,0,0,1-1.26-.32,2.06,2.06,0,0,1-1-1.38,3.12,3.12,0,0,1,.64-2.17,2.94,2.94,0,0,1,1.63-1.43,2.14,2.14,0,0,1,1.7.32,2,2,0,0,1,.85.95,1.68,1.68,0,0,1,0,1.17l0,.07,1.9.69,0-.07a3.25,3.25,0,0,0,0-1.83,4.19,4.19,0,0,0-1.89-2.25,4.35,4.35,0,0,0-3.3-.71,4.29,4.29,0,0,0-2.75,2.1,4.1,4.1,0,0,0-.63,3.28A4.27,4.27,0,0,0,217.62,247.83Z" transform="translate(-94.28 -205.86)"/><path class="cls-4" d="M226.58,254.51l1.65,1.41,2.6-8.75v0l-1.53-1.32,0,0-8.13,3.93-.1,0,1.62,1.38,1.79-.92,2.73,2.34-.59,1.9Zm-.65-5,2.7-1.38-.94,2.89Z" transform="translate(-94.28 -205.86)"/><polygon class="cls-4" points="134.22 50.39 134.17 50.43 138.52 55.35 138.57 55.4 139.66 54.43 139.71 54.39 136.64 50.92 141.66 46.47 141.72 46.43 140.39 44.93 134.22 50.39"/><path class="cls-4" d="M244.35,263.53l-2-3.44-7.15,4.23-.06,0,1,1.73,3-1.75.16.26a3.53,3.53,0,0,1,.39.84,1.45,1.45,0,0,1,0,.62,14.71,14.71,0,0,1-.54,1.45l-.86,2.07v0l1.15,1.95.07.12.86-1.91a9.8,9.8,0,0,0,.62-1.61,4,4,0,0,0,.09-1,3,3,0,0,0,1.49,1.05,2.14,2.14,0,0,0,1.68-.26,2.3,2.3,0,0,0,.94-1,2.15,2.15,0,0,0,.14-1.37A7.34,7.34,0,0,0,244.35,263.53Zm-.89,2.16a.8.8,0,0,1-.42.51.92.92,0,0,1-.58.14,1,1,0,0,1-.53-.25,9.15,9.15,0,0,1-.92-1.38l-.67-1.12,1.68-1,.7,1.19c.47.79.63,1.08.67,1.17A1.12,1.12,0,0,1,243.46,265.69Z" transform="translate(-94.28 -205.86)"/><polygon class="cls-4" points="152.98 62.98 145.29 66.12 145.23 66.15 147.9 72.71 147.93 72.77 149.28 72.22 149.34 72.19 147.39 67.42 149.34 66.63 151.06 70.85 151.09 70.92 152.44 70.36 152.5 70.34 150.75 66.05 152.31 65.41 154.17 69.96 154.2 70.02 155.55 69.47 155.61 69.44 153 63.05 152.98 62.98"/><path class="cls-4" d="M250.82,279a2.51,2.51,0,0,0-1.12-.94,2.06,2.06,0,0,0-2.72,1.17,5.32,5.32,0,0,0-.29,2.26c0,.75,0,1.29,0,1.53a1.41,1.41,0,0,1-.18.7.59.59,0,0,1-.39.28.9.9,0,0,1-.82-.24,2.16,2.16,0,0,1-.64-1.19,2.14,2.14,0,0,1,0-1.36,1.87,1.87,0,0,1,1-.9l.05,0-.61-1.78,0-.07-.07,0a3.06,3.06,0,0,0-1.81,1.63,4.46,4.46,0,0,0,0,2.83,5.84,5.84,0,0,0,.79,1.89,2.65,2.65,0,0,0,1.23,1,2.32,2.32,0,0,0,.89.18,2.5,2.5,0,0,0,.54-.07,2.34,2.34,0,0,0,1.22-.7,2.53,2.53,0,0,0,.58-1.22,10.5,10.5,0,0,0,.09-2.11,5.15,5.15,0,0,1,.11-1.77.56.56,0,0,1,.37-.35.53.53,0,0,1,.5.15,2.27,2.27,0,0,1,.58,1.13,2,2,0,0,1,0,1.17,1.3,1.3,0,0,1-.72.68l-.06,0,.56,1.91H250a2.4,2.4,0,0,0,1.58-1.38,4.27,4.27,0,0,0,0-2.74A5,5,0,0,0,250.82,279Z" transform="translate(-94.28 -205.86)"/><polygon class="cls-4" points="158.44 80.83 158.44 80.76 150.18 81.63 150.11 81.63 150.85 88.68 150.85 88.74 152.37 88.59 151.83 83.46 153.93 83.24 154.4 87.78 154.41 87.85 155.93 87.69 155.44 83.08 157.12 82.91 157.63 87.79 157.64 87.86 159.16 87.7 158.44 80.83"/><path class="cls-4" d="M253.33,300.67l.09-2.05-8.12-4-.1,0-.08,2.12,1.83.84-.15,3.59-1.86.71,0,0-.09,2.07v.1l8.48-3.38Zm-5-.09.1-2.31,2.76,1.26Z" transform="translate(-94.28 -205.86)"/><path class="cls-4" d="M247.36,308.22a1.43,1.43,0,0,1-.43.46,11,11,0,0,1-1.36.72l-2,1,0,0-.44,2.22,0,.13,1.91-.85a9.22,9.22,0,0,0,1.53-.79,4,4,0,0,0,.75-.69,3.06,3.06,0,0,0,.41,1.77,2.15,2.15,0,0,0,1.43.92,2.7,2.7,0,0,0,.48,0,2.19,2.19,0,0,0,.91-.2,2.09,2.09,0,0,0,1-.93,7.57,7.57,0,0,0,.64-2.08l.76-3.85V306l-8.14-1.61h-.07l-.38,1.89v.07l3.37.66-.06.31A3.8,3.8,0,0,1,247.36,308.22Zm1.5.38.25-1.29,1.91.38-.27,1.36c-.14.74-.24,1.18-.28,1.32a1.13,1.13,0,0,1-.43.59.84.84,0,0,1-.65.1.88.88,0,0,1-.53-.28.92.92,0,0,1-.23-.54A7.43,7.43,0,0,1,248.86,308.6Z" transform="translate(-94.28 -205.86)"/><path class="cls-4" d="M249.51,319.77a4.43,4.43,0,0,0,0-3.38,4.27,4.27,0,0,0-2.63-2.24,4.11,4.11,0,0,0-3.34.06,4.81,4.81,0,0,0-2.34,5.06,3.72,3.72,0,0,0,1.43,2l.06,0,1.14-1.58,0-.06-.06,0a2.31,2.31,0,0,1-1-1.14,2,2,0,0,1,0-1.3A2.13,2.13,0,0,1,244,316a3.14,3.14,0,0,1,2.25.17,2.94,2.94,0,0,1,1.75,1.3,2.16,2.16,0,0,1,0,1.73,2,2,0,0,1-.75,1,1.69,1.69,0,0,1-1.14.29h-.06l-.28,2h.26a3.21,3.21,0,0,0,1.6-.38A4.24,4.24,0,0,0,249.51,319.77Z" transform="translate(-94.28 -205.86)"/><polygon class="cls-4" points="145.51 115.45 144.58 117.14 144.55 117.2 147.71 118.93 146.02 122.01 142.92 120.31 142.86 120.28 141.93 121.97 141.9 122.03 149.18 126.02 149.25 126.06 150.17 124.36 150.2 124.3 147.36 122.75 149.05 119.67 151.83 121.19 151.89 121.22 152.82 119.53 152.85 119.47 145.57 115.48 145.51 115.45"/><path class="cls-4" d="M226.45,305.86c-1.38-2-5.24-2.52-11.48-1.66a2.14,2.14,0,0,0-.36.07h-.45v.11c-1.38.37-4,1.4-3.91,3.74a.83.83,0,0,0,0,.15v4.34a66,66,0,0,1-47.34.25v-4.59s0-.1,0-.15c.15-2.5-2.9-3.5-4.19-3.81v-.06h-.22l-.32-.07c-6.23-.85-10.08-.29-11.47,1.67a3.32,3.32,0,0,0-.23,3.2l4.72,18.12a.71.71,0,0,0,.69.54h2.37a.72.72,0,0,0,.72-.73v-1.32h1.39v3.85a1.32,1.32,0,0,0,.84,1.24,76.22,76.22,0,0,0,29.17,5.79,73.57,73.57,0,0,0,29.19-5.79,1.35,1.35,0,0,0,.77-1.22v-3.87h1.8V327a.72.72,0,0,0,.21.52.74.74,0,0,0,.51.21h2.36a.72.72,0,0,0,.7-.54l4.71-18.12A3.29,3.29,0,0,0,226.45,305.86Zm-78.48.82c.45-.63,1.76-1.49,5.55-1.44a.69.69,0,0,0-.05.13,4.1,4.1,0,0,1-2,2.78,5.25,5.25,0,0,1-3.67.09A1.75,1.75,0,0,1,148,306.68Zm4.55,19.6-4.27-16.44a6.2,6.2,0,0,0,3.83-.39,4.53,4.53,0,0,0,1.38-1l.14,17.86Zm61.67-20.4.05,3.32a7.5,7.5,0,0,0-2.51-1,.93.93,0,0,1,0-.13C211.62,306.87,213.13,306.2,214.19,305.88ZM161.54,308s0,.08,0,.13a7.31,7.31,0,0,0-2.64,1.11l-.05-3.48C160,306.13,161.61,306.86,161.54,308Zm-4.11,2.74a1.4,1.4,0,0,0-.35.1,1.34,1.34,0,0,0-.65,1.15v12.2H155l-.14-18.68a.7.7,0,0,0,0-.25c.76,0,1.61.12,2.54.23l.08,5.22Zm.45,18.74,0-17.34c4.73,2.43,28.32,13.05,57.13.07l.06,17.19C212.27,330.72,187.26,341.54,157.88,329.52Zm60.47-24-.14,18.68h-1.43l-.06-11.94a.72.72,0,0,0-.43-.65,1.2,1.2,0,0,0-.25-.42,4.65,4.65,0,0,0-.34-.58l-.08-5.08c1-.13,2-.21,2.78-.26A1,1,0,0,0,218.35,305.55Zm2.36,20.73h-1.08l.14-17.86a4.79,4.79,0,0,0,1.38,1,6.23,6.23,0,0,0,3.84.39Zm4.74-18a5.2,5.2,0,0,1-3.67-.09,4.07,4.07,0,0,1-2-2.78.45.45,0,0,0-.06-.12c3.79-.05,5.11.81,5.55,1.43A1.75,1.75,0,0,1,225.45,308.24Z" transform="translate(-94.28 -205.86)"/><path class="cls-4" d="M167.06,321.54l.31.1.27,0a.9.9,0,0,0,.3-.05l-.39,1.35.74.21,1.06-3.66c.72.21,1.51.41,2.36.62l-.22.88a.6.6,0,0,1-.1.23.34.34,0,0,1-.26.17l-.16,0a.44.44,0,0,1-.25-.27l-.19-.63-.32-.08-.38.16.09.33.1.33.14.43.16.43a12.42,12.42,0,0,0,.52,1.22,1.84,1.84,0,0,0,.35.53l.32.08.36-.2-.14-.22-.3-.55-.16-.34-.35-.91.26.07a.85.85,0,0,0,.64-.07.74.74,0,0,0,.41-.51l.22-.93,1,.21-.75,3.7.74.15.75-3.7.56.11a1.09,1.09,0,0,1,.23-.33l-.75-.15-.23-.67-.16-.41a2.61,2.61,0,0,0-.49-.78,1,1,0,0,0-.57-.34l-.32-.05a.9.9,0,0,0-.4,0,1,1,0,0,0-.63.49,1,1,0,0,0-.15.38l0,.19,0,.19,0,.17.1.21a51.78,51.78,0,0,1-5.58-1.71l-.13.35,1,.35-.41,1.44a1.16,1.16,0,0,0-.05.45,1.59,1.59,0,0,0,.13.42A1.19,1.19,0,0,0,167.06,321.54Zm5-2.52a1.27,1.27,0,0,1,0-.15l.08-.15a.64.64,0,0,1,.13-.15l.12-.1.14,0a1.5,1.5,0,0,1,.44.53,3.11,3.11,0,0,1,.5,1.21l-1.27-.28-.08-.18-.07-.22c0-.12,0-.21,0-.27A.69.69,0,0,1,172,319ZM167,320.39l.42-1.46,1.22.38-.47,1.63-.18.13-.13.08a1.67,1.67,0,0,1-.29.1l-.12,0h-.13l-.14-.1-.11-.14A.68.68,0,0,1,167,320.39Z" transform="translate(-94.28 -205.86)"/><path class="cls-4" d="M205.75,326l-.12-.34a39.22,39.22,0,0,1-3.77,1.09l-.21-.14-.28-.2-.67-.38a4.2,4.2,0,0,0-1.43-.5,1.93,1.93,0,0,0-.67,0l-.32.07a1.21,1.21,0,0,0-1.05.95,1,1,0,0,0,0,.48l0,.13.08.21.09.19.08.08a67.2,67.2,0,0,1-7.22.75l.17.36,1-.06h.12l.13,1.55-1.35.06,0-1.11a.65.65,0,0,0-.25-.52.83.83,0,0,0-.57-.17l-.33,0a1,1,0,0,0-.58.22.63.63,0,0,0-.21.58v.11l0,.11v.05l0,0h.73l0-.07,0-.06,0-.12v-.12l0-.17.09-.13.06,0,.07,0,.1.06a.31.31,0,0,1,.09.12.4.4,0,0,1,0,.13l.05,1.15-.49,0-.06,0-.07.05-.07.06,0,.07a.7.7,0,0,0,.12.22l.33.35a1.9,1.9,0,0,0,.37.31.32.32,0,0,0,.22.09h.33l.08,0,.06-.06v0l0-.75,1.36-.06.16,2,.76-.06-.32-3.9h.08c1.06-.08,2.09-.2,3.11-.33l.1.78a1.69,1.69,0,0,0-1.42.14l0,0-.06,0a1.8,1.8,0,0,0-.25.27,1.2,1.2,0,0,0-.21.85.92.92,0,0,0,.15.43,1.19,1.19,0,0,0,.34.33l.16.09a1.7,1.7,0,0,0,1.51-.08l0,0v0h0l.14,1,.76-.1-.51-3.84,1.25-.19.68,3.78.75-.13-.68-3.77a49.27,49.27,0,0,0,5.9-1.36l.19.68-1.73.49-.15,0-.14.1a.77.77,0,0,0-.14.25l-2,.45-.32.07-.09,0-.07,0a.25.25,0,0,0-.07.26,1.61,1.61,0,0,0,.28.32.78.78,0,0,0,.19.14l.36.24a.32.32,0,0,0,.19.05l.33-.07.11,0a.09.09,0,0,0,0-.08v-.08l-.16-.71,1.2-.26a1.34,1.34,0,0,0,0,.28,2.34,2.34,0,0,0,.62,1l.17.16.19.16.42.27.28.15.1,0h0l.32-.09.2-.36c-.18.05-.5-.13-1-.55a1.5,1.5,0,0,1-.22-.22,2.09,2.09,0,0,1-.41-.76l0-.21a.4.4,0,0,1,.19-.34.9.9,0,0,1,.24-.12l1.16-.32.72,2.63.74-.2-1-3.68Zm-11.06,4.75a.92.92,0,0,1-.26-.56.77.77,0,0,1,0-.3,1,1,0,0,1,.1-.27.67.67,0,0,1,.11-.15.46.46,0,0,1,.21-.1h0a1.72,1.72,0,0,1,.79,0l0,.09h0l0,.19h0l.1.73C195.3,331.14,194.82,330.83,194.69,330.73Zm3.52-3.24-.06-.09-.08-.14-.07-.18,0-.16a1.59,1.59,0,0,1,0-.39.74.74,0,0,1,.32-.51.46.46,0,0,1,.22-.13,2.54,2.54,0,0,1,.5.05,2.83,2.83,0,0,1,.53.15l.54.24.22.1.1.06.23.14.23.16.21.13C200.13,327.13,199.19,327.32,198.21,327.49Z" transform="translate(-94.28 -205.86)"/><path class="cls-4" d="M206.39,318c-.42.15-.9.33-1.42.5l-.19-.11-.69-.34a4.32,4.32,0,0,0-1.46-.43,1.79,1.79,0,0,0-.67,0l-.31.08a1.18,1.18,0,0,0-1,1,1,1,0,0,0,0,.48l0,.12.1.21.07.13-1.24.3-2-1.57-.32.07-.21.37,1.91,1.26c-1.65.35-3.49.67-5.5.9l0,0-.25-.23-.62-.47a4.21,4.21,0,0,0-1.35-.69,1.74,1.74,0,0,0-.66-.11l-.33,0a1.19,1.19,0,0,0-1.16.8,1,1,0,0,0-.06.47v.14l.06.22.06.2,0,.05c-1,0-2,.08-3.11.08a62.45,62.45,0,0,1-9.12-.67,1,1,0,0,1,.12.39l1.27.16.11.19a1.14,1.14,0,0,1,.14.59.71.71,0,0,1-.26.52l-.17.08-.18,0h0l-.08,0,0,0h0l.07-.38-.33,0-.13.06-.16,0-.25,0h-.19a.94.94,0,0,1-.22,0l-.19-.05-.18-.06-.07,0-.07-.05.19-.08.14-.09.15-.11a.83.83,0,0,0,.22-.41.65.65,0,0,0,0-.34.78.78,0,0,0-.44-.47.6.6,0,0,0-.33-.12l-.32-.05a1.79,1.79,0,0,0-.32,0,.76.76,0,0,0-.32.11.65.65,0,0,0-.33.49v.25a2,2,0,0,0,.07.26l.12.27a1.07,1.07,0,0,0,.14.16l-.24.11-.17.1a1.62,1.62,0,0,0-.33.29.7.7,0,0,0-.15.34,1.19,1.19,0,0,0,0,.46,1.22,1.22,0,0,0,.18.38,1,1,0,0,0,.33.28,2.31,2.31,0,0,0,.46.14l.32.07h.1l0,.07v0l0,.08.08.19.14.19.06.06.33.06.39-.19-.15-.15-.1-.12-.1-.15-.06-.17.14,0a.2.2,0,0,0,.11-.06l.08-.1,0-.13v-.17l-.06-.15a.51.51,0,0,0-.12-.13.34.34,0,0,0-.16-.06l-.33,0h-.16a.22.22,0,0,0-.12.06l-.1.11-.06.19,0,.13v0h0l-.19-.06-.14-.1a.63.63,0,0,1-.18-.24.72.72,0,0,1,0-.36.76.76,0,0,1,.4-.56l.1-.05.09-.06.11.06.47.17.3.07.33.06.31.05h.26l.19,0a1.41,1.41,0,0,0,.34,1,1.5,1.5,0,0,0,.44.35,1.84,1.84,0,0,0,.59.16l.33.05h.35a1.59,1.59,0,0,0,.33-.09l-.12,1,.76.09.44-3.81c.91.08,1.84.14,2.81.17l-.08,2a.54.54,0,0,1-.2.33l-.11.1-.17.11a.5.5,0,0,1-.16.05l-.2-.08-.15-.15a1,1,0,0,1-.16-.56.82.82,0,0,1,.23-.56.71.71,0,0,1,.37-.23l0,0,.05,0,0,0,.08,0,.33,0,0-.35-.17-.06-.14-.05H183a.79.79,0,0,0-.23,0,1.11,1.11,0,0,0-.59.28,1,1,0,0,0-.36.77,1.07,1.07,0,0,0,.06.45,1,1,0,0,0,.27.38,1.24,1.24,0,0,0,.81.34l.32,0h.23l.21-.07,0,1,.75,0,.08-1.75a.73.73,0,0,1,.07-.31,1.48,1.48,0,0,1,.21-.32.81.81,0,0,1,.47-.32l.16.07a.72.72,0,0,1,.2.22,1.07,1.07,0,0,1,.06.4,1.51,1.51,0,0,1-.4.84c-.18.23-.3.35-.35.36l-.05,0,.34.27.33,0,.26-.26.18-.21a1.61,1.61,0,0,0,.47-1,1.11,1.11,0,0,0-.07-.43,1,1,0,0,0-.57-.58,1,1,0,0,0-.44-.11h-.49l-.17,0-.16.07,0-.91c.51,0,1,0,1.52,0h1.25l.06,3.87.76,0-.06-3.87,1.1-.05.18,3.89.76,0L190,321.7c.85-.05,1.67-.12,2.48-.2l.08,1.05a.52.52,0,0,1,0,.25.39.39,0,0,1-.19.25l-.15.06a.4.4,0,0,1-.31-.17l-.39-.55-.33,0-.31.27.19.29.2.27.27.38.28.35a12.43,12.43,0,0,0,.89,1,1.72,1.72,0,0,0,.49.4l.33,0,.28-.3-.2-.16-.46-.43-.26-.27-.62-.75.27,0a.89.89,0,0,0,.59-.27.73.73,0,0,0,.22-.62l-.09-1.1,1-.11.2,1.49a1,1,0,0,0,.13.38,1,1,0,0,0,.61.45,1.39,1.39,0,0,0,.41,0l.33,0a.89.89,0,0,0,.67-.39.92.92,0,0,0,.17-.6,1.49,1.49,0,0,0,0-.17l-.22-1.47.74-.13.68,3.89.76-.13-.68-3.84,0-.07,1-.21.8,3.89.75-.15-.81-3.9L201,320l.93,3.88.75-.18-.94-3.89c1.08-.29,2-.58,2.9-.85l.24.83-1.66.49-.14.06-.1.1a.39.39,0,0,0,0,.14v.15s.05.09.08.14.06.1.07.13a3.09,3.09,0,0,0,.31.28l.14.1.22.13-.14.24a1.22,1.22,0,0,0-.1.24.86.86,0,0,0,0,.42c.15.49.59.75,1.34.78l.44,0a2.47,2.47,0,0,0,.54-.05c.07,0,.12-.05.13-.08l.32-.09.06-.34a.14.14,0,0,1-.07,0l-.19,0-.71,0a1.51,1.51,0,0,1-.75-.13.6.6,0,0,1-.34-.38.71.71,0,0,1,.29-.85.5.5,0,0,1,.14-.1l.18-.06.25,0h.2a.46.46,0,0,1,.33.34.53.53,0,0,1-.06.35v0l0,0,0,0,0,0,.38.14.31-.08.05-.06.13-.17a.51.51,0,0,0,0-.51.85.85,0,0,0-.18-.34.93.93,0,0,0-.72-.22,1.25,1.25,0,0,0-.5.08l-.32.1-.17.07-.23.1,0,0-.05,0-.13-.09L204,321l-.05,0a.29.29,0,0,1-.15-.14l-.07-.12v-.08a.16.16,0,0,1,.09-.07l1.88-.54-.35-1.2,1.16-.42Zm-30.58,3.83h0l0,0,0,0v0l0,0v0a.73.73,0,0,1-.1-.51l.06-.17a.25.25,0,0,1,.12-.11l.08,0,.08,0,.11.07,0,0,0,0a.37.37,0,0,1,.09.32A.64.64,0,0,1,175.81,321.83Zm4.25,1.66-.21.23-.12.1-.15.09-.24.09a.75.75,0,0,1-.25,0,1.07,1.07,0,0,1-.67-.66l0-.05v-.07l0-.07v-.09l.28,0,.22-.06a.94.94,0,0,0,.57-.77l0-.26-.09-.33-.05-.13,0-.06,1.05.09Zm9.89-2.15,0,0-.06-.16-.05-.18v-.17a1.16,1.16,0,0,1,0-.39.78.78,0,0,1,.38-.46.55.55,0,0,1,.23-.1,3.51,3.51,0,0,1,.5.12,3,3,0,0,1,.5.22l.5.31a1.53,1.53,0,0,1,.21.13l.09.07.21.17.2.19.06.05C191.84,321.2,190.91,321.28,190,321.34Zm6,1.73a.36.36,0,0,1-.26.23l-.15-.05-.12-.1a.71.71,0,0,1-.21-.46l-.2-1.49.8-.11.19,1.46v.28C195.94,322.91,195.92,323,195.9,323.07Zm5.68-3.56,0-.07-.08-.18-.05-.16a1.1,1.1,0,0,1,0-.38.74.74,0,0,1,.28-.53.7.7,0,0,1,.21-.14,3.12,3.12,0,0,1,.51,0,2.8,2.8,0,0,1,.53.12l.56.21a1,1,0,0,1,.22.09l.11.05a1.71,1.71,0,0,1,.23.13l.15.09C203.41,319,202.54,319.26,201.58,319.51Z" transform="translate(-94.28 -205.86)"/><path class="cls-4" d="M171,331a.72.72,0,0,0-.33-.15l-.32-.06a1.22,1.22,0,0,0-.33,0,1.25,1.25,0,0,0-.36.05l-.24.07-.11.07.25.35.32.07.22-.13a.27.27,0,0,1,.14-.05l.13,0,.09.08.06.09.09.19a1.79,1.79,0,0,1,0,.21.57.57,0,0,1-.12.26.75.75,0,0,1-.5.23,1.09,1.09,0,0,1-.26,0,3,3,0,0,1-.59-.38l-.21-.18-.19-.21-.24-.28-.32-.07-.36.28a1.53,1.53,0,0,0,.29.32l.22.2.29.22a2.47,2.47,0,0,0,.85.42l.33.07a1.75,1.75,0,0,0,.47,0,1,1,0,0,0,1.06-.75,1.15,1.15,0,0,0,0-.37A.75.75,0,0,0,171,331Z" transform="translate(-94.28 -205.86)"/><path class="cls-4" d="M166.54,326c.78.27,1.61.52,2.46.75l-.45,1.66c0,.1-.11.19-.26.28l-.13.07-.19.07a.31.31,0,0,1-.17,0,.52.52,0,0,1-.17-.12l-.12-.17a1,1,0,0,1,0-.58.86.86,0,0,1,.34-.51.7.7,0,0,1,.41-.13l.05,0,0,0,0,0,.07,0,.32.09.09-.34-.14-.09-.14-.08-.12,0-.32-.07a.7.7,0,0,0-.23,0,1.31,1.31,0,0,0-.63.14,1,1,0,0,0-.53.68,1.47,1.47,0,0,0,0,.45,1,1,0,0,0,.18.43,1.19,1.19,0,0,0,.71.51l.32.1.22,0a.9.9,0,0,0,.22,0l-.26,1,.73.2.46-1.7a1,1,0,0,1,.13-.29,1.63,1.63,0,0,1,.28-.26.84.84,0,0,1,.53-.21l.14.11a.66.66,0,0,1,.15.25,1.24,1.24,0,0,1,0,.41,1.51,1.51,0,0,1-.58.73,1.78,1.78,0,0,1-.42.28h-.05l.27.34.31.09.31-.19.23-.17a1.63,1.63,0,0,0,.68-.86,1.17,1.17,0,0,0,0-.42,1.08,1.08,0,0,0-.43-.7.94.94,0,0,0-.4-.2l-.32-.08-.16,0h-.18l-.17,0,.16-.61c1.13.3,2.31.56,3.54.79a.71.71,0,0,0-.31.79,1,1,0,0,0,.16.34.91.91,0,0,0,.6.36l.32.07.2,0,.22-.05s0,0,0,0v0l0,0,0,0-.17.2-.23.16-.29.12a1.66,1.66,0,0,1-.28.05h-.18l-.22-.26-.32-.07-.34.23,1.61,2,.32.06.34-.22-1.12-1.38a1.52,1.52,0,0,0,.6,0,1.54,1.54,0,0,0,.95-.67,1.39,1.39,0,0,0,.22-.53l0-.26,0-.27-.09-.25a1.09,1.09,0,0,0-.14-.29c.43.07.86.12,1.3.18l-.62,3.92.75.11.62-3.93c1.44.18,2.93.31,4.44.4l-.13,1.27h-.19l-.21,0-.19.05-.11.05-.12.06-.06-.07-.1-.07a1.06,1.06,0,0,0-.35-.22.93.93,0,0,0-.4-.11l-.33,0a1.28,1.28,0,0,0-.9.24,1,1,0,0,0-.42.77,1.59,1.59,0,0,0,.39,1.15c.4.52.74.79,1,.82l.33,0,.24-.32-.4-.24-.27-.2a1.6,1.6,0,0,1-.47-.56,1,1,0,0,1-.12-.58.71.71,0,0,1,.08-.28l.08-.13.12-.14a.65.65,0,0,1,.39-.18l.18.08.19.1a1.09,1.09,0,0,1,.22.18.35.35,0,0,1,.11.14l-.07.12-.16.22-.08.12,0,.09.33.23.32.05.09-.19.15-.22.14-.18.15-.15.19-.13.2-.1-.24,2.38.75.08.42-4.13,1.29.05-.19,4.14.76,0,.19-4.15,1.12,0v-.37a60.87,60.87,0,0,1-18.79-2.82Zm7.18,2.3.06-.18a.47.47,0,0,1,.14-.14.24.24,0,0,1,.11-.06l.13,0a.72.72,0,0,1,.32.37.27.27,0,0,1,0,.14l0,.18-.11.11-.08.08-.19.1-.19,0-.12-.07-.09-.12A.51.51,0,0,1,173.72,328.29Z" transform="translate(-94.28 -205.86)"/><path class="cls-4" d="M167,308.2a1,1,0,0,0,.54.16,1.17,1.17,0,0,0,.75-.29h.06l-.23.33a.72.72,0,0,0-.14.6.75.75,0,0,0,.15.24,1,1,0,0,0,0,.35,1,1,0,0,0,.56.62,1.33,1.33,0,0,0,.49.09,1.5,1.5,0,0,0,.79-.25,1,1,0,0,0,.17,0,.93.93,0,0,0,.69-.35l-.07.16a.85.85,0,0,0,0,.7.7.7,0,0,0,.32.34,1.61,1.61,0,0,0,.08.38,1.38,1.38,0,0,0,.83.74,1.59,1.59,0,0,0,.48.07,1.56,1.56,0,0,0,1-.4h.07a.91.91,0,0,0,.64-.31.94.94,0,0,0,.14.55.84.84,0,0,0,.23.23,1.36,1.36,0,0,0,.22.73,1.54,1.54,0,0,0,1.06.69,1.42,1.42,0,0,0,.29,0,1.8,1.8,0,0,0,1.52-.85.86.86,0,0,0,.36-.08,1.28,1.28,0,0,0,.21.48,1.14,1.14,0,0,0,.51.35,2,2,0,0,0,.3.6,2.13,2.13,0,0,0,1.56.78h.17a2.39,2.39,0,0,0,2-1.09,1.38,1.38,0,0,0,.59-.23,1.17,1.17,0,0,0,.24.38,1.3,1.3,0,0,0,.79.37,1.88,1.88,0,0,0,.27.42,2.32,2.32,0,0,0,3.28,0,2.09,2.09,0,0,0,.29-.44,1.27,1.27,0,0,0,.69-.35,1.43,1.43,0,0,0,.3-.48,1.4,1.4,0,0,0,.61.22,2.38,2.38,0,0,0,2.1,1.2h0a2.16,2.16,0,0,0,1.61-.71,1.72,1.72,0,0,0,.37-.69,1,1,0,0,0,.35-.25,1.15,1.15,0,0,0,.24-.48,1,1,0,0,0,.39.11,1.77,1.77,0,0,0,1.6,1.05l.21,0a1.59,1.59,0,0,0,1.12-.64,1.54,1.54,0,0,0,.26-.88,1.45,1.45,0,0,0,.18-.17,1,1,0,0,0,.17-.55.93.93,0,0,0,.67.35h0a1.59,1.59,0,0,0,1.13.49,2,2,0,0,0,.41-.05,1.37,1.37,0,0,0,.88-.71,1.26,1.26,0,0,0,.12-.42.8.8,0,0,0,.32-.31.85.85,0,0,0,0-.7l-.07-.18a.94.94,0,0,0,.73.4.64.64,0,0,0,.24,0h0a1.57,1.57,0,0,0,.89.33,1.25,1.25,0,0,0,.43-.07,1,1,0,0,0,.61-.6,1.1,1.1,0,0,0,0-.54.33.33,0,0,0,0-.06.69.69,0,0,0-.1-.6l-.22-.34h0l.05,0a1.15,1.15,0,0,0,.79.33,1,1,0,0,0,.51-.13.75.75,0,0,0,.37-.54.78.78,0,0,0-.18-.59s.05,0,.06-.08a.58.58,0,0,0-.16-.46l-.76-.81a.92.92,0,0,0,.26-.57c0-.49-.5-1-1.38-1.37a46.15,46.15,0,0,0-11.07-1.71l-1.64-8.82a3.3,3.3,0,0,0,1.56-1.14,6.57,6.57,0,0,0,.91-4.25h.15a3,3,0,0,0,2.43-1c1.61-2,0-6.14-.15-6.61l-.26-.64-.55.4c-3.62,2.6-3.48,5.34-3.11,6.69a5.06,5.06,0,0,0-1.79.53l-.65-7.88a1.51,1.51,0,0,0-.49-1,3.27,3.27,0,0,0,.46-.45l.25-.18a11.57,11.57,0,0,0,4-10.58l-.15-1.23-.92.84a32.1,32.1,0,0,0-3.62,4L189.4,265a1.16,1.16,0,0,0-.49-.92,3.24,3.24,0,0,0-.36-.2,2.08,2.08,0,0,0,.89-1.06,2.22,2.22,0,0,0,1.43-.56c1.8-1.6,1-6,.9-6.47l-.17-.86-.74.48a8.15,8.15,0,0,0-2.3,2.21,12.43,12.43,0,0,0-2.09-4.55l-.45-.6-.48.58a9.24,9.24,0,0,0-2.35,4.63,8,8,0,0,0-2.35-2.27l-.73-.48-.17.86c-.1.5-.91,4.87.89,6.47a2.17,2.17,0,0,0,1.22.52,2,2,0,0,0,.82,1.05,7.43,7.43,0,0,0-.64.43c-.26.1-.44.4-.65,6.67A30.48,30.48,0,0,0,178,267l-.91-.85-.16,1.24A11.61,11.61,0,0,0,181,278l.21.16a2.91,2.91,0,0,0,.65.72,3.31,3.31,0,0,0-.32.3c-.32.16-.59.92-1.11,8.43a4.92,4.92,0,0,0-2-.64c.37-1.35.51-4.09-3.1-6.69l-.56-.4-.26.64c-.18.46-1.76,4.6-.15,6.61a3,3,0,0,0,2.43,1l.15,0a6.58,6.58,0,0,0,.91,4.26,3.2,3.2,0,0,0,1.52,1.12c-.31,1.28-.76,4.72-1.47,9.34a43.36,43.36,0,0,0-8.49,1.41c-1.1.46-1.72,1-1.72,1.52v0l-.74.72a.55.55,0,0,0-.18.45s0,.05.05.08a.79.79,0,0,0-.22.59A.71.71,0,0,0,167,308.2ZM197.47,313a1.12,1.12,0,0,1-.78.45,1.29,1.29,0,0,1-1.42-1.05c-.05-.29.23-.68.76-1.07a.46.46,0,0,1,.28-.1.41.41,0,0,1,.16,0c.68.27,1.12.6,1.18.9A1.08,1.08,0,0,1,197.47,313Zm3.72-1.43a1,1,0,0,1-.6.47,1.13,1.13,0,0,1-1.35-.69c-.08-.23.12-.6.52-1a.32.32,0,0,1,.3-.1c.64.14,1.07.36,1.16.61A.88.88,0,0,1,201.19,311.59Zm3.32-1.53a.53.53,0,0,1-.35.33,1.09,1.09,0,0,1-1.21-.45c-.12-.2.05-.5.16-.67a.32.32,0,0,1,.33-.16,1.55,1.55,0,0,1,1,.4A.62.62,0,0,1,204.51,310.06Zm1.45-1.82a.32.32,0,0,1-.17.23.71.71,0,0,1-.82-.15.35.35,0,0,1-.07-.27.51.51,0,0,1,.14-.29.78.78,0,0,1,.8.16A.36.36,0,0,1,206,308.24Zm-.92-1.59.66.72a1.12,1.12,0,0,0-.89,0,.89.89,0,0,0-.33.6.43.43,0,0,0,0,.16s-.05,0-.06,0l-.7-.77A5.38,5.38,0,0,0,205,306.65Zm-1.72.87.26.29.71,1.09a3.32,3.32,0,0,0-.79-.21.77.77,0,0,0-.75.35,1.06,1.06,0,0,0-.17,1.08.54.54,0,0,1-.28-.21l-1-1.67a.21.21,0,0,1,0-.13A18.8,18.8,0,0,0,203.32,307.52ZM198,308.8a.33.33,0,0,1,.16-.12c.92-.13,1.77-.29,2.54-.45a.46.46,0,0,1,.14.17l.81,2.12c0,.06,0,.11,0,.17-.21-.49-.91-.74-1.47-.86a.75.75,0,0,0-.71.21,1.72,1.72,0,0,0-.65,1.36s-.09-.08-.11-.14l-.73-2.17A.41.41,0,0,1,198,308.8Zm-3.85.34c1.11-.1,2.17-.21,3.16-.34a.67.67,0,0,1,.11.18l.54,2.58s0,.06,0,.09a3.16,3.16,0,0,0-1.27-.83.94.94,0,0,0-.91.14,2,2,0,0,0-.94,1.34.52.52,0,0,1-.31-.39l-.4-2.61A.29.29,0,0,1,194.13,309.14ZM195.65,282c.44,1.39.94,3.78.07,4.86a2.23,2.23,0,0,1-2.09.6C193.34,286.69,192.73,284.36,195.65,282Zm-4.9-25c.19,1.61.14,3.69-.66,4.41a1.13,1.13,0,0,1-.79.27,2.31,2.31,0,0,0-.58-.64A5,5,0,0,1,190.75,257ZM177.3,287.05a2.21,2.21,0,0,1-2.09-.59c-.87-1.08-.37-3.47.07-4.87C178.22,284,177.6,286.33,177.3,287.05ZM170,309.43a1.07,1.07,0,0,1-1.21.4.54.54,0,0,1-.32-.34.68.68,0,0,1,.13-.55,1.44,1.44,0,0,1,.94-.35h0a.39.39,0,0,1,.34.23C170.06,309,170.15,309.27,170,309.43Zm3.42,1.57a1.11,1.11,0,0,1-1.37.62.88.88,0,0,1-.55-.48.86.86,0,0,1,0-.72c.1-.23.51-.43,1.11-.54h.07a.45.45,0,0,1,.33.16C173.4,310.43,173.55,310.79,173.46,311Zm2.44,2.15a1.07,1.07,0,0,1-.86-1.34c.08-.29.54-.61,1.24-.85a.43.43,0,0,1,.4.09c.5.42.76.83.69,1.12A1.31,1.31,0,0,1,175.9,313.15Zm4.71,1.18a1.51,1.51,0,0,1-1.13-.56,1.11,1.11,0,0,1-.23-.91c.06-.37.69-.81,1.65-1.16a.28.28,0,0,1,.13,0,.45.45,0,0,1,.19.05c.8.46,1.27,1,1.22,1.3A1.67,1.67,0,0,1,180.61,314.33Zm2.64-1.68a.6.6,0,0,1-.22.4c.06-.78-.78-1.43-1.51-1.85a1,1,0,0,0-.83-.07c-.82.3-1.78.81-2,1.52a.42.42,0,0,1,0-.25l.56-3.07a.61.61,0,0,1,.09-.18c1.35.11,2.79.18,4.28.23a.47.47,0,0,1,0,.17Zm4.24,1.7a1.72,1.72,0,0,1-2.38,0,1.47,1.47,0,0,1-.42-1.06c0-.4.57-.93,1.45-1.37a.35.35,0,0,1,.17,0,.33.33,0,0,1,.17,0c.89.45,1.43,1,1.44,1.37h0A1.44,1.44,0,0,1,187.49,314.35Zm1-1.14c-.07-.82-1-1.46-1.77-1.85a1,1,0,0,0-.9,0c-.66.33-1.77,1-1.8,1.91,0,.08,0,.16,0,.24a.71.71,0,0,1-.17-.46l0-.59.32-2.83a1.79,1.79,0,0,0,0-.23c.78,0,1.58,0,2.39,0l1.71,0a.87.87,0,0,1,.1.19l.06,1.35.07,2.09C188.6,313.11,188.55,313.15,188.53,313.21Zm4.61.62a1.6,1.6,0,0,1-1.18.51h0a1.65,1.65,0,0,1-1.71-1.39c0-.36.49-.84,1.35-1.26a.29.29,0,0,1,.23,0c.94.4,1.58.89,1.63,1.26A1.17,1.17,0,0,1,193.14,313.83Zm.77-1.32a3.79,3.79,0,0,0-1.88-1.38.86.86,0,0,0-.72,0c-.65.32-1.74,1-1.7,1.83a.61.61,0,0,1-.33-.48l-.16-3.09h0c1.51,0,3-.11,4.34-.22a.58.58,0,0,1,.07.21l.38,3.08ZM192,302.65c-1,0-2-.09-3-.11l-.85-7.84a7.78,7.78,0,0,0,2-.76l.13.2.19,0Zm-3.73-.12-1.7,0c-1.22,0-2.38,0-3.5.06l.53-7.8a11.16,11.16,0,0,0,2.06.2,11.34,11.34,0,0,0,1.78-.15Zm4.59-14.17a5.74,5.74,0,0,1-.68,3.75,2.12,2.12,0,0,1-.7.6,2.22,2.22,0,0,0,.4-1.23,2.76,2.76,0,0,0-1.39-2.19A3.75,3.75,0,0,1,192.89,288.36Zm-3.21.25-.12.14a9.13,9.13,0,0,0-2-.58l-.42-7.45a2.51,2.51,0,0,0-.12-.78,6.31,6.31,0,0,0,1.54-.43l.22.14a.45.45,0,0,1,.18.38Zm3.44-19.38a10.23,10.23,0,0,1-2.68,7.14,3,3,0,0,0-1.39-1.46C189.62,273.21,191.47,270.92,193.12,269.23Zm-4.54-4.2.24,7.46a10.19,10.19,0,0,0-1,1.93,5.62,5.62,0,0,0-.62-.15v-9.61a1.37,1.37,0,0,0,0-.23l.44-.12a4.26,4.26,0,0,1,.8.44A.4.4,0,0,1,188.58,265ZM186,254.43c.79,1.25,1.87,3.44,1.37,4.85a1.84,1.84,0,0,1-.79.94,6.74,6.74,0,0,0-.79,0,4.93,4.93,0,0,0-.55,0,2.58,2.58,0,0,1-.79-1.32C184.12,257.7,184.66,256.17,186,254.43Zm-.21,7.11c1.48,0,2.39.59,2.39.84s-.51.57-1.4.75a5,5,0,0,0-2,0c-.87-.17-1.38-.55-1.38-.74S184.26,261.54,185.75,261.54Zm1,3.12v9.51c-.31,0-.63-.05-1-.05a9.48,9.48,0,0,0-1.08.07v-9.53a.94.94,0,0,1,0-.16,6.83,6.83,0,0,0,1,.09,7,7,0,0,0,.93-.07A.7.7,0,0,1,186.71,264.66Zm-4.5-3a1.13,1.13,0,0,1-.59-.25c-.81-.72-.85-2.81-.67-4.42a5,5,0,0,1,2.05,3.89A2.36,2.36,0,0,0,182.21,261.63Zm.53,3.27a5.56,5.56,0,0,1,1-.62,4.21,4.21,0,0,0,.42.12,1,1,0,0,0-.06.26v9.63l-.63.16a9.32,9.32,0,0,0-1.13-2.38C182.49,268.8,182.63,265.58,182.74,264.9Zm-1.67,11.43a10.35,10.35,0,0,1-2.92-7.41c1.78,1.82,3.78,4.33,4.17,6.05A3,3,0,0,0,181.07,276.33Zm.77.76c0-1.1,1.79-2,3.91-2s3.9.93,3.9,2-1.47,1.84-3.31,2a1.93,1.93,0,0,0-.77-.16h-.12a2,2,0,0,0-.66.12C183.12,278.82,181.84,278,181.84,277.09Zm5,11a11.37,11.37,0,0,0-1.18-.06,11.09,11.09,0,0,0-1.56.12l.42-7.33a1.51,1.51,0,0,1,.19-.83,8,8,0,0,0,1,.1c.19,0,.36,0,.55-.05a1.46,1.46,0,0,1,.16.73Zm-4.62-8v0a4.92,4.92,0,0,1,.57-.53,6.75,6.75,0,0,0,1.2.39,2.46,2.46,0,0,0-.17.91l-.44,7.47a8.17,8.17,0,0,0-1.71.56,3.22,3.22,0,0,0-.24-.28C181.73,284.8,182.05,280.84,182.25,280Zm3.44,9.14c3,0,5.06,1.22,5.06,2.32s-2.08,2.33-5.06,2.33-5.07-1.23-5.07-2.33S182.7,289.16,185.69,289.16Zm-7,2.6A5.86,5.86,0,0,1,178,288a3.44,3.44,0,0,1,2.73,1.34,2.71,2.71,0,0,0-1.31,2.13,2.14,2.14,0,0,0,.29,1A2.24,2.24,0,0,1,178.72,291.76Zm1.7,2,.24,0,.11-.17a6.59,6.59,0,0,0,2.17,1l-.54,8c-1.19,0-2.32.1-3.38.18C179.53,299.44,180.08,295.3,180.42,293.76Zm5.63,10.05a25.79,25.79,0,0,1,7.78,1,30.73,30.73,0,0,1-15.55,0A25.7,25.7,0,0,1,186.05,303.81Zm-10.62,4.91c1,.14,2.07.26,3.21.37a.25.25,0,0,1,0,.12l-.55,2.6a.61.61,0,0,1-.26.36,2,2,0,0,0-.86-1.5.91.91,0,0,0-.86-.17,2.88,2.88,0,0,0-1.4.88s0-.05,0-.08l.69-2.56Zm-.59-.09a.31.31,0,0,1,0,.19L174,311c0,.05-.06.07-.09.1a1.65,1.65,0,0,0-.5-1.33.9.9,0,0,0-.83-.3,1.94,1.94,0,0,0-1.43.8.38.38,0,0,1,0-.15l.89-2C172.87,308.3,173.81,308.48,174.84,308.63Zm-5.43-1.34a14.61,14.61,0,0,0,2.11.68l-1,1.47,0,0a1.07,1.07,0,0,0-.14-.84.8.8,0,0,0-.81-.46,2.08,2.08,0,0,0-1,.36l.9-1.24Zm-1.54-1a2.84,2.84,0,0,0,1.13.86l-.46.46,0,0a.5.5,0,0,0,0-.17.87.87,0,0,0-.28-.6l-.87-.08Zm-.69,1.05a.78.78,0,0,1,.53-.18.45.45,0,0,1,.26.06.43.43,0,0,1,.12.28.32.32,0,0,1-.09.27.67.67,0,0,1-.81.12.3.3,0,0,1-.14-.23A.42.42,0,0,1,167.18,307.3Z" transform="translate(-94.28 -205.86)"/></svg>